<svg width="150" height="50" viewBox="0 0 150 50" fill="none" xmlns="http://www.w3.org/2000/svg">
<mask id="mask0_3708_56437" style="mask-type:alpha" maskUnits="userSpaceOnUse" x="0" y="0" width="150" height="50">
<rect width="150" height="50" fill="#D9D9D9"/>
</mask>
<g mask="url(#mask0_3708_56437)">
<path fill-rule="evenodd" clip-rule="evenodd" d="M86.5537 35.6795C80.9958 39.803 72.9116 42 65.9389 42C56.1705 42 47.4126 38.3834 40.7431 32.3671C40.2379 31.8939 40.6758 31.2518 41.3158 31.6236C48.4905 35.8147 57.3494 38.3159 66.5116 38.3159C72.6758 38.3159 79.48 37.0315 85.7452 34.3613C86.6884 33.9895 87.4631 35.0035 86.5537 35.6795Z" fill="#FF9900"/>
<path fill-rule="evenodd" clip-rule="evenodd" d="M88.8779 33.0093C88.1705 32.0967 84.1621 32.5699 82.3768 32.8065C81.8379 32.8741 81.7368 32.4009 82.2421 32.0629C85.4421 29.7984 90.6631 30.4744 91.2695 31.2179C91.8758 31.9615 91.101 37.2343 88.1031 39.7354C87.6316 40.1072 87.1937 39.9044 87.3958 39.3974C88.0695 37.7075 89.5853 33.9557 88.8779 33.0093Z" fill="#FF9900"/>
<path fill-rule="evenodd" clip-rule="evenodd" d="M82.4779 16.1772V13.9802C82.4779 13.6422 82.7137 13.4394 83.0168 13.4394H92.7853C93.0884 13.4394 93.3579 13.676 93.3579 13.9802V15.8392C93.3579 16.1434 93.0884 16.549 92.6168 17.2249L87.5642 24.458C89.4505 24.4242 91.4379 24.6946 93.1221 25.641C93.4926 25.8438 93.5937 26.1818 93.6274 26.486V28.8182C93.6274 29.1562 93.2905 29.528 92.92 29.3252C89.9221 27.7366 85.9137 27.5676 82.6126 29.359C82.2758 29.528 81.9053 29.19 81.9053 28.852V26.6212C81.9053 26.2832 81.9053 25.6748 82.2758 25.134L88.1368 16.7179H83.0505C82.7474 16.7179 82.4779 16.4813 82.4779 16.1772ZM46.8737 29.7984H43.9095C43.64 29.7646 43.4042 29.5618 43.3705 29.2914V14.014C43.3705 13.7098 43.64 13.4732 43.9432 13.4732H46.7053C47.0084 13.4732 47.2105 13.7098 47.2442 13.9802V15.9744H47.3116C48.0189 14.0478 49.4 13.1352 51.2189 13.1352C53.0716 13.1352 54.2505 14.0478 55.0589 15.9744C55.7663 14.0478 57.4168 13.1352 59.1684 13.1352C60.4147 13.1352 61.7621 13.6422 62.6042 14.8252C63.5474 16.1096 63.3453 17.9685 63.3453 19.6247V29.2914C63.3453 29.5956 63.0758 29.8322 62.7726 29.8322H59.8421C59.5389 29.7984 59.3032 29.5618 59.3032 29.2914V21.1795C59.3032 20.5373 59.3705 18.9149 59.2358 18.3065C59 17.2925 58.36 16.9883 57.4842 16.9883C56.7768 16.9883 56.0021 17.4615 55.6989 18.2389C55.3958 19.0163 55.4295 20.3007 55.4295 21.1795V29.2914C55.4295 29.5956 55.16 29.8322 54.8568 29.8322H51.8926C51.5895 29.7984 51.3537 29.5618 51.3537 29.2914V21.1795C51.3537 19.4895 51.6232 16.9545 49.5347 16.9545C47.4126 16.9545 47.48 19.3881 47.48 21.1795V29.2914C47.4463 29.5618 47.2105 29.7984 46.8737 29.7984ZM101.779 13.1352C106.192 13.1352 108.583 16.9207 108.583 21.7541C108.583 26.4184 105.956 30.1364 101.779 30.1364C97.4674 30.1364 95.1095 26.3508 95.1095 21.6189C95.0758 16.8531 97.4674 13.1352 101.779 13.1352ZM101.779 16.2785C99.5895 16.2785 99.4547 19.2867 99.4547 21.1457C99.4547 23.0047 99.4211 26.993 101.745 26.993C104.036 26.993 104.171 23.7821 104.171 21.8217C104.171 20.5373 104.103 18.9825 103.733 17.7657C103.396 16.6842 102.722 16.2785 101.779 16.2785ZM114.276 29.7984H111.312C111.008 29.7646 110.773 29.528 110.773 29.2576V13.9464C110.806 13.676 111.042 13.4394 111.345 13.4394H114.107C114.377 13.4394 114.579 13.6422 114.646 13.8788V16.211H114.714C115.556 14.1154 116.701 13.1352 118.756 13.1352C120.069 13.1352 121.383 13.6084 122.225 14.9266C123 16.1433 123 18.2051 123 19.6923V29.3252C122.966 29.5956 122.731 29.7984 122.427 29.7984H119.463C119.194 29.7646 118.958 29.5618 118.924 29.3252V21.0105C118.924 19.3205 119.126 16.8869 117.072 16.8869C116.364 16.8869 115.691 17.3601 115.354 18.1037C114.949 19.0501 114.882 19.9627 114.882 21.0105V29.2576C114.848 29.5618 114.579 29.7984 114.276 29.7984ZM74.6968 22.4977C74.6968 23.6469 74.7305 24.627 74.1579 25.6748C73.6863 26.5198 72.9453 27.0268 72.1032 27.0268C70.9579 27.0268 70.2842 26.148 70.2842 24.8636C70.2842 22.3287 72.5411 21.8555 74.6968 21.8555V22.4977ZM77.6947 29.7646C77.4926 29.9336 77.2232 29.9674 76.9874 29.8322C76.0105 29.021 75.8084 28.6154 75.2695 27.838C73.6526 29.4942 72.4737 30.0012 70.3853 30.0012C67.8926 30.0012 65.9389 28.4464 65.9389 25.3706C65.9389 22.9371 67.2526 21.3147 69.1053 20.5035C70.7221 19.7937 72.979 19.6585 74.6968 19.4557V19.0839C74.6968 18.3741 74.7642 17.5291 74.3263 16.9207C73.9558 16.38 73.2821 16.1434 72.6758 16.1434C71.5305 16.1434 70.52 16.718 70.2842 17.9347C70.2168 18.2051 70.0484 18.4755 69.7789 18.4755L66.9158 18.1713C66.68 18.1037 66.4105 17.9347 66.4779 17.5629C67.1516 14.0478 70.2842 13 73.1137 13C74.5621 13 76.4484 13.3718 77.5937 14.4872C79.0421 15.8392 78.9074 17.6643 78.9074 19.6247V24.2552C78.9074 25.641 79.48 26.2494 80.0189 27.0268C80.2211 27.2972 80.2547 27.6352 80.0189 27.8042C79.3789 28.3112 78.3011 29.2576 77.6947 29.7646ZM35.7916 22.4977C35.7916 23.6469 35.8253 24.627 35.2526 25.6748C34.7811 26.5198 34.04 27.0268 33.1979 27.0268C32.0526 27.0268 31.3789 26.148 31.3789 24.8636C31.3789 22.3287 33.6358 21.8555 35.7916 21.8555V22.4977ZM38.7558 29.7646C38.5537 29.9336 38.2842 29.9674 38.0484 29.8322C37.0716 29.021 36.8695 28.6154 36.3305 27.838C34.7137 29.4942 33.5347 30.0012 31.4463 30.0012C28.9537 30.0012 27 28.4464 27 25.3706C27 22.9371 28.3137 21.3147 30.1663 20.5035C31.7832 19.7937 34.04 19.6585 35.7579 19.4557V19.0839C35.7579 18.3741 35.8253 17.5291 35.3874 16.9207C35.0168 16.38 34.3432 16.1434 33.7368 16.1434C32.5916 16.1434 31.5811 16.718 31.3453 17.9347C31.2779 18.2051 31.1095 18.4755 30.84 18.4755L27.9768 18.1713C27.7411 18.1037 27.4716 17.9347 27.5389 17.5629C28.2126 14.0478 31.3453 13 34.1747 13C35.6232 13 37.5095 13.3718 38.6547 14.4872C40.1032 15.8392 39.9684 17.6643 39.9684 19.6247V24.2552C39.9684 25.641 40.5411 26.2494 41.08 27.0268C41.2821 27.2972 41.3158 27.6352 41.08 27.8042C40.44 28.3112 39.3621 29.2576 38.7558 29.7646Z" fill="black"/>
</g>
</svg>
