<svg width="151" height="50" viewBox="0 0 151 50" fill="none" xmlns="http://www.w3.org/2000/svg">
<mask id="mask0_9548_125552" style="mask-type:alpha" maskUnits="userSpaceOnUse" x="0" y="0" width="151" height="50">
<rect x="0.638062" width="150" height="50" fill="#D9D9D9"/>
</mask>
<g mask="url(#mask0_9548_125552)">
</g>
<g clip-path="url(#clip0_9548_125552)">
<path d="M93.4506 7.78125H58.1224V42.2188H93.4506V7.78125Z" fill="white"/>
<path d="M91.6693 6H59.6068C57.9672 6 56.6381 7.32911 56.6381 8.96875V41.0312C56.6381 42.6709 57.9672 44 59.6068 44H91.6693C93.3084 44 94.6381 42.6709 94.6381 41.0312V8.96875C94.6381 7.32911 93.3084 6 91.6693 6ZM92.5599 39.2794C92.5599 40.7388 91.3772 41.9219 89.9177 41.9219H61.3587C59.8992 41.9219 58.7162 40.7388 58.7162 39.2794V10.7209C58.7162 9.26147 59.8992 8.07842 61.3587 8.07842H89.9172C91.3766 8.07842 92.5596 9.26147 92.5596 10.7209L92.5599 39.2794Z" fill="#2674B3"/>
<path d="M76.5133 14.1929C71.1684 14.1 66.215 18.7137 65.979 24.0661C66.1476 26.097 64.1197 27.1547 63.3131 28.7991C62.7475 29.6651 61.9231 31.1539 62.95 31.9525C64.2259 32.5748 65.8314 32.4166 67.0555 31.7346C65.9558 31.7738 63.4428 32.5597 63.7023 30.6819C64.9652 27.3388 68.0022 25.0959 70.7331 22.9715C74.7009 20.1524 79.1537 17.4478 84.1593 17.2973C82.126 15.3575 79.3505 14.0967 76.5133 14.1929Z" fill="#2674B3"/>
<path d="M87.1414 23.6769C84.4493 26.0059 81.7988 28.5035 78.5258 30.0175C78.9927 28.4153 79.7836 26.9134 80.9094 25.6737C80.8654 26.0994 80.8162 26.5239 80.7692 26.9496C82.9652 25.2738 85.5507 23.8268 86.8481 21.2728C86.5862 21.021 86.3241 20.7696 86.0625 20.5181C83.9001 23.3762 80.9563 25.4896 77.8961 27.2872C77.1254 27.65 76.9989 28.5424 76.6848 29.2424C76.236 30.6247 73.4376 29.865 74.081 28.3892C74.9627 26.5711 76.0881 24.8154 77.5482 23.3993C77.4107 24.1593 77.2165 24.906 77.0372 25.6576C79.8483 24.2211 82.9065 22.5565 84.403 19.6435C84.0524 18.6455 82.8207 18.8916 82.0037 18.9693C77.6497 19.7394 73.739 21.9802 70.1186 24.4256C68.7001 25.3596 67.3695 26.4355 66.2363 27.7064C67.5381 32.1491 71.8173 35.6059 76.5094 35.5053C81.3093 35.7336 85.8319 32.1984 87.0021 27.5796C85.339 28.9907 83.7163 30.5 81.7118 31.4206C82.0696 30.0564 82.6039 28.7365 83.3586 27.5434C83.3586 27.9062 83.3559 28.269 83.3532 28.6326C84.8305 27.2326 87.2966 26.0163 87.1414 23.6769Z" fill="#2674B3"/>
</g>
<defs>
<clipPath id="clip0_9548_125552">
<rect width="38" height="38" fill="white" transform="translate(56.6381 6)"/>
</clipPath>
</defs>
</svg>
