<svg width="151" height="50" viewBox="0 0 151 50" fill="none" xmlns="http://www.w3.org/2000/svg">
<mask id="mask0_9541_123809" style="mask-type:alpha" maskUnits="userSpaceOnUse" x="0" y="-1" width="151" height="51">
<rect x="0.0137939" y="-0.00012207" width="150" height="50" fill="#D9D9D9"/>
</mask>
<g mask="url(#mask0_9541_123809)">
<path d="M87.0237 46.0594H63.0039C57.2647 46.0594 52.6146 41.2018 52.6146 35.1947V14.8051C52.6146 8.80662 57.2647 3.94043 63.0039 3.94043H87.0237C92.7629 3.94043 97.4216 8.80662 97.4216 14.8051V35.1947C97.4216 41.2018 92.7629 46.0594 87.0237 46.0594Z" fill="#FBEE1E"/>
<path d="M63.0039 4.48503C57.5586 4.48503 53.1332 9.10921 53.1332 14.8052V35.1948C53.1332 40.8821 57.5586 45.5149 63.0039 45.5149H87.0237C92.469 45.5149 96.8944 40.8821 96.8944 35.1948V14.8052C96.8944 9.11785 92.469 4.48503 87.0237 4.48503H63.0039ZM87.0237 46.6126H63.0039C56.9795 46.6126 52.0874 41.4958 52.0874 35.2034V14.8052C52.0874 8.51282 56.9881 3.38733 63.0039 3.38733H87.0237C93.0481 3.38733 97.9402 8.50418 97.9402 14.8052V35.1948C97.9402 41.4871 93.0481 46.6126 87.0237 46.6126Z" fill="#8DC63F"/>
<path d="M80.6536 26.8626C80.4029 26.8885 80.1436 26.9144 79.893 26.9317C79.7287 26.949 79.5732 26.9749 79.4176 27.0095C79.262 27.0441 79.1237 27.1046 79.0027 27.1824C78.8817 27.2602 78.7866 27.3639 78.7175 27.4935C78.6397 27.6232 78.6051 27.796 78.6051 27.9948C78.6051 28.2455 78.7002 28.427 78.8903 28.5567C79.0805 28.6777 79.3052 28.7382 79.5559 28.7382C79.8238 28.7382 80.0485 28.6949 80.23 28.6085C80.4116 28.5221 80.5671 28.4011 80.6968 28.2628C80.8264 28.1245 80.9215 27.9603 80.9993 27.7788C81.0684 27.6059 81.1376 27.4244 81.1808 27.2429L81.3537 26.6033C81.1376 26.7502 80.9042 26.8366 80.6536 26.8626ZM78.0606 24.1399C78.2507 23.8633 78.4755 23.6386 78.7434 23.4657C79.0113 23.2929 79.3139 23.1719 79.6509 23.1027C79.988 23.0336 80.3338 22.9904 80.6881 22.9904C80.9734 22.9904 81.2759 23.0163 81.587 23.0595C81.8982 23.1027 82.1834 23.1805 82.4427 23.3102C82.702 23.4312 82.9181 23.604 83.0823 23.8288C83.2552 24.0535 83.333 24.356 83.3244 24.7277C83.3244 25.0475 83.2811 25.4191 83.1861 25.8427L82.6242 28.5048C82.5897 28.6258 82.5637 28.7727 82.5551 28.9456C82.5378 29.1185 82.5378 29.2741 82.5378 29.4037C82.5378 29.5161 82.5637 29.6371 82.5983 29.784H80.861V29.1358C80.6276 29.4123 80.3338 29.6198 79.9967 29.7581C79.6509 29.8877 79.2966 29.9569 78.9335 29.9569C78.5878 29.9569 78.2939 29.905 78.0346 29.8186C77.7753 29.7235 77.5679 29.6025 77.395 29.4383C77.2222 29.2827 77.0925 29.1012 77.0147 28.8851C76.9369 28.6777 76.8937 28.4616 76.8937 28.2282C76.8937 27.5886 77.1098 27.0786 77.5247 26.6897C77.9396 26.3094 78.536 26.0674 79.3052 25.9723C79.7114 25.9204 80.0658 25.8859 80.3683 25.8599C80.6709 25.834 80.9215 25.7908 81.1203 25.7389C81.3191 25.6871 81.466 25.6006 81.5698 25.4969C81.6648 25.3932 81.7167 25.229 81.7167 25.0215C81.7167 24.8487 81.6821 24.7104 81.6043 24.6153C81.5265 24.5116 81.4401 24.4338 81.3277 24.3733C81.2154 24.3128 81.103 24.2696 80.9734 24.2523C80.8437 24.2264 80.7227 24.2177 80.6104 24.2177C80.2992 24.2177 80.0226 24.2955 79.7806 24.4511C79.5386 24.6067 79.383 24.8573 79.3311 25.1858H77.7062C77.7494 24.7622 77.8704 24.4165 78.0606 24.1399Z" fill="black"/>
<path d="M87.3089 24.451C87.1533 24.2954 86.9113 24.2176 86.5656 24.2176C86.2544 24.2176 86.0038 24.2695 85.805 24.3646C85.6062 24.4596 85.5025 24.6325 85.5025 24.8745C85.5025 25.0215 85.563 25.1425 85.6753 25.2462C85.7963 25.3499 85.9951 25.445 86.289 25.5401L87.1533 25.8339C87.3867 25.9117 87.6114 25.9982 87.8102 26.1019C88.009 26.2056 88.1819 26.3266 88.3375 26.4735C88.4844 26.6205 88.6054 26.802 88.6919 27.0008C88.7783 27.2082 88.8215 27.4416 88.8215 27.7182C88.8215 28.1244 88.7351 28.4701 88.5536 28.7554C88.3807 29.0406 88.1473 29.274 87.8621 29.4555C87.5769 29.6284 87.2571 29.758 86.894 29.8358C86.531 29.9136 86.1767 29.9568 85.805 29.9568C85.4938 29.9568 85.1827 29.9222 84.8629 29.8531C84.5431 29.7839 84.2578 29.6716 83.9985 29.516C83.7392 29.3604 83.5318 29.153 83.3676 28.885C83.2033 28.6257 83.1256 28.2973 83.1256 27.9083V27.6317H84.7246V27.8478C84.7246 28.0034 84.7591 28.1331 84.8369 28.2454C84.9061 28.3578 85.0098 28.4442 85.1222 28.522C85.2432 28.5912 85.3728 28.6517 85.5284 28.6862C85.6753 28.7208 85.8309 28.7467 85.9779 28.7467C86.1075 28.7467 86.2372 28.7294 86.3668 28.7122C86.4965 28.6862 86.6175 28.643 86.7212 28.5825C86.8249 28.5134 86.9113 28.4356 86.9805 28.3405C87.0496 28.2454 87.0756 28.1158 87.0756 27.9688C87.0756 27.7355 87.0151 27.5799 86.9027 27.4848C86.7903 27.3897 86.6347 27.3119 86.4532 27.2428L85.1222 26.7933C84.9061 26.7156 84.7073 26.6378 84.5431 26.5513C84.3702 26.4649 84.2319 26.3612 84.1109 26.2315C83.9899 26.1019 83.9035 25.9463 83.843 25.7734C83.7824 25.5919 83.7565 25.3672 83.7565 25.1079C83.7565 24.7189 83.843 24.3905 84.0158 24.1226C84.1887 23.8546 84.4221 23.6472 84.6986 23.4743C84.9752 23.3101 85.2777 23.1891 85.6062 23.1199C85.9346 23.0421 86.2544 23.0076 86.557 23.0076C86.9027 23.0076 87.2311 23.0335 87.5509 23.094C87.8707 23.1545 88.1473 23.2582 88.3893 23.4138C88.6314 23.5694 88.8215 23.7855 88.9598 24.0621C89.0981 24.33 89.1672 24.6844 89.1586 25.1079H87.5423C87.5423 24.8227 87.4559 24.6066 87.3089 24.451Z" fill="black"/>
<path d="M92.2702 20.6566L91.6219 23.9411H91.6479C91.717 23.846 91.8035 23.7423 91.9245 23.6299C92.0455 23.5176 92.1924 23.4138 92.3653 23.3188C92.5381 23.2237 92.7369 23.1459 92.9617 23.0854C93.1864 23.0249 93.4457 22.9903 93.7309 22.9903C94.9669 22.9903 95.5806 23.5867 95.5806 24.7708C95.5806 24.84 95.5719 24.9264 95.5547 25.0301C95.5374 25.1339 95.5201 25.2462 95.5028 25.3586C95.4769 25.4709 95.4596 25.5747 95.4423 25.6697C95.425 25.7648 95.4077 25.8426 95.3991 25.9031L94.6125 29.7753H92.8752L93.6445 25.9031C93.6618 25.7994 93.6791 25.6697 93.7136 25.4969C93.7396 25.324 93.7568 25.1944 93.7568 25.0993C93.7568 24.9005 93.6704 24.7449 93.4975 24.6153C93.3247 24.4856 93.1345 24.4251 92.9271 24.4251C92.6678 24.4251 92.4344 24.477 92.2356 24.5893C92.0368 24.693 91.864 24.8313 91.7257 25.0042C91.5787 25.1771 91.4664 25.3672 91.3713 25.592C91.2762 25.808 91.2071 26.0414 91.1552 26.2661L90.4465 29.784H88.7178L90.5329 20.6566H92.2702Z" fill="black"/>
<path d="M76.5394 27.4503L76.1936 29.1962C76.1936 29.1962 75.2083 30.0001 72.5807 29.7753C72.5807 29.7753 69.0802 29.3086 69.8408 25.6957C69.8408 25.6957 70.9817 21.1234 74.56 20.8468C74.56 20.8468 76.8419 20.527 78.1729 21.8408L76.9542 23.3534C76.9542 23.3534 76.2282 22.1174 74.5946 22.4372C74.5946 22.4372 72.0794 22.9558 71.5522 25.8945C71.5522 25.8945 71.2496 28.2023 73.5315 28.28C73.5315 28.2887 75.3552 28.3233 76.5394 27.4503Z" fill="black"/>
<path d="M56.2102 20.1208C56.2362 19.6282 56.2967 19.0318 56.4263 18.4354C56.8412 16.5857 57.7228 15.5572 59.1144 15.3151L59.1663 15.3065C59.1749 15.3065 59.4861 15.2373 59.9442 15.2373C60.5492 15.2373 61.4049 15.3584 62.1309 15.9288C62.9175 16.5425 63.4188 17.5797 63.6262 19.0145L56.2102 20.1208ZM78.1729 32.8957C79.0459 32.3771 87.1533 30.3545 87.1533 30.3545C79.6942 31.3053 63.2286 35.9986 63.2286 35.9986L76.3146 13.3185C77.153 12.1949 76.9629 10.786 76.9629 10.786C76.4702 9.11787 75.0181 9.69698 75.0181 9.69698L62.7187 11.9442C61.621 12.1863 61.4567 12.9987 61.4654 13.5173C60.1602 13.163 59.0107 13.3877 58.7946 13.4309C54.7755 14.1569 54.1704 19.075 54.4038 21.5643C54.6372 24.4511 55.5534 26.5515 57.1178 27.8047C58.3797 28.816 59.754 28.9975 60.5838 28.9975C61.0246 28.9975 61.3185 28.9457 61.353 28.937C66.9366 27.7702 65.9945 22.42 65.9858 22.3681C65.8908 21.8495 65.4067 21.5124 64.9141 21.6161C64.4214 21.7198 64.1016 22.2212 64.1967 22.7311C64.1967 22.7398 64.3523 23.63 64.0497 24.6067C63.6435 25.9032 62.6236 26.7243 61.0073 27.0701C60.8949 27.0873 59.4428 27.2861 58.1982 26.2749C57.1783 25.4451 56.5387 24.0276 56.288 22.0396L64.7844 20.7604C65.2425 20.6913 65.571 20.2678 65.545 19.7837V19.7578C65.4327 17.9773 64.9919 16.5425 64.2399 15.4707C64.4819 13.8198 66.0463 13.5346 66.0463 13.5346L73.955 12.3851L60.4887 35.8776C58.8551 37.5458 59.6503 40.2079 59.6503 40.2079C60.4109 41.8415 62.7187 40.6487 62.7187 40.6487L77.8704 34.4082C76.5048 34.6848 70.5322 36.2752 70.5322 36.2752C71.9757 35.3244 84.1109 31.7461 84.1109 31.7461C83.0478 31.9449 78.1729 32.8957 78.1729 32.8957Z" fill="#E9262A"/>
</g>
</svg>
