<svg width="151" height="50" viewBox="0 0 151 50" fill="none" xmlns="http://www.w3.org/2000/svg">
<mask id="mask0_9548_125579" style="mask-type:alpha" maskUnits="userSpaceOnUse" x="0" y="0" width="151" height="50">
<rect x="0.434814" width="150" height="50" fill="#D9D9D9"/>
</mask>
<g mask="url(#mask0_9548_125579)">
<path d="M30.5554 23.3323L26.2367 19.0227L30.5554 14.7135L34.874 19.0227L30.5554 23.3323ZM43.5097 19.0227L47.3403 15.2005C48.5329 14.0092 48.5329 12.0806 47.3403 10.8909C46.1481 9.70081 44.2154 9.70081 43.022 10.8909L39.1914 14.7135L32.7139 8.24944C31.5217 7.05976 29.589 7.05976 28.3964 8.24944L19.7595 16.8687C18.5669 18.0584 18.5669 19.987 19.7595 21.1771L30.5554 31.9503L39.1914 23.3323L40.8631 25.0005L30.5554 35.2867L18.0879 22.8453C16.8953 21.6556 14.9626 21.6556 13.7692 22.8453C12.5766 24.0353 12.5766 25.9648 13.7692 27.1549L28.3964 41.7503C29.589 42.9403 31.5217 42.9403 32.7139 41.7503L47.3403 27.1549C48.5329 25.9648 48.5329 24.0353 47.3403 22.8453L43.5097 19.0227Z" fill="black"/>
<path d="M79.0291 22.9023V32.7275H76.6032V29.8423C75.59 31.8696 73.4842 33.1171 70.4985 33.1171C65.1936 33.1171 61.8347 29.0885 61.8347 23.6302C61.8347 18.1715 65.1403 14.1429 70.5518 14.1429C74.4703 14.1429 77.0031 15.9886 78.1758 18.5618L75.6167 19.8092C74.7636 17.8599 73.1113 16.6122 70.4985 16.6122C66.8996 16.6122 64.6337 19.3153 64.6337 23.6302C64.6337 27.9968 67.0862 30.6479 70.8984 30.6479C73.8041 30.6479 76.3099 28.9066 76.4966 25.2676H69.5125V22.9023H79.0291Z" fill="black"/>
<path d="M83.8005 24.9037H91.8778C91.6915 23.0581 90.3051 21.3687 87.826 21.3687C85.5065 21.3687 84.1474 22.7724 83.8005 24.9037ZM94.3572 26.905H83.7472C84.0672 29.2966 85.6668 30.8559 87.8793 30.8559C89.5586 30.8559 90.5184 30.1021 91.1582 28.9843L93.4241 30.258C92.0644 32.4933 89.9852 33.1172 87.8523 33.1172C83.9608 33.1172 81.1348 30.31 81.1348 26.0994C81.1348 22.0446 83.7738 19.1334 87.9059 19.1334C91.6644 19.1334 94.4372 21.8106 94.4372 25.6056C94.4372 26.1775 94.3839 26.6711 94.3572 26.905Z" fill="black"/>
<path d="M96.5427 14.5328H99.1017V32.7275H96.5427V14.5328Z" fill="black"/>
<path d="M110.378 27.6068V26.879H106.753C104.62 26.879 103.66 27.7109 103.66 28.9067C103.66 30.1021 104.86 30.9079 106.619 30.9079C108.432 30.9079 110.378 30.076 110.378 27.6068ZM114.323 30.5959V32.7276H113.284C111.738 32.7276 110.911 32.1817 110.698 30.986C110.005 32.1557 108.512 33.0392 106.299 33.0392C103.634 33.0392 101.075 31.8958 101.075 28.9587C101.075 26.1251 103.607 24.8517 106.46 24.8517H110.378V24.1498C110.378 22.3045 109.125 21.3946 107.313 21.3946C105.633 21.3946 104.62 22.2525 104.114 23.3184L101.794 21.9926C102.727 20.3293 104.646 19.1334 107.259 19.1334C110.778 19.1334 112.937 21.0567 112.937 23.8118V29.5302C112.937 30.3364 113.23 30.5959 114.057 30.5959H114.323Z" fill="black"/>
<path d="M119.575 21.6547V28.7506C119.575 30.154 120.028 30.622 121.654 30.622H123.467V32.7272H120.961C118.375 32.7272 117.016 31.5834 117.016 29.1662V21.6547H114.323V19.549H117.016V14.533H119.575V19.549H123.467V21.6547H119.575Z" fill="black"/>
<path d="M135.409 26.1252C135.409 23.2661 133.703 21.3944 131.117 21.3944C128.504 21.3944 126.772 23.2661 126.772 26.1252C126.772 29.0363 128.504 30.882 131.117 30.882C133.703 30.882 135.409 29.0363 135.409 26.1252ZM124.186 26.1252C124.186 21.7847 127.146 19.1335 131.117 19.1335C135.036 19.1335 137.995 21.7847 137.995 26.1252C137.995 30.4921 135.036 33.1429 131.117 33.1429C127.146 33.1429 124.186 30.4921 124.186 26.1252Z" fill="black"/>
</g>
</svg>
