<svg width="151" height="51" viewBox="0 0 151 51" fill="none" xmlns="http://www.w3.org/2000/svg">
<mask id="mask0_9548_125207" style="mask-type:alpha" maskUnits="userSpaceOnUse" x="0" y="0" width="151" height="51">
<rect x="0.434814" y="0.105469" width="150" height="50" fill="#D9D9D9"/>
</mask>
<g mask="url(#mask0_9548_125207)">
<path fill-rule="evenodd" clip-rule="evenodd" d="M64.8344 36.8366L71.455 26.0503H59.166L64.8344 36.8366Z" fill="#FAAF3B"/>
<path fill-rule="evenodd" clip-rule="evenodd" d="M65.8313 36.3754L61.0704 44.4094H66.5752L78.1054 26.1246H72.0948L68.3456 32.1204M81.3636 26.1246L69.8334 44.3647H75.353L86.8684 26.1246" fill="#0D8484"/>
<path fill-rule="evenodd" clip-rule="evenodd" d="M74.3412 26.1246H90.3942L88.3858 30.1267H75.1" fill="#0D8484"/>
<path d="M58.8088 22.6135C59.2254 18.8345 62.3944 15.8887 66.2626 15.8887C68.0181 15.8887 69.6398 16.4987 70.9193 17.5253C72.3624 12.69 76.8257 9.164 82.0925 9.164C88.5345 9.164 93.7566 14.4307 93.7566 20.9174C93.7566 21.5423 93.712 22.1671 93.6078 22.7771C96.5536 23.4764 98.7555 26.1395 98.7555 29.3233C98.7555 33.0279 95.7651 36.048 92.0903 36.048H82.0627C81.7354 36.6134 80.441 38.2946 80.084 39.4104H92.0903C97.6099 39.4104 102.088 34.9025 102.088 29.3233C102.088 25.6039 100.08 22.3308 97.0892 20.5901C96.9107 12.3925 90.2752 5.80164 82.0925 5.80164C76.7067 5.80164 71.9756 8.67304 69.3423 12.9727C68.3603 12.6751 67.3338 12.5264 66.2626 12.5264C61.6207 12.5264 57.6632 15.4722 56.1308 19.6082C51.8907 20.7835 48.7812 24.6815 48.7812 29.3382C48.7812 34.8876 53.2594 39.4253 58.7791 39.4253H61.5315C61.5463 39.5146 62.8109 37.1788 63.4209 36.0629H58.7642C55.0894 36.0629 52.099 33.0427 52.099 29.3382C52.099 25.6336 55.0894 22.6135 58.7642 22.6135H58.8088Z" fill="#0D8484"/>
</g>
</svg>
