<svg width="150" height="50" viewBox="0 0 150 50" fill="none" xmlns="http://www.w3.org/2000/svg">
<mask id="mask0_8235_139536" style="mask-type:alpha" maskUnits="userSpaceOnUse" x="0" y="0" width="150" height="50">
<rect width="150" height="50" fill="#D9D9D9"/>
</mask>
<g mask="url(#mask0_8235_139536)">
<path d="M138.875 17H103.732C102.845 17 102.074 17.5382 101.747 18.3571L96.1429 32.9581C95.7226 34.0579 96.2597 35.298 97.3572 35.7192C97.5907 35.8128 97.8475 35.8596 98.1277 35.8596L138.735 36C139.903 36 140.86 35.064 140.883 33.8941L141 19.1527C141 17.9828 140.066 17.0234 138.875 17Z" stroke="#C2C2C2" stroke-width="2.5719" stroke-miterlimit="10"/>
<path d="M118.224 24.5698C117.198 24.5926 116.411 25.4104 116.435 26.3646C116.435 26.3873 116.435 26.4328 116.435 26.4555C116.363 27.4551 117.174 28.3184 118.224 28.3866C118.248 28.3866 118.271 28.3866 118.295 28.3866C119.321 28.3411 120.084 27.5233 120.037 26.5464C120.037 26.5236 120.037 26.5236 120.037 26.5009C120.132 25.5013 119.345 24.6153 118.295 24.5471C118.271 24.5698 118.248 24.5698 118.224 24.5698ZM103.91 30.6812C103.91 30.772 103.839 30.8402 103.743 30.8402H101.191C101.095 30.8629 101.024 30.7947 101 30.7039V30.6812V28.2275C101 28.1367 101.072 28.0685 101.167 28.0685H103.72C103.815 28.0685 103.887 28.1367 103.887 28.2275L103.91 30.6812ZM109.254 30.9992C106.749 30.9765 104.745 29.0227 104.793 26.6372C104.793 26.6145 104.793 26.5918 104.793 26.5464C104.721 24.1609 106.701 22.1617 109.206 22.0935C109.254 22.0935 109.326 22.0935 109.373 22.0935C110.876 22.0254 112.284 22.7751 113.023 24.0019L110.995 25.524C110.566 24.7062 109.516 24.3881 108.658 24.797C107.99 25.1151 107.608 25.8194 107.727 26.5236C107.727 27.6369 108.419 28.4775 109.421 28.4775C110.089 28.4547 110.709 28.1367 111.067 27.5914L113.071 29.0454C112.284 30.3177 110.805 31.0447 109.278 30.9765L109.254 30.9992ZM122.971 26.5236C122.995 28.9773 120.919 30.9765 118.343 30.9992C118.295 30.9992 118.271 30.9992 118.224 30.9992C115.671 31.0447 113.572 29.1136 113.524 26.6827C113.524 26.6372 113.524 26.5918 113.524 26.5464C113.524 24.07 115.647 22.0481 118.248 22.0481C120.848 22.0481 122.971 24.07 122.971 26.5464V26.5236ZM138 30.7947H134.994V26.1147C134.994 25.1832 134.541 24.6834 133.825 24.6834C133.11 24.6834 132.609 25.1832 132.609 26.1147V30.7947H129.603V26.1147C129.603 25.1832 129.15 24.6834 128.434 24.6834C127.718 24.6834 127.217 25.1832 127.217 26.1147V30.7947H124.211V22.2071H127.217V23.3658C127.766 22.5479 128.72 22.0254 129.746 22.0026C130.772 21.9572 131.75 22.5024 132.203 23.3885C132.871 22.5024 133.921 22.0026 135.066 22.0026C136.903 22.0026 137.976 23.1613 137.976 25.1378L138 30.7947Z" fill="#F89632"/>
<path d="M12.3848 9H12.9028C12.9264 9.02385 12.9264 9.04769 12.9028 9.07154C12.738 9.14307 12.5732 9.14307 12.4084 9.07154C12.3848 9.07154 12.3613 9.04769 12.3848 9ZM12.9264 9.04769V9H13.3502V9.04769C13.2325 9.16692 13.0441 9.16692 12.9264 9.04769ZM12.3848 9V9.04769C12.2671 9.16692 12.1023 9.16692 11.9846 9.04769V9H12.3848ZM84.1038 41H83.9626C83.162 40.8808 82.385 40.6662 81.6551 40.3323C81.3961 40.2131 81.1371 40.07 80.8781 39.927C80.6191 39.7839 80.6662 39.8078 80.7604 39.5931C81.2313 38.4963 81.7022 37.3994 82.1731 36.2787C82.2909 36.0164 82.4086 35.7541 82.5028 35.4918C82.6205 35.5156 82.7147 35.5633 82.8089 35.6349C83.5388 36.0879 84.4099 36.2072 85.234 35.9925C86.011 35.8018 86.6703 35.2533 86.9999 34.4903C87.1176 34.228 87.2118 33.9657 87.3295 33.7273C87.4002 33.5842 87.4002 33.3934 87.3295 33.2504C86.3642 31.0328 85.3988 28.7914 84.457 26.5738C83.0208 23.2355 81.5845 19.8972 80.1482 16.5589C80.1011 16.4635 80.0776 16.3681 80.054 16.2727C80.1482 16.2489 80.266 16.2489 80.3601 16.2727H86.3406C86.6938 16.2727 86.6467 16.225 86.7409 16.5589C87.565 19.1818 88.3891 21.7809 89.2132 24.4039C89.4722 25.2384 89.6605 26.0969 89.8254 26.9553V27.0507C89.896 27.0507 89.896 26.9791 89.9195 26.9314C90.3904 24.4754 91.0968 22.1386 91.7325 19.7541C92.0151 18.6572 92.3447 17.5842 92.6037 16.5112C92.6743 16.2489 92.6743 16.2489 92.9098 16.2489H98.8903H98.9845C99.0316 16.3681 98.9609 16.4635 98.9138 16.5589L95.4998 25.8823C94.3225 29.1013 93.1452 32.3204 91.968 35.5395C91.5206 36.8748 90.7672 38.0671 89.7547 39.0447C88.6716 40.0462 87.306 40.69 85.8697 40.8808L85.493 40.9523H84.0803L84.1038 41ZM31.6213 18.8957C31.9039 18.4426 32.2335 18.0134 32.6103 17.6319C33.5285 16.7019 34.7293 16.1297 36.0243 15.9627C37.131 15.7958 38.2611 15.8674 39.3442 16.1297C41.1807 16.535 42.617 17.9419 43.0644 19.7779C43.2998 20.5648 43.4175 21.3994 43.394 22.234C43.394 26.0015 43.394 29.769 43.394 33.5127C43.394 33.5604 43.394 33.6319 43.394 33.6796C43.394 33.775 43.3469 33.8227 43.2527 33.8227H37.6725C37.5548 33.8227 37.5077 33.775 37.5312 33.6557V23.5693C37.5312 23.1878 37.5077 22.8063 37.4135 22.4486C37.2487 21.7332 36.6365 21.2325 35.9301 21.2325C35.3651 21.1848 34.7764 21.2563 34.2584 21.4471C33.3872 21.7809 32.7044 22.4486 32.3513 23.3308C31.9981 24.2131 31.8333 25.1431 31.8568 26.0969C31.8568 28.5529 31.8568 30.9374 31.8568 33.3696V33.5365C31.8568 33.8226 31.8568 33.8227 31.5743 33.8227H26.1824C26.0647 33.8227 25.994 33.775 25.994 33.6557C25.994 33.5365 25.994 33.5127 25.994 33.4411V16.6304C25.994 16.2012 25.994 16.2489 26.3707 16.2489H31.3388C31.5978 16.2489 31.5978 16.2489 31.5978 16.5112C31.5978 17.2027 31.5978 17.8942 31.5507 18.5618C31.5743 18.7049 31.5978 18.8003 31.6213 18.8957ZM74.0735 31.3428C73.273 32.7258 71.9545 33.7273 70.4005 34.0611C68.9878 34.4188 67.4809 34.3711 66.1152 33.8942C64.5377 33.3934 63.3133 32.1058 62.8895 30.4844C62.6305 29.6259 62.5128 28.7437 62.5363 27.8376C62.5363 25.6438 62.5363 23.4501 62.5363 21.2563V16.6781C62.5363 16.6066 62.5363 16.5112 62.5363 16.4396C62.5363 16.3681 62.5834 16.2727 62.7012 16.2727C62.8189 16.2727 62.8189 16.2727 62.8895 16.2727H68.1637C68.4227 16.2727 68.4227 16.2727 68.4227 16.5112V26.6453C68.4227 27.003 68.4698 27.3607 68.5404 27.6945C68.7052 28.4098 69.3174 28.9106 70.0473 28.9106C71.4129 29.0298 72.7079 28.2906 73.2965 27.0268C73.6497 26.3592 73.8381 25.6438 73.9087 24.8808C73.9558 24.4516 73.9558 24.0224 73.9558 23.617C73.9558 21.304 73.9558 18.9911 73.9558 16.6781V16.4396C73.9558 16.3204 74.0029 16.2727 74.1206 16.2966C74.2384 16.3204 74.2384 16.2966 74.309 16.2966H79.489C79.8421 16.2966 79.8186 16.2966 79.8186 16.6066V33.608C79.8186 33.8703 79.8186 33.8703 79.5596 33.8703H74.4974C74.2384 33.8703 74.2384 33.8703 74.2384 33.5842C74.2384 32.9165 74.2384 32.2489 74.2384 31.5812C74.1442 31.5097 74.2619 31.3905 74.0735 31.3428ZM74.0735 31.3428C74.0735 31.2951 74.0735 31.2712 74.1442 31.2474C74.2148 31.2474 74.2148 31.2951 74.1913 31.3189C74.1913 31.4143 74.1913 31.4858 74.1442 31.5812C74.1206 31.5097 74.1677 31.4143 74.0735 31.3428ZM24.9109 18.4903C23.8985 14.2459 21.285 11.3845 17.2116 9.83458C15.9637 9.38152 14.6452 9.11923 13.3266 9.07154C13.1854 9.09538 13.0441 9.09538 12.9264 9.07154C12.738 9.09538 12.5732 9.09538 12.3848 9.07154C12.2436 9.09538 12.1023 9.09538 11.9846 9.07154C11.1369 9.11923 10.2893 9.23845 9.44167 9.42921C7.20486 9.92996 5.15642 11.0745 3.5318 12.7198C1.48335 14.7705 0.258999 17.5127 0.0470908 20.4218C0.0706361 20.6841 0.0470906 20.9464 0 21.2086V21.924C0.0470906 22.1863 0.0706361 22.4486 0.0470908 22.7109C0.0941814 23.4739 0.211908 24.2131 0.40027 24.9285C1.27145 28.6006 3.76725 31.6289 7.15777 33.155C10.1009 34.538 13.4444 34.7526 16.5524 33.775C19.3307 32.9642 21.6852 31.152 23.2157 28.6721C25.1935 25.6438 25.7821 21.9478 24.9109 18.4903ZM17.7532 26.0969C16.8349 27.4322 15.4457 28.3621 13.8682 28.696C13.4679 28.7675 13.0676 28.8152 12.6674 28.8152C10.3364 28.8152 8.19377 27.4799 7.13423 25.3815C5.90987 23.2355 5.79215 20.6125 6.85168 18.3949C7.67577 16.392 9.46521 14.9613 11.5843 14.6513C14.1272 14.1505 16.7172 15.2951 18.0593 17.5365C18.695 18.5142 19.0717 19.6587 19.1659 20.8271C19.3307 22.687 18.8362 24.5708 17.7532 26.0969ZM61.9477 24.8092C61.5474 23.0924 60.276 21.7094 58.6278 21.161C58.5572 21.1371 58.4865 21.1133 58.4395 21.0656C58.4395 21.0417 58.463 21.0179 58.463 21.0179C58.5101 20.9702 58.5572 20.9463 58.6043 20.9225C59.0516 20.6364 59.4754 20.2548 59.8051 19.8495C61.2884 17.9657 61.6181 15.3905 60.6292 13.1729C60.017 11.9091 58.981 10.9314 57.7096 10.383C56.3675 9.76304 54.9077 9.45306 53.4243 9.4769C50.387 9.4769 47.3732 9.4769 44.3829 9.4769H44.2652C44.1945 9.4769 44.1475 9.52459 44.1475 9.57228V9.59613C44.1475 9.64382 44.1475 9.69151 44.1475 9.7392V33.5604C44.1475 33.8465 44.1475 33.8465 44.43 33.8465H52.9063C53.801 33.8465 54.7193 33.7988 55.614 33.6557C56.6971 33.4888 57.7566 33.1311 58.7455 32.6304C59.7815 32.1058 60.6527 31.3189 61.2649 30.3174C62.2303 28.6721 62.4892 26.6692 61.9477 24.8092ZM50.0338 14.8182C50.0338 14.6036 50.0338 14.5797 50.2692 14.5797H53.1653C53.3772 14.5797 53.5656 14.6036 53.7775 14.6751C54.7428 14.9374 55.355 15.8912 55.1902 16.8927C55.1667 17.1788 55.096 17.4888 54.9783 17.7511C54.7193 18.4188 54.0836 18.848 53.3772 18.8957C52.9299 18.8957 52.4825 18.8957 52.0587 18.8957H50.2928C50.0573 18.8957 50.0338 18.8957 50.0338 18.6572C50.0338 18.6334 50.0338 14.8182 50.0338 14.8182ZM56.132 26.4784C56.1085 26.6453 56.0849 26.8122 56.0378 26.9791C55.8024 27.9568 54.9547 28.6721 53.9658 28.7437C53.542 28.7675 53.1182 28.7437 52.6944 28.7437H50.3399C50.0573 28.7437 50.0573 28.7437 50.0573 28.4337V23.9985C50.0573 23.7362 50.0573 23.7362 50.3163 23.7362C51.47 23.7362 52.6002 23.7362 53.7539 23.7362C54.5309 23.6885 55.2844 24.07 55.7317 24.7139C56.0614 25.2146 56.2262 25.8584 56.132 26.4784Z" fill="#1E8AC6"/>
</g>
</svg>
