<svg width="151" height="50" viewBox="0 0 151 50" fill="none" xmlns="http://www.w3.org/2000/svg">
<mask id="mask0_9548_125234" style="mask-type:alpha" maskUnits="userSpaceOnUse" x="0" y="0" width="151" height="50">
<rect x="0.231689" width="150" height="50" fill="#D9D9D9"/>
</mask>
<g mask="url(#mask0_9548_125234)">
<path d="M71.1592 29.2364C69.7549 31.5301 67.2271 33.0281 64.3717 33.0281C59.9246 33.0281 56.367 29.4237 56.367 25.0235C56.367 20.5764 59.9714 17.0188 64.3717 17.0188C67.9293 17.0188 70.972 19.3594 72.0018 22.5893H78.0872C76.9169 16.0358 71.206 11.0739 64.3248 11.0739C56.6011 11.0739 50.3752 17.3465 50.3752 25.0235C50.3752 32.7472 56.6479 38.9731 64.3248 38.9731C70.5507 38.9731 75.8403 34.9005 77.6659 29.2364H71.1592Z" fill="url(#paint0_linear_9548_125234)"/>
<path d="M42.4174 11.027C34.6936 11.027 28.4678 17.2996 28.4678 25.0234C28.4678 32.7472 34.7404 38.973 42.4174 38.973C50.0943 38.973 56.367 32.7004 56.367 25.0234C56.4138 17.2996 50.1411 11.027 42.4174 11.027ZM42.4174 33.028C37.9704 33.028 34.4127 29.4236 34.4127 25.0234C34.4127 20.5764 38.0172 17.0188 42.4174 17.0188C46.8176 17.0188 50.4688 20.5764 50.4688 25.0234C50.4688 29.4236 46.8644 33.028 42.4174 33.028Z" fill="url(#paint1_linear_9548_125234)"/>
<path d="M71.1124 29.2364C69.7081 31.5301 67.1803 33.028 64.3248 33.028C59.8778 33.028 56.3202 29.4236 56.3202 25.0234C56.3202 24.8362 56.3202 24.6489 56.367 24.4617H50.3752C50.3752 24.6489 50.3752 24.8362 50.3752 25.0234C50.3752 32.7472 56.6479 38.973 64.3248 38.973C70.5507 38.973 75.8403 34.9005 77.6659 29.2364H71.1124Z" fill="#EC6925"/>
<path d="M35.5362 20.9509C36.9406 18.6572 39.4683 17.1593 42.3238 17.1593C46.7708 17.1593 50.3284 20.7637 50.3284 25.1639C50.3284 25.3511 50.3284 25.5384 50.2816 25.7256H56.2266C56.2266 25.5384 56.2266 25.3511 56.2266 25.1639C56.3202 17.4401 50.0476 11.1675 42.3238 11.1675C36.098 11.1675 30.8083 15.2868 29.0295 20.9509H35.5362Z" fill="#EC6925"/>
<path d="M84.1726 17.0657C84.1726 16.6444 84.2662 16.2699 84.4067 15.989C84.5471 15.6614 84.7343 15.4273 85.0152 15.1933C85.2493 15.006 85.5301 14.8188 85.811 14.7251C86.0918 14.6315 86.4195 14.5847 86.7004 14.5847C86.9812 14.5847 87.3089 14.6315 87.5898 14.7251C87.8707 14.8188 88.1515 15.006 88.3856 15.1933C88.6196 15.4273 88.8069 15.6614 88.9473 15.989C89.0877 16.3167 89.1814 16.6912 89.1814 17.0657V22.4957C89.1814 22.917 89.0877 23.2915 88.9473 23.6192C88.8069 23.9469 88.6196 24.1809 88.3856 24.3682C88.1515 24.6022 87.8707 24.7426 87.5898 24.8363C87.3089 24.9299 86.9812 24.9767 86.7004 24.9767C86.4195 24.9767 86.0918 24.9299 85.811 24.8363C85.5301 24.7426 85.2493 24.5554 85.0152 24.3682C84.7811 24.1809 84.5939 23.9001 84.4067 23.6192C84.2662 23.2915 84.1726 22.9638 84.1726 22.4957V17.0657ZM85.6705 22.4957C85.6705 22.8702 85.7642 23.1043 85.9514 23.2915C86.1387 23.4788 86.3727 23.5256 86.6536 23.5256C86.9344 23.5256 87.1685 23.4319 87.3557 23.2915C87.543 23.1043 87.6366 22.8702 87.6366 22.4957V17.0657C87.6366 16.6912 87.543 16.4571 87.3557 16.2699C87.1685 16.0827 86.9344 16.0359 86.6536 16.0359C86.3727 16.0359 86.1387 16.1295 85.9514 16.2699C85.7642 16.4571 85.6705 16.6912 85.6705 17.0657V22.4957Z" fill="#EC6925"/>
<path d="M90.9133 24.9298V14.6315H93.3007C95.0327 14.6315 95.9221 15.6145 95.9221 17.6274C95.9221 18.2359 95.8285 18.7508 95.6412 19.1721C95.454 19.5934 95.1263 19.9211 94.6582 20.2019L96.2498 24.883H94.6582L93.2539 20.4828H92.3645V24.883H90.9133V24.9298ZM92.4113 16.0358V19.2189H93.2539C93.5347 19.2189 93.722 19.1721 93.8624 19.1253C94.0028 19.0317 94.1433 18.9381 94.2369 18.7976C94.3305 18.6572 94.3773 18.5168 94.3773 18.2827C94.4241 18.0955 94.4241 17.8614 94.4241 17.5805C94.4241 17.2997 94.4241 17.1124 94.3773 16.8784C94.3305 16.6911 94.2837 16.5039 94.1901 16.3635C94.0028 16.0826 93.6752 15.9422 93.1134 15.9422H92.4113V16.0358Z" fill="#EC6925"/>
<path d="M96.9051 24.9298L99.2456 14.6315H100.51L102.85 24.9298H101.352L100.931 22.7297H98.918L98.4967 24.9298H96.9051ZM100.556 21.3254L99.8074 17.5805H99.7605L99.0116 21.3254H100.556Z" fill="#EC6925"/>
<path d="M103.88 24.9298V14.6315H105.331L107.578 20.8105H107.625V14.6315H109.123V24.9298H107.718L105.425 18.7508H105.378V24.9298H103.88Z" fill="#EC6925"/>
<path d="M110.761 17.0657C110.761 16.6444 110.855 16.2699 110.995 15.989C111.136 15.6614 111.323 15.4273 111.604 15.1933C111.838 15.006 112.119 14.8188 112.399 14.7251C112.68 14.6315 113.008 14.5847 113.289 14.5847C113.57 14.5847 113.897 14.6315 114.178 14.7251C114.459 14.8188 114.74 15.006 114.974 15.1933C115.208 15.4273 115.395 15.6614 115.536 15.989C115.676 16.3167 115.77 16.6912 115.77 17.0657V17.5806H114.272V17.0657C114.272 16.6912 114.178 16.4571 113.991 16.2699C113.804 16.0827 113.57 16.0359 113.289 16.0359C113.008 16.0359 112.774 16.1295 112.587 16.2699C112.399 16.4571 112.306 16.6912 112.306 17.0657V22.4957C112.306 22.8702 112.399 23.1043 112.587 23.2915C112.774 23.4788 113.008 23.5256 113.289 23.5256C113.57 23.5256 113.804 23.4319 113.991 23.2915C114.178 23.1043 114.272 22.8702 114.272 22.4957V20.5765H113.102V19.2658H115.77V22.4957C115.77 22.917 115.676 23.2915 115.536 23.6192C115.395 23.9469 115.208 24.1809 114.974 24.3682C114.74 24.6022 114.459 24.7426 114.178 24.8363C113.897 24.9299 113.57 24.9767 113.289 24.9767C113.008 24.9767 112.68 24.9299 112.399 24.8363C112.119 24.7426 111.838 24.5554 111.604 24.3682C111.37 24.1809 111.182 23.9001 110.995 23.6192C110.855 23.2915 110.761 22.9638 110.761 22.4957V17.0657Z" fill="#EC6925"/>
<path d="M117.502 24.9298V14.6315H121.949V16.0358H119V19.0317H121.574V20.436H119V23.4319H121.949V24.883H117.502V24.9298Z" fill="#EC6925"/>
<path d="M88.9941 34.7133V35.3686C88.9941 35.6963 88.9473 35.9772 88.8069 36.258C88.6664 36.5389 88.526 36.773 88.292 37.007C88.0579 37.2411 87.8238 37.3815 87.543 37.5219C87.2621 37.6624 86.9344 37.7092 86.6068 37.7092C86.3259 37.7092 86.045 37.6624 85.7642 37.6156C85.4833 37.5219 85.2024 37.3815 84.9684 37.1943C84.7343 37.007 84.5471 36.773 84.4067 36.4453C84.2662 36.1644 84.1726 35.7431 84.1726 35.275V29.6577C84.1726 29.3301 84.2194 29.0024 84.3598 28.7215C84.4535 28.4407 84.6407 28.1598 84.8748 27.9725C85.1088 27.7385 85.3429 27.5981 85.6237 27.4576C85.9046 27.3172 86.2323 27.2704 86.6068 27.2704C87.3089 27.2704 87.8707 27.5044 88.3388 27.9257C88.5728 28.1598 88.7133 28.3938 88.8537 28.7215C88.9941 29.0024 89.0409 29.3769 89.0409 29.7045V30.2663H87.543V29.7982C87.543 29.5173 87.4494 29.2364 87.3089 29.0492C87.1217 28.8151 86.9344 28.7215 86.6536 28.7215C86.2791 28.7215 86.045 28.8151 85.9046 29.0492C85.7642 29.2832 85.7174 29.5641 85.7174 29.8918V35.1346C85.7174 35.4155 85.7642 35.6963 85.9046 35.8836C86.045 36.0708 86.2791 36.1644 86.6068 36.1644C86.7004 36.1644 86.794 36.1644 86.9344 36.1176C87.0281 36.0708 87.1685 36.024 87.2621 35.9304C87.3557 35.8368 87.4026 35.7431 87.4962 35.6027C87.543 35.4623 87.5898 35.3218 87.5898 35.0878V34.5729H88.9941V34.7133Z" fill="#EC6925"/>
<path d="M90.5388 29.7981C90.5388 29.3768 90.6324 29.0023 90.7729 28.7215C90.9133 28.3938 91.1005 28.1597 91.3814 27.9257C91.6155 27.7384 91.8963 27.5512 92.1772 27.4576C92.4581 27.364 92.7857 27.3171 93.0666 27.3171C93.3475 27.3171 93.6751 27.364 93.956 27.4576C94.2369 27.5512 94.5177 27.7384 94.7518 27.9257C94.9858 28.1597 95.1731 28.3938 95.3135 28.7215C95.4539 29.0491 95.5476 29.4236 95.5476 29.7981V35.2282C95.5476 35.6495 95.4539 36.0239 95.3135 36.3516C95.1731 36.6793 94.9858 36.9133 94.7518 37.1006C94.5177 37.3346 94.2369 37.4751 93.956 37.5687C93.6751 37.6623 93.3475 37.7091 93.0666 37.7091C92.7857 37.7091 92.4581 37.6623 92.1772 37.5687C91.8963 37.4751 91.6155 37.2878 91.3814 37.1006C91.1474 36.9133 90.9601 36.6325 90.7729 36.3516C90.6324 36.0239 90.5388 35.6963 90.5388 35.2282V29.7981ZM92.0368 35.2282C92.0368 35.6026 92.1304 35.8367 92.3176 36.0239C92.5049 36.2112 92.7389 36.258 93.0198 36.258C93.3006 36.258 93.5347 36.1644 93.7219 36.0239C93.9092 35.8367 94.0028 35.6026 94.0028 35.2282V29.7981C94.0028 29.4236 93.9092 29.1896 93.7219 29.0023C93.5347 28.8151 93.3006 28.7683 93.0198 28.7683C92.7389 28.7683 92.5049 28.8619 92.3176 29.0023C92.1304 29.1896 92.0368 29.4236 92.0368 29.7981V35.2282Z" fill="#EC6925"/>
<path d="M97.2328 37.6624V27.364H98.6839L100.931 33.543H100.978V27.364H102.476V37.6624H101.071L98.7775 31.4834H98.7307V37.6624H97.2328Z" fill="#EC6925"/>
<path d="M104.161 37.6624V27.364H105.612L107.859 33.543H107.906V27.364H109.404V37.6624H107.999L105.706 31.4834H105.659V37.6624H104.161Z" fill="#EC6925"/>
<path d="M111.136 37.6624V27.364H115.583V28.7683H112.634V31.7642H115.208V33.1685H112.634V36.1644H115.583V37.6156H111.136V37.6624Z" fill="#EC6925"/>
<path d="M116.238 37.6624L118.344 32.2791L116.378 27.364H117.97L119.093 30.4067L120.217 27.364H121.808L119.842 32.2791L121.996 37.6624H120.404L119.093 34.1984L117.829 37.6624H116.238Z" fill="#EC6925"/>
</g>
<defs>
<linearGradient id="paint0_linear_9548_125234" x1="50.3832" y1="25.0087" x2="78.1098" y2="25.0087" gradientUnits="userSpaceOnUse">
<stop offset="0.1689" stop-color="#FEF8F5"/>
<stop offset="0.5961" stop-color="#EC6925"/>
</linearGradient>
<linearGradient id="paint1_linear_9548_125234" x1="28.4482" y1="25.0086" x2="56.3941" y2="25.0086" gradientUnits="userSpaceOnUse">
<stop offset="0.5371" stop-color="#EC6925"/>
<stop offset="0.7412" stop-color="#FDEDE5"/>
<stop offset="0.9183" stop-color="#FEF8F5"/>
</linearGradient>
</defs>
</svg>
