<svg width="150" height="50" viewBox="0 0 150 50" fill="none" xmlns="http://www.w3.org/2000/svg">
<mask id="mask0_8009_131065" style="mask-type:alpha" maskUnits="userSpaceOnUse" x="0" y="0" width="150" height="50">
<rect width="150" height="50" fill="#D9D9D9"/>
</mask>
<g mask="url(#mask0_8009_131065)">
<path d="M88.3418 26.1394C88.1333 26.1028 87.4341 25.9866 87.2293 25.9489C86.1247 25.7503 85.1787 25.4921 85.1787 24.3807C85.1787 23.4264 86.1791 22.9812 87.4241 22.9812C89.2767 22.9812 90.9015 23.8207 91.0869 23.9134L92.1025 21.2344C91.7117 21.0316 90.0587 20.1485 87.4556 20.1485C85.0714 20.1485 82.1592 21.4005 82.1592 24.5153C82.1592 27.3027 84.1511 28.1974 86.0707 28.5352C86.3357 28.5839 87.1691 28.7263 87.4074 28.7679C88.6985 28.9862 89.4077 29.467 89.4077 30.3118C89.4077 31.3841 88.4005 31.8868 86.8758 31.8868C84.4345 31.8868 83.0019 31.1592 82.5882 30.989L81.4631 33.6101C81.8125 33.7901 83.4791 34.7299 86.7312 34.7299C89.8869 34.7299 92.4193 33.1669 92.4193 30.258C92.3947 27.5501 90.5746 26.5228 88.3418 26.1394Z" fill="#4E4E55"/>
<path d="M97.9776 15.2701L94.9911 16.9223V20.4209H93.4187V23.2771H94.9911V29.4518C94.9911 32.0895 96.0753 34.458 99.8993 34.458H101.095V31.5993H100.647C98.7669 31.5993 97.9776 30.5145 97.9776 29.0412V23.2771H101.408V20.4209H97.9776V15.2701Z" fill="#4E4E55"/>
<path d="M121.311 23.0524C122.477 23.0524 123.67 23.5825 124.028 24.8652L126.738 23.8344C125.979 21.1517 123.487 20.1485 121.289 20.1485C117.35 20.1485 115.762 22.5946 115.762 24.972V29.9054C115.762 32.2818 117.35 34.7299 121.289 34.7299C123.487 34.7299 125.979 33.7253 126.738 31.0426L124.028 30.0122C123.67 31.2934 122.477 31.8266 121.311 31.8266C119.281 31.8266 118.744 30.7157 118.744 29.4492V25.4272C118.744 24.1622 119.281 23.0524 121.311 23.0524Z" fill="#4E4E55"/>
<path d="M134.081 26.7256L139.665 20.4209H135.992L131.189 25.9164V15.2707H128.2V34.458H131.189V29.9903L132.17 28.8831L136.446 34.458H140.031L134.081 26.7256Z" fill="#4E4E55"/>
<path d="M109.762 23.4839H106.657C106.163 23.4839 105.762 23.8851 105.762 24.377V27.7469H102.699V24.377C102.699 22.1913 104.47 20.4209 106.657 20.4209H109.762V23.4839Z" fill="#E32124"/>
<path d="M107.235 31.3945H110.342C110.834 31.3945 111.236 30.9939 111.236 30.5004V27.1315H114.299V30.5004C114.299 32.6861 112.527 34.458 110.342 34.458H107.235V31.3945Z" fill="#E32124"/>
<path d="M56.5876 20.4209H60.0168V23.2771H56.5876V29.0412C56.5876 30.5145 57.3765 31.5993 59.2547 31.5993H59.703V34.458H58.5067C54.6815 34.458 53.6007 32.0895 53.6007 29.4518V23.2771H48.5739V29.0412C48.5739 30.5145 49.3643 31.5993 51.2425 31.5993H51.6893V34.458H50.4926C46.6691 34.458 45.5857 32.0895 45.5857 29.4518V23.2771H44.0717V20.4209H45.5857V16.9223L48.5739 15.2701V20.4209H53.6007V16.9223L56.5876 15.2701V20.4209Z" fill="#E32124"/>
<path d="M24.3448 20.1485C23.3999 20.1485 22.4414 20.3315 21.5788 20.6969V15.2701H18.5917V34.458H21.5788V23.4893C22.1791 23.1121 23.0427 22.8869 23.8871 22.8869C25.7647 22.8869 26.6484 23.9307 26.6484 25.4702V34.458H29.6328V25.0622C29.6328 22.2289 27.5807 20.1485 24.3448 20.1485Z" fill="#E32124"/>
<path d="M39.4838 31.6664C38.916 31.9727 38.1975 32.1482 37.4826 32.1482C35.2533 32.1482 34.4153 31.0127 34.4153 29.4465V20.4209H31.4288V29.5016C31.4288 33.0313 33.4688 34.7299 37.115 34.7299C38.8612 34.7299 40.7948 34.2883 42.4693 33.5635V20.4209H39.4838V31.6664Z" fill="#E32124"/>
<path d="M13.0067 26.1394C12.7999 26.1028 12.0995 25.9866 11.8941 25.9489C10.7917 25.7503 9.84363 25.4921 9.84363 24.3807C9.84363 23.4264 10.8431 22.9812 12.0895 22.9812C13.9417 22.9812 15.5664 23.8207 15.7518 23.9134L16.7668 21.2344C16.3787 21.0316 14.7241 20.1485 12.1194 20.1485C9.73683 20.1485 6.82418 21.4005 6.82418 24.5153C6.82418 27.3027 8.81389 28.1974 10.7361 28.5352C11.0006 28.5839 11.8346 28.7263 12.0744 28.7679C13.365 28.9862 14.0711 29.467 14.0711 30.3118C14.0711 31.3841 13.0669 31.8868 11.5428 31.8868C9.09931 31.8868 7.66691 31.1592 7.2526 30.989L6.12854 33.6101C6.47902 33.7901 8.14506 34.7299 11.3972 34.7299C14.5529 34.7299 17.0854 33.1669 17.0854 30.258C17.0582 27.5501 15.2385 26.5228 13.0067 26.1394Z" fill="#E32124"/>
<path d="M69.3792 26.3751H64.3431V25.3537C64.3431 24.2145 64.9151 22.9927 66.8766 22.9927C68.7674 22.9927 69.3792 24.1826 69.3792 25.2983V26.3751ZM72.3662 24.972C72.3662 22.4045 70.4094 20.1476 66.8907 20.1476C62.8965 20.1476 61.3629 22.6418 61.3629 24.972V29.6341C61.3629 32.8594 63.4239 34.7299 66.8907 34.7299C69.949 34.7299 71.5366 32.9615 72.008 31.8995L69.4865 30.3846C69.2713 31.0084 68.273 31.8837 66.9106 31.8837C65.0638 31.8837 64.3536 30.8533 64.3536 29.5623L64.3431 28.7934H72.3662V24.972Z" fill="#E32124"/>
<path d="M74.2775 24.9773V34.458H77.2619V25.2324C77.2619 24.4267 77.7192 23.0498 79.9112 23.0498C80.2553 23.0498 81.0331 23.1478 81.2819 23.1944V20.2989C81.0126 20.2339 80.3956 20.1475 79.7582 20.1475C75.9619 20.1475 74.2775 22.5287 74.2775 24.9773Z" fill="#E32124"/>
<path d="M142.674 21.2176C142.674 21.1065 142.604 21.0023 142.416 21.0023H142.229V21.4754H142.416C142.619 21.4754 142.674 21.3847 142.674 21.2387V21.2176ZM142.646 22.2201C142.632 22.2201 142.619 22.2134 142.611 22.1997L142.388 21.7121H142.229V22.1923C142.229 22.2064 142.221 22.2201 142.208 22.2201H141.929C141.915 22.2201 141.901 22.2064 141.901 22.1923V20.7515H142.458C142.834 20.7515 143.001 20.9886 143.001 21.2109V21.2387C143.001 21.4338 142.897 21.6147 142.709 21.6984L142.987 22.1923C142.994 22.2064 142.987 22.2201 142.973 22.2201H142.646ZM142.416 20.3822C141.783 20.3822 141.323 20.8772 141.323 21.5103C141.323 22.1023 141.79 22.6035 142.416 22.6035C143.05 22.6035 143.503 22.1023 143.503 21.5103C143.503 20.8835 143.008 20.3822 142.416 20.3822ZM142.416 22.9309C141.609 22.9309 140.955 22.3181 140.955 21.5103C140.955 20.7028 141.609 20.0548 142.416 20.0548C143.217 20.0548 143.871 20.7096 143.871 21.5103C143.871 22.3181 143.224 22.9309 142.416 22.9309Z" fill="#4E4E55"/>
</g>
</svg>
