<svg width="150" height="50" viewBox="0 0 150 50" fill="none" xmlns="http://www.w3.org/2000/svg">
<mask id="mask0_8707_118416" style="mask-type:alpha" maskUnits="userSpaceOnUse" x="0" y="0" width="150" height="50">
<rect width="150" height="50" fill="#D9D9D9"/>
</mask>
<g mask="url(#mask0_8707_118416)">
</g>
<g clip-path="url(#clip0_8707_118416)">
<path d="M149.156 30.7149C148.69 30.7149 148.312 31.0821 148.312 31.5341C148.312 31.9862 148.69 32.3533 149.156 32.3533C149.621 32.3533 149.999 31.9862 149.999 31.5341C149.999 31.0821 149.621 30.7149 149.156 30.7149ZM149.156 32.2234C148.763 32.2234 148.446 31.9133 148.446 31.5341C148.446 31.1531 148.765 30.8449 149.156 30.8449C149.548 30.8449 149.867 31.1549 149.867 31.5341C149.867 31.9134 149.548 32.2234 149.156 32.2234ZM149.43 31.3938C149.43 31.2449 149.321 31.1566 149.161 31.1566H148.892V31.903H149.023V31.6328H149.168L149.307 31.903H149.45L149.296 31.6052C149.378 31.5687 149.43 31.496 149.43 31.3938ZM149.156 31.5168H149.025V31.2692H149.156C149.245 31.2692 149.298 31.3124 149.298 31.3921C149.298 31.4735 149.243 31.5168 149.156 31.5168ZM47.5601 22.4246V20.4434H44.4334V32.2303H47.5601V25.1627C47.5601 23.8828 48.405 23.2541 49.7224 23.2541H51.4337V20.4434H49.9719C48.8275 20.4434 47.8328 21.0235 47.5601 22.4246ZM54.3625 15.7812C53.2929 15.7812 52.4729 16.6022 52.4729 17.6413C52.4729 18.6561 53.2929 19.477 54.3625 19.477C55.432 19.477 56.2521 18.6561 56.2521 17.6413C56.252 16.6021 55.432 15.7812 54.3625 15.7812ZM52.8027 32.2303H55.9223V20.4434H52.8027V32.2303ZM70.7819 26.3368C70.7819 29.7018 67.9744 32.4295 64.5108 32.4295C63.1132 32.4295 61.8458 31.9844 60.8297 31.2328V35.6906H57.7101V20.4434H60.8297V21.4409C61.8458 20.6893 63.1132 20.2442 64.5108 20.2442C67.9744 20.2442 70.7819 22.9719 70.7819 26.3368ZM67.6428 26.3368C67.6428 24.5097 66.1169 23.0273 64.2363 23.0273C62.3556 23.0273 60.8297 24.5097 60.8297 26.3368C60.8297 28.1639 62.3557 29.6464 64.2363 29.6464C66.1169 29.6464 67.6428 28.1657 67.6428 26.3368ZM125.001 25.3029L123.181 24.818C121.983 24.5149 121.518 24.1582 121.518 23.5434C121.518 22.9441 122.174 22.525 123.112 22.525C124.005 22.525 124.705 23.0931 124.705 23.8204V23.888H127.581V23.8204C127.581 21.6816 125.786 20.2441 123.112 20.2441C120.465 20.2441 118.541 21.6798 118.541 23.6593C118.541 25.199 119.591 26.3593 121.424 26.8407L123.167 27.3031C124.492 27.6599 124.984 28.0548 124.984 28.7631C124.984 29.5096 124.272 30.0118 123.213 30.0118C122.11 30.0118 121.367 29.3329 121.367 28.325V28.2574H118.315V28.325C118.315 30.7426 120.318 32.4329 123.189 32.4329C125.953 32.4329 127.961 30.7825 127.961 28.5103C127.96 27.395 127.447 25.9368 125.001 25.3029ZM81.8484 20.4434H84.9678V32.2303H81.8484V31.2327C80.8322 31.9844 79.5648 32.4295 78.1673 32.4295C74.7037 32.4295 71.8961 29.7018 71.8961 26.3368C71.8961 22.9718 74.7037 20.2441 78.1673 20.2441C79.5648 20.2441 80.8323 20.6892 81.8484 21.4408V20.4434ZM81.8484 26.3368C81.8484 24.508 80.3224 23.0273 78.4418 23.0273C76.5611 23.0273 75.0352 24.5097 75.0352 26.3368C75.0352 28.1639 76.5611 29.6464 78.4418 29.6464C80.3242 29.6464 81.8484 28.1657 81.8484 26.3368ZM96.2321 16.2488H99.3517V32.232H96.2321V31.2345C95.216 31.9861 93.9486 32.4312 92.551 32.4312C89.0874 32.4312 86.2798 29.7035 86.2798 26.3385C86.2798 22.9735 89.0874 20.2459 92.551 20.2459C93.9486 20.2459 95.216 20.691 96.2321 21.4426V16.2488ZM96.2321 26.3368C96.2321 24.5097 94.7062 23.0273 92.8255 23.0273C90.9449 23.0273 89.419 24.5097 89.419 26.3368C89.419 28.1639 90.9431 29.6464 92.8255 29.6464C94.7062 29.6464 96.2321 28.1657 96.2321 26.3368ZM113.835 32.2303H116.955V20.4434H113.835V32.2303ZM115.395 15.7812C114.325 15.7812 113.505 16.6022 113.505 17.6413C113.505 18.6561 114.325 19.477 115.395 19.477C116.465 19.477 117.285 18.6561 117.285 17.6413C117.285 16.6021 116.465 15.7812 115.395 15.7812ZM141.444 26.3368C141.444 29.7018 138.636 32.4295 135.173 32.4295C131.709 32.4295 128.902 29.7018 128.902 26.3368C128.902 22.9718 131.709 20.2442 135.173 20.2442C138.636 20.2442 141.444 22.9719 141.444 26.3368ZM138.579 26.3368C138.579 24.5097 137.053 23.0273 135.173 23.0273C133.292 23.0273 131.766 24.5097 131.766 26.3368C131.766 28.1639 133.29 29.6464 135.173 29.6464C137.053 29.6464 138.579 28.1657 138.579 26.3368ZM45.9629 16.2488H33.9963V18.9523H38.4261V32.2303H41.5349V18.9523H45.9647V16.2488H45.9629ZM106.48 29.0021L103.705 20.4434H100.428L104.591 32.2303H108.345L112.532 20.4434H109.256L106.48 29.0021ZM146.015 22.4246V20.4434H142.888V32.2303H146.015V25.1627C146.015 23.8828 146.86 23.2541 148.177 23.2541H149.888V20.4434H148.426C147.282 20.4434 146.289 21.0235 146.015 22.4246Z" fill="black"/>
<path d="M15.9544 41C24.7657 41 31.9086 34.0604 31.9086 25.5C31.9086 16.9396 24.7657 10 15.9544 10C7.14316 10 0.000213623 16.9396 0.000213623 25.5C0.000213623 34.0604 7.14316 41 15.9544 41Z" fill="#34E0A1"/>
<path d="M25.8099 22.4767L27.7351 20.4417H23.4658C21.3285 19.0233 18.7473 18.1973 15.9557 18.1973C13.1677 18.1973 10.5937 19.0251 8.4599 20.4417H4.1799L6.10511 22.4767C4.92505 23.5227 4.18527 25.0294 4.18527 26.7024C4.18527 29.8595 6.81997 32.4192 10.0696 32.4192C11.6134 32.4192 13.0198 31.8408 14.0698 30.8952L15.9558 32.8903L17.8417 30.8969C18.8917 31.8425 20.2964 32.4192 21.8401 32.4192C25.0898 32.4192 27.728 29.8595 27.728 26.7024C27.7297 25.0277 26.99 23.521 25.8099 22.4767ZM10.0714 30.5713C7.87164 30.5713 6.0891 28.8395 6.0891 26.7024C6.0891 24.5653 7.87168 22.8334 10.0714 22.8334C12.2711 22.8334 14.0537 24.5653 14.0537 26.7024C14.0537 28.8395 12.2711 30.5713 10.0714 30.5713ZM15.9575 26.5898C15.9575 24.044 14.0519 21.8584 11.5367 20.9249C12.8968 20.3724 14.3888 20.0659 15.9557 20.0659C17.5226 20.0659 19.0164 20.3724 20.3765 20.9249C17.8631 21.8602 15.9575 24.044 15.9575 26.5898ZM21.8419 30.5713C19.6421 30.5713 17.8595 28.8395 17.8595 26.7024C17.8595 24.5653 19.6421 22.8334 21.8419 22.8334C24.0416 22.8334 25.8242 24.5653 25.8242 26.7024C25.8242 28.8395 24.0416 30.5713 21.8419 30.5713ZM21.8419 24.6726C20.6885 24.6726 19.7544 25.5801 19.7544 26.7007C19.7544 27.8211 20.6885 28.7286 21.8419 28.7286C22.9952 28.7286 23.9293 27.8211 23.9293 26.7007C23.9292 25.5819 22.9952 24.6726 21.8419 24.6726ZM12.1588 26.7024C12.1588 27.8229 11.2247 28.7304 10.0714 28.7304C8.91807 28.7304 7.98398 27.8229 7.98398 26.7024C7.98398 25.5819 8.91807 24.6744 10.0714 24.6744C11.2247 24.6726 12.1588 25.5819 12.1588 26.7024Z" fill="black"/>
</g>
<defs>
<clipPath id="clip0_8707_118416">
<rect width="150" height="31" fill="white" transform="translate(0 10)"/>
</clipPath>
</defs>
</svg>
