<svg width="151" height="51" viewBox="0 0 151 51" fill="none" xmlns="http://www.w3.org/2000/svg">
<mask id="mask0_9541_123707" style="mask-type:alpha" maskUnits="userSpaceOnUse" x="0" y="0" width="151" height="51">
<rect x="0.0288086" y="0.654663" width="150" height="50" fill="#D9D9D9"/>
</mask>
<g mask="url(#mask0_9541_123707)">
</g>
<g clip-path="url(#clip0_9541_123707)">
<path d="M54.9158 18.6416L49.8959 13.6218C49.3859 13.1117 48.5537 13.1117 48.0437 13.6218L37.4939 24.1447L45.6545 32.3053L43.7218 34.2381L35.5611 26.0775L32.1251 29.5135C31.615 30.0236 31.615 30.8557 32.1251 31.3658L41.44 40.6807C41.95 41.1907 42.7822 41.1907 43.2923 40.6807L54.9158 29.0572C55.2379 28.735 55.4258 28.3055 55.4258 27.8492V19.8496C55.399 19.3933 55.2379 18.9638 54.9158 18.6416Z" fill="#FAA819"/>
<path d="M37.0912 17.702L36.3665 16.9772C38.2187 15.125 41.2521 15.125 43.1043 16.9772L42.3795 17.702C40.93 16.2524 38.5408 16.2524 37.0912 17.702Z" fill="#235DAB"/>
<path d="M44.205 15.9034C41.7353 13.4338 37.7355 13.4338 35.2659 15.9034L34.5411 15.1787C37.4134 12.3063 42.0574 12.3063 44.9029 15.1787L44.205 15.9034Z" fill="#235DAB"/>
<path d="M46.1646 13.917C44.4466 12.199 42.1648 11.2595 39.722 11.2595C37.2792 11.2595 34.9974 12.199 33.2794 13.917L32.5546 13.1922C34.4606 11.2863 37.0108 10.2394 39.722 10.2394C42.4333 10.2394 44.9566 11.2863 46.8894 13.1922L46.1646 13.917Z" fill="#235DAB"/>
<path d="M47.7484 29.8087L31.1856 13.2459C30.9171 12.9774 30.4608 12.9774 30.1655 13.2459L20.1526 23.2856C19.8842 23.554 19.8842 24.0104 20.1526 24.3057L36.7155 40.8685C36.9839 41.137 37.4403 41.137 37.7355 40.8685L47.7753 30.8288C48.0437 30.5604 48.0437 30.104 47.7484 29.8087ZM43.7218 34.238L26.7831 17.2994L28.7159 15.3666L45.6546 32.3052L43.7218 34.238Z" fill="#235DAB"/>
<path d="M79.0218 19.0173C79.3171 19.0173 79.5587 19.2052 79.3708 19.6347L71.3981 36.1976C71.2907 36.4123 71.1297 36.6539 70.8881 36.6539H70.6465C70.4049 36.6539 70.2438 36.4123 70.1364 36.1976L62.1637 19.6347C61.9758 19.2321 62.2174 19.0442 62.5127 19.0442H66.1098C66.3514 19.0442 66.5125 19.2321 66.6735 19.5811L70.7538 28.6544L74.861 19.5811C75.0221 19.2321 75.1831 19.0442 75.4247 19.0442L79.0218 19.0173Z" fill="#235DAB"/>
<path d="M85.5181 19.0173H82.2162C81.9478 19.0173 81.7867 19.2052 81.7867 19.4468V36.0097C81.7867 36.2781 81.9747 36.466 82.2431 36.466H85.5449C85.7865 36.466 85.9744 36.2513 85.9744 36.0097V19.4737C86.0013 19.2321 85.7597 19.0173 85.5181 19.0173Z" fill="#235DAB"/>
<path d="M85.5449 12.6553H82.2162C81.9478 12.6553 81.7867 12.8432 81.7867 13.0848V16.1987C81.7867 16.4671 81.9747 16.6551 82.2431 16.6551H85.5449C85.7865 16.6551 85.9744 16.4403 85.9744 16.1987V13.0848C86.0013 12.8432 85.7597 12.6553 85.5449 12.6553Z" fill="#FAA819"/>
<path d="M108.899 19.0173C109.141 19.0173 109.356 19.2052 109.356 19.4468V36.0097C109.356 36.2513 109.168 36.466 108.926 36.466H105.598C105.329 36.466 105.141 36.2781 105.141 36.0097V27.5269L99.9334 35.2849C99.7724 35.5265 99.6113 35.607 99.3965 35.607H99.2355C99.0476 35.607 98.8597 35.5265 98.7254 35.2849L93.5982 27.5538V36.0097C93.5982 36.2513 93.4103 36.466 93.1687 36.466H89.84C89.5716 36.466 89.3837 36.2781 89.3837 36.0097V19.4737C89.3837 19.2321 89.5447 19.0442 89.8132 19.0442H93.0076C93.1955 19.0442 93.3298 19.1516 93.464 19.3395L99.316 28.3591L105.302 19.3395C105.436 19.1516 105.544 19.0442 105.759 19.0442L108.899 19.0173Z" fill="#235DAB"/>
<path d="M121.221 18.8832C116.282 18.8832 112.309 22.8561 112.309 27.7686C112.309 32.6811 116.282 36.654 121.221 36.654C126.16 36.654 130.106 32.7079 130.106 27.7686C130.106 22.8293 126.133 18.8832 121.221 18.8832ZM121.221 32.4932C118.751 32.4932 116.631 30.2383 116.631 27.7149C116.631 25.1916 118.751 22.9903 121.221 22.9903C123.691 22.9903 125.811 25.2184 125.811 27.7149C125.784 30.2383 123.691 32.4932 121.221 32.4932Z" fill="#235DAB"/>
</g>
<defs>
<clipPath id="clip0_9541_123707">
<rect width="110.155" height="30.8305" fill="white" transform="translate(19.9513 10.2394)"/>
</clipPath>
</defs>
</svg>
