<svg width="150" height="51" viewBox="0 0 150 51" fill="none" xmlns="http://www.w3.org/2000/svg">
<mask id="mask0_8035_131702" style="mask-type:alpha" maskUnits="userSpaceOnUse" x="0" y="0" width="150" height="51">
<rect y="0.754486" width="150" height="50" fill="#D9D9D9"/>
</mask>
<g mask="url(#mask0_8035_131702)">
<path d="M24.214 8.60536H9.86072V42.9036L24.214 8.60536Z" fill="#FA0C00"/>
<path d="M34.3121 8.60534H48.6472V42.9036L34.3121 8.60534Z" fill="#FA0C00"/>
<path d="M29.2631 21.2467L38.3986 42.9036H32.4053L29.6743 36.0082H22.9889L29.2631 21.2467Z" fill="#FA0C00"/>
<path fill-rule="evenodd" clip-rule="evenodd" d="M65.1159 30.4165L63.5169 35.2103C63.4509 35.3877 63.3674 35.4433 63.1892 35.4433H60.2816C60.1129 35.4433 60.0477 35.359 60.0755 35.1538L66.0697 18.1212C66.1906 17.8316 66.2749 17.5325 66.3314 16.5517C66.3314 16.4307 66.3966 16.3464 66.5088 16.3464H70.5484C70.6979 16.3464 70.7258 16.3743 70.7544 16.5238L77.4772 35.1816C77.5051 35.359 77.4773 35.4433 77.2999 35.4433H74.0454C73.8959 35.4433 73.8116 35.3877 73.7559 35.2659L72.063 30.4165H65.1159ZM71.1371 27.2496C70.5205 25.3253 69.1555 21.2889 68.5755 19.2516H68.5477C68.0799 21.195 66.9201 24.5958 66.041 27.2496H71.1371Z" fill="#FA0C00"/>
<path fill-rule="evenodd" clip-rule="evenodd" d="M86.1203 35.7329C81.9025 35.7329 78.6768 33.2947 78.6768 28.4079C78.6768 24.1941 81.819 20.8219 86.9333 20.8219C87.3446 20.8219 87.6906 20.8498 88.1862 20.9055V14.9543C88.1862 14.8047 88.2427 14.7482 88.3644 14.7482H91.5337C91.6745 14.7482 91.6745 14.8047 91.6745 14.9169V32.4817C91.6745 33.0608 91.7398 33.8181 91.7955 34.3408C91.7955 34.4808 91.7676 34.5468 91.6181 34.6025C89.7295 35.4155 87.8688 35.7329 86.1203 35.7329ZM88.1862 23.961C87.8028 23.8114 87.3446 23.755 86.8212 23.755C84.231 23.755 82.2772 25.4184 82.2772 28.2305C82.2772 31.4069 84.1753 32.7155 86.4942 32.7155C87.0829 32.7155 87.6628 32.6495 88.1862 32.4817V23.961Z" fill="#FA0C00"/>
<path fill-rule="evenodd" clip-rule="evenodd" d="M108.828 28.2026C108.828 32.7156 105.948 35.7329 101.843 35.7329C96.9902 35.7329 94.8391 31.9869 94.8391 28.2957C94.8391 24.1662 97.5414 20.8219 101.908 20.8219C106.387 20.8219 108.828 24.2227 108.828 28.2026ZM101.731 23.755C99.776 23.755 98.3831 25.4741 98.3831 28.2305C98.3831 30.9121 99.6925 32.7712 101.908 32.7712C103.703 32.7712 105.247 31.286 105.247 28.2957C105.247 25.8758 104.199 23.755 101.731 23.755Z" fill="#FA0C00"/>
<path fill-rule="evenodd" clip-rule="evenodd" d="M115.153 14.7482C115.359 14.7482 115.415 14.7769 115.415 14.9821L115.452 21.2324C116.238 20.9707 117.135 20.8219 118.099 20.8219C122.288 20.8219 124.962 23.7836 124.962 27.6792C124.962 33.0608 120.773 35.7329 116.462 35.7329C114.957 35.7329 113.498 35.5277 112.105 35.0981C111.983 35.0695 111.899 34.9199 111.899 34.8364V14.9543C111.899 14.8047 111.983 14.7482 112.105 14.7482H115.153ZM117.481 23.8114C116.462 23.8114 115.91 23.961 115.452 24.1384V32.6217C115.855 32.7434 116.294 32.7712 116.789 32.7712C119.174 32.7712 121.38 31.2574 121.38 28.0348C121.38 25.2688 119.781 23.8114 117.481 23.8114Z" fill="#FA0C00"/>
<path fill-rule="evenodd" clip-rule="evenodd" d="M130.882 29.0809C130.966 31.1086 132.313 32.7434 135.277 32.7434C136.587 32.7434 137.783 32.5095 138.886 32.0426C138.971 31.9869 139.055 32.0147 139.055 32.1547V34.5746C139.055 34.7425 138.998 34.8364 138.886 34.8921C137.783 35.4155 136.502 35.7329 134.52 35.7329C129.227 35.7329 127.339 32.0147 127.339 28.4365C127.339 24.4001 129.779 20.8219 134.174 20.8219C138.475 20.8219 140.139 24.1941 140.139 26.9601C140.139 27.7731 140.102 28.4365 140.018 28.7539C139.99 28.8756 139.934 28.9313 139.784 28.9592C139.382 29.053 138.213 29.0809 136.792 29.0809H130.882ZM135.221 26.5766C136.324 26.5766 136.699 26.5766 136.82 26.5488C136.82 26.4645 136.82 26.3435 136.82 26.3149C136.82 25.4741 136.24 23.615 134.024 23.615C132.014 23.615 131.116 25.1566 130.882 26.5766H135.221Z" fill="#FA0C00"/>
</g>
</svg>
