<svg width="151" height="51" viewBox="0 0 151 51" fill="none" xmlns="http://www.w3.org/2000/svg">
<mask id="mask0_9541_123750" style="mask-type:alpha" maskUnits="userSpaceOnUse" x="0" y="0" width="151" height="51">
<rect x="0.216797" y="0.379639" width="150" height="50" fill="#D9D9D9"/>
</mask>
<g mask="url(#mask0_9541_123750)">
<path fill-rule="evenodd" clip-rule="evenodd" d="M54.903 13.994H50.8336V36.0522H54.903V13.994ZM31.8667 31.4943L37.4983 19.3138L40.5954 26.0045L31.8667 31.4943ZM49.4173 36.0778L45.4546 27.5185L49.3153 25.0901L47.3358 21.7641L43.8161 23.9782L39.9593 15.6458C39.7232 15.1352 39.3629 14.7118 38.9178 14.4207C38.4692 14.1284 37.9545 13.9805 37.4288 13.995C36.9025 14.0088 36.3944 14.1839 35.9597 14.5004C35.5442 14.8031 35.2132 15.2259 34.9997 15.725L27.2707 32.4428L27.2525 32.4878C26.7383 33.7575 27.0787 35.1957 28.0993 36.068C29.1012 36.924 30.4826 36.9968 31.5589 36.2591L42.2345 29.5448L45.2587 36.0784L49.4173 36.0778ZM61.4548 24.3084H67.4993C70.6115 24.3084 71.6589 22.6003 71.6589 20.6737C71.6589 18.7472 70.6115 17.1632 67.5292 17.1632H61.4548V24.3084ZM68.2777 13.994C74.0831 13.994 75.9381 17.2253 75.9381 20.6427C75.9381 23.221 74.6515 25.893 71.1801 26.8253L76.656 36.0522H72.0475L66.9607 27.3845H61.4548V36.0522H57.3854V13.994H68.2777ZM77.1645 17.4115H84.9145V36.0522H88.985V17.4115H96.7355V13.994H77.1645V17.4115ZM104.596 13.994H98.5814L98.5807 36.0522H102.261V20.0835C102.261 19.0892 102.201 18.1879 102.112 17.4115H102.231C102.351 18.0023 102.651 19.1518 102.95 19.9904L108.994 36.0529H112.825L118.87 19.9904C119.199 19.1512 119.558 17.9086 119.648 17.4115H119.767C119.678 18.2196 119.618 19.1823 119.618 20.0835V36.0522H123.418V13.994H117.344L111.628 29.3725C111.299 30.3042 111.12 30.8634 111 31.6095H110.94C110.834 30.9467 110.68 30.4556 110.437 29.6778C110.406 29.5808 110.375 29.4794 110.341 29.3725L104.596 13.994Z" fill="black"/>
</g>
</svg>
