<?xml version="1.0" encoding="utf-8"?><svg width="150" height="50" viewBox="0 0 150 50" fill="none" xmlns="http://www.w3.org/2000/svg">
<mask id="mask0_7544_133758" style="mask-type:alpha" maskUnits="userSpaceOnUse" x="0" y="0" width="150" height="50">
<rect width="150" height="50" fill="#D9D9D9"/>
</mask>
<g mask="url(#mask0_7544_133758)">
<path d="M42.6109 26.3129C42.5601 20.9983 46.9604 18.4449 47.1583 18.3233C44.6816 14.711 40.8345 14.2145 39.4642 14.1588C36.1906 13.8244 33.0744 16.084 31.4097 16.084C29.745 16.084 27.1819 14.2044 24.4666 14.2601C20.8936 14.3108 17.5998 16.3322 15.7574 19.524C12.0524 25.938 14.8134 35.4627 18.4321 40.676C20.2034 43.2244 22.3046 46.097 25.0757 45.9906C27.7453 45.8842 28.7502 44.2681 31.9679 44.2681C35.1857 44.2681 36.0942 45.9906 38.911 45.9399C41.7785 45.8842 43.5955 43.3358 45.3515 40.7773C47.3715 37.8135 48.2089 34.951 48.2597 34.7991C48.1937 34.7737 42.6718 32.6611 42.6109 26.3129Z" fill="black"/>
<path d="M37.3177 10.7078C38.7895 8.92955 39.7792 6.46224 39.5102 4C37.3938 4.08613 34.8308 5.40844 33.3132 7.18673C31.9531 8.7573 30.7604 11.2702 31.0852 13.6818C33.435 13.8642 35.8509 12.4811 37.3177 10.7078ZM61.1716 31.5407L58.7354 38.9122H55.604L63.5773 15.4854H67.2315L75.2353 38.9122H71.9972L69.49 31.5407H61.1716ZM68.8657 29.1747L66.5717 22.4314C66.049 20.9013 65.7038 19.5131 65.3536 18.1554H65.2877C64.9375 19.5435 64.5568 20.9672 64.1051 22.3959L61.8111 29.1696L68.8657 29.1747ZM77.6105 27.5788C77.6105 25.4256 77.5445 23.6828 77.4684 22.0869H80.2192L80.3613 24.9747H80.4273C81.6809 22.9228 83.6653 21.7069 86.4162 21.7069C90.4916 21.7069 93.552 25.1469 93.552 30.2589C93.552 36.3081 89.8623 39.2922 85.8934 39.2922C83.6653 39.2922 81.7164 38.3194 80.7064 36.6526H80.6405V45.7923H77.6105V27.5788ZM80.6354 32.0625C80.6354 32.5185 80.7014 32.9288 80.7775 33.3139C81.3358 35.4316 83.1781 36.8958 85.3757 36.8958C88.6138 36.8958 90.4967 34.2562 90.4967 30.3957C90.4967 27.0215 88.7203 24.1438 85.4823 24.1438C83.3964 24.1438 81.4474 25.6384 80.8485 27.9334C80.742 28.3134 80.6405 28.7694 80.6405 29.1848L80.6354 32.0625ZM96.719 27.5788C96.719 25.4256 96.653 23.6828 96.5769 22.0869H99.3277L99.4698 24.9747H99.5358C100.789 22.9228 102.774 21.7069 105.525 21.7069C109.6 21.7069 112.661 25.1469 112.661 30.2589C112.661 36.3081 108.971 39.2922 105.002 39.2922C102.774 39.2922 100.825 38.3194 99.815 36.6526H99.749V45.7923H96.719V27.5788ZM99.749 32.0625C99.749 32.5185 99.815 32.9288 99.8911 33.3139C100.449 35.4316 102.292 36.8958 104.489 36.8958C107.727 36.8958 109.61 34.2562 109.61 30.3957C109.61 27.0215 107.834 24.1438 104.596 24.1438C102.51 24.1438 100.561 25.6384 99.9621 27.9334C99.8556 28.3134 99.7541 28.7694 99.7541 29.1848L99.749 32.0625ZM115.833 14.234H118.898V38.9071H115.833V14.234ZM125.06 31.0543C125.125 35.1884 127.775 36.8958 130.835 36.8958C133.028 36.8958 134.352 36.5158 135.499 36.0294L136.022 38.2181C134.946 38.7045 133.099 39.2618 130.419 39.2618C125.232 39.2618 122.131 35.8572 122.131 30.7807C122.131 25.7042 125.125 21.7069 130.033 21.7069C135.535 21.7069 136.997 26.5351 136.997 29.6306C136.997 30.2589 136.931 30.7402 136.89 31.0543H125.06ZM134.043 28.8656C134.078 26.9201 133.241 23.8955 129.795 23.8955C126.694 23.8955 125.339 26.7479 125.095 28.8656H134.043Z" fill="black"/>
</g>
</svg>
