<svg width="151" height="50" viewBox="0 0 151 50" fill="none" xmlns="http://www.w3.org/2000/svg">
<mask id="mask0_9541_123792" style="mask-type:alpha" maskUnits="userSpaceOnUse" x="0" y="-1" width="151" height="51">
<rect x="0.216797" y="-0.00012207" width="150" height="50" fill="#D9D9D9"/>
</mask>
<g mask="url(#mask0_9541_123792)">
<g clip-path="url(#clip0_9541_123792)">
<path d="M149.05 8.99133H1.38026V41.0052H149.05V8.99133Z" fill="#265AA6" stroke="white" stroke-width="0.226514"/>
<path d="M6.61754 15.2513V35.792H18.4374V27.0575H24.1003V35.7611H27.1754V15.2513H6.61754ZM9.69263 18.3299H15.3589V23.9858H9.69263V18.3299ZM9.69263 27.0609H15.3589V32.7169H9.69263V27.0609ZM24.1003 23.9858H18.4374V18.3299H24.1003V23.9858Z" fill="white"/>
<path d="M40.1724 24.185V19.0232H41.1711C42.8391 19.0232 43.7108 19.919 43.7108 21.5904C43.7108 23.2618 42.8391 24.185 41.1231 24.185H40.1724ZM36.8433 35.7921H42.6091C46.1956 35.7921 48.3715 33.6745 48.3715 30.1533C48.3715 27.466 47.1909 25.7362 44.9086 25.1665C46.2711 24.2433 46.779 23.1107 46.779 21.1408C46.779 19.5003 46.1922 17.949 45.2415 17.0807C44.3732 16.2742 43.0381 15.8898 41.0647 15.8898H36.8399V35.7886L36.8433 35.7921ZM40.1724 32.6586V27.1399H41.432C43.9167 27.1399 44.9395 27.9739 44.9395 29.9714C44.9395 31.7663 43.8378 32.6552 41.6104 32.6552H40.1724V32.6586Z" fill="white"/>
<path d="M56.7045 25.2901C58.417 25.2901 59.8001 26.9031 59.8001 28.928C59.8001 30.9529 58.417 32.5385 56.7045 32.5385C54.9919 32.5385 53.5745 30.898 53.5745 28.8971C53.5745 26.8962 54.9541 25.2866 56.7045 25.2866V25.2901ZM59.4672 22.4552V24.1232C58.393 22.6646 57.2913 22.0365 55.8053 22.0365C52.7302 22.0365 50.3758 24.9915 50.3758 28.8731C50.3758 32.7547 52.7062 35.792 55.8533 35.792C57.3668 35.792 58.472 35.1331 59.4672 33.7054V35.3768H62.5698V22.4552H59.4672Z" fill="white"/>
<path d="M68.6376 22.8705V24.4801C69.6123 23.0215 70.611 22.4484 72.1486 22.4484C73.4287 22.4484 74.6093 23.0215 75.3541 24.0031C75.9959 24.8679 76.2224 25.8255 76.2224 27.5827V35.7886H73.1233V28.626C73.1233 26.3918 72.533 25.5235 70.9954 25.5235C69.4579 25.5235 68.641 26.6595 68.641 29.1065V35.7886H65.5419V22.8671H68.641L68.6376 22.8705Z" fill="white"/>
<path d="M82.2971 27.586L86.4464 22.8739H90.6506L85.4511 28.5436L91.0625 35.7954H86.7827L82.6334 30.2424L82.3005 30.6337V35.792H79.2014V14.208H82.3005V27.586H82.2971Z" fill="white"/>
<path d="M108.404 28.4474H103.538L106.026 21.2882L108.404 28.4474ZM109.455 31.5843L110.913 35.7885H114.476L107.299 15.4675H104.791L97.3877 35.7885H100.923L102.46 31.5843H109.455Z" fill="white"/>
<path d="M122.084 25.4685C121.422 24.8713 120.856 24.6036 120.242 24.6036C119.548 24.6036 119.037 25.0807 119.037 25.6813C119.037 26.2819 119.342 26.5462 120.808 27.1433C123.42 28.2176 124.188 29.1442 124.188 31.1725C124.188 33.8838 122.266 35.7955 119.524 35.7955C117.915 35.7955 116.394 35.0198 115.323 33.6504L116.936 31.4402C117.832 32.487 118.649 32.9606 119.545 32.9606C120.365 32.9606 120.979 32.3634 120.979 31.5295C120.979 30.7847 120.674 30.5204 119.26 29.9233C117.88 29.3261 117.623 29.206 117.136 28.7838C116.394 28.1867 116.037 27.2909 116.037 26.1309C116.037 23.7147 117.678 21.9816 119.933 21.9816C121.395 21.9816 122.517 22.4003 123.622 23.3544L122.084 25.4719V25.4685Z" fill="white"/>
<path d="M129.439 35.792H126.344V22.8704H129.439V35.792ZM129.776 17.6881C129.776 18.7314 128.931 19.5894 127.902 19.5894C126.872 19.5894 126.031 18.7314 126.031 17.6881C126.031 16.6447 126.876 15.7902 127.902 15.7902C128.928 15.7902 129.776 16.6173 129.776 17.6881Z" fill="white"/>
<path d="M138.102 25.2901C139.818 25.2901 141.201 26.9031 141.201 28.928C141.201 30.9529 139.818 32.5385 138.102 32.5385C136.386 32.5385 134.975 30.898 134.975 28.8971C134.975 26.8962 136.358 25.2866 138.102 25.2866V25.2901ZM140.868 22.4552V24.1232C139.794 22.6646 138.689 22.0365 137.206 22.0365C134.131 22.0365 131.77 24.9915 131.77 28.8731C131.77 32.7547 134.103 35.792 137.254 35.792C138.771 35.792 139.869 35.1331 140.868 33.7054V35.3768H143.971V22.4552H140.868Z" fill="white"/>
</g>
</g>
<defs>
<clipPath id="clip0_9541_123792">
<rect width="147.9" height="32.2439" fill="white" transform="translate(1.267 8.87805)"/>
</clipPath>
</defs>
</svg>
