<svg width="151" height="50" viewBox="0 0 151 50" fill="none" xmlns="http://www.w3.org/2000/svg">
<mask id="mask0_9541_123776" style="mask-type:alpha" maskUnits="userSpaceOnUse" x="0" y="0" width="151" height="50">
<rect x="0.4198" width="150" height="50" fill="#D9D9D9"/>
</mask>
<g mask="url(#mask0_9541_123776)">
</g>
<g clip-path="url(#clip0_9541_123776)">
<path d="M93.9023 23.9606L96.6633 36.777L114.72 27.3318L93.9023 23.9606Z" fill="#D12053"/>
<path d="M99.0332 4.80994L93.9063 23.9627L114.72 27.3319L99.0332 4.80994Z" fill="#E2136E"/>
<path d="M76.9813 2L98.51 4.65681L93.4194 23.7023L76.9813 2Z" fill="#D12053"/>
<path d="M76.8058 5.74927H79.207L85.9357 14.6341L76.8058 5.74927Z" fill="#9E1638"/>
<path d="M115.301 27.207L109.036 18.2617L119.162 16.3839L115.301 27.207Z" fill="#D12053"/>
<path d="M114.252 29.8356L114.89 27.838L99.0917 36.1261L114.252 29.8356Z" fill="#E2136E"/>
<path d="M93.4638 24.4668L96.7561 39.7796L86.97 48L93.4638 24.4668Z" fill="#9E1638"/>
<path d="M118.173 20.9372L123.92 20.8382L119.769 16.4672L118.173 20.9372Z" fill="#E2136E"/>
<path d="M26.9198 18.2585C27.199 18.2835 27.4803 18.3367 27.7787 18.3367C28.077 18.3367 28.32 18.2835 28.6385 18.2585V27.7797C29.5458 26.1863 30.6889 25.1344 32.3693 25.1344C35.4075 25.1344 36.7119 28.2432 36.7119 31.0979C36.7119 34.5191 34.9458 37.7925 31.8471 37.7925C30.084 37.7925 29.1788 36.6573 28.7958 35.9595C28.2776 36.4303 27.819 36.9927 27.327 37.504H26.9198V18.2585ZM28.5992 32.2602C28.5992 35.0336 29.7383 36.9677 31.6122 36.9677C34.0406 36.9677 34.8219 33.5943 34.8219 31.2C34.8219 28.4223 33.9368 26.2373 31.832 26.2092C29.3744 26.1873 28.5992 29.1941 28.5992 32.2602Z" fill="#E2136E"/>
<path d="M44.6352 24.4189L42.8046 26.8466C44.5253 29.4471 46.3095 31.9883 48.0353 34.6181L49.7772 37.4436V37.5832C49.3508 37.5561 48.9587 37.4998 48.5907 37.4998C48.1865 37.4998 47.7752 37.5571 47.3881 37.5832C46.9133 36.676 46.4396 35.8345 45.9033 35.0118L41.2098 27.811C41.104 27.6964 40.8449 27.61 40.8449 27.7256V37.5842C40.5002 37.5571 40.1988 37.5009 39.8984 37.5009C39.5768 37.5009 39.2532 37.5582 38.9518 37.5842V18.2606C39.2522 18.2856 39.5758 18.3471 39.8984 18.3471C40.1988 18.3471 40.5002 18.2867 40.8449 18.2606V26.9903C40.8641 27.159 41.1655 27.0476 41.3792 26.8205C41.7703 26.4289 42.2219 25.8342 42.5213 25.4406L47.8165 18.2606C48.0958 18.2856 48.374 18.3471 48.6794 18.3471C48.9345 18.3471 49.2137 18.2867 49.5181 18.2606L44.6342 24.421L44.6352 24.4189Z" fill="#231F20"/>
<path d="M58.8839 35.421C58.8839 36.4302 58.8214 36.9405 60.0905 36.6073V37.1717C59.9363 37.2467 59.6772 37.3717 59.4433 37.428C58.3224 37.6612 57.394 37.4519 57.2226 35.9376L57.0321 36.1615C56.1279 37.2457 55.136 37.7914 53.8436 37.7914C52.3195 37.7914 50.9858 36.551 50.9858 34.6462C50.9858 31.7144 52.9414 31.328 54.9636 30.9416C56.6692 30.6104 57.2488 30.4532 57.2488 29.2169C57.2488 27.3131 56.3446 26.2081 54.7287 26.2081C53.1128 26.2081 52.3195 27.4193 52.1673 27.9817H51.9324V26.5445C52.9626 25.6936 54.1279 25.1333 55.397 25.1333C57.654 25.1333 58.8839 26.5445 58.8839 29.4513V35.42V35.421ZM57.1651 31.1749L56.4091 31.3551C54.9454 31.6904 52.7499 31.9456 52.7499 34.29C52.7499 35.9095 53.5473 36.7104 54.8557 36.7104C55.4384 36.7104 56.1692 36.2178 56.5765 35.7303C56.7327 35.545 57.1651 35.1075 57.1651 34.9274V31.1739V31.1749Z" fill="#231F20"/>
<path d="M62.7194 35.0805C63.2305 36.0918 64.1801 36.9927 65.1912 36.9927C66.2022 36.9927 67.301 36.0095 67.301 34.6473C67.301 31.175 62.2184 33.4412 62.2184 28.9348C62.2184 26.4664 63.793 25.1344 65.7254 25.1344C66.8454 25.1344 67.7748 25.5114 68.1599 25.7999C67.9502 26.3883 67.7748 27.0039 67.6488 27.6246H67.4512C67.1679 26.7779 66.42 25.9238 65.6216 25.9238C64.543 25.9238 63.6599 26.6758 63.6599 28.0662C63.6599 31.3551 68.7435 29.6044 68.7435 33.7224C68.7435 36.4761 66.677 37.7925 64.7769 37.7925C63.8968 37.7925 62.8424 37.504 62.0914 36.9677C62.2628 36.3511 62.4543 35.7314 62.543 35.0805H62.7194Z" fill="#231F20"/>
<path d="M71.6447 18.2585C71.933 18.2835 72.2092 18.3367 72.5076 18.3367C72.8059 18.3367 73.0489 18.2835 73.3694 18.2585V27.6246C74.1235 26.0519 75.3079 25.1344 76.8361 25.1344C79.334 25.1344 80.3028 26.9028 80.3028 30.146V37.5821C79.9762 37.5571 79.7231 37.504 79.4409 37.504C79.1385 37.504 78.8582 37.5571 78.575 37.5821V30.7365C78.575 27.8797 78.0216 26.4664 76.1889 26.4664C74.2525 26.4664 73.3684 27.9099 73.3684 30.5834V37.5821C73.0479 37.5571 72.7898 37.504 72.5066 37.504C72.2082 37.504 71.932 37.5571 71.6437 37.5821V18.2585H71.6447Z" fill="#231F20"/>
</g>
<defs>
<clipPath id="clip0_9541_123776">
<rect width="97" height="46" fill="white" transform="translate(26.9198 2)"/>
</clipPath>
</defs>
</svg>
