<svg width="150" height="50" viewBox="0 0 150 50" fill="none" xmlns="http://www.w3.org/2000/svg">
<mask id="mask0_7544_132353" style="mask-type:alpha" maskUnits="userSpaceOnUse" x="0" y="0" width="150" height="50">
<rect width="150" height="50" fill="#D9D9D9"/>
</mask>
<g mask="url(#mask0_7544_132353)">
<path d="M23.1587 31.4579C23.9032 31.4579 24.6286 31.4579 25.354 31.4579C26.3849 31.4756 27.4158 31.4402 28.4084 31.2098C30.2411 30.8024 31.7492 29.9697 32.6846 28.393C33.41 27.1529 33.5818 25.7888 33.4864 24.407C33.3146 21.5548 31.5392 19.5706 28.5421 18.8797C26.7858 18.4722 24.9913 18.614 23.216 18.614C23.1969 18.614 23.1778 18.6317 23.1587 18.6671V31.4579ZM18.1953 36.0285V14.0079H18.5389C21.0397 14.0079 23.5405 13.9902 26.0413 14.0079C28.2557 14.0256 30.4129 14.3799 32.4173 15.3011C35.7963 16.8778 37.7052 19.4643 38.3161 22.9012C38.717 25.1334 38.5452 27.3478 37.648 29.4737C36.2926 32.6803 33.6773 34.629 30.1456 35.5502C28.8093 35.9045 27.4539 36.0462 26.0795 36.0462C23.5405 36.0462 21.0206 36.0462 18.4817 36.0462C18.3862 36.0462 18.2908 36.0285 18.1953 36.0285ZM127.905 25.0448C127.905 21.413 124.698 18.4545 120.766 18.4545C116.814 18.4545 113.607 21.413 113.607 25.0625C113.607 28.7119 116.833 31.6527 120.785 31.6527C124.717 31.635 127.924 28.6765 127.905 25.0448ZM120.747 14.0079C127.39 14.0079 132.735 18.9328 132.716 25.0979C132.716 31.1744 127.352 36.0994 120.708 36.0994C114.103 36.0994 108.758 31.1567 108.758 25.0448C108.796 18.9328 114.141 14.0079 120.747 14.0079ZM62.3313 27.2592H52.8627V22.6886H62.3313V14.0079H67.3138V22.6709H76.7824V27.2415H67.3138V35.9754H62.3504V27.2592M104.081 27.277H94.6124V36.0108H89.649V27.277H80.1804V22.7063H89.6299V14.0256H94.5933V22.6886H104.081V27.277ZM48.1856 36.0108H43.2795V14.0256H48.1856V36.0108Z" fill="black"/>
</g>
</svg>
