<svg width="151" height="50" viewBox="0 0 151 50" fill="none" xmlns="http://www.w3.org/2000/svg">
<mask id="mask0_9548_125328" style="mask-type:alpha" maskUnits="userSpaceOnUse" x="0" y="0" width="151" height="50">
<rect x="0.0287476" width="150" height="50" fill="#D9D9D9"/>
</mask>
<g mask="url(#mask0_9548_125328)">
<path fill-rule="evenodd" clip-rule="evenodd" d="M34.7651 14.1555H40.5015C41.5048 14.1555 42.4209 14.3151 43.2497 14.6344C44.0785 14.9536 44.7838 15.4289 45.3654 16.0602C45.9471 16.6914 46.3978 17.4823 46.7177 18.4329C47.0376 19.3834 47.1976 20.4899 47.1976 21.7525C47.1976 23.015 47.0376 24.1216 46.7177 25.0721C46.3978 26.0226 45.9471 26.8135 45.3654 27.4448C44.7838 28.0761 44.0785 28.5514 43.2497 28.8706C42.4209 29.1899 41.5048 29.3495 40.5015 29.3495H34.7651V14.1555ZM40.5015 26.4108C41.4903 26.4108 42.2682 26.1351 42.8353 25.5837C43.4024 25.0322 43.6859 24.147 43.6859 22.928V20.577C43.6859 19.358 43.4024 18.4728 42.8353 17.9213C42.2682 17.3699 41.4903 17.0941 40.5015 17.0941H38.0804V26.4108H40.5015ZM50.1139 29.3495V17.9213H53.342V20.4029H53.451C53.5092 20.0836 53.611 19.7752 53.7564 19.4777C53.9018 19.1802 54.0945 18.9154 54.3344 18.6832C54.5743 18.451 54.8615 18.266 55.1959 18.1281C55.5304 17.9903 55.923 17.9213 56.3738 17.9213H56.9409V20.9253H56.1338C55.1887 20.9253 54.4871 21.0487 54.029 21.2954C53.571 21.5421 53.342 21.9992 53.342 22.6667V29.3495H50.1139ZM63.9141 29.6107C63.0416 29.6107 62.2637 29.4692 61.5803 29.1863C60.8968 28.9033 60.3189 28.5042 59.8463 27.989C59.3737 27.4738 59.0174 26.8462 58.7775 26.1061C58.5376 25.366 58.4176 24.5388 58.4176 23.6245C58.4176 22.7248 58.5339 21.9085 58.7666 21.1756C58.9993 20.4428 59.3446 19.8151 59.8026 19.2927C60.2607 18.7703 60.8241 18.3676 61.493 18.0846C62.1619 17.8016 62.9253 17.6601 63.7832 17.6601C64.7284 17.6601 65.539 17.8197 66.2152 18.139C66.8914 18.4583 67.4439 18.8864 67.8729 19.4233C68.3018 19.9603 68.6145 20.5806 68.8108 21.2845C69.0071 21.9883 69.1052 22.7248 69.1052 23.4939V24.4517H61.7548V24.6259C61.7548 25.3805 61.9583 25.9791 62.3655 26.4217C62.7726 26.8643 63.4124 27.0856 64.2849 27.0856C64.9538 27.0856 65.4991 26.9514 65.9207 26.6829C66.3424 26.4145 66.735 26.0916 67.0986 25.7143L68.7126 27.7169C68.2037 28.3119 67.5384 28.7763 66.7169 29.1101C65.8953 29.4438 64.9611 29.6107 63.9141 29.6107ZM63.8487 20.0328C63.1943 20.0328 62.6818 20.2469 62.311 20.675C61.9402 21.1031 61.7548 21.6727 61.7548 22.3838V22.5579H65.7681V22.362C65.7681 21.6654 65.6118 21.1031 65.2991 20.675C64.9865 20.2469 64.503 20.0328 63.8487 20.0328ZM80.179 29.3495C79.5974 29.3495 79.1139 29.1681 78.7285 28.8053C78.3432 28.4425 78.0996 27.9564 77.9979 27.3469H77.867C77.6925 28.087 77.3072 28.6493 76.711 29.0339C76.1148 29.4185 75.3805 29.6107 74.508 29.6107C73.3593 29.6107 72.4796 29.306 71.8688 28.6965C71.2581 28.087 70.9528 27.2816 70.9528 26.2802C70.9528 25.0757 71.3926 24.1796 72.2724 23.5919C73.1521 23.0041 74.3481 22.7103 75.8603 22.7103H77.6707V21.9919C77.6707 21.4405 77.5253 21.0015 77.2345 20.675C76.9436 20.3484 76.4565 20.1852 75.7731 20.1852C75.1333 20.1852 74.6244 20.3231 74.2463 20.5988C73.8682 20.8745 73.5556 21.1865 73.3084 21.5348L71.389 19.8369C71.8543 19.1548 72.4396 18.6215 73.1448 18.237C73.8501 17.8524 74.8061 17.6601 76.013 17.6601C77.6416 17.6601 78.863 18.0156 79.6773 18.7267C80.4916 19.4378 80.8988 20.4754 80.8988 21.8396V26.8462H81.9675V29.3495H80.179ZM75.7077 27.3686C76.2457 27.3686 76.7073 27.2525 77.0927 27.0203C77.478 26.7881 77.6707 26.4108 77.6707 25.8884V24.5388H76.1003C74.8352 24.5388 74.2027 24.9669 74.2027 25.8231V26.1496C74.2027 26.5705 74.3335 26.8788 74.5953 27.0748C74.857 27.2707 75.2278 27.3686 75.7077 27.3686ZM84.4476 29.3495V17.9213H87.6757V19.8587H87.8066C88.0101 19.2492 88.3591 18.7304 88.8535 18.3023C89.3479 17.8742 90.0241 17.6601 90.882 17.6601C91.6672 17.6601 92.3361 17.856 92.8886 18.2478C93.4412 18.6397 93.8411 19.2129 94.0883 19.9675H94.1537C94.2555 19.6482 94.4118 19.3471 94.6226 19.0641C94.8335 18.7812 95.0916 18.5381 95.3969 18.3349C95.7023 18.1317 96.044 17.9685 96.4221 17.8451C96.8001 17.7218 97.2073 17.6601 97.6435 17.6601C98.7486 17.6601 99.5956 18.0519 100.185 18.8356C100.773 19.6192 101.068 20.7366 101.068 22.1878V29.3495H97.8398V22.4491C97.8398 20.9979 97.3163 20.2723 96.2694 20.2723C95.7895 20.2723 95.3533 20.4101 94.9607 20.6859C94.5681 20.9616 94.3718 21.3824 94.3718 21.9484V29.3495H91.1437V22.4491C91.1437 20.9979 90.6202 20.2723 89.5733 20.2723C89.3406 20.2723 89.1116 20.3049 88.8862 20.3702C88.6609 20.4355 88.4573 20.5407 88.2755 20.6859C88.0938 20.831 87.9483 21.0087 87.8393 21.2192C87.7302 21.4296 87.6757 21.6727 87.6757 21.9484V29.3495H84.4476ZM108.15 29.6107C107.045 29.6107 106.114 29.433 105.358 29.0774C104.602 28.7219 103.926 28.2176 103.33 27.5645L105.227 25.649C105.635 26.0988 106.085 26.4544 106.58 26.7156C107.074 26.9768 107.634 27.1074 108.259 27.1074C108.899 27.1074 109.343 27.0095 109.59 26.8135C109.837 26.6176 109.961 26.3528 109.961 26.019C109.961 25.4821 109.575 25.1628 108.805 25.0612L107.561 24.9088C104.988 24.5896 103.701 23.4141 103.701 21.3824C103.701 20.831 103.806 20.3267 104.017 19.8696C104.228 19.4124 104.526 19.0206 104.911 18.6941C105.297 18.3676 105.762 18.1136 106.307 17.9322C106.852 17.7508 107.467 17.6601 108.15 17.6601C108.746 17.6601 109.273 17.7 109.732 17.7798C110.19 17.8596 110.597 17.9757 110.953 18.1281C111.309 18.2805 111.636 18.4691 111.934 18.6941C112.233 18.919 112.527 19.1694 112.818 19.4451L110.964 21.3389C110.6 20.9761 110.19 20.6895 109.732 20.4791C109.273 20.2686 108.805 20.1634 108.325 20.1634C107.772 20.1634 107.38 20.2505 107.147 20.4246C106.914 20.5988 106.798 20.831 106.798 21.1212C106.798 21.426 106.882 21.6618 107.049 21.8287C107.216 21.9956 107.532 22.1153 107.998 22.1878L109.284 22.362C111.8 22.6958 113.058 23.8422 113.058 25.8013C113.058 26.3528 112.941 26.8607 112.709 27.3251C112.476 27.7895 112.145 28.1922 111.716 28.5332C111.287 28.8743 110.771 29.1391 110.168 29.3278C109.564 29.5164 108.892 29.6107 108.15 29.6107ZM115.581 13.2412H118.81V19.8587H118.94C119.144 19.2637 119.5 18.7485 120.009 18.3131C120.518 17.8778 121.223 17.6601 122.125 17.6601C123.303 17.6601 124.193 18.0519 124.797 18.8356C125.4 19.6192 125.702 20.7366 125.702 22.1878V29.3495H122.474V22.4491C122.474 21.7089 122.358 21.1611 122.125 20.8056C121.892 20.45 121.478 20.2723 120.882 20.2723C120.62 20.2723 120.365 20.3049 120.118 20.3702C119.871 20.4355 119.649 20.5407 119.453 20.6859C119.257 20.831 119.1 21.0087 118.984 21.2192C118.868 21.4296 118.81 21.6727 118.81 21.9484V29.3495H115.581V13.2412ZM130.516 16.7023C129.862 16.7023 129.385 16.5536 129.087 16.2561C128.789 15.9586 128.64 15.5776 128.64 15.1132V14.6344C128.64 14.17 128.789 13.789 129.087 13.4915C129.385 13.194 129.862 13.0453 130.516 13.0453C131.17 13.0453 131.646 13.194 131.945 13.4915C132.243 13.789 132.392 14.17 132.392 14.6344V15.1132C132.392 15.5776 132.243 15.9586 131.945 16.2561C131.646 16.5536 131.17 16.7023 130.516 16.7023ZM128.902 17.9213H132.13V29.3495H128.902V17.9213ZM135.461 17.9213H138.689V19.8369H138.798C138.958 19.1984 139.325 18.6759 139.899 18.2696C140.474 17.8633 141.132 17.6601 141.873 17.6601C143.327 17.6601 144.425 18.168 145.167 19.1839C145.908 20.1997 146.279 21.6799 146.279 23.6245C146.279 25.5692 145.908 27.053 145.167 28.0761C144.425 29.0992 143.327 29.6107 141.873 29.6107C141.495 29.6107 141.139 29.5563 140.804 29.4475C140.47 29.3386 140.168 29.1863 139.899 28.9903C139.63 28.7944 139.401 28.5622 139.212 28.2938C139.023 28.0253 138.885 27.7387 138.798 27.4339H138.689V33.7031H135.461V17.9213ZM140.804 26.9986C141.415 26.9986 141.92 26.7845 142.32 26.3564C142.72 25.9283 142.92 25.3515 142.92 24.6259V22.645C142.92 21.9194 142.72 21.3425 142.32 20.9144C141.92 20.4863 141.415 20.2723 140.804 20.2723C140.194 20.2723 139.688 20.421 139.289 20.7185C138.889 21.016 138.689 21.426 138.689 21.9484V25.3224C138.689 25.8449 138.889 26.2548 139.289 26.5523C139.688 26.8498 140.194 26.9986 140.804 26.9986Z" fill="#292929"/>
<path fill-rule="evenodd" clip-rule="evenodd" d="M11.4294 14.0016H11.6206L11.6381 21.6526H3.77832L11.4294 14.0016Z" fill="#5F0BCF"/>
<path d="M26.7315 14.0016L11.4294 14.0016L11.4294 29.3037L26.7315 29.3037L26.7315 14.0016Z" fill="#AB6BFF"/>
<path fill-rule="evenodd" clip-rule="evenodd" d="M19.0804 29.1124L26.7315 29.1124V29.3037L19.0804 36.9548L19.0804 29.1124Z" fill="#AB6BFF"/>
<path fill-rule="evenodd" clip-rule="evenodd" d="M26.7315 14.0016L26.7315 29.3037L11.4294 29.3037L26.7315 14.0016Z" fill="#5F0BCF"/>
</g>
</svg>
