<svg width="151" height="50" viewBox="0 0 151 50" fill="none" xmlns="http://www.w3.org/2000/svg">
<mask id="mask0_9541_123180" style="mask-type:alpha" maskUnits="userSpaceOnUse" x="0" y="0" width="151" height="50">
<rect x="0.434814" width="150" height="50" fill="#D9D9D9"/>
</mask>
<g mask="url(#mask0_9541_123180)">
<mask id="mask1_9541_123180" style="mask-type:luminance" maskUnits="userSpaceOnUse" x="30" y="22" width="43" height="21">
<path d="M72.6348 22.5H30.6348V42.9H72.6348V22.5Z" fill="white"/>
</mask>
<g mask="url(#mask1_9541_123180)">
<mask id="mask2_9541_123180" style="mask-type:luminance" maskUnits="userSpaceOnUse" x="-1469" y="-582" width="1688" height="852">
<path d="M218.635 -581.4H-1468.37V269.6H218.635V-581.4Z" fill="white"/>
</mask>
<g mask="url(#mask2_9541_123180)">
<mask id="mask3_9541_123180" style="mask-type:luminance" maskUnits="userSpaceOnUse" x="30" y="21" width="44" height="23">
<path d="M73.6348 21.6H30.6348V43.6H73.6348V21.6Z" fill="white"/>
</mask>
<g mask="url(#mask3_9541_123180)">
<mask id="mask4_9541_123180" style="mask-type:luminance" maskUnits="userSpaceOnUse" x="30" y="22" width="43" height="21">
<path d="M32.8347 30.5C32.7347 31.1 32.8347 32.4 33.1347 33.1C33.6347 34.3 34.6347 34.9 35.9347 34.9C37.4347 34.9 38.5347 34.4 39.2347 33.9L39.5347 35.7C38.6347 36.3 37.1347 36.8 35.4347 36.8C32.1347 36.8 30.7347 34.3 30.7347 31.3C30.7347 27.1 33.5347 22.5 37.5347 22.5C39.9347 22.5 41.2347 24.1 41.2347 26C41.0347 29.6 37.4347 30.6 32.8347 30.5ZM37.1347 24.3C35.1347 24.3 33.6347 26.5 33.0347 28.7C36.3347 28.7 39.0347 28.2 39.0347 26.1C39.0347 24.9 38.2347 24.3 37.1347 24.3ZM51.6347 30.2C51.2347 32.6 51.0347 35 51.1347 36.6H49.1347C49.1347 35.8 49.2347 34.5 49.4347 33H49.3347C47.9347 35.8 46.2347 36.9 44.5347 36.9C42.3347 36.9 40.9347 35 40.9347 32.3C40.9347 27.5 44.1347 22.5 49.5347 22.5C50.7347 22.5 52.0347 22.7 52.8347 23L51.6347 30.2ZM49.0347 24.3C45.8347 24.3 43.2347 28 43.1347 31.8C43.1347 33.3 43.6347 34.8 45.2347 34.8C47.0347 34.8 49.1347 32.2 49.7347 28.6L50.4347 24.4C50.2347 24.4 49.7347 24.3 49.0347 24.3ZM60.7347 24.9C60.3347 24.6 59.5347 24.3 58.5347 24.3C57.2347 24.3 56.3347 25.2 56.3347 26.4C56.3347 27.4 56.9347 28 58.0347 28.7C59.4347 29.6 60.3347 30.8 60.3347 32.3C60.3347 35.2 58.2347 36.8 55.5347 36.8C54.2347 36.8 53.0347 36.3 52.4347 35.9L53.0347 34.2C53.6347 34.6 54.7347 35.1 55.7347 35.1C57.1347 35.1 58.1347 34.1 58.1347 32.9C58.1347 31.8 57.7347 31.2 56.4347 30.4C55.0347 29.5 54.2347 28.3 54.2347 26.9C54.2347 24.5 56.1347 22.6 58.7347 22.6C59.8347 22.6 60.8347 22.9 61.3347 23.3L60.7347 24.9ZM68.0347 33.2C66.7347 36.2 65.4347 38.6 63.7347 40.4C62.3347 42 60.8347 42.6 60.1347 42.8L59.6347 40.8C60.1347 40.6 61.0347 40.2 61.9347 39.5C62.7347 38.8 63.6347 37.7 64.3347 36.3C64.4347 36.1 64.4347 35.9 64.4347 35.7L61.9347 22.8H64.1347L65.3347 30.2C65.6347 31.8 65.7347 32.8 65.9347 33.8H66.0347C66.3347 32.9 66.7347 32 67.3347 30.4L70.5347 22.7H72.6347L68.0347 33.2Z" fill="white"/>
</mask>
<g mask="url(#mask4_9541_123180)">
<mask id="mask5_9541_123180" style="mask-type:luminance" maskUnits="userSpaceOnUse" x="30" y="21" width="44" height="23">
<path d="M73.6348 21.6H30.6348V43.6H73.6348V21.6Z" fill="white"/>
</mask>
<g mask="url(#mask5_9541_123180)">
<path d="M77.6348 17.5H25.6348V47.9H77.6348V17.5Z" fill="#252525"/>
</g>
</g>
</g>
</g>
</g>
<mask id="mask6_9541_123180" style="mask-type:luminance" maskUnits="userSpaceOnUse" x="63" y="15" width="28" height="25">
<path d="M67.7348 39.5C67.7348 39.5 73.3348 30.3 74.3348 26C75.3348 21.7 75.4348 19.4 71.5348 19C67.5348 18.6 63.0348 19 63.0348 19C63.0348 19 69.3348 15 77.6348 15.3C86.0348 15.5 90.8348 19 90.8348 19C90.8348 19 89.0348 19.7 86.1348 19.9C83.2348 20.2 82.1348 20.8 82.3348 24.1C82.5348 27.4 83.7348 29.7 83.7348 29.7C83.7348 29.7 79.0348 26.6 76.1348 29.7C73.2348 32.8 72.6348 34.2 70.9348 36.2C69.3348 38.2 67.7348 39.5 67.7348 39.5Z" fill="white"/>
</mask>
<g mask="url(#mask6_9541_123180)">
<mask id="mask7_9541_123180" style="mask-type:luminance" maskUnits="userSpaceOnUse" x="-1469" y="-582" width="1688" height="852">
<path d="M218.635 -581.4H-1468.37V269.6H218.635V-581.4Z" fill="white"/>
</mask>
<g mask="url(#mask7_9541_123180)">
<path d="M95.9348 10.2H58.0348V44.5H95.9348V10.2Z" fill="#136BB5"/>
</g>
</g>
<mask id="mask8_9541_123180" style="mask-type:luminance" maskUnits="userSpaceOnUse" x="73" y="7" width="8" height="8">
<path d="M77.3347 7.09998C79.3347 7.09998 80.9347 8.69998 80.9347 10.7C80.9347 12.7 79.3347 14.3 77.3347 14.3C75.3347 14.3 73.7347 12.7 73.7347 10.7C73.7347 8.69998 75.4347 7.09998 77.3347 7.09998Z" fill="white"/>
</mask>
<g mask="url(#mask8_9541_123180)">
<mask id="mask9_9541_123180" style="mask-type:luminance" maskUnits="userSpaceOnUse" x="-1469" y="-582" width="1688" height="852">
<path d="M218.635 -581.4H-1468.37V269.6H218.635V-581.4Z" fill="white"/>
</mask>
<g mask="url(#mask9_9541_123180)">
<path d="M85.9347 2.09998H68.7347V19.3H85.9347V2.09998Z" fill="#F8A81B"/>
</g>
</g>
<mask id="mask10_9541_123180" style="mask-type:luminance" maskUnits="userSpaceOnUse" x="83" y="22" width="38" height="21">
<path d="M120.235 22.5H83.6348V42.9H120.235V22.5Z" fill="white"/>
</mask>
<g mask="url(#mask10_9541_123180)">
<mask id="mask11_9541_123180" style="mask-type:luminance" maskUnits="userSpaceOnUse" x="-1469" y="-582" width="1688" height="852">
<path d="M218.635 -581.4H-1468.37V269.6H218.635V-581.4Z" fill="white"/>
</mask>
<g mask="url(#mask11_9541_123180)">
<mask id="mask12_9541_123180" style="mask-type:luminance" maskUnits="userSpaceOnUse" x="83" y="21" width="38" height="23">
<path d="M120.635 21.6H83.6348V43.6H120.635V21.6Z" fill="white"/>
</mask>
<g mask="url(#mask12_9541_123180)">
<mask id="mask13_9541_123180" style="mask-type:luminance" maskUnits="userSpaceOnUse" x="83" y="22" width="38" height="21">
<path d="M89.5348 36.8C88.2348 36.8 87.3348 36.5 86.8348 36.2H86.7348L85.7348 42.1H83.6348L86.1348 27.6C86.4348 25.9 86.6348 24.1 86.8348 22.7H88.7348L88.3348 25.3H88.4348C89.5348 23.5 91.2348 22.4 92.8348 22.4C95.5348 22.4 96.6348 24.8 96.6348 27.4C96.7348 32.3 93.6348 36.8 89.5348 36.8ZM92.1348 24.4C90.4348 24.4 88.3348 26.5 87.7348 30.4L87.1348 34.2C87.6348 34.7 88.5348 35 89.5348 35C92.2348 35 94.5348 31.2 94.5348 27.6C94.5348 26.1 93.9348 24.4 92.1348 24.4ZM107.635 30.2C107.235 32.6 107.035 35 107.135 36.6H105.135C105.135 35.8 105.235 34.5 105.435 33H105.335C103.935 35.8 102.335 36.9 100.535 36.9C98.3348 36.9 96.9348 35 96.9348 32.3C96.9348 27.5 100.135 22.5 105.535 22.5C106.735 22.5 108.035 22.7 108.835 23L107.635 30.2ZM105.035 24.3C101.835 24.3 99.2348 28 99.2348 31.8C99.2348 33.3 99.7348 34.8 101.335 34.8C103.135 34.8 105.235 32.2 105.835 28.6L106.535 24.4C106.235 24.4 105.735 24.3 105.035 24.3ZM115.635 33.2C114.335 36.2 113.035 38.6 111.335 40.4C109.935 42 108.435 42.6 107.735 42.8L107.235 40.8C107.735 40.6 108.635 40.2 109.535 39.5C110.335 38.8 111.235 37.7 111.935 36.3C112.035 36.1 112.035 35.9 112.035 35.7L109.535 22.8H111.735L112.935 30.2C113.235 31.8 113.335 32.8 113.535 33.8H113.635C113.935 32.9 114.335 32 114.935 30.4L118.035 22.7H120.235L115.635 33.2Z" fill="white"/>
</mask>
<g mask="url(#mask13_9541_123180)">
<mask id="mask14_9541_123180" style="mask-type:luminance" maskUnits="userSpaceOnUse" x="83" y="21" width="38" height="23">
<path d="M120.635 21.6H83.6348V43.6H120.635V21.6Z" fill="white"/>
</mask>
<g mask="url(#mask14_9541_123180)">
<path d="M125.235 17.5H78.6348V47.9H125.235V17.5Z" fill="#252525"/>
</g>
</g>
</g>
</g>
</g>
</g>
</svg>
