<svg width="151" height="51" viewBox="0 0 151 51" fill="none" xmlns="http://www.w3.org/2000/svg">
<mask id="mask0_9548_125387" style="mask-type:alpha" maskUnits="userSpaceOnUse" x="0" y="0" width="151" height="51">
<rect x="0.622864" y="0.447632" width="150" height="50" fill="#D9D9D9"/>
</mask>
<g mask="url(#mask0_9548_125387)">
<path d="M35.403 28.7661C37.5083 28.7661 39.2152 27.0593 39.2152 24.954C39.2152 22.8487 37.5083 21.1418 35.403 21.1418C33.2977 21.1418 31.5909 22.8487 31.5909 24.954C31.5909 27.0593 33.2977 28.7661 35.403 28.7661ZM35.403 32.3655C39.4551 32.3655 42.7421 29.0785 42.7421 25.0264C42.7421 20.9743 39.4551 17.6874 35.403 17.6874C31.3509 17.6874 28.064 20.9743 28.064 25.0264C28.064 29.0785 31.3509 32.3655 35.403 32.3655ZM24.3514 25.0264C24.3514 18.9234 29.3 13.9794 35.403 13.9794C41.5061 13.9794 46.4546 18.9279 46.4546 25.0264C46.4546 31.1249 41.5061 36.078 35.403 36.078C29.3 36.078 24.3514 31.1295 24.3514 25.0264Z" fill="#E40520"/>
<path d="M50.0404 17.0944H62.6313V20.2727H58.2985V33.0039H54.4547V20.2953H50.0404V17.0944Z" fill="#1D1D1B"/>
<path d="M81.5924 20.2953H78.0609V23.4736C78.0609 23.4736 80.8136 23.4826 81.2256 23.4736C82.3303 23.4509 83.186 22.9574 83.186 21.8754C83.186 20.6982 82.4616 20.2998 81.5878 20.2998L81.5924 20.2953ZM74.3892 17.0944H81.8595C86.1063 17.0944 86.6948 20.001 86.6948 21.6943C86.6948 24.1527 84.576 25.3887 84.3904 25.4385C84.3904 25.4385 86.2511 26.1312 86.2511 28.241V31.2065C86.2511 32.3972 86.9801 32.7232 87.1114 33.0085H84.0734C82.6246 32.8455 82.6518 31.691 82.6609 31.0299V28.4764C82.6246 27.8517 82.439 27.1589 81.1306 27.1363H78.0609V33.0085H74.3801L74.3937 17.0989L74.3892 17.0944Z" fill="#1D1D1B"/>
<path d="M102.939 17.0944V33.0039H114.399V29.7306H106.679V26.1765H113.271V23.1657H106.679V20.2953H114.399V17.0944H102.939Z" fill="#1D1D1B"/>
<path d="M114.942 20.2953H119.483V33.0039H123.25V20.2953H127.863V17.0944H114.942V20.2953Z" fill="#1D1D1B"/>
<path d="M66.6064 22.7084L65.2527 26.8149H68.0416L66.6064 22.7084ZM64.474 17.0944H68.5578L74.122 33.0039H70.165L69.015 29.6989H64.32L63.238 33.0039H59.3127L64.4785 17.0944H64.474Z" fill="#1D1D1B"/>
<path d="M101.622 24.121H94.7855V27.2133H98.0317C98.0271 27.8516 98.1267 28.4855 97.3616 29.3819C97.1035 29.6853 96.2116 30.3689 94.9711 30.3689C93.9252 30.3689 93.1737 30.0701 92.5172 29.5132C91.0729 28.2863 90.7334 25.9999 90.7334 24.8001C90.7334 23.2925 91.331 19.5528 95.0164 19.3988C95.0164 19.3988 97.5019 19.2404 98.1494 22.233H101.595C101.527 20.7163 99.7612 16.4514 95.0164 16.4424C93.3774 16.4424 91.3038 16.9314 89.5834 18.6563C88.3383 19.9059 87.2155 21.9976 87.2155 24.9495C87.2155 28.1504 88.3927 30.2331 89.4702 31.3785C91.3627 33.3887 93.2688 33.5427 94.2603 33.5427C95.0481 33.5427 96.5557 33.425 98.5071 32.1075L99.0232 32.9994H101.613V24.1165L101.622 24.121Z" fill="#1D1D1B"/>
<path d="M124.997 31.958H125.197C125.323 31.958 125.418 31.9399 125.418 31.8041C125.418 31.6818 125.292 31.6637 125.187 31.6637H125.002V31.958H124.997ZM124.775 31.4871H125.201C125.482 31.4871 125.64 31.5732 125.64 31.8176C125.64 32.0214 125.509 32.1029 125.346 32.1165L125.645 32.6054H125.414L125.142 32.1255H125.002V32.6054H124.78V31.4826L124.775 31.4871ZM125.174 32.8409C125.59 32.8409 125.93 32.5058 125.93 32.0485C125.93 31.5913 125.59 31.2653 125.174 31.2653C124.757 31.2653 124.418 31.5958 124.418 32.0485C124.418 32.5013 124.753 32.8409 125.174 32.8409ZM125.174 31.048C125.717 31.048 126.202 31.4419 126.202 32.0485C126.202 32.6552 125.717 33.0536 125.174 33.0536C124.631 33.0536 124.142 32.6598 124.142 32.0485C124.142 31.4373 124.626 31.048 125.174 31.048Z" fill="#1D1D1B"/>
</g>
</svg>
