<svg width="151" height="50" viewBox="0 0 151 50" fill="none" xmlns="http://www.w3.org/2000/svg">
<mask id="mask0_9541_123183" style="mask-type:alpha" maskUnits="userSpaceOnUse" x="0" y="0" width="151" height="50">
<rect x="0.231689" width="150" height="50" fill="#D9D9D9"/>
</mask>
<g mask="url(#mask0_9541_123183)">
</g>
<g clip-path="url(#clip0_9541_123183)">
<path fill-rule="evenodd" clip-rule="evenodd" d="M40.649 20.8673C40.8656 20.6726 40.9827 20.5269 40.8079 20.5269C40.4426 20.5269 38.2305 20.8533 37.7748 19.1824C37.3187 17.5118 39.7573 12.4708 39.8493 12.2547C39.9376 12.0472 39.7551 11.7837 39.4873 11.7837C39.2243 11.7837 39.0314 12.069 39.0036 12.104C36.5147 15.2251 33.04 19.123 32.5924 20.8033C31.46 25.0573 35.8384 26.7815 38.602 27.0966C38.651 27.102 38.6753 27.0633 38.6753 27.0335V25.523C38.6753 23.4846 39.4381 21.9579 40.649 20.8673Z" fill="#13C636"/>
<path fill-rule="evenodd" clip-rule="evenodd" d="M109.814 20.8673C109.598 20.6726 109.481 20.5269 109.656 20.5269C110.021 20.5269 112.233 20.8533 112.689 19.1824C113.145 17.5118 110.706 12.4708 110.614 12.2547C110.526 12.0472 110.708 11.7837 110.976 11.7837C111.239 11.7837 111.432 12.069 111.46 12.104C113.949 15.2251 117.423 19.123 117.871 20.8033C119.003 25.0573 114.625 26.7815 111.861 27.0966C111.812 27.102 111.788 27.0633 111.788 27.0335V25.523C111.788 23.4846 111.025 21.9579 109.814 20.8673Z" fill="#13C636"/>
<path fill-rule="evenodd" clip-rule="evenodd" d="M106.906 31.7275C106.906 33.3774 104.7 34.3199 103.264 34.3199C101.728 34.3199 99.5553 33.3774 99.5553 31.7275V25.9138C99.5553 24.2649 101.728 23.4906 103.264 23.4906C104.7 23.4906 106.906 24.2649 106.906 25.9138V31.7275ZM103.264 19.8887C99.8582 19.9229 95.8831 21.9084 95.8831 25.9138V32.0065C95.8831 36.0794 99.8582 37.9983 103.264 38.0317C106.603 37.9983 110.578 36.0794 110.578 32.0065V25.9138C110.578 21.9084 106.603 19.9229 103.264 19.8887Z" fill="#13C636"/>
<path fill-rule="evenodd" clip-rule="evenodd" d="M81.2444 31.7275C81.2444 33.3774 79.0375 34.3199 77.6023 34.3199C76.0668 34.3199 73.8941 33.3774 73.8941 31.7275V25.9138C73.8941 24.2649 76.0668 23.4906 77.6023 23.4906C79.0375 23.4906 81.2444 24.2649 81.2444 25.9138V31.7275ZM77.6023 19.8887C74.197 19.9229 70.2217 21.9084 70.2217 25.9138V32.0065C70.2217 36.0794 74.197 37.9983 77.6023 38.0317C80.9411 37.9983 84.9168 36.0794 84.9168 32.0065V25.9138C84.9168 21.9084 80.9411 19.9229 77.6023 19.8887Z" fill="#13C636"/>
<path fill-rule="evenodd" clip-rule="evenodd" d="M69.9465 21.2151C67.2282 20.4735 65.218 20.1632 62.3048 20.1627C59.3905 20.162 57.3753 20.473 54.662 21.2123C54.5333 21.2414 54.5081 21.3743 54.5674 21.4546C55.4963 22.2285 55.8862 23.263 56.0667 24.4303C57.559 24.0644 58.9045 23.851 60.4685 23.7627V37.912C60.467 37.9625 60.5035 37.9935 60.5567 37.9935H64.0512C64.1116 37.9982 64.1412 37.9718 64.1405 37.9153V23.7652C65.6444 23.8548 66.899 24.0672 68.38 24.4303C68.6055 23.2696 69.0759 22.187 70.0274 21.4623C70.1118 21.3569 70.0392 21.2403 69.9465 21.2151Z" fill="#13C636"/>
<path fill-rule="evenodd" clip-rule="evenodd" d="M96.0161 20.0136C95.755 19.9767 94.9839 19.8646 94.3049 19.8903C90.9597 20.0194 87.1766 22.0096 87.1766 25.9139V26.2288V32.007V37.9498C87.1754 38.0001 87.2117 38.0313 87.2651 38.0313H90.7597C90.8201 38.036 90.8498 38.0096 90.8486 37.9529V37.6378H90.8492V25.9139C90.8492 24.6264 92.4215 23.8303 93.7333 23.5619C94.1147 22.2782 94.8641 21.3521 96.0112 20.4236C96.2122 20.2608 96.2014 20.0395 96.0161 20.0136Z" fill="#13C636"/>
<path fill-rule="evenodd" clip-rule="evenodd" d="M50.7162 26.9416C50.7162 26.9828 50.7005 27.0206 50.6746 27.0479C50.6464 27.078 50.6062 27.0972 50.5619 27.0972H43.8637V25.8707C43.8637 24.1975 45.8361 23.4126 47.3938 23.4126C48.8499 23.4126 50.7171 24.1975 50.7171 25.8707L50.7162 26.9416ZM47.3938 19.7594C43.9397 19.7937 40.139 21.8078 40.139 25.8707V32.0499C40.139 36.1809 43.9397 38.1273 47.3938 38.1612C49.8683 38.1364 52.6858 37.1044 54.0268 34.9166C54.0715 34.844 54.0319 34.7482 53.9638 34.7081C52.7815 34.0246 52.0952 33.6462 50.9235 32.9813C50.8865 32.9603 50.8467 32.9603 50.8168 33.0106C50.1766 34.0857 48.5425 34.679 47.3938 34.679C45.8361 34.679 43.8637 33.7228 43.8637 32.0499V30.2038H53.4387C53.9502 30.2038 54.3646 29.7859 54.3646 29.27V25.8707C54.3646 21.8078 50.7801 19.7937 47.3938 19.7594Z" fill="#13C636"/>
</g>
<defs>
<clipPath id="clip0_9541_123183">
<rect width="85.6448" height="26.4325" fill="white" transform="translate(32.4093 11.7837)"/>
</clipPath>
</defs>
</svg>
