<svg width="151" height="51" viewBox="0 0 151 51" fill="none" xmlns="http://www.w3.org/2000/svg">
<mask id="mask0_9541_123757" style="mask-type:alpha" maskUnits="userSpaceOnUse" x="0" y="0" width="151" height="51">
<rect x="0.622864" y="0.311279" width="150" height="50" fill="#D9D9D9"/>
</mask>
<g mask="url(#mask0_9541_123757)">
<path fill-rule="evenodd" clip-rule="evenodd" d="M132.617 29.3539C132.133 28.7171 131.604 27.8447 131.348 26.9785C131.108 25.7463 131.66 25.1633 132.814 25.4858C133.636 25.7153 134.217 26.4017 134.649 27.1149C135.05 28.0556 133.696 30.2201 132.698 31.6094C126.733 34.5223 119.088 33.2137 115.752 31.1959C114.383 29.633 113.87 28.0101 114.352 26.5216C116.258 25.1075 118.445 25.3804 120.657 27.4643C119.303 27.1749 117.922 27.1625 116.845 27.547C114.346 29.1823 117.205 31.7872 119.31 30.2015C121.881 28.5931 124.685 27.944 127.86 28.8474C128.757 29.1141 129.702 29.5069 130.682 30.1064C131.399 30.555 132.086 30.6129 132.661 30.3194C133.246 30.0217 133.477 29.5792 133.636 28.9756C133.781 28.4256 133.81 27.8861 133.667 27.3568C133.405 26.5257 132.882 26.3727 132.532 26.8855C132.177 27.4106 132.576 28.7068 132.613 29.356L132.617 29.3539ZM121.712 31.2228C123.424 31.3158 124.989 31.2455 126.221 30.8073C126.386 30.7494 126.355 30.7576 126.202 30.7163C124.459 30.2346 123.002 30.4393 121.72 31.0905C121.501 31.2021 121.42 31.2083 121.71 31.2228H121.712Z" fill="#727678" stroke="black" stroke-width="0.103369" stroke-miterlimit="2.61"/>
<path fill-rule="evenodd" clip-rule="evenodd" d="M123.481 30.154C124.778 28.1114 126.124 26.1515 128.03 25.1778C129.146 24.7767 130.025 24.7499 130.444 25.4528C130.87 26.166 130.564 26.9702 130.335 27.7021C129.944 28.9425 129.342 30.0733 128.646 31.1484C128.017 31.5474 127.618 31.9298 127.556 32.2854C123.878 32.9428 119.531 32.3185 117.773 31.7975C117.883 31.3282 118.199 31.2579 118.741 31.1959C119.667 31.1339 120.624 31.1773 121.577 31.2145C121.608 31.2187 121.652 31.2207 121.712 31.2249C122.712 31.2786 123.663 31.2765 124.528 31.1794C124.891 31.1401 125.249 31.0801 125.6 30.9933L125.627 30.9871L125.667 30.9768C125.859 30.9272 126.043 30.8734 126.221 30.8093C126.26 30.7948 126.287 30.7845 126.305 30.7783C126.39 30.7473 126.477 30.7142 126.56 30.677C127.678 30.1457 128.507 29.3477 129.072 28.3078C129.56 26.7387 128.106 26.2673 126.75 27.3134L123.479 30.156L123.481 30.154Z" fill="#727678" stroke="black" stroke-width="0.103369" stroke-miterlimit="2.61"/>
<path fill-rule="evenodd" clip-rule="evenodd" d="M131.079 23.7803C131.447 23.7803 131.747 24.0614 131.747 24.4088C131.747 24.7561 131.447 25.0372 131.079 25.0372C130.711 25.0372 130.411 24.7561 130.411 24.4088C130.411 24.0614 130.711 23.7803 131.079 23.7803Z" fill="#727678" stroke="black" stroke-width="0.103369" stroke-miterlimit="2.61"/>
<path fill-rule="evenodd" clip-rule="evenodd" d="M129.808 31.0946C130.178 31.0946 130.475 31.3758 130.475 31.7231C130.475 32.0704 130.176 32.3516 129.808 32.3516C129.44 32.3516 129.14 32.0704 129.14 31.7231C129.14 31.3758 129.44 31.0946 129.808 31.0946Z" fill="#727678" stroke="black" stroke-width="0.103369" stroke-miterlimit="2.61"/>
<path fill-rule="evenodd" clip-rule="evenodd" d="M128.356 31.4462C128.679 31.4462 128.941 31.6922 128.941 31.9961C128.941 32.3 128.679 32.546 128.356 32.546C128.034 32.546 127.771 32.3 127.771 31.9961C127.771 31.6922 128.034 31.4462 128.356 31.4462Z" fill="#727678" stroke="black" stroke-width="0.103369" stroke-miterlimit="2.61"/>
<path fill-rule="evenodd" clip-rule="evenodd" d="M112.601 20.3381L107.629 25.3122L112.601 30.2842V37.3112H119.628L124.6 42.2833L129.572 37.3112H136.599V30.2842L141.571 25.3122L136.599 20.3381V13.3111H129.572L124.6 8.33911L119.628 13.3111H112.601V20.3381ZM124.341 15.0209C124.42 15.9222 124.883 16.7698 125.561 17.5885C126.926 18.707 129.235 19.4492 131.009 20.6606C132.338 21.5682 133.161 22.4406 133.849 23.9478C135.179 26.8545 134.174 29.1265 132.22 31.3138C131.978 31.38 131.695 31.566 131.451 31.628C126.494 32.8623 121.443 32.8581 117.744 31.7893C116.99 31.5702 116.543 31.3903 115.981 30.8321C113.426 28.3058 113.757 24.3364 116.734 21.4173C118.664 19.6435 121.075 19.2114 123.095 17.5989C123.767 16.7905 124.217 15.9388 124.344 15.0209H124.341Z" fill="url(#paint0_linear_9541_123757)"/>
<path d="M9.6748 32.0725V31.5102C10.6878 31.2786 11.2419 31.1298 11.3411 30.9499C11.4734 30.7101 11.5396 28.9259 11.5396 25.9593C11.5396 24.5121 11.5499 23.251 11.5747 21.7956L9.80298 21.7191C9.73062 21.3201 9.86294 21.1402 10.1441 21.0947L11.5478 20.9521C11.552 19.538 11.6305 17.9585 11.7008 17.6298C11.8269 17.0386 12.1267 16.4473 12.6146 15.8664C13.0984 15.2813 13.7331 14.7934 14.5249 14.3985C15.0892 14.105 15.7033 13.9995 16.3586 13.9561C20.1708 13.7122 18.6555 17.6567 17.0822 15.6059C16.7845 15.2172 16.2532 15.1014 15.6681 15.1014C15.1595 15.1014 14.7378 15.2606 14.4049 15.5811C14.0721 15.9015 13.8406 16.3935 13.7062 17.0489C13.6173 17.483 13.5718 18.3658 13.5718 19.6993C13.5718 19.8626 13.5718 20.551 13.5821 20.8756L16.2821 20.9294C17.351 20.95 16.493 21.8824 15.7219 21.8762L13.5821 21.8555C13.5656 23.0298 13.5449 24.3095 13.5594 26.1949L13.5842 29.4097C13.5842 29.7736 13.4912 30.8734 13.7537 31.1608C13.8881 31.3055 15.3001 31.5329 15.788 31.384V32.0745H9.6748V32.0725Z" fill="#2C2767"/>
<path fill-rule="evenodd" clip-rule="evenodd" d="M17.8946 23.158C17.2041 26.0275 14.8205 23.0195 16.9623 22.329C19.0979 20.8239 21.0887 20.0983 22.7633 21.0844C24.0513 22.0685 24.1154 25.215 23.8383 28.9673C23.5489 30.7804 24.3531 31.2228 25.9057 30.7308C25.3186 31.1877 24.1278 32.4694 23.3897 32.4508C22.6351 32.4301 22.1617 31.8451 21.9694 30.6956L20.0964 31.8988C18.9056 32.6638 17.3551 32.2896 16.4847 31.291C15.327 29.9638 15.8541 28.0308 17.1897 27.0674C18.2585 26.2963 19.6085 26.3087 21.9467 25.0352C22.0769 23.3441 21.6345 22.2918 20.6236 21.8762C19.5258 21.4338 18.6575 22.0519 17.8946 23.1559V23.158ZM22.048 25.9221L22.0811 29.972C19.656 31.5701 18.304 31.4151 18.1138 29.3539C18.0125 28.2355 18.306 27.6483 19.3046 27.0219C20.0075 26.5816 20.9668 26.2032 22.048 25.9221Z" fill="#2C2767"/>
<path d="M28.3555 36.4202C28.2377 39.757 23.9252 37.6751 27.5079 35.5312C27.9917 35.2418 28.9489 32.7858 29.2424 32.178L25.9739 23.3854C25.7631 22.8149 25.5956 22.4221 25.4674 22.1946C25.3351 21.9672 25.2007 21.7956 25.0519 21.6799C24.901 21.5641 24.6777 21.469 24.3738 21.4008V20.826H29.1246V21.4008C28.7587 21.4835 28.5023 21.5682 28.3555 21.6509C28.2088 21.7316 28.0971 21.8391 28.0289 21.9652C27.9565 22.0933 27.9214 22.2608 27.9214 22.4593C27.9214 22.6701 27.9483 22.8893 27.9979 23.1126C28.0475 23.34 28.1075 23.6108 28.2377 23.9106L30.5428 29.2196L32.6536 24.1545C32.7838 23.8423 32.8872 23.557 32.9596 23.2965C33.034 23.034 33.0712 22.79 33.0712 22.5668C33.0712 22.2319 32.9802 21.9776 32.7962 21.806C32.6122 21.6344 32.298 21.5 31.8473 21.3987V20.824H36.2115V21.3987C35.9076 21.4587 35.6782 21.5538 35.5148 21.6861C35.3515 21.8142 35.1841 22.0168 35.0207 22.2918C34.8574 22.5668 34.6714 22.9554 34.4377 23.4516C32.4262 27.7393 30.4126 32.0291 28.401 36.3168C28.3845 36.3499 28.3555 36.3809 28.3535 36.4182L28.3555 36.4202Z" fill="#2C2767"/>
<path d="M36.2302 28.3905C36.5527 29.2319 36.7987 29.7818 36.9662 30.0278C37.2969 30.5364 37.6959 30.9292 38.159 31.2062C38.6242 31.4895 39.1266 31.63 39.6703 31.63C40.1726 31.63 40.6647 31.4109 41.1546 30.9747C41.5082 30.648 41.6839 30.2656 41.6839 29.8273C41.6839 29.2505 41.4772 28.7171 41.0657 28.2313C40.6523 27.7496 39.8729 27.2906 38.7214 26.8482C37.5698 26.412 36.7987 25.9427 36.4038 25.4424C36.009 24.9462 35.8126 24.3777 35.8126 23.7368C35.8126 23.1373 35.9738 22.5998 36.2963 22.1408C36.623 21.6777 37.0675 21.3304 37.636 21.0947C38.2045 20.857 38.7296 20.7391 39.2134 20.7391C39.8357 20.7391 40.3918 20.7888 40.8859 20.8839C41.3841 20.9831 41.81 21.134 42.1677 21.3387C42.24 21.7935 42.2938 22.4571 42.3372 23.3358L42.3641 23.7637C42.2524 23.772 42.1532 23.7782 42.0767 23.7782H41.8927C41.6281 23.0422 41.2291 22.4592 40.6874 22.0271C40.1499 21.595 39.6207 21.3821 39.0914 21.3821C38.5622 21.3821 38.1466 21.5413 37.8179 21.8679C37.4954 22.1904 37.3341 22.6142 37.3341 23.1414C37.3341 23.5363 37.4644 23.896 37.729 24.2061C37.9895 24.5162 38.6076 24.8697 39.571 25.2708C40.5386 25.6719 41.2435 26.044 41.686 26.3851C42.1304 26.7262 42.453 27.1397 42.6638 27.6317C42.8747 28.1176 42.9822 28.5869 42.9822 29.0272C42.9822 29.6412 42.7796 30.2139 42.3806 30.7473C41.9816 31.2848 41.4854 31.6569 40.8838 31.8761C40.2884 32.0952 39.7509 32.2027 39.2795 32.2027C38.1632 32.2027 37.1419 31.9939 36.2054 31.5742C36.1165 31.5019 36.071 31.3696 36.0627 31.1732C36.0627 31.0967 36.0544 30.9643 36.0358 30.7866C35.8973 29.5895 35.825 28.8763 35.825 28.653C35.825 28.5476 35.8477 28.4752 35.8932 28.4442C35.9345 28.407 36.0503 28.3905 36.2343 28.3905H36.2302Z" fill="#2C2767"/>
<path fill-rule="evenodd" clip-rule="evenodd" d="M45.7111 23.158C45.0206 26.0275 42.6369 23.0195 44.7787 22.329C46.9143 20.8239 48.9052 20.0983 50.5798 21.0844C51.8677 22.0685 51.9318 25.215 51.6548 28.9673C51.3654 30.7804 52.1696 31.2228 53.7222 30.7308C52.9779 31.3096 51.783 32.7816 50.7596 32.3599C50.2614 32.1531 49.9368 31.5991 49.7859 30.6956L47.9129 31.8988C46.7221 32.6638 45.1715 32.2896 44.3012 31.291C43.1434 29.9638 43.6706 28.0308 45.0061 27.0674C46.075 26.2963 47.425 26.3087 49.7632 25.0352C49.8934 23.3441 49.451 22.2918 48.44 21.8762C47.3423 21.4338 46.474 22.0519 45.7111 23.1559V23.158ZM49.8645 25.9221L49.8975 29.9741C47.4725 31.5722 46.1184 31.4171 45.9302 29.356C45.8269 28.2375 46.1225 27.6504 47.1211 27.024C47.824 26.5836 48.7812 26.2032 49.8645 25.9241V25.9221Z" fill="#2C2767"/>
<path fill-rule="evenodd" clip-rule="evenodd" d="M52.7133 14.5888C54.1357 14.3882 55.5146 14.1195 56.7654 13.6605L56.8625 30.3359C57.3132 31.0554 58.0802 31.3551 59.0601 31.3634L59.0105 32.0973C57.4765 32.1056 56.1141 31.7666 55.006 30.9231V15.3702L52.7112 14.5888H52.7133Z" fill="#2C2767"/>
<path fill-rule="evenodd" clip-rule="evenodd" d="M72.0081 23.158C71.3176 26.0275 68.9339 23.0195 71.0757 22.329C73.2113 20.8239 75.2022 20.0983 76.8767 21.0844C78.1647 22.0685 78.2288 25.215 77.9518 28.9673C77.6623 30.7804 78.4665 31.2228 80.0191 30.7308C79.3617 31.2435 78.2122 32.5604 77.344 32.4384C76.6803 32.3454 76.2586 31.7645 76.0808 30.6977L74.2077 31.9009C73.0169 32.6658 71.4664 32.2916 70.5961 31.2931C69.4383 29.9658 69.9655 28.0329 71.301 27.0695C72.3699 26.2983 73.7199 26.3107 76.058 25.0372C76.1883 23.3461 75.7459 22.2938 74.7349 21.8783C73.6372 21.4359 72.7689 22.054 72.006 23.158H72.0081ZM76.1614 25.9221L76.1945 29.972C73.7695 31.5701 72.4174 31.4151 72.2272 29.3539C72.1259 28.2355 72.4195 27.6483 73.418 27.0219C74.1209 26.5816 75.0802 26.2032 76.1614 25.9221Z" fill="#136F76" stroke="#4D4D4D" stroke-width="0.0454821" stroke-miterlimit="2.61"/>
<path fill-rule="evenodd" clip-rule="evenodd" d="M65.409 20.7867C64.2864 20.5283 63.106 20.7867 61.7911 21.4607L61.7456 13.6584C60.4928 14.1174 59.116 14.3862 57.6936 14.5867L59.9884 15.3682V30.9189C61.0965 31.7624 62.4589 32.0994 63.9929 32.0932L63.9991 32.0126L64.0136 32.1469C66.943 31.6466 69.1944 29.3002 69.1634 26.135C69.1386 23.6914 67.9312 21.3656 65.409 20.7847V20.7867ZM64.1024 31.4337C64.0838 31.4358 64.0611 31.4378 64.0363 31.4378L64.0404 31.3593C63.0605 31.351 62.2956 31.0533 61.8428 30.3318L61.7911 21.5351C69.3412 21.6323 68.0677 30.768 64.1004 31.4337H64.1024Z" fill="#136F76"/>
<path fill-rule="evenodd" clip-rule="evenodd" d="M80.5277 21.5331L84.1125 20.6028L84.0794 22.3621C87.0337 20.1583 90.4407 19.3748 91.1498 22.3621L91.4475 30.2615C91.5488 31.4337 94.6251 31.4027 94.6664 30.2615L94.6003 16.0876C94.3295 15.2049 93.6555 15.0643 92.9609 15.0105C92.5639 14.9795 92.1773 14.7046 92.8596 14.5309L96.3245 13.797L96.2914 25.6802H97.354C98.4311 24.5949 99.4793 23.4682 100.341 22.0623C100.662 21.5889 100.271 21.3967 99.6715 21.2871C99.3594 21.2313 99.2684 20.9398 99.6405 20.9232L103.717 20.7372C104.09 20.7206 104.106 20.9749 103.806 21.0514L102.066 21.498L98.7805 25.1158L103.254 30.2719C103.825 30.9293 104.112 30.9603 104.964 31.1898C105.322 31.2869 105.433 31.8803 105.024 31.8865L102.405 31.8824C101.429 31.2518 100.732 29.9866 100.137 29.234C99.3242 28.2107 98.3918 27.2866 97.5194 26.3108L96.3906 26.3439V30.46C96.5808 30.8693 97.0398 31.1319 97.875 31.1877C98.214 31.2105 98.7516 31.872 98.1706 31.8844H87.9909C87.6477 31.8927 87.6663 31.4668 87.9682 31.4296C89.0411 31.2952 89.7275 30.9396 89.7213 29.7943L89.5993 23.9023C89.5848 23.1829 89.5394 22.9534 88.9564 22.4572C87.594 21.2974 84.0505 22.0293 84.0877 24.0367L84.1993 29.9762C84.2179 30.9686 84.4557 31.2766 85.5617 31.3634C86.1654 31.411 86.1551 31.8865 85.5307 31.8906L80.8275 31.9196C80.507 31.9196 80.5194 31.5412 80.7923 31.4937C81.5469 31.3614 82.3966 31.1712 82.4441 30.6047L82.3821 22.9927C82.3656 22.1223 81.5634 21.9094 80.5442 21.8825L80.5236 21.5331H80.5277Z" fill="#136F76"/>
<path d="M124.342 15.0209C124.42 15.9222 124.883 16.7699 125.561 17.5885C126.926 18.707 129.235 19.4492 131.009 20.6607C132.338 21.5682 133.161 22.4407 133.849 23.9478C134.937 26.3232 134.474 28.3595 133.2 30.2202C132.479 31.2787 131.728 31.6012 130.533 31.8575C125.886 32.8602 121.201 32.7858 117.742 31.7872C116.951 31.5598 116.498 31.3593 115.913 30.766C113.428 28.2376 113.777 24.3096 116.729 21.4152C118.66 19.6414 121.071 19.2094 123.091 17.5968C123.763 16.7885 124.213 15.9367 124.339 15.0188L124.342 15.0209Z" stroke="black" stroke-width="0.103369" stroke-miterlimit="2.61"/>
</g>
<defs>
<linearGradient id="paint0_linear_9541_123757" x1="107.629" y1="25.3122" x2="141.573" y2="25.3122" gradientUnits="userSpaceOnUse">
<stop stop-color="#209494"/>
<stop offset="0.36" stop-color="#1F7288"/>
<stop offset="1" stop-color="#2B2968"/>
</linearGradient>
</defs>
</svg>
