<svg width="151" height="51" viewBox="0 0 151 51" fill="none" xmlns="http://www.w3.org/2000/svg">
<mask id="mask0_9541_123186" style="mask-type:alpha" maskUnits="userSpaceOnUse" x="0" y="0" width="151" height="51">
<rect x="0.434814" y="0.654663" width="150" height="50" fill="#D9D9D9"/>
</mask>
<g mask="url(#mask0_9541_123186)">
<path d="M46.3158 34.6009C48.1594 32.3385 49.1526 29.502 49.1233 26.5838C49.0939 23.6656 48.0438 20.8497 46.1552 18.6249C45.9365 18.3618 45.6619 18.1508 45.3515 18.0071C45.041 17.8635 44.7024 17.7908 44.3604 17.7944C44.0183 17.798 43.6813 17.8778 43.374 18.028C43.0666 18.1781 42.7965 18.3949 42.5834 18.6625C42.1105 19.2417 41.8554 19.9682 41.8626 20.7159C41.8697 21.4636 42.1386 22.1852 42.6225 22.7553C44.5169 24.8798 44.5502 28.3662 42.7006 30.5283C42.2277 31.108 41.973 31.835 41.9806 32.583C41.9883 33.3311 42.2579 34.0527 42.7426 34.6226C42.9624 34.884 43.2373 35.0935 43.5476 35.2362C43.8579 35.3788 44.1959 35.4511 44.5374 35.4478C44.8789 35.4444 45.2155 35.3656 45.5229 35.217C45.8304 35.0683 46.1012 34.8534 46.3158 34.5878V34.6009Z" fill="#6CB7F8"/>
<path d="M52.3292 39.7861C55.3756 36.2245 57.024 31.5166 56.9748 26.5223C56.9256 21.5279 55.1817 16.8634 52.0644 13.3524C51.6705 12.8849 51.1077 12.592 50.4988 12.5378C49.8898 12.4836 49.2842 12.6724 48.8139 13.063C48.6951 13.163 48.5865 13.2745 48.4897 13.3959C48.0182 13.9759 47.7644 14.7024 47.772 15.4498C47.7797 16.1972 48.0484 16.9184 48.5317 17.4886C52.9833 22.4657 53.0543 30.6584 48.714 35.7324C48.2414 36.3121 47.9867 37.039 47.9941 37.7869C48.0015 38.5347 48.2706 39.2564 48.7545 39.8267C49.1485 40.2951 49.7118 40.5885 50.3215 40.6427C50.9311 40.697 51.5375 40.5076 52.0079 40.1161C52.1254 40.0168 52.233 39.9063 52.3292 39.7861Z" fill="#6CB7F8"/>
<path d="M30.4946 23.599H36.8841C37.455 23.599 38.0026 23.8256 38.4064 24.2292C38.8102 24.6327 39.0372 25.1801 39.0376 25.751V25.9507C39.0604 27.3995 38.7879 28.8378 38.2368 30.1779C37.6857 31.518 36.8675 32.7319 35.832 33.7455C33.8535 35.7834 31.1466 36.952 28.3065 36.994C25.4665 37.0361 22.7261 35.9483 20.6882 33.9698C20.6129 33.896 20.5434 33.8251 20.4638 33.7455C18.4096 31.669 17.2573 28.8659 17.2573 25.9449C17.2573 23.0239 18.4096 20.2209 20.4638 18.1443C21.4477 17.0987 22.6387 16.2697 23.9609 15.71C25.283 15.1503 26.7073 14.8724 28.1429 14.8939C30.6765 14.8939 32.8589 15.6175 34.6901 17.0647C34.9294 17.2578 35.1283 17.4962 35.2755 17.7662C35.4226 18.0362 35.5151 18.3326 35.5476 18.6383C35.5801 18.9441 35.5521 19.2533 35.465 19.5482C35.378 19.8432 35.2337 20.118 35.0404 20.3572C34.9229 20.5043 34.7878 20.6365 34.638 20.7508L34.6062 20.7711C34.1892 21.0825 33.6815 21.2486 33.1611 21.2439C32.6406 21.2392 32.1361 21.0639 31.7248 20.745C30.6904 19.9781 29.4302 19.5774 28.1429 19.606C27.3278 19.5953 26.5194 19.7547 25.7694 20.0739C25.0193 20.3931 24.3441 20.8651 23.7867 21.4599C22.6264 22.6653 21.9782 24.2733 21.9782 25.9464C21.9782 27.6194 22.6264 29.2274 23.7867 30.4328C24.3441 31.0276 25.0193 31.4997 25.7694 31.8189C26.5194 32.1381 27.3278 32.2974 28.1429 32.2867C29.4032 32.2965 30.634 31.9046 31.6567 31.168C32.6729 30.4587 33.4516 29.4596 33.8913 28.301H30.4859C30.1769 28.3004 29.871 28.239 29.5857 28.1202C29.3004 28.0014 29.0413 27.8276 28.8232 27.6087C28.6051 27.3898 28.4323 27.1301 28.3145 26.8443C28.1968 26.5586 28.1365 26.2525 28.1371 25.9435C28.1376 25.6344 28.1991 25.3286 28.3179 25.0433C28.4366 24.758 28.6105 24.4989 28.8294 24.2808C29.0483 24.0627 29.308 23.8898 29.5938 23.7721C29.8795 23.6543 30.1856 23.594 30.4946 23.5946V23.599Z" fill="#002CB8"/>
<path d="M27.9301 11.3872C24.0892 11.3872 20.8001 12.7784 18.0629 15.561C15.3257 18.3435 13.9581 21.7074 13.96 25.6525C13.96 29.5958 15.3262 32.9591 18.0586 35.7426C20.791 38.5261 24.0815 39.9155 27.9301 39.9107C30.2158 39.9178 32.4668 39.3521 34.4774 38.2652C35.9861 37.4492 37.3298 36.3597 38.4399 35.0523C38.769 34.6609 39.2356 34.4104 39.7436 34.3523C40.2517 34.2943 40.7627 34.433 41.1716 34.74C41.5806 35.047 41.8564 35.4991 41.9424 36.0032C42.0284 36.5072 41.918 37.0251 41.634 37.4504C41.5954 37.5075 41.5539 37.5626 41.5095 37.6153C40.0724 39.3224 38.329 40.7458 36.369 41.8123C33.7781 43.2247 30.8723 43.9595 27.9215 43.9484C22.9613 43.9484 18.7224 42.1553 15.2046 38.5691C11.6869 34.9828 9.93816 30.6773 9.95843 25.6525C9.95843 20.6123 11.7096 16.3073 15.2119 12.7374C18.7142 9.1676 22.9536 7.37544 27.9301 7.36097C30.8804 7.34969 33.7856 8.08397 36.3762 9.49563C38.3357 10.5629 40.0791 11.9862 41.5168 13.6926C41.6842 13.8942 41.8103 14.1269 41.8878 14.3773C41.9654 14.6276 41.9928 14.8908 41.9686 15.1518C41.9444 15.4128 41.8691 15.6665 41.7469 15.8983C41.6246 16.1302 41.4579 16.3357 41.2563 16.5031C41.2027 16.5465 41.1477 16.5885 41.0913 16.6261C40.6827 16.901 40.187 17.0153 39.6993 16.9472C39.2117 16.8791 38.7663 16.6334 38.4486 16.2571C37.1552 14.7298 35.5437 13.5037 33.7268 12.6645C31.9099 11.8252 29.9315 11.3933 27.9301 11.3987V11.3872Z" fill="#297BFA"/>
<path d="M73.146 25.2603H79.5399V32.9132C78.6765 33.7913 77.6598 34.504 76.5398 35.016C75.2633 35.5946 73.8743 35.8822 72.4731 35.8583C71.1696 35.8658 69.8764 35.6277 68.6611 35.1564C67.4889 34.686 66.4146 34.0014 65.4931 33.1375C64.5736 32.2543 63.8395 31.1964 63.3338 30.026C62.7976 28.768 62.53 27.412 62.548 26.0447C62.53 24.6773 62.7976 23.3213 63.3338 22.0633C63.8352 20.8985 64.5701 19.8489 65.4931 18.9793C66.4041 18.1003 67.481 17.4115 68.6611 16.9531C69.8725 16.466 71.1674 16.2202 72.4731 16.2295C73.5144 16.2068 74.5509 16.3781 75.5296 16.7346C76.3528 17.0309 77.1135 17.478 77.7728 18.053V21.9779C77.3242 21.6412 76.8568 21.3141 76.3705 20.9967C75.8556 20.664 75.2995 20.3998 74.7163 20.2109C74.0279 19.9918 73.3082 19.8876 72.586 19.9026C71.5121 19.8904 70.4552 20.1716 69.5294 20.716C68.6258 21.2462 67.8729 21.9991 67.3426 22.9027C66.7909 23.8561 66.5097 24.9419 66.5293 26.0432C66.5087 27.1181 66.7761 28.1788 67.3036 29.1156C67.8311 30.0523 68.5996 30.8308 69.5294 31.3705C70.4611 31.8972 71.5157 32.1679 72.586 32.1549C73.4456 32.1549 74.1374 32.0521 74.6613 31.8466C75.1038 31.6855 75.5195 31.4586 75.8943 31.1736L75.9218 28.0621H73.146V25.2603ZM91.3233 16.231C92.3642 16.2084 93.4002 16.3797 94.3784 16.7361C95.2016 17.0323 95.9623 17.4794 96.6216 18.0545V21.9779C96.173 21.6412 95.706 21.3141 95.2207 20.9967C94.7055 20.6645 94.1495 20.4004 93.5665 20.2109C92.8785 19.9927 92.1593 19.889 91.4376 19.9041C90.3637 19.8918 89.3068 20.173 88.3811 20.7174C87.4777 21.2481 86.725 22.0008 86.1943 22.9042C85.6431 23.8577 85.3624 24.9435 85.3824 26.0447C85.3612 27.1194 85.6282 28.1803 86.1555 29.1171C86.6828 30.0539 87.4512 30.8324 88.3811 31.3719C89.3128 31.8987 90.3674 32.1693 91.4376 32.1563C92.6919 32.1563 93.7387 31.9696 94.5781 31.5962C95.4112 31.2199 96.1931 30.7395 96.9053 30.1664V33.9509C96.2083 34.5672 95.399 35.0434 94.5217 35.3533C93.4929 35.7018 92.4123 35.8726 91.3262 35.8583C90.0222 35.866 88.7285 35.6278 87.5127 35.1564C86.3412 34.6855 85.2674 34.0009 84.3462 33.1375C83.4267 32.2543 82.6926 31.1964 82.1869 30.026C81.6512 28.7679 81.384 27.4119 81.4025 26.0447C81.384 24.6774 81.6512 23.3214 82.1869 22.0633C82.6883 20.8985 83.4232 19.8489 84.3462 18.9793C85.2575 18.1006 86.3343 17.4119 87.5142 16.9531C88.7248 16.4669 90.0187 16.2216 91.3233 16.231ZM105.097 20.9142C105.902 20.9223 106.695 21.1039 107.424 21.4468C108.173 21.776 108.841 22.2639 109.383 22.8767V21.2847H112.945V35.4372H109.383V33.0536C108.948 33.8478 108.333 34.5296 107.589 35.045C106.779 35.5948 105.818 35.8791 104.839 35.8583C103.723 35.8651 102.627 35.5647 101.671 34.99C100.686 34.3771 99.8902 33.5035 99.3713 32.466C98.7924 31.3632 98.503 30.027 98.503 28.4572C98.503 26.8874 98.7924 25.5415 99.3713 24.4194C99.9144 23.3538 100.741 22.4588 101.761 21.8332C102.765 21.2204 103.92 20.902 105.097 20.9142ZM105.82 24.3876C105.129 24.3705 104.45 24.5771 103.885 24.9766C103.356 25.3597 102.933 25.8719 102.658 26.4644C102.358 27.0844 102.204 27.7653 102.209 28.4543C102.182 29.4471 102.521 30.4153 103.16 31.1751C103.812 31.9228 104.672 32.2967 105.739 32.2967C106.364 32.3001 106.976 32.1248 107.505 31.7916C108.07 31.4522 108.534 30.9687 108.851 30.3907C109.221 29.7124 109.405 28.9477 109.383 28.175V26.1561C108.908 25.6391 108.35 25.2052 107.732 24.8724C107.148 24.5519 106.492 24.386 105.826 24.3905L105.82 24.3876ZM121.023 20.9142C121.853 20.906 122.678 21.0386 123.463 21.3064C124.089 21.504 124.677 21.8075 125.2 22.2037V25.3442C124.676 25.0054 124.122 24.7148 123.546 24.4759C122.919 24.1976 122.241 24.0545 121.556 24.0562C120.881 24.0562 120.35 24.2052 119.964 24.5034C119.578 24.8015 119.38 25.1565 119.369 25.5685C119.375 25.8807 119.495 26.1799 119.706 26.4094C119.93 26.6525 120.36 26.8672 120.996 27.0534L122.588 27.5874C124.738 28.2232 125.813 29.4659 125.812 31.3155C125.823 32.1618 125.557 32.9886 125.055 33.6701C124.541 34.3658 123.856 34.9167 123.065 35.2693C122.205 35.6701 121.265 35.8715 120.316 35.8583C119.372 35.8595 118.435 35.708 117.54 35.4097C116.643 35.1106 115.96 34.7835 115.493 34.4285V31.3155C115.901 31.5875 116.333 31.8219 116.783 32.0159C117.292 32.2419 117.817 32.4296 118.353 32.5775C118.839 32.7009 119.338 32.767 119.84 32.7743C120.55 32.7743 121.092 32.6527 121.466 32.4096C121.651 32.2946 121.803 32.1331 121.906 31.9411C122.009 31.749 122.06 31.5333 122.054 31.3155C122.056 31.1457 122.013 30.9783 121.93 30.8305C121.846 30.6827 121.725 30.5599 121.578 30.4746C121.136 30.214 120.666 30.007 120.175 29.8581L118.439 29.2416C117.354 28.8856 116.606 28.3805 116.195 27.7263C115.772 27.0255 115.558 26.2179 115.579 25.3992C115.558 24.5727 115.793 23.7599 116.252 23.072C116.741 22.3817 117.41 21.8391 118.187 21.5032C119.078 21.0945 120.049 20.8931 121.029 20.9142H121.023ZM135.836 20.9142C137.274 20.9142 138.48 21.4 139.454 22.3716C140.427 23.3432 140.913 24.801 140.911 26.7451V35.4372H137.351L137.324 27.2227C137.324 26.2685 137.09 25.5579 136.622 25.0909C136.173 24.623 135.546 24.3895 134.74 24.3905C134.091 24.3953 133.461 24.6117 132.946 25.007C132.408 25.4171 131.938 25.9088 131.552 26.4644V35.4372H127.99V15.2498H131.552V23.2964C132.039 22.6637 132.625 22.1147 133.289 21.6711C134.042 21.1643 134.933 20.9001 135.842 20.9142H135.836Z" fill="#002CB8"/>
</g>
</svg>
