<svg width="151" height="50" viewBox="0 0 151 50" fill="none" xmlns="http://www.w3.org/2000/svg">
<mask id="mask0_9541_123730" style="mask-type:alpha" maskUnits="userSpaceOnUse" x="0" y="0" width="151" height="50">
<rect x="0.825806" width="150" height="50" fill="#D9D9D9"/>
</mask>
<g mask="url(#mask0_9541_123730)">
<path d="M52.9086 33.0829V15.5979H57.1092V22.5919H65.7906V15.5979H69.9908V33.0829H65.7906V26.5085H57.1092V33.0829H52.9086Z" fill="#13191C"/>
<path d="M72.7977 27.4875V18.8149H76.7187V26.928C76.7187 27.9724 76.9706 28.7744 77.4744 29.3339C77.9974 29.8748 78.7254 30.1452 79.6588 30.1452C80.5922 30.1452 81.3858 29.7908 82.0395 29.0821C82.6928 28.3734 83.0194 27.4688 83.0194 26.3685V18.8149H86.9399V33.0826H83.0194V31.1244H82.8796C82.6554 31.5533 82.3101 31.9543 81.8432 32.3273C80.835 33.1107 79.6871 33.5023 78.3988 33.5023C76.6253 33.5023 75.2436 32.9894 74.2541 31.9636C73.2834 30.9379 72.7977 29.4458 72.7977 27.4875Z" fill="#13191C"/>
<path d="M88.4869 28.4667H92.5477C92.6784 28.8024 92.8834 29.1101 93.1636 29.3899C93.7608 29.9867 94.5826 30.2851 95.6281 30.2851C97.2148 30.2851 98.0084 29.8188 98.0084 28.8863C98.0084 28.7371 97.971 28.6066 97.8963 28.4947C97.8216 28.3641 97.6909 28.2522 97.5041 28.159C97.3173 28.0471 97.1401 27.9538 96.972 27.8792C96.8044 27.8046 96.552 27.73 96.2163 27.6554C95.8987 27.5622 95.6372 27.4969 95.4318 27.4596C95.2455 27.4223 94.937 27.357 94.5074 27.2637C94.097 27.1705 93.7982 27.1052 93.6119 27.0679C90.6622 26.4338 89.1871 24.9884 89.1871 22.7316C89.1871 21.538 89.7192 20.5215 90.7833 19.6823C91.8662 18.8244 93.3408 18.3954 95.2081 18.3954C97.7095 18.3954 99.586 19.1694 100.837 20.7174C101.378 21.3888 101.742 22.1535 101.929 23.0114H98.0084C97.8776 22.7316 97.7095 22.4985 97.5041 22.312C96.9255 21.8458 96.1602 21.6126 95.2081 21.6126C94.5357 21.6126 94.041 21.7245 93.7239 21.9483C93.4064 22.1535 93.2474 22.4146 93.2474 22.7316C93.2474 22.8435 93.2666 22.9554 93.3034 23.0673C93.3595 23.1606 93.4438 23.2538 93.5558 23.3471C93.6674 23.4217 93.7795 23.4963 93.8915 23.5709C94.0036 23.6269 94.1626 23.6922 94.3676 23.7668C94.5731 23.8227 94.7503 23.8786 94.8997 23.9346C95.0678 23.9906 95.2828 24.0465 95.5438 24.1024C95.8053 24.1584 96.0295 24.205 96.2163 24.2423C96.4026 24.2796 96.6454 24.3356 96.9442 24.4102C97.2426 24.4661 97.4854 24.5128 97.6722 24.5501C100.603 25.2028 102.069 26.6483 102.069 28.8863C102.069 30.1359 101.49 31.2176 100.333 32.1315C99.175 33.0454 97.607 33.5024 95.6281 33.5024C92.9768 33.5024 91.0166 32.6631 89.7469 30.9845C89.1684 30.2199 88.7484 29.3806 88.4869 28.4667Z" fill="#13191C"/>
<path d="M103.637 33.0829V15.5979H107.558V24.1305H109.238L113.018 18.8151H117.359L112.739 25.3894L117.779 33.0829H113.299L109.658 27.4877H107.558V33.0829H103.637Z" fill="#13191C"/>
<path d="M117.47 18.8149H121.531L124.331 29.7256H125.451L128.532 18.8149H132.592L126.852 38.3981H122.791L124.331 33.0827H121.251L117.47 18.8149Z" fill="#13191C"/>
<path d="M27.4371 12.0007C27.4371 12.0007 27.0382 11.6018 26.4399 11.6018C25.6657 11.6018 25.0937 12.1159 24.5656 12.9463C21.336 18.0672 19.0402 29.1329 19.0606 29.1526L32.2237 16.5878L27.4371 12.0007Z" fill="#FF61E6"/>
<path d="M37.0103 12.0007C37.0103 12.0007 37.4092 11.6018 38.0075 11.6018C38.7816 11.6018 39.3536 12.1159 39.8818 12.9463C43.1115 18.0672 45.407 29.1329 45.3868 29.1526L32.2237 16.5878L37.0103 12.0007Z" fill="#FF534E"/>
<path d="M32.2237 16.5876L19.0606 29.1524C18.9609 29.7508 25.7284 35.2193 29.877 37.3339C30.539 37.6688 31.4845 37.9217 32.2237 37.9278C32.968 37.934 33.9141 37.6909 34.5703 37.3339C38.719 35.2193 45.4865 29.7508 45.3868 29.1524L32.2237 16.5876Z" fill="url(#paint0_linear_9541_123730)"/>
</g>
<defs>
<linearGradient id="paint0_linear_9541_123730" x1="21.055" y1="32.7424" x2="34.0186" y2="19.7787" gradientUnits="userSpaceOnUse">
<stop stop-color="#69008E"/>
<stop offset="1" stop-color="#FF2155"/>
</linearGradient>
</defs>
</svg>
