<svg width="150" height="51" viewBox="0 0 150 51" fill="none" xmlns="http://www.w3.org/2000/svg">
<mask id="mask0_8047_132004" style="mask-type:alpha" maskUnits="userSpaceOnUse" x="0" y="0" width="150" height="51">
<rect y="0.144714" width="150" height="50" fill="#D9D9D9"/>
</mask>
<g mask="url(#mask0_8047_132004)">
<path d="M47.7571 30.802H40.8176L40.6667 30.6511V19.7138L40.8176 19.5629H42.0999L42.2508 19.7138V29.2179L42.4016 29.3688H47.6817L47.8326 29.5197V30.6511L47.7571 30.802Z" fill="#222B36"/>
<path d="M52.3583 30.802H51.076L50.9252 30.6511V19.7138L51.076 19.5629H52.3583L52.5092 19.7138V30.6511L52.3583 30.802Z" fill="#222B36"/>
<path d="M65.634 30.802H64.2008L63.8991 30.6511L58.4682 22.2784H58.3173V30.6511L58.1664 30.802H56.8841L56.7333 30.6511V19.7138L56.8841 19.5629H58.3173L58.619 19.7138L64.05 28.0865H64.2008V19.7138L64.3517 19.5629H65.634L65.7848 19.7138V30.6511L65.634 30.802Z" fill="#222B36"/>
<path d="M78.9097 30.802H77.4766L77.1748 30.6511L71.7439 22.2784H71.5931V30.6511L71.3668 30.802H70.0845L69.9336 30.6511V19.7138L70.0845 19.5629H71.5176L71.8193 19.7138L77.2503 28.0865H77.4011V19.7138L77.552 19.5629H78.9097L79.0606 19.7138V30.6511L78.9097 30.802Z" fill="#222B36"/>
<path d="M93.3167 30.5757L93.1658 30.7265H91.7327L91.5818 30.5757L89.1681 22.1275H89.0172L86.6034 30.6511L86.4526 30.802H85.0194L84.8686 30.6511L82.304 20.8452V19.7138L82.4548 19.5629H83.4354L83.5863 19.7138L85.6983 27.9356H85.8492L88.2629 19.7138L88.4138 19.5629H89.8469L89.9978 19.7138L92.4115 27.9356H92.5624L94.6744 19.7138L94.8253 19.5629H95.8059L95.9567 19.7138V20.8452L93.3167 30.5757Z" fill="#222B36"/>
<path d="M103.349 19.3367C106.743 19.3367 108.629 21.7504 108.629 25.1448C108.629 28.5391 106.743 30.9529 103.349 30.9529C99.9545 30.9529 98.0687 28.5391 98.0687 25.1448C98.0687 21.7504 100.03 19.3367 103.349 19.3367ZM103.349 29.4443C105.763 29.4443 107.045 27.7094 107.045 25.0693C107.045 22.4293 105.763 20.6944 103.349 20.6944C100.935 20.6944 99.6527 22.4293 99.6527 25.0693C99.6527 27.7094 100.935 29.4443 103.349 29.4443Z" fill="#222B36"/>
<path d="M118.133 25.8236V25.9745L120.396 29.5197V30.6511L120.245 30.802H119.642L119.34 30.6511L116.474 26.1253L116.172 25.9745H113.607L113.456 26.1253V30.6511L113.306 30.802H112.023L111.872 30.6511V19.7138L112.023 19.5629H117.002C119.265 19.5629 120.698 20.5435 120.698 22.8064C120.547 24.5413 119.566 25.4464 118.133 25.8236ZM116.851 20.9961H113.456L113.306 21.147V24.3904L113.456 24.5413H116.851C118.284 24.5413 118.963 24.0887 118.963 22.8064C118.963 21.4487 118.284 20.9961 116.851 20.9961Z" fill="#222B36"/>
<path d="M132.314 30.802H131.71L131.409 30.6511L127.562 25.6727H127.411L125.978 27.1059L125.676 27.4076V30.6511L125.525 30.802H124.243L124.092 30.6511V19.7138L124.243 19.5629H125.525L125.676 19.7138V24.9939H125.827L131.107 19.7138L131.409 19.5629H131.861L132.012 19.7138V20.8452L128.467 24.3904V24.5413L132.314 29.5197V30.6511V30.802Z" fill="#222B36"/>
<path d="M139.329 30.9528C136.613 30.9528 134.803 29.6705 134.803 27.2567L134.954 27.1059H136.236L136.387 27.2567C136.387 28.8408 137.519 29.5196 139.404 29.5196C140.837 29.5196 141.969 29.0671 141.969 27.7848C141.969 26.3516 140.988 26.0499 138.725 25.6727C136.462 25.371 135.029 24.3904 135.029 22.4292C135.029 20.9961 136.161 19.412 139.027 19.412C141.441 19.412 143.176 20.3926 143.176 22.8064L143.025 22.9572H141.743L141.592 22.8064C141.592 21.5241 140.988 20.9206 138.876 20.9206C137.443 20.9206 136.613 21.5241 136.613 22.5047C136.613 23.787 137.443 24.0887 139.631 24.3904C141.893 24.6921 143.477 25.5219 143.477 27.7848C143.704 29.4442 142.421 30.9528 139.329 30.9528Z" fill="#222B36"/>
<path d="M23.0916 28.6145H24.751L24.9019 28.4637V26.3516L25.1282 26.1253H27.2402L27.3911 25.9745V24.315L27.2402 24.1642H25.1282L24.9019 23.9379V21.8258L24.751 21.675H23.0916L22.9407 21.8258V23.9379L22.7144 24.1642H20.6024L20.4515 24.315V25.9745L20.6024 26.1253H22.7144L22.9407 26.3516V28.4637L23.0916 28.6145Z" fill="#222B36"/>
<path d="M9.9668 24.3151V25.9746L10.1931 26.1254H16.7555L16.9818 25.9746V24.3151L16.7555 24.1642H10.1931L9.9668 24.3151Z" fill="#222B36"/>
<path d="M29.2769 30.0477C29.126 30.1232 29.0506 30.1232 28.8997 30.1986C28.6734 30.6512 28.4471 31.1037 28.1454 31.4809C27.7683 32.0843 27.2403 32.6123 26.7877 33.1403C26.2597 33.6684 25.7317 34.1209 25.1282 34.4981C24.5248 34.8752 23.8459 35.2524 23.167 35.5541C21.7339 36.1575 20.3007 36.4593 18.7167 36.4593C17.1327 36.4593 15.6995 36.1575 14.2663 35.5541C13.5875 35.2524 12.9086 34.9507 12.3052 34.4981C11.7017 34.1209 11.1737 33.5929 10.6457 33.1403C10.1177 32.6123 9.66512 32.0843 9.28797 31.4809C8.98625 31.1037 8.75996 30.6512 8.53367 30.1986C8.38281 30.1232 8.30738 30.1232 8.15653 30.0477L6.64793 30.7266C6.5725 30.8775 6.5725 31.0283 6.49707 31.1792C8.68453 35.6295 13.3612 38.7222 18.6413 38.7222C23.9213 38.7222 28.598 35.6295 30.7855 31.1792C30.71 31.0283 30.71 30.9529 30.6346 30.802L29.2769 30.0477Z" fill="#222B36"/>
<path d="M8.15652 20.2418C8.30738 20.1664 8.38281 20.1664 8.53367 20.0909C8.75996 19.6384 8.98625 19.1858 9.28797 18.8086C9.66512 18.2052 10.1931 17.6018 10.6457 17.0738C11.1737 16.6212 11.7772 16.0932 12.3806 15.716C12.984 15.3389 13.6629 14.9617 14.3418 14.66C15.7749 14.0566 17.2081 13.7548 18.7921 13.7548C20.3761 13.7548 21.8093 14.0566 23.2425 14.66C23.9213 14.9617 24.6002 15.2634 25.2036 15.716C25.8071 16.0932 26.3351 16.6212 26.8631 17.0738C27.3911 17.6018 27.8437 18.1298 28.2208 18.7332C28.5226 19.1104 28.7488 19.5629 28.9751 20.0155C29.126 20.0909 29.2014 20.0909 29.3523 20.1664L30.8609 19.4875C30.9363 19.3366 30.9363 19.2612 31.0117 19.1104C28.6734 14.66 24.0722 11.5674 18.7167 11.5674C13.3612 11.5674 8.75996 14.66 6.49707 19.1104C6.5725 19.2612 6.5725 19.3366 6.64793 19.4875L8.15652 20.2418Z" fill="#222B36"/>
</g>
</svg>
