<svg width="151" height="50" viewBox="0 0 151 50" fill="none" xmlns="http://www.w3.org/2000/svg">
<mask id="mask0_9541_123177" style="mask-type:alpha" maskUnits="userSpaceOnUse" x="0" y="0" width="151" height="50">
<rect x="0.638062" width="150" height="50" fill="#D9D9D9"/>
</mask>
<g mask="url(#mask0_9541_123177)">
</g>
<g clip-path="url(#clip0_9541_123177)">
<path fill-rule="evenodd" clip-rule="evenodd" d="M32.9663 33.3014V24.3234C32.9663 21.7748 31.595 20.5652 29.2987 20.5652C27.3905 20.5652 25.7346 21.6972 25.0102 22.8292C24.5444 21.4126 23.3801 20.5652 21.5496 20.5652C19.7191 20.5652 17.9855 21.7489 17.4681 22.4928V20.8692H14.1886V33.295H17.4681V24.9378C17.9597 24.2457 18.917 23.4695 20.0489 23.4695C21.3944 23.4695 21.9054 24.291 21.9054 25.4488V33.295H25.2107V24.912C25.6764 24.2457 26.6337 23.4695 27.7916 23.4695C29.137 23.4695 29.648 24.291 29.648 25.4488V33.295H32.9533L32.9663 33.3014ZM41.9767 33.6119C37.8693 33.6119 35.3919 30.63 35.3919 27.0789C35.3919 23.5277 37.8693 20.5717 41.9767 20.5717C46.0841 20.5717 48.5874 23.5536 48.5874 27.0789C48.5874 30.6041 46.11 33.6119 41.9767 33.6119ZM41.9767 30.7076C44.0142 30.7076 45.1785 29.0388 45.1785 27.0789C45.1785 25.119 44.0142 23.476 41.9767 23.476C39.9392 23.476 38.8007 25.1448 38.8007 27.0789C38.8007 29.0129 39.9392 30.7076 41.9767 30.7076ZM62.7143 33.3079V24.5368C62.7143 22.1176 61.3947 20.5782 58.6586 20.5782C56.6211 20.5782 55.0945 21.5549 54.2925 22.5057V20.8822H51.013V33.3079H54.2925V24.9508C54.8358 24.2069 55.8449 23.4825 57.1321 23.4825C58.5292 23.4825 59.4283 24.0711 59.4283 25.7981V33.3079H62.7078H62.7143ZM71.7506 33.6184C67.6432 33.6184 65.1658 30.6365 65.1658 27.0853C65.1658 23.5342 67.6432 20.5782 71.7506 20.5782C75.858 20.5782 78.3612 23.5601 78.3612 27.0853C78.3612 30.6106 75.8839 33.6184 71.7506 33.6184ZM71.7506 30.7141C73.7881 30.7141 74.9524 29.0453 74.9524 27.0853C74.9524 25.1254 73.7881 23.4825 71.7506 23.4825C69.713 23.4825 68.5746 25.1513 68.5746 27.0853C68.5746 29.0194 69.713 30.7141 71.7506 30.7141ZM84.0663 29.3234C84.6097 30.119 85.8193 30.7141 86.8801 30.7141C88.7882 30.7141 90.056 29.2717 90.056 27.1112C90.056 24.9508 88.7882 23.4825 86.8801 23.4825C85.8193 23.4825 84.6097 24.097 84.0663 24.9249V29.3234ZM84.0663 33.3079H80.7869V16.1473H84.0663V22.4734C85.0495 21.2121 86.4402 20.5717 87.915 20.5717C91.091 20.5717 93.439 23.0426 93.439 27.1047C93.439 31.1669 91.0651 33.6119 87.915 33.6119C86.4144 33.6119 85.0495 32.9457 84.0663 31.7102V33.3079ZM106.686 33.3079H103.407V32.0207C102.553 33.0233 101.085 33.6184 99.4546 33.6184C97.4688 33.6184 95.1143 32.2794 95.1143 29.5045C95.1143 26.7296 97.4623 25.4941 99.4546 25.4941C101.11 25.4941 102.579 26.0375 103.407 27.0142V25.3454C103.407 24.084 102.32 23.2625 100.671 23.2625C99.3252 23.2625 98.0898 23.7541 97.0289 24.7309L95.787 22.5446C97.3136 21.2056 99.2735 20.5911 101.233 20.5911C104.073 20.5911 106.68 21.7231 106.68 25.3001V33.3273L106.686 33.3079ZM100.774 31.4062C101.835 31.4062 102.863 31.044 103.407 30.326V28.7801C102.863 28.0621 101.828 27.6998 100.774 27.6998C99.4805 27.6998 98.4261 28.3661 98.4261 29.5757C98.4261 30.7852 99.4869 31.3997 100.774 31.3997V31.4062ZM121.641 33.3079V24.5368C121.641 22.1176 120.322 20.5782 117.585 20.5782C115.548 20.5782 114.021 21.5549 113.219 22.5057V20.8822H109.94V33.3079H113.219V24.9508C113.763 24.2069 114.772 23.4825 116.059 23.4825C117.456 23.4825 118.355 24.0711 118.355 25.7981V33.3079H121.635H121.641ZM137.081 33.3079L131.99 26.5161L136.926 20.8822H132.896L128.168 26.4126V16.1473H124.888V33.3014H128.168V30.1125L129.668 28.5149L132.974 33.3014H137.081V33.3079Z" fill="black"/>
</g>
<defs>
<clipPath id="clip0_9541_123177">
<rect width="122.899" height="17.4646" fill="white" transform="translate(14.1886 16.1473)"/>
</clipPath>
</defs>
</svg>
