<svg width="150" height="50" viewBox="0 0 150 50" fill="none" xmlns="http://www.w3.org/2000/svg">
<mask id="mask0_6537_99675" style="mask-type:alpha" maskUnits="userSpaceOnUse" x="0" y="0" width="150" height="50">
<rect width="150" height="50" fill="#D9D9D9"/>
</mask>
<g mask="url(#mask0_6537_99675)">
<path d="M138.434 33.5361H136.187V31.913C136.18 29.822 136.187 27.7311 136.166 25.6402C136.144 24.0028 134.911 22.5286 133.309 22.1954C131.112 21.7347 128.879 23.5138 128.872 25.7677C128.865 28.2131 128.879 30.6584 128.886 33.1038V33.5432H126.703V20.5581H128.865V21.274C129.574 20.6432 130.325 20.2533 131.176 20.0407C134.521 19.1972 138.023 21.6567 138.363 25.0873C138.37 25.1865 138.405 25.2929 138.427 25.3921C138.434 28.0997 138.434 30.8214 138.434 33.5361Z" fill="#222C31"/>
<path d="M53.5061 32.0831V38.5615H51.3372C51.3301 38.4693 51.316 38.3772 51.316 38.2851C51.316 34.5143 51.3018 30.7506 51.3231 26.9798C51.3443 23.5705 53.733 20.6928 57.0643 20.0195C61.069 19.2114 64.9886 22.0253 65.5131 26.0796C66.0305 30.0772 63.2804 33.6637 59.2686 34.1457C57.1635 34.3938 55.349 33.6708 53.7897 32.2674C53.7188 32.2036 53.6833 32.0902 53.6266 31.9981C53.5841 32.0264 53.5487 32.0548 53.5061 32.0831ZM58.4606 32.0052C61.2036 31.9981 63.3938 29.7866 63.3938 27.0365C63.3867 24.2935 61.1682 22.075 58.4393 22.0891C55.7034 22.1033 53.5061 24.3147 53.5132 27.0649C53.5061 29.8008 55.7176 32.0122 58.4606 32.0052Z" fill="#222C31"/>
<path d="M99.2872 29.9426C100.336 31.5444 102.555 32.3383 104.518 31.8138C105.716 31.4948 106.673 30.8073 107.36 29.7796C108.048 28.7518 108.303 27.6036 108.154 26.349H110.323C110.713 29.092 109.076 32.6714 105.404 33.8409C101.931 34.9467 98.1815 33.2456 96.7143 29.9071C95.24 26.5545 96.5371 22.6207 99.7337 20.7991C103.044 18.9137 106.751 20.147 108.48 22.2096C105.418 24.7826 102.363 27.3555 99.2872 29.9426ZM98.3657 27.8516C100.57 26.0017 102.711 24.2013 104.872 22.3797C103.221 21.6922 101.116 22.1529 99.7762 23.4926C98.5996 24.6762 98.1531 26.1151 98.3657 27.8516Z" fill="#222C31"/>
<path d="M80.5962 33.5432H78.4061V32.2036C78.2927 32.2958 78.2289 32.3454 78.1722 32.395C74.1108 35.9106 67.8521 33.9543 66.5338 28.7589C65.3217 23.9674 69.2626 19.4099 74.1746 19.9061C77.7894 20.2746 80.5537 23.287 80.5892 26.916C80.6104 29.0424 80.5962 31.1688 80.5962 33.2952V33.5432ZM68.5113 27.0153C68.5042 29.737 70.7086 31.9697 73.4162 31.9839C76.1521 31.991 78.399 29.8008 78.4061 27.1074C78.4132 24.2935 76.2301 22.0679 73.4729 22.0679C70.7369 22.0537 68.5184 24.2722 68.5113 27.0153Z" fill="#222C31"/>
<path d="M111.167 27.0152C111.174 23.0744 114.377 19.8706 118.304 19.8706C122.245 19.8706 125.463 23.1098 125.442 27.0507C125.42 30.9987 122.224 34.1811 118.283 34.1741C114.356 34.167 111.159 30.9561 111.167 27.0152ZM118.297 31.9768C121.033 31.9768 123.259 29.7654 123.259 27.0294C123.266 24.3006 121.04 22.0608 118.318 22.0537C115.589 22.0466 113.357 24.2722 113.35 27.0011C113.35 29.7441 115.568 31.9768 118.297 31.9768Z" fill="#222C31"/>
<path d="M81.2909 20.5156H82.5455V15.4973H84.7427V20.5156H88.0173V22.7058H84.7498V33.5361H82.5667V33.1109C82.5667 29.7795 82.5596 26.4482 82.5738 23.1169C82.5738 22.7979 82.4958 22.6703 82.1627 22.7058C81.8863 22.7341 81.6028 22.7129 81.298 22.7129C81.2909 21.9757 81.2909 21.274 81.2909 20.5156Z" fill="#222C31"/>
<path d="M91.3345 22.4152C92.3764 21.4796 93.5672 20.8346 94.9422 20.5936C95.4242 20.5085 95.9204 20.5014 96.4449 20.4518V22.4648C96.4449 22.7129 96.2606 22.6704 96.1188 22.6704C95.0273 22.6845 94.0492 23.0318 93.2057 23.7052C91.9795 24.6762 91.3132 25.9521 91.292 27.5256C91.2707 29.3897 91.2849 31.2609 91.2849 33.1251V33.5362H89.123V20.544H91.2423V22.3727C91.2778 22.3868 91.3061 22.401 91.3345 22.4152Z" fill="#222C31"/>
<path d="M30.4515 8.19348C31.4195 8.36792 32.4059 8.48093 33.3579 8.71679C39.9213 10.3407 44.8964 15.9091 45.8214 22.6298C47.0523 31.5677 41.2394 39.7379 32.3801 41.5105C31.7426 41.6407 31.0878 41.7107 30.4429 41.8065H21.5382C21.5382 36.1767 21.5382 30.5469 21.5468 24.9257C21.5468 24.551 21.5824 24.1665 21.6426 23.8005C22.2199 20.0206 25.6668 17.167 29.4467 17.3144C33.4353 17.4803 36.639 20.5611 36.8908 24.4884C37.2667 30.3196 31.3311 34.4139 26.0157 31.9866C25.8869 31.9289 25.7557 31.8764 25.6226 31.8293C25.6226 33.6191 25.614 35.3475 25.641 37.0747C25.641 37.1803 25.8413 37.3375 25.9727 37.3719C27.6741 37.8609 29.4123 37.9579 31.1566 37.679C38.5418 36.4912 43.3068 29.4819 41.7087 22.2023C40.2346 15.4645 33.4967 11.0569 26.7835 12.4266C20.709 13.6489 16.4673 18.834 16.4501 25.0485C16.4402 30.4855 16.4501 35.9236 16.4501 41.3618C16.4501 41.5092 16.4673 41.6493 16.4845 41.7979H12.4725V23.7304C12.5241 23.3902 12.5855 23.0487 12.6285 22.6998C13.5547 15.919 18.5027 10.3665 25.146 8.70819C26.0882 8.47233 27.0574 8.35932 28.0082 8.19348H30.4515Z" fill="#E6461A"/>
</g>
</svg>
