<svg width="150" height="50" viewBox="0 0 150 50" fill="none" xmlns="http://www.w3.org/2000/svg">
<mask id="mask0_9541_123806" style="mask-type:alpha" maskUnits="userSpaceOnUse" x="0" y="-1" width="150" height="51">
<rect y="-0.00012207" width="150" height="50" fill="#D9D9D9"/>
</mask>
<g mask="url(#mask0_9541_123806)">
<path fill-rule="evenodd" clip-rule="evenodd" d="M36.7248 29.0264H33.8915V25.522H36.7248C37.4456 25.522 37.9675 25.5717 38.2658 25.6959C38.9617 25.9196 39.3345 26.4416 39.3345 27.2369C39.3345 28.4299 38.4646 29.0264 36.7248 29.0264ZM37.4456 22.9869H30.2876V36.0352H33.8915V31.5615H37.3462C41.2731 31.5615 43.2366 30.0951 43.2366 27.212C43.2366 24.4035 41.298 22.9869 37.4456 22.9869ZM51.8361 28.0819C50.3697 28.0819 49.3755 28.5293 48.8039 29.4489C48.4062 30.0702 48.2074 30.965 48.2074 32.158V36.0352H44.8769V26.5907H48.2074V28.1316C48.9033 26.8641 50.2206 26.2179 52.1343 26.2179H52.532V28.0819H51.8361ZM57.6768 25.1989H54.222V22.9869H57.6768V25.1989ZM57.6022 36.0352H54.2718V26.5907H57.6022V36.0352ZM66.6988 36.0352H62.9955L58.9195 26.5907H62.5481L64.8596 33.2018L67.1461 26.5907H70.7748L66.6988 36.0352ZM76.367 34.4943C75.9444 34.4943 75.5716 34.4197 75.2485 34.2457C74.8509 34.0469 74.6769 33.7735 74.6769 33.4007C74.6769 32.6799 75.3231 32.2325 76.6155 32.0337C77.386 31.9343 77.7836 31.8597 77.8085 31.8597C78.0073 31.81 78.3304 31.7106 78.8027 31.5366V32.1331C78.8027 33.003 78.4796 33.6492 77.8334 34.0717C77.386 34.3451 76.9137 34.4943 76.367 34.4943ZM82.1331 35.2896C82.0834 35.0659 82.0585 34.6682 82.0585 34.0966L82.1331 29.772C82.1331 28.8524 81.9343 28.1565 81.5366 27.6594C80.7661 26.6901 79.25 26.2179 77.0132 26.2179C75.1491 26.2179 73.7573 26.5907 72.8626 27.3363C72.1666 27.9079 71.8187 28.6784 71.769 29.6477H74.9503C74.9503 28.6287 75.6462 28.1068 77.0132 28.1068C78.2062 28.1068 78.8027 28.5293 78.8027 29.3743C78.8027 29.5483 78.8027 29.6229 78.8027 29.6229C78.8027 29.9957 78.6287 30.2194 78.2807 30.3188C78.057 30.3933 77.3114 30.4928 76.0936 30.617C74.4781 30.7662 73.3099 31.0644 72.5892 31.4621C71.6944 31.9343 71.247 32.6551 71.247 33.6492C71.247 34.37 71.4707 34.9665 71.9429 35.4387C72.5892 36.0849 73.6579 36.408 75.1243 36.408C76.7895 36.408 78.0322 35.9855 78.8524 35.1156H78.9269L79.2003 36.0352H82.7047V35.8861C82.4065 35.8115 82.2077 35.6127 82.1331 35.2896ZM88.0483 36.3086C86.9299 36.3086 86.1346 36.0849 85.6624 35.6127C85.2647 35.1902 85.0907 34.4943 85.0907 33.5498V28.4796H83.0527V26.5907H85.0907V23.7325H88.4212V26.5907H90.7823V28.4796H88.4212V33.0279C88.4212 33.4752 88.4709 33.7735 88.5703 33.9226C88.7443 34.196 89.1419 34.3203 89.7384 34.3203C90.0864 34.3203 90.4343 34.2706 90.7823 34.1463V36.0601C89.7633 36.234 88.8437 36.3086 88.0483 36.3086ZM100.823 27.6843C100.525 27.9825 100.053 28.1316 99.4315 28.1316H96.101V25.522H99.2824C100.575 25.522 101.221 25.9445 101.221 26.7895C101.221 27.1375 101.097 27.4606 100.823 27.6843ZM102.414 29.0512V29.0264C104.079 28.5541 104.924 27.6594 104.924 26.3173C104.924 24.1053 103.334 22.9868 100.177 22.9868H92.4972V36.0352H99.8043C103.731 36.0352 105.695 34.8173 105.695 32.3817C105.695 31.2881 105.272 30.443 104.402 29.8217C103.855 29.4489 103.209 29.1755 102.414 29.0512ZM99.854 33.525H96.101V30.5425H99.3818H99.6055C99.7297 30.5673 99.8788 30.5673 100.028 30.5673C100.624 30.5673 101.097 30.7413 101.445 31.0644C101.718 31.3378 101.867 31.6609 101.867 32.0337C101.867 32.5805 101.594 33.003 101.047 33.2516C100.674 33.4256 100.277 33.525 99.854 33.525ZM113.623 34.0717C113.201 34.3451 112.704 34.4943 112.182 34.4943C111.759 34.4943 111.361 34.4197 111.038 34.2457C110.665 34.0469 110.467 33.7735 110.467 33.4007C110.467 32.6799 111.138 32.2325 112.43 32.0337C113.176 31.9343 113.573 31.8597 113.623 31.8597C113.822 31.81 114.145 31.7106 114.617 31.5366V32.1331C114.617 33.003 114.294 33.6492 113.623 34.0717ZM117.948 35.2896C117.873 35.0659 117.873 34.6682 117.873 34.0966L117.923 29.772C117.948 28.8524 117.749 28.1565 117.351 27.6594C116.556 26.6901 115.065 26.2179 112.828 26.2179C110.939 26.2179 109.572 26.5907 108.677 27.3363C107.981 27.9079 107.608 28.6784 107.584 29.6477H110.765C110.765 28.6287 111.461 28.1068 112.803 28.1068C114.021 28.1068 114.617 28.5293 114.617 29.3743C114.617 29.5483 114.617 29.6229 114.617 29.6229C114.617 29.9957 114.418 30.2194 114.095 30.3188C113.847 30.3933 113.126 30.4928 111.908 30.617C110.293 30.7662 109.1 31.0644 108.404 31.4621C107.484 31.9343 107.037 32.6551 107.037 33.6492C107.037 34.37 107.285 34.9665 107.758 35.4387C108.404 36.0849 109.472 36.408 110.939 36.408C112.604 36.408 113.847 35.9855 114.667 35.1156H114.742L115.015 36.0352H118.519V35.8861C118.221 35.8115 118.022 35.6127 117.948 35.2896ZM127.79 36.0352V30.5673C127.79 28.927 127.169 28.1068 125.901 28.1068C125.23 28.1068 124.683 28.3305 124.285 28.7778C123.888 29.2252 123.689 29.8714 123.689 30.7164V36.0352H120.334V26.5907H123.54V27.7091C124.41 26.715 125.677 26.2179 127.392 26.2179C129.902 26.2179 131.145 27.5103 131.145 30.0951V36.0352H127.79ZM144.591 36.0352H140.639L137.508 32.1083L136.389 33.1024V36.0352H133.034V22.9869H136.389V30.1697L140.192 26.5907H144.218L139.77 30.3188L144.591 36.0352ZM5.40878 13.592V24.4781H7.74506C13.8343 24.4781 16.9162 27.5848 16.9162 33.6741V35.9855H27.8022V13.592H5.40878ZM23.1794 31.3627H21.3899C20.6194 24.8509 16.5434 20.7748 10.0565 20.0044V18.2149H23.1794V31.3627Z" fill="#67A600"/>
<path fill-rule="evenodd" clip-rule="evenodd" d="M14.1574 35.9855V27.2369H5.40878V35.9855H14.1574Z" fill="#231F20"/>
</g>
</svg>
