<?xml version="1.0" encoding="utf-8"?><svg width="150" height="50" viewBox="0 0 150 50" fill="none" xmlns="http://www.w3.org/2000/svg">
<mask id="mask0_7544_133745" style="mask-type:alpha" maskUnits="userSpaceOnUse" x="0" y="0" width="150" height="50">
<rect width="150" height="50" fill="#D9D9D9"/>
</mask>
<g mask="url(#mask0_7544_133745)">
</g>
<g clip-path="url(#clip0_7544_133745)">
<path d="M36.6434 20.0094C38.9712 21.6725 41.8229 22.6511 44.9029 22.6511V16.7274C44.32 16.7275 43.7386 16.6668 43.1683 16.546V21.2088C40.0886 21.2088 37.2373 20.2302 34.9089 18.5672V30.6558C34.9089 36.7031 30.0041 41.6051 23.954 41.6051C21.6966 41.6051 19.5984 40.923 17.8555 39.7531C19.8448 41.7861 22.619 43.0473 25.6882 43.0473C31.7386 43.0473 36.6437 38.1453 36.6437 32.0977V20.0094H36.6434ZM38.7832 14.0331C37.5935 12.7341 36.8124 11.0553 36.6434 9.19942V8.4375H34.9997C35.4134 10.7964 36.8247 12.8117 38.7832 14.0331ZM21.6821 35.1126C21.0175 34.2416 20.6583 33.176 20.6599 32.0804C20.6599 29.3146 22.9033 27.072 25.6711 27.072C26.1869 27.0719 26.6997 27.1508 27.1912 27.3067V21.2506C26.6168 21.1719 26.037 21.1385 25.4574 21.1508V25.8646C24.9655 25.7087 24.4525 25.6295 23.9366 25.63C21.1688 25.63 18.9255 27.8723 18.9255 30.6385C18.9255 32.5944 20.0468 34.2877 21.6821 35.1126Z" fill="#FF004F"/>
<path d="M34.9101 18.5671C37.2385 20.2301 40.0898 21.2087 43.1695 21.2087V16.5459C41.4504 16.1799 39.9286 15.282 38.7843 14.0331C36.8257 12.8115 35.4146 10.7962 35.0009 8.4375H30.6833V32.0975C30.6735 34.8557 28.4339 37.0892 25.672 37.0892C24.0445 37.0892 22.5986 36.3138 21.6829 35.1126C20.0477 34.2877 18.9264 32.5942 18.9264 30.6386C18.9264 27.8727 21.1697 25.6301 23.9375 25.6301C24.4678 25.6301 24.9789 25.7126 25.4584 25.8647V21.1509C19.5146 21.2736 14.7344 26.1277 14.7344 32.0976C14.7344 35.0777 15.9248 37.7793 17.8568 39.7533C19.5997 40.923 21.6979 41.6052 23.9553 41.6052C30.0055 41.6052 34.9102 36.703 34.9102 30.6558V18.5671H34.9101Z" fill="black"/>
<path d="M43.1695 16.5504V15.2896C41.6194 15.292 40.0996 14.8581 38.7844 14.0375C39.9487 15.3115 41.4818 16.19 43.1695 16.5504ZM35.0009 8.44205C34.9614 8.21662 34.9311 7.9897 34.9101 7.76192V7H28.9486V30.6602C28.9391 33.4181 26.6996 35.6515 23.9375 35.6515C23.1266 35.6515 22.361 35.4591 21.683 35.1173C22.5987 36.3183 24.0446 37.0936 25.6721 37.0936C28.4337 37.0936 30.6737 34.8604 30.6833 32.1021V8.44205H35.0009ZM25.4586 21.1555V19.8133C24.9605 19.7452 24.4583 19.7111 23.9555 19.7113C17.9048 19.7112 13 24.6134 13 30.6602C13 34.4512 14.9277 37.7923 17.8569 39.7576C15.9249 37.7837 14.7345 35.082 14.7345 32.102C14.7345 26.1323 19.5146 21.2782 25.4586 21.1555Z" fill="#00F2EA"/>
<path d="M112.243 36.6522C116.573 36.6522 120.082 33.171 120.082 28.8771C120.082 24.5834 116.573 21.1016 112.243 21.1016H111.062C115.392 21.1016 118.901 24.5833 118.901 28.8771C118.901 33.171 115.392 36.6522 111.062 36.6522H112.243Z" fill="#FF004F"/>
<path d="M110.958 21.1016H109.777C105.448 21.1016 101.938 24.5833 101.938 28.8771C101.938 33.171 105.448 36.6522 109.777 36.6522H110.958C106.628 36.6522 103.118 33.171 103.118 28.8771C103.118 24.5834 106.628 21.1016 110.958 21.1016Z" fill="#00F2EA"/>
<path d="M51.3633 17.5859V21.527H55.9797V36.5444H60.598V21.6334H64.3558L65.6443 17.5861L51.3633 17.5859ZM89.1599 17.5859V21.527H93.7763V36.5444H98.3946V21.6334H102.152L103.441 17.5861L89.1599 17.5859ZM66.5041 19.8224C66.5041 18.5875 67.512 17.5859 68.7572 17.5859C70.0035 17.5859 71.0125 18.5875 71.0125 19.8224C71.0125 21.0575 70.0041 22.0591 68.7572 22.0591C67.512 22.0585 66.5041 21.0575 66.5041 19.8224ZM66.5041 23.6571H71.0125V36.5444H66.5041V23.6571ZM72.9456 17.5859V36.5443H77.4557V31.6454L78.8518 30.3662L83.2536 36.6507H88.0852L81.7495 27.4911L87.4406 21.952H81.9646L77.4557 26.4252V17.5859H72.9456ZM121.586 17.5859V36.5443H126.097V31.6454L127.493 30.3662L131.896 36.6507H136.728L130.392 27.4911L136.083 21.952H130.607L126.097 26.4252V17.5859H121.586Z" fill="black"/>
<path d="M111.063 36.6522C115.392 36.6522 118.902 33.171 118.902 28.8771C118.902 24.5834 115.392 21.1016 111.063 21.1016H110.956C106.627 21.1016 103.117 24.5833 103.117 28.8771C103.117 33.171 106.627 36.6522 110.956 36.6522H111.063ZM107.197 28.8771C107.197 26.7885 108.905 25.0966 111.01 25.0966C113.114 25.0966 114.822 26.7885 114.822 28.8771C114.822 30.9658 113.114 32.6586 111.01 32.6586C108.905 32.6582 107.197 30.9658 107.197 28.8771Z" fill="black"/>
</g>
<defs>
<clipPath id="clip0_7544_133745">
<rect width="123.728" height="36.0517" fill="white" transform="translate(13 7)"/>
</clipPath>
</defs>
</svg>
