<svg width="151" height="51" viewBox="0 0 151 51" fill="none" xmlns="http://www.w3.org/2000/svg">
<mask id="mask0_9549_125651" style="mask-type:alpha" maskUnits="userSpaceOnUse" x="0" y="0" width="151" height="51">
<rect x="0.575806" y="0.427246" width="150" height="50" fill="#D9D9D9"/>
</mask>
<g mask="url(#mask0_9549_125651)">
<path d="M8.85626 26.3066C9.69516 26.3066 10.4109 26.9031 10.5725 27.7213C11.4961 32.2943 15.0749 35.8731 19.6696 36.8137C20.4931 36.9743 21.0934 37.6778 21.1088 38.5113V41.0807C13.2047 40.6219 6.87061 34.3972 6.32417 26.5513V26.3143H8.85626V26.3066ZM37.6559 26.3066C37.2403 34.2596 30.8678 40.6372 22.8636 41.1037V38.5572C22.8636 37.716 23.4639 36.9972 24.2951 36.8366C28.8975 35.8884 32.484 32.3019 33.3922 27.7213C33.5461 26.8954 34.2619 26.2913 35.1085 26.2837L37.6559 26.3066ZM21.1088 9.75073V12.2972C21.1088 13.1384 20.5008 13.8572 19.6696 14.0178C15.0672 14.966 11.4807 18.5525 10.5725 23.1331C10.4263 23.9513 9.71825 24.5554 8.87935 24.5707H6.30878C6.71668 16.6025 13.0892 10.2172 21.1088 9.75073ZM35.8935 18.1625C36.9248 20.1278 37.5251 22.2919 37.6559 24.5096V24.586H35.1162C34.2619 24.586 33.5384 23.9666 33.3922 23.1331C33.0843 21.619 32.4763 20.1813 31.6066 18.8966V18.8354L33.3229 17.5584C34.1002 16.9849 35.2008 17.1378 35.778 17.9101C35.8165 17.979 35.855 18.0478 35.8935 18.1243V18.1625Z" fill="#EB4E29"/>
<path d="M21.8246 23.6378L17.0836 19.8907L15.4674 21.5349L22.8944 29.8472C26.2115 23.7143 30.2906 18.0096 35.0238 12.8707C34.6082 12.4425 34.1772 12.0372 33.7308 11.6548C33.0766 12.1519 32.4378 12.6566 31.8067 13.1843C29.2669 11.1272 26.1345 9.92661 22.8636 9.75073V12.2896C22.8636 13.1307 23.4639 13.8572 24.3028 14.0178C25.8882 14.339 27.389 14.989 28.7051 15.9219C26.1884 18.2925 23.8872 20.8696 21.8246 23.6378Z" fill="#27C26C"/>
<path d="M55.6654 21.9479H51.7171V32.3708H49.0465V21.9555H45.1368V19.8679H55.6654V21.9479ZM59.7213 32.3708H57.1508V23.0796H59.7213V32.3708ZM56.9968 20.6708C56.9891 20.3267 57.1277 19.9902 57.3816 19.7532C57.9974 19.2714 58.867 19.2714 59.4827 19.7532C59.7444 19.9902 59.883 20.3191 59.8753 20.6708C59.8907 21.0226 59.7444 21.3667 59.4827 21.6038C58.867 22.0855 58.0051 22.0855 57.3893 21.6038C57.1277 21.3667 56.9814 21.0226 56.9968 20.6708ZM64.2391 23.0796L64.3237 24.1196C65.0087 23.3014 66.04 22.8502 67.1098 22.9038C68.1719 22.8043 69.1878 23.3702 69.6573 24.3185C70.3038 23.4008 71.3736 22.8655 72.4973 22.9038C73.3592 22.8502 74.2058 23.1714 74.8062 23.7832C75.3757 24.5479 75.6451 25.4885 75.5758 26.4367V32.3708H73.036V26.4443C73.0745 26.0314 72.959 25.6261 72.7127 25.2896C72.4126 25.0067 71.997 24.8767 71.5891 24.9226C70.881 24.8843 70.2268 25.3202 69.9882 25.9855V32.3708H67.4331V26.452C67.4715 26.0391 67.3561 25.6185 67.1098 25.282C66.802 25.0143 66.4018 24.8843 65.9939 24.9226C65.3397 24.8843 64.7163 25.2285 64.4084 25.802V32.3708H61.8378V23.0796H64.2391ZM82.0022 32.5467C80.7323 32.6002 79.4932 32.1414 78.562 31.2849C77.6615 30.4132 77.1766 29.1973 77.2382 27.9432V27.7214C77.2228 26.8573 77.4152 26.0008 77.7923 25.2208C78.1387 24.5096 78.6928 23.9132 79.3778 23.5155C80.0781 23.1179 80.8786 22.9114 81.6867 22.9191C82.8411 22.8655 83.9571 23.3014 84.7652 24.1196C85.5733 25.0679 85.9735 26.2914 85.8966 27.5302V28.5473H79.778C79.8857 29.7173 80.9016 30.6043 82.0869 30.5585C82.9797 30.5967 83.834 30.2143 84.3958 29.5185L85.658 30.8796C85.2655 31.4226 84.7344 31.8432 84.1187 32.1185C83.4491 32.4014 82.7334 32.5467 82.0022 32.5467ZM81.7098 24.8996C81.248 24.8843 80.7939 25.0602 80.4707 25.3967C80.1243 25.802 79.9165 26.2991 79.8626 26.8267H83.4337V26.6279C83.4568 26.1614 83.2875 25.6949 82.972 25.3508C82.6333 25.0449 82.1869 24.8843 81.7329 24.9149L81.7098 24.8996ZM92.0998 32.3555V19.8679H96.0788C97.1563 19.8526 98.2184 20.1126 99.1574 20.6326C100.05 21.122 100.781 21.8561 101.258 22.7432C101.782 23.6991 102.043 24.7696 102.028 25.8555V26.4367C102.028 27.5073 101.766 28.5549 101.258 29.4955C100.781 30.3826 100.05 31.1167 99.1651 31.5985C98.2184 32.1108 97.164 32.3785 96.0865 32.3632H92.0998V32.3555ZM94.7627 21.9402V30.2832H96.048C96.9562 30.3367 97.8413 29.9773 98.4416 29.2967C99.0419 28.4785 99.3344 27.4843 99.2805 26.4749V25.8096C99.3575 24.7849 99.065 23.7602 98.4647 22.9191C97.8644 22.2385 96.987 21.8791 96.0788 21.9402H94.7627ZM103.352 27.622C103.336 26.7732 103.521 25.9243 103.898 25.1596C104.245 24.4561 104.799 23.8749 105.484 23.4849C106.223 23.0796 107.054 22.8808 107.9 22.9038C109.07 22.8579 110.217 23.2708 111.079 24.0585C111.926 24.8843 112.41 26.0085 112.449 27.1861V27.8208C112.511 29.0826 112.064 30.3138 111.21 31.2467C109.347 32.9749 106.446 32.9749 104.583 31.2467C103.721 30.2908 103.275 29.0291 103.344 27.7443V27.622H103.352ZM105.915 27.8055C105.869 28.5167 106.046 29.2202 106.43 29.8243C106.777 30.2908 107.331 30.5508 107.908 30.5279C108.478 30.5508 109.024 30.2908 109.363 29.832C109.763 29.1667 109.948 28.3943 109.886 27.622C109.925 26.9108 109.748 26.2073 109.363 25.6108C109.024 25.1367 108.47 24.8691 107.885 24.8996C107.308 24.8767 106.761 25.1443 106.43 25.6108C106.03 26.2761 105.853 27.0485 105.915 27.8208V27.8055ZM118.029 30.5279C118.444 30.5432 118.86 30.4132 119.183 30.1455C119.476 29.8932 119.645 29.5261 119.645 29.1438H122.054C122.054 29.7555 121.869 30.3596 121.523 30.872C121.169 31.4073 120.669 31.8279 120.084 32.0955C119.453 32.3938 118.768 32.5391 118.075 32.5314C116.859 32.5926 115.674 32.1261 114.819 31.262C113.981 30.2908 113.557 29.0367 113.634 27.7596V27.5991C113.58 26.3526 114.004 25.1291 114.827 24.1885C115.666 23.3091 116.851 22.8426 118.067 22.9038C119.129 22.8426 120.176 23.202 120.984 23.8979C121.715 24.5785 122.123 25.542 122.092 26.5361H119.683C119.683 26.1002 119.522 25.6796 119.222 25.3661C118.506 24.7238 117.405 24.7773 116.751 25.4808C116.728 25.5038 116.713 25.5267 116.697 25.5496C116.336 26.1691 116.174 26.8879 116.236 27.5991V27.8514C116.182 28.5702 116.336 29.2891 116.69 29.9161C117.013 30.3443 117.529 30.5814 118.067 30.5432L118.029 30.5279ZM126.587 20.7779V23.072H128.234V24.892H126.587V29.5261C126.556 29.8014 126.633 30.0691 126.795 30.2908C127.01 30.4667 127.287 30.5432 127.565 30.5126C127.826 30.5126 128.08 30.4973 128.334 30.4514V32.3096C127.834 32.4626 127.318 32.5391 126.795 32.5391C124.994 32.5391 124.078 31.6596 124.047 29.9008V24.8996H122.639V23.0796H124.063V20.7855H126.587V20.7779ZM128.727 27.6602C128.711 26.8114 128.896 25.9626 129.273 25.1979C129.627 24.4943 130.174 23.9132 130.859 23.5232C131.597 23.1026 132.444 22.8885 133.298 22.9038C134.468 22.8579 135.607 23.2708 136.469 24.0585C137.316 24.8843 137.808 26.0085 137.839 27.1861V27.8208C137.901 29.0826 137.454 30.3138 136.6 31.2467C134.738 32.9749 131.836 32.9749 129.973 31.2467C129.111 30.2908 128.665 29.0291 128.734 27.7443V27.6602H128.727ZM131.29 27.8438C131.243 28.5549 131.428 29.2585 131.805 29.8626C132.152 30.3291 132.706 30.5891 133.283 30.5661C133.852 30.5891 134.399 30.3291 134.738 29.8702C135.138 29.2049 135.322 28.4326 135.261 27.6602C135.299 26.9491 135.122 26.2455 134.738 25.6491C134.106 24.8461 132.929 24.7008 132.121 25.3355C132.005 25.4273 131.898 25.5343 131.805 25.6491C131.42 26.3067 131.243 27.0638 131.29 27.8208V27.8438ZM144.843 25.4273C144.535 25.3891 144.227 25.3661 143.919 25.3585C143.15 25.2591 142.388 25.6338 142.011 26.3143V32.432H139.448V23.0796H141.872L141.941 24.1885C142.349 23.3932 143.173 22.8961 144.073 22.9038C144.335 22.9038 144.597 22.942 144.843 23.0185V25.4273Z" fill="#4F5062"/>
</g>
</svg>
