<svg width="150" height="50" viewBox="0 0 150 50" fill="none" xmlns="http://www.w3.org/2000/svg">
<mask id="mask0_8707_118423" style="mask-type:alpha" maskUnits="userSpaceOnUse" x="0" y="0" width="150" height="50">
<rect width="150" height="50" fill="#D9D9D9"/>
</mask>
<g mask="url(#mask0_8707_118423)">
</g>
<g clip-path="url(#clip0_8707_118423)">
<path d="M62.1707 18.2402C61.4016 18.2423 60.6421 18.4122 59.9454 18.7379C59.2486 19.0636 58.6312 19.5374 58.1363 20.1262V18.9126H54.0938V38.65H58.5873V31.7374C59.5915 32.5796 60.8602 33.0413 62.1707 33.0412C64.1013 33.0132 65.9419 32.2203 67.2886 30.8368C68.6352 29.4532 69.378 27.5918 69.3539 25.6612C69.378 23.7306 68.6352 21.8693 67.2886 20.4857C65.9419 19.1021 64.1013 18.3093 62.1707 18.2812M69.3539 25.6612C69.378 23.7306 68.6352 21.8693 67.2886 20.4857C65.9419 19.1021 64.1013 18.3093 62.1707 18.2812M61.7279 28.9412C61.074 28.9691 60.4267 28.8006 59.8693 28.4575C59.3119 28.1144 58.8698 27.6124 58.6001 27.016C58.3303 26.4197 58.2451 25.7563 58.3555 25.1111C58.4659 24.4659 58.7668 23.8685 59.2194 23.3958C59.6721 22.923 60.2559 22.5965 60.8956 22.4582C61.5354 22.32 62.2019 22.3762 62.8094 22.6199C63.4169 22.8635 63.9376 23.2833 64.3046 23.8253C64.6716 24.3673 64.868 25.0067 64.8685 25.6612C64.8783 26.083 64.8048 26.5025 64.6522 26.8958C64.4995 27.2891 64.2708 27.6484 63.979 27.9531C63.6873 28.2578 63.3382 28.5019 62.952 28.6715C62.5657 28.841 62.1497 28.9327 61.7279 28.9412Z" fill="#047BC1"/>
<path d="M76.7589 30.3517C76.7605 30.8856 76.6036 31.408 76.3082 31.8528C76.0127 32.2975 75.592 32.6446 75.0992 32.85C74.6064 33.0554 74.0637 33.11 73.5398 33.0069C73.0159 32.9037 72.5345 32.6474 72.1564 32.2705C71.7782 31.8935 71.5205 31.4128 71.4157 30.8893C71.311 30.3657 71.3639 29.8229 71.5679 29.3294C71.7718 28.836 72.1176 28.4142 72.5614 28.1174C73.0052 27.8206 73.5271 27.6621 74.0611 27.6621C74.415 27.661 74.7656 27.7298 75.0929 27.8645C75.4201 27.9992 75.7176 28.1971 75.9682 28.447C76.2188 28.6968 76.4177 28.9937 76.5534 29.3206C76.689 29.6474 76.7589 29.9978 76.7589 30.3517Z" fill="#FCAF17"/>
<path fill-rule="evenodd" clip-rule="evenodd" d="M48.7014 17.027C48.2031 17.0286 47.7156 16.8823 47.3006 16.6067C46.8855 16.3311 46.5616 15.9385 46.3698 15.4786C46.178 15.0188 46.127 14.5124 46.2232 14.0235C46.3194 13.5346 46.5585 13.0853 46.9102 12.7324C47.2619 12.3795 47.7105 12.139 48.199 12.0412C48.6876 11.9434 49.1942 11.9927 49.6546 12.183C50.1151 12.3733 50.5088 12.696 50.7857 13.1101C51.0627 13.5243 51.2106 14.0113 51.2106 14.5096C51.2117 14.8398 51.1476 15.1669 51.0219 15.4723C50.8963 15.7777 50.7117 16.0553 50.4786 16.2892C50.2455 16.523 49.9685 16.7086 49.6635 16.8352C49.3585 16.9618 49.0316 17.027 48.7014 17.027Z" fill="#047BC1"/>
<path d="M50.9542 18.9121H46.4688V32.3765H50.9542V18.9121Z" fill="#047BC1"/>
<path fill-rule="evenodd" clip-rule="evenodd" d="M20 12.6309V16.3947H25.8302V32.3683H30.3238V16.3947H36.154V12.6309H20Z" fill="#047BC1"/>
<path d="M86.1816 28.9161C85.3117 28.9161 84.4774 28.5705 83.8623 27.9554C83.2471 27.3402 82.9016 26.506 82.9016 25.6361C82.9016 24.7661 83.2471 23.9319 83.8623 23.3167C84.4774 22.7016 85.3117 22.3561 86.1816 22.3561C86.6082 22.3575 87.0299 22.4479 87.4196 22.6216C87.8093 22.7953 88.1584 23.0484 88.4448 23.3647L91.4132 20.3963C90.3791 19.369 89.0641 18.671 87.6338 18.3902C86.2036 18.1094 84.7222 18.2584 83.3765 18.8184C82.0309 19.3784 80.8812 20.3244 80.0724 21.5369C79.2636 22.7495 78.832 24.1744 78.832 25.632C78.832 27.0895 79.2636 28.5144 80.0724 29.727C80.8812 30.9396 82.0309 31.8855 83.3765 32.4455C84.7222 33.0055 86.2036 33.1545 87.6338 32.8737C89.0641 32.5929 90.3791 31.8949 91.4132 30.8677L88.4448 27.9075C88.1572 28.2222 87.8077 28.4742 87.4183 28.6477C87.0289 28.8213 86.6079 28.9126 86.1816 28.9161Z" fill="#047BC1"/>
<path fill-rule="evenodd" clip-rule="evenodd" d="M125.451 18.2316C124.619 18.1791 123.788 18.3572 123.05 18.7463C122.312 19.1355 121.696 19.7207 121.269 20.4374C120.86 19.7418 120.271 19.1696 119.564 18.7814C118.857 18.3931 118.058 18.2031 117.251 18.2316C116.458 18.2089 115.674 18.4022 114.982 18.7907C114.29 19.1792 113.717 19.7484 113.323 20.4374V18.9122H109.289V32.3684H113.774V23.9716C113.757 23.702 113.795 23.4316 113.886 23.1772C113.978 22.9228 114.12 22.6899 114.305 22.4927C114.49 22.2956 114.713 22.1385 114.961 22.031C115.209 21.9236 115.476 21.8682 115.747 21.8682C116.017 21.8682 116.284 21.9236 116.532 22.031C116.78 22.1385 117.003 22.2956 117.188 22.4927C117.373 22.6899 117.515 22.9228 117.607 23.1772C117.698 23.4316 117.736 23.702 117.719 23.9716V32.3684H121.942V23.9716C121.924 23.702 121.962 23.4316 122.054 23.1772C122.145 22.9228 122.287 22.6899 122.472 22.4927C122.657 22.2956 122.88 22.1385 123.128 22.031C123.376 21.9236 123.644 21.8682 123.914 21.8682C124.184 21.8682 124.451 21.9236 124.699 22.031C124.947 22.1385 125.171 22.2956 125.355 22.4927C125.54 22.6899 125.683 22.9228 125.774 23.1772C125.865 23.4316 125.903 23.702 125.886 23.9716V32.3684H130.371V23.127C130.371 20.093 128.469 18.207 125.451 18.207" fill="#047BC1"/>
<path d="M99.6378 18.2402C98.1782 18.2402 96.7513 18.6731 95.5377 19.484C94.3241 20.2949 93.3782 21.4475 92.8196 22.796C92.261 24.1445 92.1149 25.6284 92.3996 27.06C92.6844 28.4916 93.3873 29.8066 94.4194 30.8387C95.4515 31.8708 96.7665 32.5737 98.1981 32.8584C99.6296 33.1432 101.113 32.997 102.462 32.4385C103.811 31.8799 104.963 30.934 105.774 29.7203C106.585 28.5067 107.018 27.0799 107.018 25.6202C107.018 23.6629 106.24 21.7858 104.856 20.4018C103.472 19.0178 101.595 18.2402 99.6378 18.2402ZM99.6378 28.9002C98.9839 28.9281 98.3366 28.7596 97.7791 28.4165C97.2217 28.0734 96.7797 27.5714 96.51 26.975C96.2402 26.3787 96.155 25.7153 96.2654 25.0701C96.3758 24.4249 96.6766 23.8275 97.1293 23.3548C97.582 22.882 98.1657 22.5555 98.8055 22.4172C99.4453 22.2789 100.112 22.3352 100.719 22.5789C101.327 22.8225 101.848 23.2423 102.214 23.7843C102.581 24.3263 102.778 24.9657 102.778 25.6202C102.796 26.4714 102.475 27.2948 101.886 27.9097C101.298 28.5246 100.489 28.8809 99.6378 28.9002Z" fill="#047BC1"/>
<path d="M43.3309 18.8399C42.5299 18.8384 41.7413 19.0371 41.0367 19.4181C40.3321 19.799 39.7339 20.35 39.2965 21.0211V18.9137H35.2539V32.3699H39.7639V26.7611C39.7431 26.2612 39.8261 25.7625 40.0079 25.2964C40.1897 24.8303 40.4662 24.407 40.8199 24.0533C41.1737 23.6995 41.597 23.423 42.0631 23.2413C42.5291 23.0595 43.0279 22.9764 43.5277 22.9973C43.7645 23.0011 44.0005 23.0258 44.2329 23.0711V18.9711C43.9343 18.9255 43.6329 18.9008 43.3309 18.8973" fill="#047BC1"/>
</g>
<defs>
<clipPath id="clip0_8707_118423">
<rect width="110.372" height="26.65" fill="white" transform="translate(20 12)"/>
</clipPath>
</defs>
</svg>
