<svg width="150" height="50" viewBox="0 0 150 50" fill="none" xmlns="http://www.w3.org/2000/svg">
<mask id="mask0_8047_131850" style="mask-type:alpha" maskUnits="userSpaceOnUse" x="0" y="0" width="150" height="50">
<rect width="150" height="50" fill="#D9D9D9"/>
</mask>
<g mask="url(#mask0_8047_131850)">
<path d="M112.969 19.3685V19.4163C119.123 19.9338 120.93 24.3047 120.843 26.8444C120.699 34.2009 114.999 40.1243 105.803 40.8488V40.8886C115.907 40.2836 121.822 35.0608 121.949 27.5769C121.933 24.8222 119.927 19.7745 112.969 19.3685Z" fill="#245ABC"/>
<path d="M105.803 40.7612C109.555 40.5098 113.078 38.864 115.678 36.1474C118.278 33.4307 119.769 29.8396 119.856 26.0801C119.856 23.7553 118.263 19.9338 112.913 19.5038V19.5436C117.34 20.0134 118.9 23.2378 118.868 25.3476C118.741 32.4414 113.239 39.9571 105.851 40.7135L105.803 40.7612Z" fill="#245ABC"/>
<path d="M105.867 40.6259C112.404 39.9492 117.666 31.5417 117.809 24.5754C117.809 22.6885 116.607 20.0532 112.873 19.6312V19.679C115.811 20.1248 116.854 22.171 116.854 23.8509C116.735 30.6739 111.607 39.8297 105.979 40.5702L105.867 40.6259Z" fill="#245ABC"/>
<path d="M105.955 40.4428V40.4985C110.732 39.8059 115.66 29.7663 115.779 23.0786C115.812 22.2495 115.52 21.4403 114.966 20.8232C114.411 20.2061 113.637 19.8299 112.81 19.7745V19.8223C113.393 19.9203 113.917 20.2364 114.277 20.7064C114.636 21.1765 114.803 21.7654 114.744 22.3541C114.561 28.8905 109.784 39.7342 105.955 40.4428ZM102.953 37.8473C103.065 31.5577 108.025 20.507 111.711 19.7586V19.7029C107.093 20.3876 101.99 30.6023 101.87 37.083C101.839 37.5004 101.892 37.9199 102.026 38.3166C102.159 38.7133 102.371 39.0791 102.649 39.3924C102.926 39.7057 103.264 39.9601 103.642 40.1405C104.02 40.3209 104.43 40.4237 104.848 40.4428V40.395C104.555 40.3542 104.274 40.2555 104.02 40.1049C103.766 39.9543 103.544 39.7546 103.368 39.5176C103.191 39.2805 103.064 39.0108 102.993 38.724C102.922 38.4373 102.908 38.1393 102.953 37.8473Z" fill="#245ABC"/>
<path d="M100.923 36.3505C101.042 29.7026 106.385 20.3716 111.814 19.6312V19.5835C105.445 20.2602 100.007 28.795 99.8721 35.5862C99.8721 37.4811 101.114 40.2836 104.808 40.5861V40.5383C101.926 40.1641 100.891 38.0304 100.923 36.3505Z" fill="#245ABC"/>
<path d="M98.8928 34.8538C99.0123 27.8874 104.689 20.2443 111.878 19.4879V19.4401C108.157 19.7529 104.678 21.4129 102.094 24.1086C99.5092 26.8043 97.9975 30.3504 97.8419 34.0815C97.8419 36.4063 99.4342 40.3552 104.792 40.7055V40.6577C100.175 40.2437 98.861 36.9397 98.8928 34.8538Z" fill="#245ABC"/>
<path d="M96.8626 33.357C96.99 26.0403 103.296 20.0532 111.942 19.3605V19.3128C102.261 19.9099 95.9231 25.1327 95.7957 32.5847C95.74 35.3394 97.7543 40.4348 104.705 40.8329C98.638 40.3552 96.8228 35.8967 96.8626 33.357ZM91.9423 19.472C88.6064 19.0182 84.5779 20.9767 82.3088 24.4161L82.3486 24.4719C84.4983 21.3828 88.1287 19.5436 91.1064 19.9576C93.1127 20.2283 94.49 21.749 94.2114 24.7346C93.5028 32.3379 87.0937 40.8807 76.8392 40.8568V40.9125C81.4135 41.0884 85.8833 39.5165 89.3405 36.5162C92.7978 33.5158 94.9834 29.312 95.4534 24.7585C95.7321 21.4624 94.2034 19.7825 91.9423 19.472Z" fill="#245ABC"/>
<path d="M93.0091 24.7027C93.256 22.0834 92.0856 20.722 90.2465 20.4751C87.5953 20.1169 84.3708 21.7331 82.4202 24.5754L82.4601 24.6231C84.2514 22.171 87.1176 20.6423 89.4185 20.9608C91.0108 21.1758 92.0617 22.37 91.8069 24.6789C91.1939 31.2233 84.952 40.2199 76.871 40.7214C85.8995 40.7135 92.3404 31.8363 93.0091 24.7027Z" fill="#245ABC"/>
<path d="M76.9824 40.5622V40.61C84.5061 39.7103 90.0792 30.5704 90.6763 24.647C90.8515 22.7044 89.9598 21.6694 88.6302 21.4624C86.6239 21.1837 84.124 22.5372 82.5794 24.7027V24.7505C84.0523 22.8477 86.1064 21.7172 87.7306 21.9401C88.877 22.0993 89.5776 22.9671 89.4264 24.5515C88.9248 29.9494 83.8055 39.1371 76.9824 40.5622Z" fill="#245ABC"/>
<path d="M77.0699 40.3791V40.4507C82.643 38.954 87.8101 29.3045 88.2161 24.5276C88.3276 23.3095 87.7862 22.5929 86.8945 22.4735C85.5649 22.2904 83.8771 23.2697 82.643 24.862V24.9097C83.6701 23.6837 85.0315 22.8158 86.0267 22.9512C86.6716 23.0388 87.0935 23.604 87.006 24.5037C86.6955 28.6756 81.9185 38.3091 77.0699 40.3791ZM76.1941 34.9573C75.6018 36.2565 75.179 37.6265 74.9362 39.0336C74.9445 39.2994 75.0224 39.5584 75.1621 39.7847C75.3019 40.011 75.4985 40.1968 75.7324 40.3234C75.8091 40.362 75.889 40.394 75.9712 40.4189V40.3472C75.8582 40.2377 75.7743 40.1017 75.7271 39.9516C75.6798 39.8015 75.6707 39.6419 75.7005 39.4874C76.0296 38.0593 76.5128 36.6712 77.1416 35.3474L87.4916 9.07417L86.0347 9.36078C86.1143 9.69517 83.3198 16.566 83.2083 16.9084L76.1941 34.9573Z" fill="#245ABC"/>
<path d="M74.2914 34.1372C73.7653 35.3979 73.3859 36.7149 73.1609 38.0623C73.0335 39.5033 74.2914 40.2835 75.9793 40.5383V40.4905C74.8248 40.2835 73.9331 39.6944 74.0366 38.5798C74.3018 37.2147 74.7073 35.8807 75.2468 34.599L82.1415 16.8606C82.3087 16.3909 84.9281 10.0534 84.53 9.6474L83.1128 9.93402V10.0136C83.1686 11.5582 81.3772 15.7858 81.011 16.781L74.2914 34.1372Z" fill="#245ABC"/>
<path d="M78.8613 16.6934L72.3647 33.3251C71.8454 34.4974 71.4763 35.7306 71.266 36.9954C71.0908 39.0256 72.7548 40.4269 75.8678 40.6418C75.2263 40.571 74.5955 40.424 73.9888 40.2039C73.4199 40.0658 72.9215 39.7235 72.5883 39.2421C72.2551 38.7607 72.1104 38.1737 72.1816 37.5925C72.4064 36.2696 72.7969 34.9803 73.3439 33.755L79.968 16.7332C80.3024 15.8335 82.1972 11.5343 81.7434 10.2206L80.374 10.4913V10.5709C81.1224 11.598 79.2992 15.5788 78.8613 16.6934Z" fill="#245ABC"/>
<path d="M76.5048 17.0357L70.5018 32.5131C70.0063 33.6118 69.6686 34.7751 69.4986 35.9684C69.2836 38.5081 71.489 40.5861 75.8679 40.7453C72.1976 40.5383 70.1992 38.8027 70.3982 36.5098C70.5824 35.2832 70.9361 34.0881 71.4492 32.9589L77.6512 17.0357C78.2086 15.5788 79.8566 12.004 78.9649 10.8098L77.5557 11.0964V11.176C78.5111 12.4897 77.1417 15.4434 76.5048 17.0357Z" fill="#245ABC"/>
<path d="M75.8042 40.8409C70.86 40.6259 68.3681 38.2136 68.6388 35.4111C68.7861 34.2908 69.0917 33.1971 69.5464 32.1628L75.2708 17.3701C75.9873 15.5231 77.3248 12.7365 76.2739 11.3591L74.9762 11.6298V11.7095C76.0828 12.9515 75.0558 14.9896 74.2994 17.0517L68.599 31.701C68.1391 32.7096 67.8409 33.7843 67.7152 34.8856C67.4445 37.9349 70.1594 40.6976 75.7883 40.8648L75.8042 40.8409ZM69.2916 22.1949C69.1881 20.2283 68.0257 19.3287 66.6165 19.3287C64.0529 19.3287 61.8396 21.3509 60.4463 24.1056V23.1343C60.3348 20.9927 58.854 19.3287 56.2187 19.3287C50.6456 19.3287 47.8989 22.999 46.9833 27.1549H47.031C48.0024 23.2617 50.5978 19.7506 55.6057 19.7506C56.0851 19.7079 56.5683 19.7645 57.0249 19.9168C57.4816 20.0691 57.9019 20.3138 58.2598 20.6358C58.6176 20.9578 58.9053 21.3501 59.1048 21.7882C59.3043 22.2263 59.4113 22.7008 59.4193 23.1821C59.5546 25.7059 58.7186 27.6724 57.8269 29.9415L53.7665 40.5543H54.8493L58.9097 30.029C59.1804 29.3045 59.4352 28.6278 59.6661 27.975C60.4622 26.303 61.4574 24.5913 61.9749 24.5913C62.3571 24.5913 62.4765 24.9177 62.5004 25.2123C62.5049 26.7967 62.0901 28.3542 61.2982 29.7265L61.346 29.7743C62.5811 28.3809 63.3177 26.6164 63.4399 24.7585C63.4399 24.2091 63.1692 23.819 62.6437 23.819C61.7759 23.819 60.6692 25.6024 59.8571 27.4893C59.9527 27.1868 60.0323 26.8842 60.1119 26.5896C60.9797 24.7028 62.1819 23.0945 63.2965 23.0945C63.9812 23.0945 64.3952 23.5642 64.4351 24.3365C64.5306 26.2154 62.8427 28.9542 61.4256 29.8539L61.4733 29.9017C63.4 29.0418 65.5178 26.2154 65.3984 23.9066C65.3427 22.8795 64.8013 22.3143 63.9414 22.3143C62.5243 22.3143 61.1549 23.9623 60.2075 26.0005C60.2075 25.8413 60.2711 25.682 60.295 25.5148C61.3539 23.3254 62.9064 21.5898 64.6341 21.5898C65.5736 21.5898 66.2901 22.2267 66.3538 23.4687C66.5051 26.2075 63.9175 29.1214 61.5768 29.9733L61.6246 30.0211C64.4987 29.2886 67.5003 26.2075 67.3331 23.0388C67.2535 21.542 66.4016 20.8175 65.2949 20.8175C63.3045 20.8255 61.5291 22.6089 60.4224 24.9973V24.6072C61.6883 22.0436 63.6867 20.101 65.9955 20.101C67.2375 20.101 68.2646 20.8971 68.384 22.6327C68.5751 26.2712 65.1994 29.3523 61.76 30.1246L61.8077 30.1644C65.7885 29.5593 69.5066 26.2632 69.2916 22.1949Z" fill="#245ABC"/>
<path d="M58.424 23.2617C58.4165 22.8287 58.3207 22.4018 58.1426 22.0071C57.9645 21.6124 57.7077 21.2581 57.3881 20.966C57.0684 20.6739 56.6925 20.45 56.2833 20.3082C55.8742 20.1663 55.4404 20.1093 55.0085 20.1408C50.5659 20.1408 48.0103 23.4448 47.1106 27.1549H47.1663C48.1536 23.6996 50.4146 20.5707 54.3875 20.5707C54.7687 20.5353 55.1532 20.5797 55.5163 20.7012C55.8794 20.8227 56.2132 21.0185 56.4963 21.2762C56.7795 21.534 57.0059 21.8479 57.1609 22.1979C57.316 22.548 57.3964 22.9266 57.397 23.3095C57.5084 25.4034 56.5212 27.7122 55.733 29.8141L51.5452 40.5542H52.6598L56.76 29.9017C57.6358 27.7122 58.5434 25.5308 58.424 23.2617Z" fill="#245ABC"/>
<path d="M56.4417 23.3493C56.4432 23.0159 56.3748 22.686 56.2411 22.3807C56.1074 22.0753 55.9112 21.8014 55.6653 21.5764C55.4193 21.3514 55.129 21.1804 54.8129 21.0744C54.4969 20.9684 54.1622 20.9297 53.8303 20.9608C50.3431 20.9608 48.2094 23.9703 47.2859 27.1629H47.3337C48.3129 24.1932 50.3193 21.3907 53.2173 21.3907C53.4947 21.3712 53.7733 21.4086 54.0357 21.5007C54.2982 21.5928 54.539 21.7377 54.7433 21.9264C54.9477 22.1151 55.1113 22.3436 55.224 22.5979C55.3367 22.8522 55.3962 23.1269 55.3987 23.405C55.4863 25.069 54.3398 27.7679 53.5835 29.6548L49.2763 40.5542H50.4307L54.6583 29.7265C55.4067 27.76 56.5213 25.276 56.4417 23.3493Z" fill="#245ABC"/>
<path d="M54.4114 23.4767C54.4134 23.2459 54.3671 23.0173 54.2756 22.8055C54.184 22.5937 54.0492 22.4033 53.8798 22.2467C53.7104 22.09 53.5101 21.9705 53.2918 21.8957C53.0735 21.821 52.842 21.7927 52.6121 21.8127C50.2236 21.8127 48.3208 24.4082 47.4132 27.1549H47.4689C48.4164 24.7027 50.0405 22.2347 51.9911 22.2347C52.1703 22.2138 52.3518 22.2321 52.5233 22.288C52.6948 22.344 52.8521 22.4365 52.9845 22.559C53.1168 22.6815 53.2211 22.8313 53.2902 22.9979C53.3592 23.1646 53.3913 23.3442 53.3844 23.5244C53.456 24.8461 52.1185 27.8476 51.4816 29.5115L47.0549 40.5542H48.1616L52.5086 29.5991C53.257 27.8476 54.491 24.9973 54.4114 23.4767Z" fill="#245ABC"/>
<path d="M52.4052 23.604C52.4173 23.471 52.4001 23.337 52.3548 23.2113C52.3096 23.0856 52.2374 22.9713 52.1434 22.8765C52.0493 22.7817 51.9356 22.7086 51.8103 22.6623C51.685 22.6161 51.5511 22.5978 51.4179 22.6089C50.0087 22.6089 48.4881 24.8301 47.5725 27.139H47.6282C48.5518 25.0849 49.9769 23.0308 50.8129 23.0308C51.1552 23.0308 51.3781 23.206 51.402 23.6359C51.4498 24.5356 49.953 27.9113 49.3479 29.3682L44.8417 40.5144H45.9563L50.4228 29.4319C51.0517 27.8874 52.4609 24.6789 52.4052 23.604ZM40.2319 33.0544L40.9485 31.5497L38.5202 19.1615C37.8435 15.6743 38.6555 14.1537 41.3943 13.6282V13.5804H38.8625C38.1301 13.9467 36.5776 15.0454 37.4454 19.1535L40.2319 33.0544Z" fill="#245ABC"/>
<path d="M38.7988 36.048L39.5074 34.5512L36.3227 19.0819C35.7256 16.0804 35.9804 14.5199 36.9756 13.6282V13.5804H35.2559C34.7304 14.703 34.5712 15.8256 35.1763 18.7953L38.7988 36.048ZM37.3338 39.0336L38.0424 37.5527L34.0616 18.7554C33.361 15.8335 33.5202 14.496 33.8069 13.5804H32.2862C32.2703 15.1614 32.474 16.7369 32.8913 18.2618L37.3338 39.0336ZM30.8929 13.5804H29.1016V13.6282C29.8977 14.5995 30.1366 15.7858 30.7735 18.4051L35.5505 40.5622H36.6253L31.8483 18.3335C31.4356 16.7695 31.1166 15.1824 30.8929 13.5804ZM27.3102 13.5804H25.3915V13.6282C27.143 14.3208 28.0029 15.6504 28.6955 18.7634L33.4167 40.5542H34.4916L29.7385 18.6281C28.9185 14.8224 28.0586 14.1218 27.3102 13.5804ZM51.7204 13.5804C49.4593 14.902 48.1138 17.3462 45.2954 23.405L45.3671 23.4448C48.6234 17.3462 50.4784 14.918 54.6821 13.6521V13.5804H51.7204ZM45.1362 23.2856L45.2078 23.3334C47.8829 17.0357 48.5836 15.2762 49.6743 13.6282V13.5804H47.5087V13.6441C47.7317 16.1679 46.8877 18.4927 45.1362 23.2856Z" fill="#245ABC"/>
<path d="M44.9929 23.19L45.0646 23.2378C46.7604 17.5931 47.3097 15.1011 45.8129 13.5804H43.7031V13.6282C46.0916 14.4721 46.5852 16.8845 44.9929 23.19ZM122.523 20.8255V21.9003H122.364V20.8255H121.902V20.6742H123V20.8255H122.523ZM124.354 21.9003V20.8573L123.972 21.8843H123.789L123.446 20.8573V21.9003H123.295L123.343 20.6742H123.621L123.94 21.7012L124.306 20.6742H124.561L124.609 21.9003H124.354Z" fill="#245ABC"/>
</g>
</svg>
