<svg width="150" height="51" viewBox="0 0 150 51" fill="none" xmlns="http://www.w3.org/2000/svg">
<path d="M118.784 16.9559V37.455L115.907 40.227V20.1728L118.784 16.9559Z" fill="#E79226"/>
<path d="M99.9484 16.9788L96.9671 20.1729L97.1173 20.3782L115.78 20.3098L115.953 20.1729L118.772 16.9674L99.9484 16.9788Z" fill="#FEEF6F"/>
<path d="M96.9787 20.1729H115.964V40.2499H96.9787V20.1729Z" fill="url(#paint0_linear_9548_125144)"/>
<path d="M113.064 27.3937C112.683 26.4697 112.128 25.6255 111.388 24.8954C110.684 24.1882 109.898 23.6406 109.008 23.287C108.141 22.9334 107.194 22.7509 106.165 22.7509C105.137 22.7509 104.178 22.9334 103.311 23.287C102.421 23.6406 101.636 24.1768 100.931 24.8954C100.191 25.6255 99.648 26.4697 99.2667 27.3937C98.8854 28.3177 98.7236 29.3329 98.7236 30.4509C98.7236 31.5346 98.9085 32.5498 99.2898 33.4852C99.6711 34.432 100.214 35.2762 100.954 36.0177C101.636 36.7135 102.421 37.2383 103.3 37.5919C104.178 37.9455 105.148 38.128 106.188 38.128C107.194 38.128 108.141 37.9455 109.008 37.5919C109.875 37.2383 110.684 36.7135 111.388 36.0177C112.128 35.2762 112.683 34.432 113.064 33.4966C113.445 32.5726 113.63 31.5346 113.63 30.4623C113.63 29.3329 113.445 28.3177 113.064 27.3937ZM109.147 34.01C108.407 34.8655 107.436 35.3104 106.165 35.3104C104.894 35.3104 103.912 34.8769 103.172 34.01C102.433 33.1544 102.075 31.9452 102.075 30.428C102.075 28.8766 102.456 27.6789 103.172 26.8005C103.912 25.9221 104.883 25.5 106.165 25.5C107.436 25.5 108.407 25.9335 109.147 26.8005C109.863 27.6789 110.244 28.8766 110.244 30.428C110.244 31.9566 109.886 33.1544 109.147 34.01Z" fill="white"/>
<path d="M95.1067 15.2904V15.3931L97.5333 33.816L96.112 37.6946L95.9271 37.5577L93.4311 19.899L93.4773 19.6594L95.0373 15.3931L95.1067 15.2904Z" fill="#0C99D7"/>
<path d="M76.4213 17.8571L95.1067 15.2904L93.5351 19.7165L93.3156 19.956L75.8436 22.4885L75.9244 19.3286L76.4213 17.8571Z" fill="#93C9EE"/>
<path d="M93.5351 19.7164L96.112 37.6945L77.6924 40.2384L75.208 22.8649L76.2827 22.0321L93.5351 19.7164Z" fill="url(#paint1_linear_9548_125144)"/>
<path d="M90.4035 23.1615C90.3227 22.6026 90.1262 22.1805 89.8258 21.8953C89.5715 21.6786 89.2595 21.5531 88.9013 21.5531C88.8204 21.5531 88.7164 21.5531 88.6124 21.5645C88.1387 21.633 87.7689 21.8497 87.5493 22.2033C87.376 22.4543 87.3067 22.7737 87.3067 23.1501C87.3067 23.287 87.3182 23.4353 87.3413 23.5836L88.0115 28.2607L82.7076 29.0364L82.0373 24.3593C81.9564 23.8232 81.76 23.4011 81.4595 23.1045C81.2053 22.865 80.8933 22.7509 80.5582 22.7509C80.4773 22.7509 80.3849 22.7509 80.304 22.7623C79.8071 22.8307 79.4373 23.0475 79.1947 23.4011C79.0213 23.6521 78.952 23.9715 78.952 24.3479C78.952 24.4848 78.9635 24.6331 78.9867 24.8042L80.8009 36.9759C80.8818 37.5349 81.0782 37.957 81.4133 38.2421C81.6675 38.4589 81.9795 38.5615 82.3493 38.5615C82.4533 38.5615 82.5573 38.5615 82.6613 38.5501C83.1235 38.4817 83.4702 38.265 83.6898 37.9113C83.84 37.6604 83.9093 37.3524 83.9093 36.9987C83.9093 36.8618 83.8978 36.7135 83.8747 36.5653L83.1351 31.7513L88.4391 30.9756L89.1787 35.7895C89.2596 36.3485 89.456 36.7706 89.7796 37.0444C90.0338 37.2611 90.3458 37.3866 90.704 37.3866C90.7849 37.3866 90.8889 37.3866 90.9929 37.3752C91.4667 37.3067 91.8364 37.09 92.056 36.7364C92.2062 36.4854 92.2987 36.1774 92.2987 35.8124C92.2987 35.6755 92.2871 35.5272 92.264 35.3789L90.4035 23.1615Z" fill="white"/>
<path d="M58.9262 10.5906L52.2702 26.1845L53.1716 33.0404L53.2178 33.0289L60.6942 16.4312L60.6596 16.0775L59.0533 10.8073L58.9262 10.5906Z" fill="#6AB96C"/>
<path d="M58.9262 10.5906L60.648 16.3171L60.6827 16.4312L77.1378 23.7091L77.184 23.6749L75.7858 18.2107L58.9262 10.5906Z" fill="#9ACDA0"/>
<path d="M60.648 16.3171L77.184 23.6749L69.7076 40.4096L53.1716 33.0518L60.648 16.3171Z" fill="url(#paint2_linear_9548_125144)"/>
<path d="M72.1804 25.0323C71.8222 24.0855 71.3253 23.2756 70.6782 22.6025C70.0311 21.9295 69.2453 21.3819 68.3209 20.9941C67.3964 20.6062 66.472 20.4237 65.536 20.4237H65.4898C64.5307 20.4237 63.5947 20.6404 62.6702 21.0511C61.6995 21.4732 60.856 22.0436 60.1395 22.8079C59.4231 23.5493 58.8453 24.4619 58.3947 25.5114C57.9555 26.5381 57.7129 27.5876 57.6551 28.6142V28.9679C57.6551 29.8804 57.8053 30.7702 58.1289 31.6486C58.4756 32.5726 58.9724 33.3711 59.6195 34.0441C60.2667 34.7172 61.0755 35.2647 62.0347 35.6526C62.936 36.0404 63.8604 36.223 64.808 36.223H64.8195C65.7555 36.223 66.7031 36.0176 67.6276 35.6298C68.5982 35.2077 69.4533 34.6145 70.1813 33.8616C70.8978 33.1201 71.4987 32.219 71.9378 31.1809C72.3769 30.1428 72.6195 29.1047 72.6773 28.0781V27.7701C72.6773 26.8347 72.5156 25.9221 72.1804 25.0323ZM68.8756 29.8919C68.2631 31.3406 67.4196 32.3444 66.4142 32.8806C65.8711 33.1658 65.3049 33.3141 64.7387 33.3141C64.2418 33.3141 63.7102 33.2 63.1787 32.9719C62.0116 32.4813 61.2951 31.7056 60.9947 30.5877C60.8907 30.2113 60.8444 29.8234 60.8444 29.4241C60.8444 28.6142 61.0524 27.7244 61.4569 26.7548C62.0924 25.2719 62.9244 24.2566 63.9413 23.6976C64.4844 23.3896 65.0507 23.2641 65.6169 23.2641C66.1253 23.2641 66.6453 23.3782 67.1884 23.6064C68.3324 24.0969 69.0489 24.8726 69.3609 25.9905C69.4649 26.3441 69.5111 26.732 69.5111 27.1427C69.5111 27.9868 69.3031 28.8994 68.8756 29.8919Z" fill="white"/>
<path d="M50.9529 13.2485L53.6569 31.1125L52.4205 37.398L52.2471 37.1813L49.624 19.9105V19.5682L50.7911 13.5451L50.9529 13.2485Z" fill="#761519"/>
<path d="M31.216 22.4771L32.4987 16.1688L50.9529 13.2485L49.7049 19.6823V20.1044L31.4471 22.6482L31.216 22.4771Z" fill="#E94740"/>
<path d="M49.7049 19.6823L52.4204 37.3865L34.1627 40.2042L31.216 22.4771L49.7049 19.6823Z" fill="url(#paint3_linear_9548_125144)"/>
<path d="M47.7405 34.569C47.6018 34.3979 47.3938 34.2838 47.1627 34.1925C46.92 34.1127 46.6311 34.0785 46.2729 34.0785C45.9493 34.0785 45.568 34.1127 45.1636 34.1811L40.3449 34.9911C40.3911 34.6146 40.5876 34.1469 40.9111 33.5537C41.2693 32.8921 41.8125 32.105 42.5173 31.1924C42.76 30.873 42.9449 30.6334 43.0836 30.4623C43.1645 30.3483 43.3031 30.1885 43.4765 29.9718C44.5858 28.5345 45.256 27.3709 45.5333 26.4583C45.6836 25.9336 45.776 25.4088 45.8107 24.8841C45.8222 24.7358 45.8222 24.5989 45.8222 24.462C45.8222 24.0856 45.7876 23.7205 45.7182 23.3441C45.672 23.0019 45.5796 22.7395 45.464 22.5114C45.3485 22.2832 45.2098 22.1235 45.0365 22.0208C44.8516 21.9068 44.5627 21.8497 44.1929 21.8497C43.904 21.8497 43.5458 21.884 43.1182 21.9524L37.5485 22.8992C36.8782 23.0133 36.3698 23.2072 36.0578 23.5038C35.8036 23.7434 35.6765 24.04 35.6765 24.3822C35.6765 24.462 35.6765 24.5647 35.688 24.6674C35.7689 25.1351 36.0116 25.4773 36.4045 25.6484C36.6471 25.7511 36.9129 25.7967 37.2596 25.7967C37.4791 25.7967 37.7333 25.7853 38.0107 25.7283L42.6676 24.9183C42.6676 24.9982 42.6791 25.0894 42.6791 25.1579C42.6791 25.4431 42.6329 25.7282 42.5289 26.002C42.3902 26.3899 42.0551 26.926 41.4889 27.6219C41.3387 27.8044 41.096 28.1124 40.7725 28.5002C39.5013 30.006 38.6231 31.2837 38.0685 32.3445C37.6756 33.086 37.4213 33.7933 37.2596 34.5234C37.1787 34.9454 37.1209 35.3333 37.1209 35.7211C37.1209 35.9949 37.1325 36.2573 37.1902 36.5197C37.2596 36.8961 37.3405 37.1927 37.4676 37.4323C37.5831 37.6718 37.7565 37.8543 37.9413 37.957C38.1262 38.0597 38.3805 38.0939 38.7618 38.0939C39.224 38.0939 39.8596 38.0254 40.6569 37.8885L45.7182 37.033C46.608 36.8847 47.2436 36.6565 47.6018 36.3714C47.8907 36.1318 48.0409 35.8124 48.0409 35.4474C48.0409 35.3447 48.0293 35.242 48.0062 35.1394C47.9831 34.9454 47.8907 34.7401 47.7405 34.569Z" fill="white"/>
<defs>
<linearGradient id="paint0_linear_9548_125144" x1="106.465" y1="20.4579" x2="106.465" y2="39.6383" gradientUnits="userSpaceOnUse">
<stop offset="0.00562" stop-color="#FFE516"/>
<stop offset="1" stop-color="#FBB92B"/>
</linearGradient>
<linearGradient id="paint1_linear_9548_125144" x1="76.1622" y1="22.4836" x2="94.9454" y2="37.9105" gradientUnits="userSpaceOnUse">
<stop offset="0.00562" stop-color="#138BCC"/>
<stop offset="1" stop-color="#04659E"/>
</linearGradient>
<linearGradient id="paint2_linear_9548_125144" x1="65.1844" y1="23.0115" x2="65.1844" y2="39.8174" gradientUnits="userSpaceOnUse">
<stop stop-color="#25A146"/>
<stop offset="1" stop-color="#078B53"/>
</linearGradient>
<linearGradient id="paint3_linear_9548_125144" x1="40.4926" y1="21.3651" x2="43.2436" y2="38.8426" gradientUnits="userSpaceOnUse">
<stop stop-color="#DA2331"/>
<stop offset="1" stop-color="#BB2435"/>
</linearGradient>
</defs>
</svg>
