<?xml version="1.0" encoding="utf-8"?>
<svg width="660" height="581" viewBox="0 0 660 581" fill="none" xmlns="http://www.w3.org/2000/svg">
<g clip-path="url(#clip0_1_1099)">
<rect width="660" height="581" fill="#252526"/>
<path d="M138.216 27.776H136.936L135.192 25.472H136.248L137.576 27.2L138.904 25.472H139.96L138.216 27.776ZM137.368 40.288C135.992 40.288 134.616 39.728 133.8 38.608L134.792 37.872C135.288 38.672 136.2 39.296 137.384 39.296C138.552 39.296 139.896 38.56 139.896 37.104C139.896 35.52 138.568 35.12 137.128 34.672C135.624 34.208 134.088 33.552 134.088 31.504C134.088 29.312 136.04 28.384 137.704 28.384C139.224 28.384 140.36 29.024 140.904 29.76L139.992 30.496C139.512 29.808 138.728 29.36 137.656 29.36C136.536 29.36 135.24 30.032 135.24 31.488C135.24 32.928 136.44 33.296 137.704 33.712C139.304 34.24 141.064 34.752 141.064 37.024C141.064 39.296 139.16 40.288 137.368 40.288ZM145.503 40.192C144.367 40.192 142.911 39.584 142.911 37.92C142.911 35.632 145.407 35.408 148.127 35.408H148.191V35.168C148.191 33.872 147.487 33.232 146.191 33.232C145.311 33.232 144.495 33.584 143.967 34.112L143.359 33.392C143.967 32.784 145.023 32.32 146.303 32.32C147.919 32.32 149.215 33.216 149.215 35.04V38.32C149.215 38.896 149.263 39.584 149.343 40H148.367C148.303 39.632 148.255 39.184 148.255 38.784H148.223C147.535 39.776 146.703 40.192 145.503 40.192ZM145.791 39.296C147.327 39.296 148.191 38.144 148.191 36.816V36.256H147.871C146.095 36.256 144.031 36.448 144.031 37.872C144.031 38.944 144.943 39.296 145.791 39.296ZM153.138 40H152.05V27.904H153.138V40ZM156.625 30.4C156.241 30.4 155.857 30.08 155.857 29.632C155.857 29.184 156.241 28.864 156.625 28.864C157.009 28.864 157.393 29.184 157.393 29.632C157.393 30.08 157.009 30.4 156.625 30.4ZM155.041 43.84C154.817 43.84 154.449 43.808 154.177 43.728L154.337 42.816C154.545 42.88 154.817 42.912 155.025 42.912C155.937 42.912 156.081 42.256 156.081 41.312V32.496H157.169V41.488C157.169 42.688 156.737 43.84 155.041 43.84ZM163.393 40.192C161.169 40.192 159.521 38.512 159.521 36.256C159.521 34 161.169 32.32 163.297 32.32C165.649 32.32 166.881 33.984 166.881 36.032C166.881 36.176 166.881 36.352 166.865 36.544H160.657C160.689 38.048 161.857 39.264 163.393 39.264C164.513 39.264 165.377 38.64 165.793 37.968L166.609 38.608C165.729 39.728 164.625 40.192 163.393 40.192ZM160.673 35.68H165.777C165.713 34.272 164.849 33.232 163.297 33.232C161.841 33.232 160.769 34.4 160.673 35.68ZM176.005 40.192C174.101 40.192 173.157 38.96 173.157 37.104V32.496H174.245V36.656C174.245 38.224 174.709 39.28 176.277 39.28C177.429 39.28 178.549 38.352 178.549 36.352V32.496H179.637V38.352C179.637 38.752 179.653 39.488 179.701 40H178.661C178.629 39.6 178.597 39.04 178.597 38.72H178.565C178.149 39.584 177.061 40.192 176.005 40.192ZM183.606 43.84H182.518V32.496H183.606V33.808H183.654C184.278 32.832 185.398 32.32 186.47 32.32C188.806 32.32 190.342 34.048 190.342 36.256C190.342 38.464 188.806 40.192 186.47 40.192C185.398 40.192 184.278 39.664 183.654 38.736H183.606V43.84ZM186.358 39.264C188.166 39.264 189.19 37.92 189.19 36.256C189.19 34.592 188.166 33.232 186.358 33.232C184.678 33.232 183.478 34.544 183.478 36.256C183.478 37.968 184.678 39.264 186.358 39.264ZM193.794 40H192.706V27.904H193.794V40ZM198.738 40.192C197.602 40.192 196.146 39.584 196.146 37.92C196.146 35.632 198.642 35.408 201.362 35.408H201.426V35.168C201.426 33.872 200.722 33.232 199.426 33.232C198.546 33.232 197.73 33.584 197.202 34.112L196.594 33.392C197.202 32.784 198.258 32.32 199.538 32.32C201.154 32.32 202.45 33.216 202.45 35.04V38.32C202.45 38.896 202.498 39.584 202.578 40H201.602C201.538 39.632 201.49 39.184 201.49 38.784H201.458C200.77 39.776 199.938 40.192 198.738 40.192ZM199.026 39.296C200.562 39.296 201.426 38.144 201.426 36.816V36.256H201.106C199.33 36.256 197.266 36.448 197.266 37.872C197.266 38.944 198.178 39.296 199.026 39.296ZM207.192 40.096C206.392 40.096 205.272 39.744 205.272 38.096V33.408H203.72V32.496H205.272V30.4H206.36V32.496H208.472V33.408H206.36V37.792C206.36 38.912 206.824 39.168 207.48 39.168C207.784 39.168 208.136 39.072 208.424 38.928L208.472 39.872C208.088 40.016 207.688 40.096 207.192 40.096ZM213.502 40.192C211.278 40.192 209.63 38.512 209.63 36.256C209.63 34 211.278 32.32 213.406 32.32C215.758 32.32 216.99 33.984 216.99 36.032C216.99 36.176 216.99 36.352 216.974 36.544H210.766C210.798 38.048 211.966 39.264 213.502 39.264C214.622 39.264 215.486 38.64 215.902 37.968L216.718 38.608C215.838 39.728 214.734 40.192 213.502 40.192ZM210.782 35.68H215.886C215.822 34.272 214.958 33.232 213.406 33.232C211.95 33.232 210.878 34.4 210.782 35.68Z" fill="white"/>
<rect x="105" y="25" width="20" height="20" rx="2.6" fill="url(#paint0_linear_1_1099)"/>
<path d="M427.656 40H426.504V28.672H429.704C432.008 28.672 433.528 29.664 433.528 31.696C433.528 33.728 431.976 34.736 429.672 34.736H427.656V40ZM427.656 29.664V33.76H429.608C431.4 33.76 432.376 33.04 432.376 31.696C432.376 30.304 431.352 29.664 429.608 29.664H427.656ZM436.059 40H434.971V34.16C434.971 33.76 434.955 33.008 434.907 32.496H435.947C435.979 32.896 436.011 33.472 436.011 33.792H436.043C436.459 32.928 437.387 32.32 438.443 32.32C438.715 32.32 438.939 32.336 439.163 32.4L439.019 33.424C438.891 33.376 438.539 33.328 438.251 33.328C437.099 33.328 436.059 34.16 436.059 36.16V40ZM441.297 30.4C440.913 30.4 440.529 30.08 440.529 29.632C440.529 29.184 440.913 28.864 441.297 28.864C441.681 28.864 442.065 29.184 442.065 29.632C442.065 30.08 441.681 30.4 441.297 30.4ZM441.841 40H440.753V32.496H441.841V40ZM453.201 32.32C455.105 32.32 456.049 33.552 456.049 35.408V40H454.961V35.856C454.961 34.288 454.433 33.232 453.025 33.232C451.457 33.232 450.897 34.624 450.897 36.016V40H449.809V35.632C449.809 34.176 449.457 33.232 448.001 33.232C446.961 33.232 445.825 34.16 445.825 36.16V40H444.737V34.16C444.737 33.76 444.721 33.008 444.673 32.496H445.713C445.745 32.896 445.777 33.472 445.777 33.792H445.809C446.241 32.928 447.201 32.32 448.273 32.32C449.089 32.32 450.081 32.64 450.577 33.904C451.089 32.864 452.001 32.32 453.201 32.32ZM460.894 40.192C459.758 40.192 458.302 39.584 458.302 37.92C458.302 35.632 460.798 35.408 463.518 35.408H463.582V35.168C463.582 33.872 462.878 33.232 461.582 33.232C460.702 33.232 459.886 33.584 459.358 34.112L458.75 33.392C459.358 32.784 460.414 32.32 461.694 32.32C463.31 32.32 464.606 33.216 464.606 35.04V38.32C464.606 38.896 464.654 39.584 464.734 40H463.758C463.694 39.632 463.646 39.184 463.646 38.784H463.614C462.926 39.776 462.094 40.192 460.894 40.192ZM461.182 39.296C462.718 39.296 463.582 38.144 463.582 36.816V36.256H463.262C461.486 36.256 459.422 36.448 459.422 37.872C459.422 38.944 460.334 39.296 461.182 39.296ZM474.193 40.192C472.289 40.192 471.345 38.96 471.345 37.104V32.496H472.433V36.656C472.433 38.224 472.897 39.28 474.465 39.28C475.617 39.28 476.737 38.352 476.737 36.352V32.496H477.825V38.352C477.825 38.752 477.841 39.488 477.889 40H476.849C476.817 39.6 476.785 39.04 476.785 38.72H476.753C476.337 39.584 475.249 40.192 474.193 40.192ZM481.794 43.84H480.706V32.496H481.794V33.808H481.842C482.466 32.832 483.586 32.32 484.658 32.32C486.994 32.32 488.53 34.048 488.53 36.256C488.53 38.464 486.994 40.192 484.658 40.192C483.586 40.192 482.466 39.664 481.842 38.736H481.794V43.84ZM484.546 39.264C486.354 39.264 487.378 37.92 487.378 36.256C487.378 34.592 486.354 33.232 484.546 33.232C482.866 33.232 481.666 34.544 481.666 36.256C481.666 37.968 482.866 39.264 484.546 39.264ZM491.982 40H490.894V27.904H491.982V40ZM496.925 40.192C495.789 40.192 494.333 39.584 494.333 37.92C494.333 35.632 496.829 35.408 499.549 35.408H499.613V35.168C499.613 33.872 498.909 33.232 497.613 33.232C496.733 33.232 495.917 33.584 495.389 34.112L494.781 33.392C495.389 32.784 496.445 32.32 497.725 32.32C499.341 32.32 500.637 33.216 500.637 35.04V38.32C500.637 38.896 500.685 39.584 500.765 40H499.789C499.725 39.632 499.677 39.184 499.677 38.784H499.645C498.957 39.776 498.125 40.192 496.925 40.192ZM497.213 39.296C498.749 39.296 499.613 38.144 499.613 36.816V36.256H499.293C497.517 36.256 495.453 36.448 495.453 37.872C495.453 38.944 496.365 39.296 497.213 39.296ZM505.38 40.096C504.58 40.096 503.46 39.744 503.46 38.096V33.408H501.908V32.496H503.46V30.4H504.548V32.496H506.66V33.408H504.548V37.792C504.548 38.912 505.012 39.168 505.668 39.168C505.972 39.168 506.324 39.072 506.612 38.928L506.66 39.872C506.276 40.016 505.876 40.096 505.38 40.096ZM511.69 40.192C509.466 40.192 507.818 38.512 507.818 36.256C507.818 34 509.466 32.32 511.594 32.32C513.946 32.32 515.178 33.984 515.178 36.032C515.178 36.176 515.178 36.352 515.162 36.544H508.954C508.986 38.048 510.154 39.264 511.69 39.264C512.81 39.264 513.674 38.64 514.09 37.968L514.906 38.608C514.026 39.728 512.922 40.192 511.69 40.192ZM508.97 35.68H514.074C514.01 34.272 513.146 33.232 511.594 33.232C510.138 33.232 509.066 34.4 508.97 35.68Z" fill="white"/>
<rect x="394" y="25" width="20" height="20" rx="2.6" fill="url(#paint1_linear_1_1099)"/>
<path d="M62.0303 123.36C60.3103 123.36 58.5903 122.66 57.5703 121.26L58.8103 120.34C59.4303 121.34 60.5703 122.12 62.0503 122.12C63.5103 122.12 65.1903 121.2 65.1903 119.38C65.1903 117.4 63.5303 116.9 61.7303 116.34C59.8503 115.76 57.9303 114.94 57.9303 112.38C57.9303 109.64 60.3703 108.48 62.4503 108.48C64.3503 108.48 65.7703 109.28 66.4503 110.2L65.3103 111.12C64.7103 110.26 63.7303 109.7 62.3903 109.7C60.9903 109.7 59.3703 110.54 59.3703 112.36C59.3703 114.16 60.8703 114.62 62.4503 115.14C64.4503 115.8 66.6503 116.44 66.6503 119.28C66.6503 122.12 64.2703 123.36 62.0303 123.36ZM74.1794 108.84H75.5794L81.6594 123H80.0594L78.4994 119.28H71.1794L69.6394 123H68.0594L74.1794 108.84ZM74.8394 110.42L71.7194 117.96H77.9594L74.8394 110.42ZM88.4433 123H83.7433V108.84H88.4433C91.9833 108.84 95.8833 111.2 95.8833 115.92C95.8833 120.64 91.9833 123 88.4433 123ZM85.1833 110.12V121.72H88.0433C92.3033 121.72 94.3633 118.84 94.3633 115.92C94.3633 113 92.3033 110.12 88.0433 110.12H85.1833Z" fill="white"/>
<rect x="107" y="96" width="430" height="16" rx="2.6" fill="url(#paint2_linear_1_1099)"/>
<rect x="107" y="119" width="490" height="16" rx="2.6" fill="url(#paint3_linear_1_1099)"/>
<path d="M550.12 96.76H552.28L549.22 106.96H551.24V102.9H553.28V106.96H554.26V108.88H553.28V111H551.24V108.88H547.18V106.96L550.12 96.76ZM561.201 100.68C561.201 102.5 561.161 102.94 559.941 103.64C560.981 104.24 561.201 104.84 561.201 106.06V107.34C561.201 107.96 561.161 108.92 560.881 109.46C560.461 110.26 559.641 111.12 558.141 111.12C556.401 111.12 555.121 109.9 555.121 108.18V106.92H557.161V107.98C557.161 108.62 557.541 109.08 558.161 109.08C558.801 109.08 559.161 108.6 559.161 107.98V105.82C559.161 105.16 559.081 104.56 557.781 104.56H557.541V102.76H557.741C558.761 102.76 559.161 102.5 559.161 101.56V99.76C559.161 98.94 558.641 98.68 558.161 98.68C557.441 98.68 557.161 99.26 557.161 99.7V100.84H555.121V99.66C555.121 97.96 556.541 96.64 558.201 96.64C558.761 96.64 559.481 96.82 559.921 97.18C560.861 97.92 561.201 98.58 561.201 100.68ZM565.463 98.24V99.62C565.463 100.44 564.823 101.1 563.763 101.1C562.703 101.1 562.063 100.44 562.063 99.62V98.22C562.063 97.32 562.703 96.64 563.763 96.64C564.823 96.64 565.463 97.3 565.463 98.24ZM567.183 96.76H568.503L563.623 111H562.303L567.183 96.76ZM564.263 99.38V98.4C564.263 97.96 563.923 97.84 563.763 97.84C563.503 97.84 563.263 98.06 563.263 98.38V99.34C563.263 99.8 563.643 99.9 563.763 99.9C564.023 99.9 564.263 99.68 564.263 99.38ZM568.743 108.26V109.64C568.743 110.46 568.103 111.12 567.043 111.12C565.983 111.12 565.343 110.46 565.343 109.64V108.24C565.343 107.34 565.983 106.66 567.043 106.66C568.103 106.66 568.743 107.32 568.743 108.26ZM567.543 109.4V108.44C567.543 108.18 567.383 107.86 567.043 107.86C566.783 107.86 566.543 108.08 566.543 108.4V109.34C566.543 109.8 566.863 109.92 567.043 109.92C567.303 109.92 567.543 109.7 567.543 109.4Z" fill="white"/>
<path d="M609.12 120.76H611.28L608.22 130.96H610.24V126.9H612.28V130.96H613.26V132.88H612.28V135H610.24V132.88H606.18V130.96L609.12 120.76ZM619.061 121.28C620.201 122.26 620.201 123.22 620.201 125.28C620.201 126.78 620.081 127.14 619.821 127.84L617.141 135H614.861L617.181 129.02L617.141 128.98C617.001 129.08 616.721 129.16 616.301 129.16C615.581 129.16 614.901 128.78 614.541 128.2C614.161 127.6 614.141 126.64 614.141 126.46C614.141 125.98 614.121 125.5 614.121 124.78C614.121 123.86 614.121 123.08 614.341 122.5C614.641 121.68 615.521 120.64 617.161 120.64C617.781 120.64 618.561 120.84 619.061 121.28ZM618.161 126.38V123.7C618.161 123.26 617.861 122.68 617.161 122.68C616.461 122.68 616.161 123.28 616.161 123.7V126.28C616.161 127.08 616.721 127.36 617.161 127.36C617.721 127.36 618.161 126.92 618.161 126.38ZM624.463 122.24V123.62C624.463 124.44 623.823 125.1 622.763 125.1C621.703 125.1 621.063 124.44 621.063 123.62V122.22C621.063 121.32 621.703 120.64 622.763 120.64C623.823 120.64 624.463 121.3 624.463 122.24ZM626.183 120.76H627.503L622.623 135H621.303L626.183 120.76ZM623.263 123.38V122.4C623.263 121.96 622.923 121.84 622.763 121.84C622.503 121.84 622.263 122.06 622.263 122.38V123.34C622.263 123.8 622.643 123.9 622.763 123.9C623.023 123.9 623.263 123.68 623.263 123.38ZM627.743 132.26V133.64C627.743 134.46 627.103 135.12 626.043 135.12C624.983 135.12 624.343 134.46 624.343 133.64V132.24C624.343 131.34 624.983 130.66 626.043 130.66C627.103 130.66 627.743 131.32 627.743 132.26ZM626.543 133.4V132.44C626.543 132.18 626.383 131.86 626.043 131.86C625.783 131.86 625.543 132.08 625.543 132.4V133.34C625.543 133.8 625.863 133.92 626.043 133.92C626.303 133.92 626.543 133.7 626.543 133.4Z" fill="white"/>
<path d="M60.4567 194H59.0167V179.84H60.4567V186.2H60.4767L67.2167 179.84H69.2767L62.1367 186.26L69.6767 194H67.5567L60.4767 186.46H60.4567V194ZM72.1953 182C71.7153 182 71.2353 181.6 71.2353 181.04C71.2353 180.48 71.7153 180.08 72.1953 180.08C72.6753 180.08 73.1553 180.48 73.1553 181.04C73.1553 181.6 72.6753 182 72.1953 182ZM72.8753 194H71.5153V184.62H72.8753V194ZM77.8553 194H76.4953V186.7C76.4953 186.2 76.4753 185.26 76.4153 184.62H77.7153C77.7553 185.12 77.7953 185.84 77.7953 186.24H77.8353C78.3553 185.16 79.7153 184.4 81.0353 184.4C83.4153 184.4 84.5953 185.94 84.5953 188.26V194H83.2353V188.82C83.2353 186.86 82.6553 185.54 80.6953 185.54C79.2553 185.54 77.8553 186.7 77.8553 189.2V194ZM90.6564 194.24C89.2364 194.24 87.4164 193.48 87.4164 191.4C87.4164 188.54 90.5364 188.26 93.9364 188.26H94.0164V187.96C94.0164 186.34 93.1364 185.54 91.5164 185.54C90.4164 185.54 89.3964 185.98 88.7364 186.64L87.9764 185.74C88.7364 184.98 90.0564 184.4 91.6564 184.4C93.6764 184.4 95.2964 185.52 95.2964 187.8V191.9C95.2964 192.62 95.3564 193.48 95.4564 194H94.2364C94.1564 193.54 94.0964 192.98 94.0964 192.48H94.0564C93.1964 193.72 92.1564 194.24 90.6564 194.24ZM91.0164 193.12C92.9364 193.12 94.0164 191.68 94.0164 190.02V189.32H93.6164C91.3964 189.32 88.8164 189.56 88.8164 191.34C88.8164 192.68 89.9564 193.12 91.0164 193.12Z" fill="white"/>
<rect x="107" y="167" width="360" height="16" rx="2.6" fill="url(#paint4_linear_1_1099)"/>
<rect x="107" y="190" width="360" height="16" rx="2.6" fill="url(#paint5_linear_1_1099)"/>
<path d="M486.76 171.68C486.76 173.5 486.72 173.94 485.5 174.64C486.54 175.24 486.76 175.84 486.76 177.06V178.34C486.76 178.96 486.72 179.92 486.44 180.46C486.02 181.26 485.2 182.12 483.7 182.12C481.96 182.12 480.68 180.9 480.68 179.18V177.92H482.72V178.98C482.72 179.62 483.1 180.08 483.72 180.08C484.36 180.08 484.72 179.6 484.72 178.98V176.82C484.72 176.16 484.64 175.56 483.34 175.56H483.1V173.76H483.3C484.32 173.76 484.72 173.5 484.72 172.56V170.76C484.72 169.94 484.2 169.68 483.72 169.68C483 169.68 482.72 170.26 482.72 170.7V171.84H480.68V170.66C480.68 168.96 482.1 167.64 483.76 167.64C484.32 167.64 485.04 167.82 485.48 168.18C486.42 168.92 486.76 169.58 486.76 171.68ZM491.181 167.76H493.461L491.141 173.74L491.181 173.78C491.321 173.68 491.581 173.6 492.041 173.6C492.901 173.6 493.721 174.16 494.001 175.02C494.141 175.42 494.201 176.36 494.201 177.82C494.201 178.74 494.201 179.44 494.061 179.98C493.721 181.26 492.621 182.12 491.161 182.12C489.941 182.12 488.801 181.42 488.361 180.28C488.201 179.86 488.121 179.46 488.121 177.84C488.121 176.94 488.141 176.34 488.201 176.02C488.281 175.58 488.361 175.28 488.581 174.7L491.181 167.76ZM492.161 179.1V176.48C492.161 175.7 491.621 175.4 491.161 175.4C490.601 175.4 490.161 175.84 490.161 176.38V179.02C490.161 179.94 490.941 180.08 491.161 180.08C491.721 180.08 492.161 179.64 492.161 179.1ZM498.463 169.24V170.62C498.463 171.44 497.823 172.1 496.763 172.1C495.703 172.1 495.063 171.44 495.063 170.62V169.22C495.063 168.32 495.703 167.64 496.763 167.64C497.823 167.64 498.463 168.3 498.463 169.24ZM500.183 167.76H501.503L496.623 182H495.303L500.183 167.76ZM497.263 170.38V169.4C497.263 168.96 496.923 168.84 496.763 168.84C496.503 168.84 496.263 169.06 496.263 169.38V170.34C496.263 170.8 496.643 170.9 496.763 170.9C497.023 170.9 497.263 170.68 497.263 170.38ZM501.743 179.26V180.64C501.743 181.46 501.103 182.12 500.043 182.12C498.983 182.12 498.343 181.46 498.343 180.64V179.24C498.343 178.34 498.983 177.66 500.043 177.66C501.103 177.66 501.743 178.32 501.743 179.26ZM500.543 180.4V179.44C500.543 179.18 500.383 178.86 500.043 178.86C499.783 178.86 499.543 179.08 499.543 179.4V180.34C499.543 180.8 499.863 180.92 500.043 180.92C500.303 180.92 500.543 180.7 500.543 180.4Z" fill="white"/>
<path d="M486.76 195.68C486.76 197.5 486.72 197.94 485.5 198.64C486.54 199.24 486.76 199.84 486.76 201.06V202.34C486.76 202.96 486.72 203.92 486.44 204.46C486.02 205.26 485.2 206.12 483.7 206.12C481.96 206.12 480.68 204.9 480.68 203.18V201.92H482.72V202.98C482.72 203.62 483.1 204.08 483.72 204.08C484.36 204.08 484.72 203.6 484.72 202.98V200.82C484.72 200.16 484.64 199.56 483.34 199.56H483.1V197.76H483.3C484.32 197.76 484.72 197.5 484.72 196.56V194.76C484.72 193.94 484.2 193.68 483.72 193.68C483 193.68 482.72 194.26 482.72 194.7V195.84H480.68V194.66C480.68 192.96 482.1 191.64 483.76 191.64C484.32 191.64 485.04 191.82 485.48 192.18C486.42 192.92 486.76 193.58 486.76 195.68ZM491.181 191.76H493.461L491.141 197.74L491.181 197.78C491.321 197.68 491.581 197.6 492.041 197.6C492.901 197.6 493.721 198.16 494.001 199.02C494.141 199.42 494.201 200.36 494.201 201.82C494.201 202.74 494.201 203.44 494.061 203.98C493.721 205.26 492.621 206.12 491.161 206.12C489.941 206.12 488.801 205.42 488.361 204.28C488.201 203.86 488.121 203.46 488.121 201.84C488.121 200.94 488.141 200.34 488.201 200.02C488.281 199.58 488.361 199.28 488.581 198.7L491.181 191.76ZM492.161 203.1V200.48C492.161 199.7 491.621 199.4 491.161 199.4C490.601 199.4 490.161 199.84 490.161 200.38V203.02C490.161 203.94 490.941 204.08 491.161 204.08C491.721 204.08 492.161 203.64 492.161 203.1ZM498.463 193.24V194.62C498.463 195.44 497.823 196.1 496.763 196.1C495.703 196.1 495.063 195.44 495.063 194.62V193.22C495.063 192.32 495.703 191.64 496.763 191.64C497.823 191.64 498.463 192.3 498.463 193.24ZM500.183 191.76H501.503L496.623 206H495.303L500.183 191.76ZM497.263 194.38V193.4C497.263 192.96 496.923 192.84 496.763 192.84C496.503 192.84 496.263 193.06 496.263 193.38V194.34C496.263 194.8 496.643 194.9 496.763 194.9C497.023 194.9 497.263 194.68 497.263 194.38ZM501.743 203.26V204.64C501.743 205.46 501.103 206.12 500.043 206.12C498.983 206.12 498.343 205.46 498.343 204.64V203.24C498.343 202.34 498.983 201.66 500.043 201.66C501.103 201.66 501.743 202.32 501.743 203.26ZM500.543 204.4V203.44C500.543 203.18 500.383 202.86 500.043 202.86C499.783 202.86 499.543 203.08 499.543 203.4V204.34C499.543 204.8 499.863 204.92 500.043 204.92C500.303 204.92 500.543 204.7 500.543 204.4Z" fill="white"/>
<path d="M77.3422 265.36C73.1022 265.36 72.0422 262.08 72.0422 259.72V250.84H73.4822V259.56C73.4822 261.84 74.4622 264.08 77.3422 264.08C80.2222 264.08 81.2022 261.84 81.2022 259.56V250.84H82.6422V259.72C82.6422 262.08 81.5822 265.36 77.3422 265.36ZM87.7614 265H86.3214V250.84H87.7614V257.2H87.7814L94.5214 250.84H96.5814L89.4414 257.26L96.9814 265H94.8614L87.7814 257.46H87.7614V265Z" fill="white"/>
<rect x="107" y="238" width="290" height="16" rx="2.6" fill="url(#paint6_linear_1_1099)"/>
<rect x="107" y="261" width="330" height="16" rx="2.6" fill="url(#paint7_linear_1_1099)"/>
<path d="M411.76 242.26C411.76 244.14 411.6 244.16 410.54 246.22L408.08 250.96H411.76V253H405.68V251.08L409.38 244.1C409.64 243.62 409.72 243.22 409.72 242.32C409.72 241.48 409.68 240.68 408.72 240.68C408.1 240.68 407.72 241.04 407.72 241.7V242.86H405.68V242.02C405.68 241.36 405.72 241.14 405.84 240.74C406.16 239.76 407.2 238.64 408.74 238.64C410.66 238.64 411.76 240.02 411.76 242.26ZM418.061 239.28C419.201 240.26 419.201 241.22 419.201 243.28C419.201 244.78 419.081 245.14 418.821 245.84L416.141 253H413.861L416.181 247.02L416.141 246.98C416.001 247.08 415.721 247.16 415.301 247.16C414.581 247.16 413.901 246.78 413.541 246.2C413.161 245.6 413.141 244.64 413.141 244.46C413.141 243.98 413.121 243.5 413.121 242.78C413.121 241.86 413.121 241.08 413.341 240.5C413.641 239.68 414.521 238.64 416.161 238.64C416.781 238.64 417.561 238.84 418.061 239.28ZM417.161 244.38V241.7C417.161 241.26 416.861 240.68 416.161 240.68C415.461 240.68 415.161 241.28 415.161 241.7V244.28C415.161 245.08 415.721 245.36 416.161 245.36C416.721 245.36 417.161 244.92 417.161 244.38ZM423.463 240.24V241.62C423.463 242.44 422.823 243.1 421.763 243.1C420.703 243.1 420.063 242.44 420.063 241.62V240.22C420.063 239.32 420.703 238.64 421.763 238.64C422.823 238.64 423.463 239.3 423.463 240.24ZM425.183 238.76H426.503L421.623 253H420.303L425.183 238.76ZM422.263 241.38V240.4C422.263 239.96 421.923 239.84 421.763 239.84C421.503 239.84 421.263 240.06 421.263 240.38V241.34C421.263 241.8 421.643 241.9 421.763 241.9C422.023 241.9 422.263 241.68 422.263 241.38ZM426.743 250.26V251.64C426.743 252.46 426.103 253.12 425.043 253.12C423.983 253.12 423.343 252.46 423.343 251.64V250.24C423.343 249.34 423.983 248.66 425.043 248.66C426.103 248.66 426.743 249.32 426.743 250.26ZM425.543 251.4V250.44C425.543 250.18 425.383 249.86 425.043 249.86C424.783 249.86 424.543 250.08 424.543 250.4V251.34C424.543 251.8 424.863 251.92 425.043 251.92C425.303 251.92 425.543 251.7 425.543 251.4Z" fill="white"/>
<path d="M452.76 266.68C452.76 268.5 452.72 268.94 451.5 269.64C452.54 270.24 452.76 270.84 452.76 272.06V273.34C452.76 273.96 452.72 274.92 452.44 275.46C452.02 276.26 451.2 277.12 449.7 277.12C447.96 277.12 446.68 275.9 446.68 274.18V272.92H448.72V273.98C448.72 274.62 449.1 275.08 449.72 275.08C450.36 275.08 450.72 274.6 450.72 273.98V271.82C450.72 271.16 450.64 270.56 449.34 270.56H449.1V268.76H449.3C450.32 268.76 450.72 268.5 450.72 267.56V265.76C450.72 264.94 450.2 264.68 449.72 264.68C449 264.68 448.72 265.26 448.72 265.7V266.84H446.68V265.66C446.68 263.96 448.1 262.64 449.76 262.64C450.32 262.64 451.04 262.82 451.48 263.18C452.42 263.92 452.76 264.58 452.76 266.68ZM460.201 266.68C460.201 268.5 460.161 268.94 458.941 269.64C459.981 270.24 460.201 270.84 460.201 272.06V273.34C460.201 273.96 460.161 274.92 459.881 275.46C459.461 276.26 458.641 277.12 457.141 277.12C455.401 277.12 454.121 275.9 454.121 274.18V272.92H456.161V273.98C456.161 274.62 456.541 275.08 457.161 275.08C457.801 275.08 458.161 274.6 458.161 273.98V271.82C458.161 271.16 458.081 270.56 456.781 270.56H456.541V268.76H456.741C457.761 268.76 458.161 268.5 458.161 267.56V265.76C458.161 264.94 457.641 264.68 457.161 264.68C456.441 264.68 456.161 265.26 456.161 265.7V266.84H454.121V265.66C454.121 263.96 455.541 262.64 457.201 262.64C457.761 262.64 458.481 262.82 458.921 263.18C459.861 263.92 460.201 264.58 460.201 266.68ZM464.463 264.24V265.62C464.463 266.44 463.823 267.1 462.763 267.1C461.703 267.1 461.063 266.44 461.063 265.62V264.22C461.063 263.32 461.703 262.64 462.763 262.64C463.823 262.64 464.463 263.3 464.463 264.24ZM466.183 262.76H467.503L462.623 277H461.303L466.183 262.76ZM463.263 265.38V264.4C463.263 263.96 462.923 263.84 462.763 263.84C462.503 263.84 462.263 264.06 462.263 264.38V265.34C462.263 265.8 462.643 265.9 462.763 265.9C463.023 265.9 463.263 265.68 463.263 265.38ZM467.743 274.26V275.64C467.743 276.46 467.103 277.12 466.043 277.12C464.983 277.12 464.343 276.46 464.343 275.64V274.24C464.343 273.34 464.983 272.66 466.043 272.66C467.103 272.66 467.743 273.32 467.743 274.26ZM466.543 275.4V274.44C466.543 274.18 466.383 273.86 466.043 273.86C465.783 273.86 465.543 274.08 465.543 274.4V275.34C465.543 275.8 465.863 275.92 466.043 275.92C466.303 275.92 466.543 275.7 466.543 275.4Z" fill="white"/>
<path d="M28.32 336H26.88V321.84H28.32V328.2H28.34L35.08 321.84H37.14L30 328.26L37.54 336H35.42L28.34 328.46H28.32V336ZM41.6642 336.24C40.2442 336.24 38.4242 335.48 38.4242 333.4C38.4242 330.54 41.5442 330.26 44.9442 330.26H45.0242V329.96C45.0242 328.34 44.1442 327.54 42.5242 327.54C41.4242 327.54 40.4042 327.98 39.7442 328.64L38.9842 327.74C39.7442 326.98 41.0642 326.4 42.6642 326.4C44.6842 326.4 46.3042 327.52 46.3042 329.8V333.9C46.3042 334.62 46.3642 335.48 46.4642 336H45.2442C45.1642 335.54 45.1042 334.98 45.1042 334.48H45.0642C44.2042 335.72 43.1642 336.24 41.6642 336.24ZM42.0242 335.12C43.9442 335.12 45.0242 333.68 45.0242 332.02V331.32H44.6242C42.4042 331.32 39.8242 331.56 39.8242 333.34C39.8242 334.68 40.9642 335.12 42.0242 335.12ZM51.1678 336H49.8078V328.7C49.8078 328.2 49.7878 327.26 49.7278 326.62H51.0278C51.0678 327.12 51.1078 327.84 51.1078 328.24H51.1478C51.6678 327.16 53.0278 326.4 54.3478 326.4C56.7278 326.4 57.9078 327.94 57.9078 330.26V336H56.5478V330.82C56.5478 328.86 55.9678 327.54 54.0078 327.54C52.5678 327.54 51.1678 328.7 51.1678 331.2V336ZM63.9689 336.24C62.5489 336.24 60.7289 335.48 60.7289 333.4C60.7289 330.54 63.8489 330.26 67.2489 330.26H67.3289V329.96C67.3289 328.34 66.4489 327.54 64.8289 327.54C63.7289 327.54 62.7089 327.98 62.0489 328.64L61.2889 327.74C62.0489 326.98 63.3689 326.4 64.9689 326.4C66.9889 326.4 68.6089 327.52 68.6089 329.8V333.9C68.6089 334.62 68.6689 335.48 68.7689 336H67.5489C67.4689 335.54 67.4089 334.98 67.4089 334.48H67.3689C66.5089 335.72 65.4689 336.24 63.9689 336.24ZM64.3289 335.12C66.2489 335.12 67.3289 333.68 67.3289 332.02V331.32H66.9289C64.7089 331.32 62.1289 331.56 62.1289 333.34C62.1289 334.68 63.2689 335.12 64.3289 335.12ZM76.2725 336.24C73.3525 336.24 71.4325 334.08 71.4325 331.32C71.4325 328.56 73.3525 326.4 76.2725 326.4C77.6125 326.4 79.0125 327.04 79.8125 328.26H79.8525V320.88H81.2125V336H79.8525V334.42H79.8125C79.0125 335.6 77.6125 336.24 76.2725 336.24ZM76.4125 335.08C78.5125 335.08 80.0125 333.46 80.0125 331.32C80.0125 329.18 78.5125 327.54 76.4125 327.54C74.1525 327.54 72.8725 329.24 72.8725 331.32C72.8725 333.4 74.1525 335.08 76.4125 335.08ZM87.3869 336.24C85.9669 336.24 84.1469 335.48 84.1469 333.4C84.1469 330.54 87.2669 330.26 90.6669 330.26H90.7469V329.96C90.7469 328.34 89.8669 327.54 88.2469 327.54C87.1469 327.54 86.1269 327.98 85.4669 328.64L84.7069 327.74C85.4669 326.98 86.7869 326.4 88.3869 326.4C90.4069 326.4 92.0269 327.52 92.0269 329.8V333.9C92.0269 334.62 92.0869 335.48 92.1869 336H90.9669C90.8869 335.54 90.8269 334.98 90.8269 334.48H90.7869C89.9269 335.72 88.8869 336.24 87.3869 336.24ZM87.7469 335.12C89.6669 335.12 90.7469 333.68 90.7469 332.02V331.32H90.3469C88.1269 331.32 85.5469 331.56 85.5469 333.34C85.5469 334.68 86.6869 335.12 87.7469 335.12Z" fill="white"/>
<rect x="107" y="309" width="250" height="16" rx="2.6" fill="url(#paint8_linear_1_1099)"/>
<rect x="107" y="332" width="290" height="16" rx="2.6" fill="url(#paint9_linear_1_1099)"/>
<path d="M372.76 313.26C372.76 315.14 372.6 315.16 371.54 317.22L369.08 321.96H372.76V324H366.68V322.08L370.38 315.1C370.64 314.62 370.72 314.22 370.72 313.32C370.72 312.48 370.68 311.68 369.72 311.68C369.1 311.68 368.72 312.04 368.72 312.7V313.86H366.68V313.02C366.68 312.36 366.72 312.14 366.84 311.74C367.16 310.76 368.2 309.64 369.74 309.64C371.66 309.64 372.76 311.02 372.76 313.26ZM374.361 309.76H380.201V311.68H376.161V315.52C376.541 315.16 377.141 314.86 377.861 314.86C379.301 314.86 380.201 315.82 380.201 317.34V321.12C380.201 322.84 378.881 324.12 377.161 324.12C375.421 324.12 374.121 322.84 374.121 321.04V320.46H376.161V321C376.161 321.78 376.701 322.08 377.201 322.08C377.841 322.08 378.161 321.64 378.161 321.06V317.64C378.161 317.16 377.761 316.66 377.201 316.66C376.721 316.66 376.401 316.9 376.161 317.44H374.361V309.76ZM384.463 311.24V312.62C384.463 313.44 383.823 314.1 382.763 314.1C381.703 314.1 381.063 313.44 381.063 312.62V311.22C381.063 310.32 381.703 309.64 382.763 309.64C383.823 309.64 384.463 310.3 384.463 311.24ZM386.183 309.76H387.503L382.623 324H381.303L386.183 309.76ZM383.263 312.38V311.4C383.263 310.96 382.923 310.84 382.763 310.84C382.503 310.84 382.263 311.06 382.263 311.38V312.34C382.263 312.8 382.643 312.9 382.763 312.9C383.023 312.9 383.263 312.68 383.263 312.38ZM387.743 321.26V322.64C387.743 323.46 387.103 324.12 386.043 324.12C384.983 324.12 384.343 323.46 384.343 322.64V321.24C384.343 320.34 384.983 319.66 386.043 319.66C387.103 319.66 387.743 320.32 387.743 321.26ZM386.543 322.4V321.44C386.543 321.18 386.383 320.86 386.043 320.86C385.783 320.86 385.543 321.08 385.543 321.4V322.34C385.543 322.8 385.863 322.92 386.043 322.92C386.303 322.92 386.543 322.7 386.543 322.4Z" fill="white"/>
<path d="M414.76 337.26C414.76 339.14 414.6 339.16 413.54 341.22L411.08 345.96H414.76V348H408.68V346.08L412.38 339.1C412.64 338.62 412.72 338.22 412.72 337.32C412.72 336.48 412.68 335.68 411.72 335.68C411.1 335.68 410.72 336.04 410.72 336.7V337.86H408.68V337.02C408.68 336.36 408.72 336.14 408.84 335.74C409.16 334.76 410.2 333.64 411.74 333.64C413.66 333.64 414.76 335.02 414.76 337.26ZM421.061 334.28C422.201 335.26 422.201 336.22 422.201 338.28C422.201 339.78 422.081 340.14 421.821 340.84L419.141 348H416.861L419.181 342.02L419.141 341.98C419.001 342.08 418.721 342.16 418.301 342.16C417.581 342.16 416.901 341.78 416.541 341.2C416.161 340.6 416.141 339.64 416.141 339.46C416.141 338.98 416.121 338.5 416.121 337.78C416.121 336.86 416.121 336.08 416.341 335.5C416.641 334.68 417.521 333.64 419.161 333.64C419.781 333.64 420.561 333.84 421.061 334.28ZM420.161 339.38V336.7C420.161 336.26 419.861 335.68 419.161 335.68C418.461 335.68 418.161 336.28 418.161 336.7V339.28C418.161 340.08 418.721 340.36 419.161 340.36C419.721 340.36 420.161 339.92 420.161 339.38ZM426.463 335.24V336.62C426.463 337.44 425.823 338.1 424.763 338.1C423.703 338.1 423.063 337.44 423.063 336.62V335.22C423.063 334.32 423.703 333.64 424.763 333.64C425.823 333.64 426.463 334.3 426.463 335.24ZM428.183 333.76H429.503L424.623 348H423.303L428.183 333.76ZM425.263 336.38V335.4C425.263 334.96 424.923 334.84 424.763 334.84C424.503 334.84 424.263 335.06 424.263 335.38V336.34C424.263 336.8 424.643 336.9 424.763 336.9C425.023 336.9 425.263 336.68 425.263 336.38ZM429.743 345.26V346.64C429.743 347.46 429.103 348.12 428.043 348.12C426.983 348.12 426.343 347.46 426.343 346.64V345.24C426.343 344.34 426.983 343.66 428.043 343.66C429.103 343.66 429.743 344.32 429.743 345.26ZM428.543 346.4V345.44C428.543 345.18 428.383 344.86 428.043 344.86C427.783 344.86 427.543 345.08 427.543 345.4V346.34C427.543 346.8 427.863 346.92 428.043 346.92C428.303 346.92 428.543 346.7 428.543 346.4Z" fill="white"/>
<path d="M16.8388 392.84H18.2388L24.3188 407H22.7188L21.1588 403.28H13.8388L12.2988 407H10.7188L16.8388 392.84ZM17.4988 394.42L14.3788 401.96H20.6188L17.4988 394.42ZM29.8027 407.24C27.4227 407.24 26.2427 405.7 26.2427 403.38V397.62H27.6027V402.82C27.6027 404.78 28.1827 406.1 30.1427 406.1C31.5827 406.1 32.9827 404.94 32.9827 402.44V397.62H34.3427V404.94C34.3427 405.44 34.3627 406.36 34.4227 407H33.1227C33.0827 406.5 33.0427 405.8 33.0427 405.4H33.0027C32.4827 406.48 31.1227 407.24 29.8027 407.24ZM40.6038 407.24C39.1838 407.24 37.7638 406.68 36.9038 405.42L37.9838 404.62C38.4638 405.44 39.4838 406.08 40.5838 406.08C41.7438 406.08 42.7838 405.66 42.7838 404.44C42.7838 403.46 41.8038 403.06 40.0238 402.64C38.9238 402.38 37.3438 401.9 37.3438 400.12C37.3438 398.22 38.9838 397.4 40.6838 397.4C41.9838 397.4 43.3638 398.02 43.9638 399.08L42.9238 399.86C42.5238 399.08 41.6638 398.54 40.6238 398.54C39.6438 398.54 38.6438 398.96 38.6438 400C38.6438 400.88 39.3438 401.28 40.8838 401.6C43.0838 402.06 44.1238 402.88 44.1238 404.34C44.1238 406.48 42.3238 407.24 40.6038 407.24ZM49.4505 407.12C48.4505 407.12 47.0505 406.68 47.0505 404.62V398.76H45.1105V397.62H47.0505V395H48.4105V397.62H51.0505V398.76H48.4105V404.24C48.4105 405.64 48.9905 405.96 49.8105 405.96C50.1905 405.96 50.6305 405.84 50.9905 405.66L51.0505 406.84C50.5705 407.02 50.0705 407.12 49.4505 407.12ZM54.5382 407H53.1782V399.7C53.1782 399.2 53.1582 398.26 53.0982 397.62H54.3982C54.4382 398.12 54.4782 398.84 54.4782 399.24H54.5182C55.0382 398.16 56.1982 397.4 57.5182 397.4C57.8582 397.4 58.1382 397.42 58.4182 397.5L58.2382 398.78C58.0782 398.72 57.6382 398.66 57.2782 398.66C55.8382 398.66 54.5382 399.7 54.5382 402.2V407ZM62.6713 407.24C61.2513 407.24 59.4313 406.48 59.4313 404.4C59.4313 401.54 62.5513 401.26 65.9513 401.26H66.0313V400.96C66.0313 399.34 65.1513 398.54 63.5313 398.54C62.4313 398.54 61.4113 398.98 60.7513 399.64L59.9913 398.74C60.7513 397.98 62.0713 397.4 63.6713 397.4C65.6913 397.4 67.3113 398.52 67.3113 400.8V404.9C67.3113 405.62 67.3713 406.48 67.4713 407H66.2513C66.1713 406.54 66.1113 405.98 66.1113 405.48H66.0713C65.2113 406.72 64.1713 407.24 62.6713 407.24ZM63.0313 406.12C64.9513 406.12 66.0313 404.68 66.0313 403.02V402.32H65.6313C63.4113 402.32 60.8313 402.56 60.8313 404.34C60.8313 405.68 61.9713 406.12 63.0313 406.12ZM72.2149 407H70.8549V391.88H72.2149V407ZM76.554 395C76.074 395 75.594 394.6 75.594 394.04C75.594 393.48 76.074 393.08 76.554 393.08C77.034 393.08 77.514 393.48 77.514 394.04C77.514 394.6 77.034 395 76.554 395ZM77.234 407H75.874V397.62H77.234V407ZM81.574 395C81.094 395 80.614 394.6 80.614 394.04C80.614 393.48 81.094 393.08 81.574 393.08C82.054 393.08 82.534 393.48 82.534 394.04C82.534 394.6 82.054 395 81.574 395ZM79.594 411.8C79.314 411.8 78.854 411.76 78.514 411.66L78.714 410.52C78.974 410.6 79.314 410.64 79.574 410.64C80.714 410.64 80.894 409.82 80.894 408.64V397.62H82.254V408.86C82.254 410.36 81.714 411.8 79.594 411.8ZM88.4135 407.24C86.9935 407.24 85.1735 406.48 85.1735 404.4C85.1735 401.54 88.2935 401.26 91.6935 401.26H91.7735V400.96C91.7735 399.34 90.8935 398.54 89.2735 398.54C88.1735 398.54 87.1535 398.98 86.4935 399.64L85.7335 398.74C86.4935 397.98 87.8135 397.4 89.4135 397.4C91.4335 397.4 93.0535 398.52 93.0535 400.8V404.9C93.0535 405.62 93.1135 406.48 93.2135 407H91.9935C91.9135 406.54 91.8535 405.98 91.8535 405.48H91.8135C90.9535 406.72 89.9135 407.24 88.4135 407.24ZM88.7735 406.12C90.6935 406.12 91.7735 404.68 91.7735 403.02V402.32H91.3735C89.1535 402.32 86.5735 402.56 86.5735 404.34C86.5735 405.68 87.7135 406.12 88.7735 406.12Z" fill="white"/>
<rect x="107" y="380" width="200" height="16" rx="2.6" fill="url(#paint10_linear_1_1099)"/>
<rect x="107" y="403" width="210" height="16" rx="2.6" fill="url(#paint11_linear_1_1099)"/>
<path d="M321.76 384.26C321.76 386.14 321.6 386.16 320.54 388.22L318.08 392.96H321.76V395H315.68V393.08L319.38 386.1C319.64 385.62 319.72 385.22 319.72 384.32C319.72 383.48 319.68 382.68 318.72 382.68C318.1 382.68 317.72 383.04 317.72 383.7V384.86H315.68V384.02C315.68 383.36 315.72 383.14 315.84 382.74C316.16 381.76 317.2 380.64 318.74 380.64C320.66 380.64 321.76 382.02 321.76 384.26ZM329.201 383.64V392.12C329.201 393.76 327.961 395.12 326.161 395.12C324.421 395.12 323.121 393.82 323.121 392.12V383.64C323.121 381.98 324.381 380.64 326.161 380.64C327.941 380.64 329.201 381.98 329.201 383.64ZM325.161 383.68V392.1C325.161 392.6 325.561 393.08 326.161 393.08C326.761 393.08 327.161 392.6 327.161 392.1V383.66C327.161 383.16 326.781 382.68 326.161 382.68C325.601 382.68 325.161 383.12 325.161 383.68ZM333.463 382.24V383.62C333.463 384.44 332.823 385.1 331.763 385.1C330.703 385.1 330.063 384.44 330.063 383.62V382.22C330.063 381.32 330.703 380.64 331.763 380.64C332.823 380.64 333.463 381.3 333.463 382.24ZM335.183 380.76H336.503L331.623 395H330.303L335.183 380.76ZM332.263 383.38V382.4C332.263 381.96 331.923 381.84 331.763 381.84C331.503 381.84 331.263 382.06 331.263 382.38V383.34C331.263 383.8 331.643 383.9 331.763 383.9C332.023 383.9 332.263 383.68 332.263 383.38ZM336.743 392.26V393.64C336.743 394.46 336.103 395.12 335.043 395.12C333.983 395.12 333.343 394.46 333.343 393.64V392.24C333.343 391.34 333.983 390.66 335.043 390.66C336.103 390.66 336.743 391.32 336.743 392.26ZM335.543 393.4V392.44C335.543 392.18 335.383 391.86 335.043 391.86C334.783 391.86 334.543 392.08 334.543 392.4V393.34C334.543 393.8 334.863 393.92 335.043 393.92C335.303 393.92 335.543 393.7 335.543 393.4Z" fill="white"/>
<path d="M333.76 408.26C333.76 410.14 333.6 410.16 332.54 412.22L330.08 416.96H333.76V419H327.68V417.08L331.38 410.1C331.64 409.62 331.72 409.22 331.72 408.32C331.72 407.48 331.68 406.68 330.72 406.68C330.1 406.68 329.72 407.04 329.72 407.7V408.86H327.68V408.02C327.68 407.36 327.72 407.14 327.84 406.74C328.16 405.76 329.2 404.64 330.74 404.64C332.66 404.64 333.76 406.02 333.76 408.26ZM337.541 404.76H339.581V419H337.541V406.92L335.501 408.42V406.26L337.541 404.76ZM345.463 406.24V407.62C345.463 408.44 344.823 409.1 343.763 409.1C342.703 409.1 342.063 408.44 342.063 407.62V406.22C342.063 405.32 342.703 404.64 343.763 404.64C344.823 404.64 345.463 405.3 345.463 406.24ZM347.183 404.76H348.503L343.623 419H342.303L347.183 404.76ZM344.263 407.38V406.4C344.263 405.96 343.923 405.84 343.763 405.84C343.503 405.84 343.263 406.06 343.263 406.38V407.34C343.263 407.8 343.643 407.9 343.763 407.9C344.023 407.9 344.263 407.68 344.263 407.38ZM348.743 416.26V417.64C348.743 418.46 348.103 419.12 347.043 419.12C345.983 419.12 345.343 418.46 345.343 417.64V416.24C345.343 415.34 345.983 414.66 347.043 414.66C348.103 414.66 348.743 415.32 348.743 416.26ZM347.543 417.4V416.44C347.543 416.18 347.383 415.86 347.043 415.86C346.783 415.86 346.543 416.08 346.543 416.4V417.34C346.543 417.8 346.863 417.92 347.043 417.92C347.303 417.92 347.543 417.7 347.543 417.4Z" fill="white"/>
<path d="M64.3148 478.36C60.0748 478.36 59.0148 475.08 59.0148 472.72V463.84H60.4548V472.56C60.4548 474.84 61.4348 477.08 64.3148 477.08C67.1948 477.08 68.1748 474.84 68.1748 472.56V463.84H69.6148V472.72C69.6148 475.08 68.5548 478.36 64.3148 478.36ZM77.4802 463.84H78.8802L84.9602 478H83.3602L81.8002 474.28H74.4802L72.9402 478H71.3602L77.4802 463.84ZM78.1402 465.42L75.0202 472.96H81.2602L78.1402 465.42ZM96.0641 478H87.0441V463.84H95.8241V465.12H88.4841V470H95.3441V471.26H88.4841V476.72H96.0641V478Z" fill="white"/>
<rect x="107" y="451" width="130" height="16" rx="2.6" fill="url(#paint12_linear_1_1099)"/>
<rect x="107" y="474" width="130" height="16" rx="2.6" fill="url(#paint13_linear_1_1099)"/>
<path d="M246.1 451.76H248.14V466H246.1V453.92L244.06 455.42V453.26L246.1 451.76ZM257.201 455.68C257.201 457.5 257.161 457.94 255.941 458.64C256.981 459.24 257.201 459.84 257.201 461.06V462.34C257.201 462.96 257.161 463.92 256.881 464.46C256.461 465.26 255.641 466.12 254.141 466.12C252.401 466.12 251.121 464.9 251.121 463.18V461.92H253.161V462.98C253.161 463.62 253.541 464.08 254.161 464.08C254.801 464.08 255.161 463.6 255.161 462.98V460.82C255.161 460.16 255.081 459.56 253.781 459.56H253.541V457.76H253.741C254.761 457.76 255.161 457.5 255.161 456.56V454.76C255.161 453.94 254.641 453.68 254.161 453.68C253.441 453.68 253.161 454.26 253.161 454.7V455.84H251.121V454.66C251.121 452.96 252.541 451.64 254.201 451.64C254.761 451.64 255.481 451.82 255.921 452.18C256.861 452.92 257.201 453.58 257.201 455.68ZM261.463 453.24V454.62C261.463 455.44 260.823 456.1 259.763 456.1C258.703 456.1 258.063 455.44 258.063 454.62V453.22C258.063 452.32 258.703 451.64 259.763 451.64C260.823 451.64 261.463 452.3 261.463 453.24ZM263.183 451.76H264.503L259.623 466H258.303L263.183 451.76ZM260.263 454.38V453.4C260.263 452.96 259.923 452.84 259.763 452.84C259.503 452.84 259.263 453.06 259.263 453.38V454.34C259.263 454.8 259.643 454.9 259.763 454.9C260.023 454.9 260.263 454.68 260.263 454.38ZM264.743 463.26V464.64C264.743 465.46 264.103 466.12 263.043 466.12C261.983 466.12 261.343 465.46 261.343 464.64V463.24C261.343 462.34 261.983 461.66 263.043 461.66C264.103 461.66 264.743 462.32 264.743 463.26ZM263.543 464.4V463.44C263.543 463.18 263.383 462.86 263.043 462.86C262.783 462.86 262.543 463.08 262.543 463.4V464.34C262.543 464.8 262.863 464.92 263.043 464.92C263.303 464.92 263.543 464.7 263.543 464.4Z" fill="white"/>
<path d="M246.1 475.76H248.14V490H246.1V477.92L244.06 479.42V477.26L246.1 475.76ZM257.201 479.68C257.201 481.5 257.161 481.94 255.941 482.64C256.981 483.24 257.201 483.84 257.201 485.06V486.34C257.201 486.96 257.161 487.92 256.881 488.46C256.461 489.26 255.641 490.12 254.141 490.12C252.401 490.12 251.121 488.9 251.121 487.18V485.92H253.161V486.98C253.161 487.62 253.541 488.08 254.161 488.08C254.801 488.08 255.161 487.6 255.161 486.98V484.82C255.161 484.16 255.081 483.56 253.781 483.56H253.541V481.76H253.741C254.761 481.76 255.161 481.5 255.161 480.56V478.76C255.161 477.94 254.641 477.68 254.161 477.68C253.441 477.68 253.161 478.26 253.161 478.7V479.84H251.121V478.66C251.121 476.96 252.541 475.64 254.201 475.64C254.761 475.64 255.481 475.82 255.921 476.18C256.861 476.92 257.201 477.58 257.201 479.68ZM261.463 477.24V478.62C261.463 479.44 260.823 480.1 259.763 480.1C258.703 480.1 258.063 479.44 258.063 478.62V477.22C258.063 476.32 258.703 475.64 259.763 475.64C260.823 475.64 261.463 476.3 261.463 477.24ZM263.183 475.76H264.503L259.623 490H258.303L263.183 475.76ZM260.263 478.38V477.4C260.263 476.96 259.923 476.84 259.763 476.84C259.503 476.84 259.263 477.06 259.263 477.38V478.34C259.263 478.8 259.643 478.9 259.763 478.9C260.023 478.9 260.263 478.68 260.263 478.38ZM264.743 487.26V488.64C264.743 489.46 264.103 490.12 263.043 490.12C261.983 490.12 261.343 489.46 261.343 488.64V487.24C261.343 486.34 261.983 485.66 263.043 485.66C264.103 485.66 264.743 486.32 264.743 487.26ZM263.543 488.4V487.44C263.543 487.18 263.383 486.86 263.043 486.86C262.783 486.86 262.543 487.08 262.543 487.4V488.34C262.543 488.8 262.863 488.92 263.043 488.92C263.303 488.92 263.543 488.7 263.543 488.4Z" fill="white"/>
<path d="M43.2546 541H42.1026V529.672H45.3026C47.6066 529.672 49.1266 530.664 49.1266 532.696C49.1266 534.728 47.5746 535.736 45.2706 535.736H43.2546V541ZM43.2546 530.664V534.76H45.2066C46.9986 534.76 47.9746 534.04 47.9746 532.696C47.9746 531.304 46.9506 530.664 45.2066 530.664H43.2546ZM51.6579 541H50.5699V535.16C50.5699 534.76 50.5539 534.008 50.5059 533.496H51.5459C51.5779 533.896 51.6099 534.472 51.6099 534.792H51.6419C52.0579 533.928 52.9859 533.32 54.0419 533.32C54.3139 533.32 54.5379 533.336 54.7619 533.4L54.6179 534.424C54.4899 534.376 54.1379 534.328 53.8499 534.328C52.6979 534.328 51.6579 535.16 51.6579 537.16V541ZM59.4943 541.192C57.1743 541.192 55.5103 539.512 55.5103 537.256C55.5103 535 57.1743 533.32 59.4943 533.32C61.8303 533.32 63.4943 535 63.4943 537.256C63.4943 539.512 61.8303 541.192 59.4943 541.192ZM59.4943 540.264C61.2383 540.264 62.3423 538.936 62.3423 537.256C62.3423 535.576 61.2383 534.232 59.4943 534.232C57.7663 534.232 56.6623 535.576 56.6623 537.256C56.6623 538.936 57.7663 540.264 59.4943 540.264ZM69.2915 541.192C66.8755 541.192 65.2915 539.512 65.2915 537.256C65.2915 535 66.8755 533.32 69.2915 533.32C70.2995 533.32 71.4355 533.752 72.0755 534.616L71.2275 535.224C70.8755 534.648 70.1235 534.232 69.3075 534.232C67.5635 534.232 66.4435 535.544 66.4435 537.256C66.4435 538.952 67.5475 540.264 69.2915 540.264C70.2355 540.264 70.8915 539.864 71.3235 539.288L72.1395 539.896C71.4995 540.68 70.5875 541.192 69.2915 541.192ZM77.1635 541.192C74.9395 541.192 73.2915 539.512 73.2915 537.256C73.2915 535 74.9395 533.32 77.0675 533.32C79.4195 533.32 80.6515 534.984 80.6515 537.032C80.6515 537.176 80.6515 537.352 80.6355 537.544H74.4275C74.4595 539.048 75.6275 540.264 77.1635 540.264C78.2835 540.264 79.1475 539.64 79.5635 538.968L80.3795 539.608C79.4995 540.728 78.3955 541.192 77.1635 541.192ZM74.4435 536.68H79.5475C79.4835 535.272 78.6195 534.232 77.0675 534.232C75.6115 534.232 74.5395 535.4 74.4435 536.68ZM84.0798 541H82.9918V535.16C82.9918 534.76 82.9758 534.008 82.9278 533.496H83.9678C83.9998 533.896 84.0318 534.472 84.0318 534.792H84.0638C84.4798 533.928 85.5678 533.32 86.6238 533.32C88.5278 533.32 89.4718 534.552 89.4718 536.408V541H88.3838V536.856C88.3838 535.288 87.9198 534.232 86.3518 534.232C85.1998 534.232 84.0798 535.16 84.0798 537.16V541ZM94.3206 541.192C93.1846 541.192 91.7286 540.584 91.7286 538.92C91.7286 536.632 94.2246 536.408 96.9446 536.408H97.0086V536.168C97.0086 534.872 96.3046 534.232 95.0086 534.232C94.1286 534.232 93.3126 534.584 92.7846 535.112L92.1766 534.392C92.7846 533.784 93.8406 533.32 95.1206 533.32C96.7366 533.32 98.0326 534.216 98.0326 536.04V539.32C98.0326 539.896 98.0806 540.584 98.1606 541H97.1846C97.1206 540.632 97.0726 540.184 97.0726 539.784H97.0406C96.3526 540.776 95.5206 541.192 94.3206 541.192ZM94.6086 540.296C96.1446 540.296 97.0086 539.144 97.0086 537.816V537.256H96.6886C94.9126 537.256 92.8486 537.448 92.8486 538.872C92.8486 539.944 93.7606 540.296 94.6086 540.296ZM102.775 541.096C101.975 541.096 100.855 540.744 100.855 539.096V534.408H99.3033V533.496H100.855V531.4H101.943V533.496H104.055V534.408H101.943V538.792C101.943 539.912 102.407 540.168 103.063 540.168C103.367 540.168 103.719 540.072 104.007 539.928L104.055 540.872C103.671 541.016 103.271 541.096 102.775 541.096ZM118.221 533.32C120.125 533.32 121.069 534.552 121.069 536.408V541H119.981V536.856C119.981 535.288 119.453 534.232 118.045 534.232C116.477 534.232 115.917 535.624 115.917 537.016V541H114.829V536.632C114.829 535.176 114.477 534.232 113.021 534.232C111.981 534.232 110.845 535.16 110.845 537.16V541H109.757V535.16C109.757 534.76 109.741 534.008 109.693 533.496H110.733C110.765 533.896 110.797 534.472 110.797 534.792H110.829C111.261 533.928 112.221 533.32 113.293 533.32C114.109 533.32 115.101 533.64 115.597 534.904C116.109 533.864 117.021 533.32 118.221 533.32ZM125.914 541.192C124.778 541.192 123.322 540.584 123.322 538.92C123.322 536.632 125.818 536.408 128.538 536.408H128.602V536.168C128.602 534.872 127.898 534.232 126.602 534.232C125.722 534.232 124.906 534.584 124.378 535.112L123.77 534.392C124.378 533.784 125.434 533.32 126.714 533.32C128.33 533.32 129.626 534.216 129.626 536.04V539.32C129.626 539.896 129.674 540.584 129.754 541H128.778C128.714 540.632 128.666 540.184 128.666 539.784H128.634C127.946 540.776 127.114 541.192 125.914 541.192ZM126.202 540.296C127.738 540.296 128.602 539.144 128.602 537.816V537.256H128.282C126.506 537.256 124.442 537.448 124.442 538.872C124.442 539.944 125.354 540.296 126.202 540.296ZM133.549 541H132.461V528.904H133.549V541ZM137.021 531.4C136.637 531.4 136.253 531.08 136.253 530.632C136.253 530.184 136.637 529.864 137.021 529.864C137.405 529.864 137.789 530.184 137.789 530.632C137.789 531.08 137.405 531.4 137.021 531.4ZM137.565 541H136.477V533.496H137.565V541ZM141.581 541H140.493V528.904H141.581V534.744H141.613C142.013 533.88 143.069 533.32 144.125 533.32C146.029 533.32 146.973 534.552 146.973 536.408V541H145.885V536.856C145.885 535.288 145.421 534.232 143.853 534.232C142.701 534.232 141.581 535.16 141.581 537.16V541ZM154.349 531.4C153.965 531.4 153.581 531.08 153.581 530.632C153.581 530.184 153.965 529.864 154.349 529.864C154.733 529.864 155.117 530.184 155.117 530.632C155.117 531.08 154.733 531.4 154.349 531.4ZM154.893 541H153.805V533.496H154.893V541ZM163.917 541.192C162.781 541.192 161.645 540.744 160.957 539.736L161.821 539.096C162.205 539.752 163.021 540.264 163.901 540.264C164.829 540.264 165.661 539.928 165.661 538.952C165.661 538.168 164.877 537.848 163.453 537.512C162.573 537.304 161.309 536.92 161.309 535.496C161.309 533.976 162.621 533.32 163.981 533.32C165.021 533.32 166.125 533.816 166.605 534.664L165.773 535.288C165.453 534.664 164.765 534.232 163.933 534.232C163.149 534.232 162.349 534.568 162.349 535.4C162.349 536.104 162.909 536.424 164.141 536.68C165.901 537.048 166.733 537.704 166.733 538.872C166.733 540.584 165.293 541.192 163.917 541.192ZM169.986 541H168.898V535.16C168.898 534.76 168.882 534.008 168.834 533.496H169.874C169.906 533.896 169.938 534.472 169.938 534.792H169.97C170.386 533.928 171.314 533.32 172.37 533.32C172.642 533.32 172.866 533.336 173.09 533.4L172.946 534.424C172.818 534.376 172.466 534.328 172.178 534.328C171.026 534.328 169.986 535.16 169.986 537.16V541ZM177.71 541.192C175.486 541.192 173.838 539.512 173.838 537.256C173.838 535 175.486 533.32 177.614 533.32C179.966 533.32 181.198 534.984 181.198 537.032C181.198 537.176 181.198 537.352 181.182 537.544H174.974C175.006 539.048 176.174 540.264 177.71 540.264C178.83 540.264 179.694 539.64 180.11 538.968L180.926 539.608C180.046 540.728 178.942 541.192 177.71 541.192ZM174.99 536.68H180.094C180.03 535.272 179.166 534.232 177.614 534.232C176.158 534.232 175.086 535.4 174.99 536.68ZM184.627 541H183.539V535.16C183.539 534.76 183.523 534.008 183.475 533.496H184.515C184.547 533.896 184.579 534.472 184.579 534.792H184.611C185.027 533.928 186.115 533.32 187.171 533.32C189.075 533.32 190.019 534.552 190.019 536.408V541H188.931V536.856C188.931 535.288 188.467 534.232 186.899 534.232C185.747 534.232 184.627 535.16 184.627 537.16V541ZM196.164 541.192C193.828 541.192 192.292 539.464 192.292 537.256C192.292 535.048 193.828 533.32 196.164 533.32C197.236 533.32 198.356 533.832 198.996 534.808H199.028V528.904H200.116V541H199.028V539.736H198.996C198.356 540.68 197.236 541.192 196.164 541.192ZM196.276 540.264C197.956 540.264 199.156 538.968 199.156 537.256C199.156 535.544 197.956 534.232 196.276 534.232C194.468 534.232 193.444 535.592 193.444 537.256C193.444 538.92 194.468 540.264 196.276 540.264ZM203.599 531.4C203.215 531.4 202.831 531.08 202.831 530.632C202.831 530.184 203.215 529.864 203.599 529.864C203.983 529.864 204.367 530.184 204.367 530.632C204.367 531.08 203.983 531.4 203.599 531.4ZM202.015 544.84C201.791 544.84 201.423 544.808 201.151 544.728L201.311 543.816C201.519 543.88 201.791 543.912 201.999 543.912C202.911 543.912 203.055 543.256 203.055 542.312V533.496H204.143V542.488C204.143 543.688 203.711 544.84 202.015 544.84ZM207.599 531.4C207.215 531.4 206.831 531.08 206.831 530.632C206.831 530.184 207.215 529.864 207.599 529.864C207.983 529.864 208.367 530.184 208.367 530.632C208.367 531.08 207.983 531.4 207.599 531.4ZM208.143 541H207.055V533.496H208.143V541ZM212.159 541H211.071V528.904H212.159V534.744H212.191C212.591 533.88 213.647 533.32 214.703 533.32C216.607 533.32 217.551 534.552 217.551 536.408V541H216.463V536.856C216.463 535.288 215.999 534.232 214.431 534.232C213.279 534.232 212.159 535.16 212.159 537.16V541ZM225.455 544.84H224.367V533.496H225.455V534.808H225.503C226.127 533.832 227.247 533.32 228.319 533.32C230.655 533.32 232.191 535.048 232.191 537.256C232.191 539.464 230.655 541.192 228.319 541.192C227.247 541.192 226.127 540.664 225.503 539.736H225.455V544.84ZM228.207 540.264C230.015 540.264 231.039 538.92 231.039 537.256C231.039 535.592 230.015 534.232 228.207 534.232C226.527 534.232 225.327 535.544 225.327 537.256C225.327 538.968 226.527 540.264 228.207 540.264ZM235.611 541H234.523V535.16C234.523 534.76 234.507 534.008 234.459 533.496H235.499C235.531 533.896 235.563 534.472 235.563 534.792H235.595C236.011 533.928 236.939 533.32 237.995 533.32C238.267 533.32 238.491 533.336 238.715 533.4L238.571 534.424C238.443 534.376 238.091 534.328 237.803 534.328C236.651 534.328 235.611 535.16 235.611 537.16V541ZM243.335 541.192C241.111 541.192 239.463 539.512 239.463 537.256C239.463 535 241.111 533.32 243.239 533.32C245.591 533.32 246.823 534.984 246.823 537.032C246.823 537.176 246.823 537.352 246.807 537.544H240.599C240.631 539.048 241.799 540.264 243.335 540.264C244.455 540.264 245.319 539.64 245.735 538.968L246.551 539.608C245.671 540.728 244.567 541.192 243.335 541.192ZM240.615 536.68H245.719C245.655 535.272 244.791 534.232 243.239 534.232C241.783 534.232 240.711 535.4 240.615 536.68ZM252.492 541.192C250.156 541.192 248.62 539.464 248.62 537.256C248.62 535.048 250.156 533.32 252.492 533.32C253.564 533.32 254.684 533.832 255.324 534.808H255.356V528.904H256.444V541H255.356V539.736H255.324C254.684 540.68 253.564 541.192 252.492 541.192ZM252.604 540.264C254.284 540.264 255.484 538.968 255.484 537.256C255.484 535.544 254.284 534.232 252.604 534.232C250.796 534.232 249.772 535.592 249.772 537.256C249.772 538.92 250.796 540.264 252.604 540.264ZM262.135 541.192C260.231 541.192 259.287 539.96 259.287 538.104V533.496H260.375V537.656C260.375 539.224 260.839 540.28 262.407 540.28C263.559 540.28 264.679 539.352 264.679 537.352V533.496H265.767V539.352C265.767 539.752 265.783 540.488 265.831 541H264.791C264.759 540.6 264.727 540.04 264.727 539.72H264.695C264.279 540.584 263.191 541.192 262.135 541.192ZM273.784 541H267.704V540.232L272.168 534.408H267.928V533.496H273.624V534.264L269.144 540.056H273.784V541ZM279.054 541.192C276.83 541.192 275.182 539.512 275.182 537.256C275.182 535 276.83 533.32 278.958 533.32C281.31 533.32 282.542 534.984 282.542 537.032C282.542 537.176 282.542 537.352 282.526 537.544H276.318C276.35 539.048 277.518 540.264 279.054 540.264C280.174 540.264 281.038 539.64 281.454 538.968L282.27 539.608C281.39 540.728 280.286 541.192 279.054 541.192ZM276.334 536.68H281.438C281.374 535.272 280.51 534.232 278.958 534.232C277.502 534.232 276.43 535.4 276.334 536.68ZM288.386 531.976H287.442L289.058 529.672H290.514L288.386 531.976ZM288.338 541.192C285.922 541.192 284.338 539.512 284.338 537.256C284.338 535 285.922 533.32 288.338 533.32C289.346 533.32 290.482 533.752 291.122 534.616L290.274 535.224C289.922 534.648 289.17 534.232 288.354 534.232C286.61 534.232 285.49 535.544 285.49 537.256C285.49 538.952 286.594 540.264 288.338 540.264C289.282 540.264 289.938 539.864 290.37 539.288L291.186 539.896C290.546 540.68 289.634 541.192 288.338 541.192ZM294.914 541.192C293.778 541.192 292.322 540.584 292.322 538.92C292.322 536.632 294.818 536.408 297.538 536.408H297.602V536.168C297.602 534.872 296.898 534.232 295.602 534.232C294.722 534.232 293.906 534.584 293.378 535.112L292.77 534.392C293.378 533.784 294.434 533.32 295.714 533.32C297.33 533.32 298.626 534.216 298.626 536.04V539.32C298.626 539.896 298.674 540.584 298.754 541H297.778C297.714 540.632 297.666 540.184 297.666 539.784H297.634C296.946 540.776 296.114 541.192 294.914 541.192ZM295.202 540.296C296.738 540.296 297.602 539.144 297.602 537.816V537.256H297.282C295.506 537.256 293.442 537.448 293.442 538.872C293.442 539.944 294.354 540.296 295.202 540.296ZM305.989 531.4C305.605 531.4 305.221 531.08 305.221 530.632C305.221 530.184 305.605 529.864 305.989 529.864C306.373 529.864 306.757 530.184 306.757 530.632C306.757 531.08 306.373 531.4 305.989 531.4ZM306.533 541H305.445V533.496H306.533V541ZM314.565 541H308.485V540.232L312.949 534.408H308.709V533.496H314.405V534.264L309.925 540.056H314.565V541ZM325.643 541H319.563V540.232L324.027 534.408H319.787V533.496H325.483V534.264L321.003 540.056H325.643V541ZM330.914 541.192C328.69 541.192 327.042 539.512 327.042 537.256C327.042 535 328.69 533.32 330.818 533.32C333.17 533.32 334.402 534.984 334.402 537.032C334.402 537.176 334.402 537.352 334.386 537.544H328.178C328.21 539.048 329.378 540.264 330.914 540.264C332.034 540.264 332.898 539.64 333.314 538.968L334.13 539.608C333.25 540.728 332.146 541.192 330.914 541.192ZM328.194 536.68H333.298C333.234 535.272 332.37 534.232 330.818 534.232C329.362 534.232 328.29 535.4 328.194 536.68ZM345.206 533.32C347.11 533.32 348.054 534.552 348.054 536.408V541H346.966V536.856C346.966 535.288 346.438 534.232 345.03 534.232C343.462 534.232 342.902 535.624 342.902 537.016V541H341.814V536.632C341.814 535.176 341.462 534.232 340.006 534.232C338.966 534.232 337.83 535.16 337.83 537.16V541H336.742V535.16C336.742 534.76 336.726 534.008 336.678 533.496H337.718C337.75 533.896 337.782 534.472 337.782 534.792H337.814C338.246 533.928 339.206 533.32 340.278 533.32C341.094 533.32 342.086 533.64 342.582 534.904C343.094 533.864 344.006 533.32 345.206 533.32ZM352.899 541.192C351.763 541.192 350.307 540.584 350.307 538.92C350.307 536.632 352.803 536.408 355.523 536.408H355.587V536.168C355.587 534.872 354.883 534.232 353.587 534.232C352.707 534.232 351.891 534.584 351.363 535.112L350.755 534.392C351.363 533.784 352.419 533.32 353.699 533.32C355.315 533.32 356.611 534.216 356.611 536.04V539.32C356.611 539.896 356.659 540.584 356.739 541H355.763C355.699 540.632 355.651 540.184 355.651 539.784H355.619C354.931 540.776 354.099 541.192 352.899 541.192ZM353.187 540.296C354.723 540.296 355.587 539.144 355.587 537.816V537.256H355.267C353.491 537.256 351.427 537.448 351.427 538.872C351.427 539.944 352.339 540.296 353.187 540.296ZM360.534 541H359.446V528.904H360.534V541ZM364.021 531.4C363.637 531.4 363.253 531.08 363.253 530.632C363.253 530.184 363.637 529.864 364.021 529.864C364.405 529.864 364.789 530.184 364.789 530.632C364.789 531.08 364.405 531.4 364.021 531.4ZM362.437 544.84C362.213 544.84 361.845 544.808 361.573 544.728L361.733 543.816C361.941 543.88 362.213 543.912 362.421 543.912C363.333 543.912 363.477 543.256 363.477 542.312V533.496H364.565V542.488C364.565 543.688 364.133 544.84 362.437 544.84ZM369.493 541.192C368.357 541.192 366.901 540.584 366.901 538.92C366.901 536.632 369.397 536.408 372.117 536.408H372.181V536.168C372.181 534.872 371.477 534.232 370.181 534.232C369.301 534.232 368.485 534.584 367.957 535.112L367.349 534.392C367.957 533.784 369.013 533.32 370.293 533.32C371.909 533.32 373.205 534.216 373.205 536.04V539.32C373.205 539.896 373.253 540.584 373.333 541H372.357C372.293 540.632 372.245 540.184 372.245 539.784H372.213C371.525 540.776 370.693 541.192 369.493 541.192ZM369.781 540.296C371.317 540.296 372.181 539.144 372.181 537.816V537.256H371.861C370.085 537.256 368.021 537.448 368.021 538.872C368.021 539.944 368.933 540.296 369.781 540.296ZM381.127 541H380.039V528.904H381.127V536.888H381.175L384.631 533.496H386.199L382.423 536.936L386.583 541H384.983L381.175 537.064H381.127V541ZM391.307 541.192C388.987 541.192 387.323 539.512 387.323 537.256C387.323 535 388.987 533.32 391.307 533.32C393.643 533.32 395.307 535 395.307 537.256C395.307 539.512 393.643 541.192 391.307 541.192ZM391.307 540.264C393.051 540.264 394.155 538.936 394.155 537.256C394.155 535.576 393.051 534.232 391.307 534.232C389.579 534.232 388.475 535.576 388.475 537.256C388.475 538.936 389.579 540.264 391.307 540.264ZM398.224 531.4C397.84 531.4 397.456 531.08 397.456 530.632C397.456 530.184 397.84 529.864 398.224 529.864C398.608 529.864 398.992 530.184 398.992 530.632C398.992 531.08 398.608 531.4 398.224 531.4ZM396.64 544.84C396.416 544.84 396.048 544.808 395.776 544.728L395.936 543.816C396.144 543.88 396.416 543.912 396.624 543.912C397.536 543.912 397.68 543.256 397.68 542.312V533.496H398.768V542.488C398.768 543.688 398.336 544.84 396.64 544.84ZM404.992 541.192C402.768 541.192 401.12 539.512 401.12 537.256C401.12 535 402.768 533.32 404.896 533.32C407.248 533.32 408.48 534.984 408.48 537.032C408.48 537.176 408.48 537.352 408.464 537.544H402.256C402.288 539.048 403.456 540.264 404.992 540.264C406.112 540.264 406.976 539.64 407.392 538.968L408.208 539.608C407.328 540.728 406.224 541.192 404.992 541.192ZM402.272 536.68H407.376C407.312 535.272 406.448 534.232 404.896 534.232C403.44 534.232 402.368 535.4 402.272 536.68ZM417.7 531.976H416.42L414.676 529.672H415.732L417.06 531.4L418.388 529.672H419.444L417.7 531.976ZM416.948 541.192C415.812 541.192 414.676 540.744 413.988 539.736L414.852 539.096C415.236 539.752 416.052 540.264 416.932 540.264C417.86 540.264 418.692 539.928 418.692 538.952C418.692 538.168 417.908 537.848 416.484 537.512C415.604 537.304 414.34 536.92 414.34 535.496C414.34 533.976 415.652 533.32 417.012 533.32C418.052 533.32 419.156 533.816 419.636 534.664L418.804 535.288C418.484 534.664 417.796 534.232 416.964 534.232C416.18 534.232 415.38 534.568 415.38 535.4C415.38 536.104 415.94 536.424 417.172 536.68C418.932 537.048 419.764 537.704 419.764 538.872C419.764 540.584 418.324 541.192 416.948 541.192ZM423.961 541.192C422.825 541.192 421.369 540.584 421.369 538.92C421.369 536.632 423.865 536.408 426.585 536.408H426.649V536.168C426.649 534.872 425.945 534.232 424.649 534.232C423.769 534.232 422.953 534.584 422.425 535.112L421.817 534.392C422.425 533.784 423.481 533.32 424.761 533.32C426.377 533.32 427.673 534.216 427.673 536.04V539.32C427.673 539.896 427.721 540.584 427.801 541H426.825C426.761 540.632 426.713 540.184 426.713 539.784H426.681C425.993 540.776 425.161 541.192 423.961 541.192ZM424.249 540.296C425.785 540.296 426.649 539.144 426.649 537.816V537.256H426.329C424.553 537.256 422.489 537.448 422.489 538.872C422.489 539.944 423.401 540.296 424.249 540.296ZM431.596 541H430.508V528.904H431.596V541ZM435.083 531.4C434.699 531.4 434.315 531.08 434.315 530.632C434.315 530.184 434.699 529.864 435.083 529.864C435.467 529.864 435.851 530.184 435.851 530.632C435.851 531.08 435.467 531.4 435.083 531.4ZM433.499 544.84C433.275 544.84 432.907 544.808 432.635 544.728L432.795 543.816C433.003 543.88 433.275 543.912 433.483 543.912C434.395 543.912 434.539 543.256 434.539 542.312V533.496H435.627V542.488C435.627 543.688 435.195 544.84 433.499 544.84ZM441.307 541.192C439.403 541.192 438.459 539.96 438.459 538.104V533.496H439.547V537.656C439.547 539.224 440.011 540.28 441.579 540.28C442.731 540.28 443.851 539.352 443.851 537.352V533.496H444.939V539.352C444.939 539.752 444.955 540.488 445.003 541H443.963C443.931 540.6 443.899 540.04 443.899 539.72H443.867C443.451 540.584 442.363 541.192 441.307 541.192ZM452.38 531.4C451.996 531.4 451.612 531.08 451.612 530.632C451.612 530.184 451.996 529.864 452.38 529.864C452.764 529.864 453.148 530.184 453.148 530.632C453.148 531.08 452.764 531.4 452.38 531.4ZM452.924 541H451.836V533.496H452.924V541ZM460.908 544.84H459.82V533.496H460.908V534.808H460.956C461.58 533.832 462.7 533.32 463.772 533.32C466.108 533.32 467.644 535.048 467.644 537.256C467.644 539.464 466.108 541.192 463.772 541.192C462.7 541.192 461.58 540.664 460.956 539.736H460.908V544.84ZM463.66 540.264C465.468 540.264 466.492 538.92 466.492 537.256C466.492 535.592 465.468 534.232 463.66 534.232C461.98 534.232 460.78 535.544 460.78 537.256C460.78 538.968 461.98 540.264 463.66 540.264ZM471.064 541H469.976V535.16C469.976 534.76 469.96 534.008 469.912 533.496H470.952C470.984 533.896 471.016 534.472 471.016 534.792H471.048C471.464 533.928 472.392 533.32 473.448 533.32C473.72 533.32 473.944 533.336 474.168 533.4L474.024 534.424C473.896 534.376 473.544 534.328 473.256 534.328C472.104 534.328 471.064 535.16 471.064 537.16V541ZM476.302 531.4C475.918 531.4 475.534 531.08 475.534 530.632C475.534 530.184 475.918 529.864 476.302 529.864C476.686 529.864 477.07 530.184 477.07 530.632C477.07 531.08 476.686 531.4 476.302 531.4ZM476.846 541H475.758V533.496H476.846V541ZM488.206 533.32C490.11 533.32 491.054 534.552 491.054 536.408V541H489.966V536.856C489.966 535.288 489.438 534.232 488.03 534.232C486.462 534.232 485.902 535.624 485.902 537.016V541H484.814V536.632C484.814 535.176 484.462 534.232 483.006 534.232C481.966 534.232 480.83 535.16 480.83 537.16V541H479.742V535.16C479.742 534.76 479.726 534.008 479.678 533.496H480.718C480.75 533.896 480.782 534.472 480.782 534.792H480.814C481.246 533.928 482.206 533.32 483.278 533.32C484.094 533.32 485.086 533.64 485.582 534.904C486.094 533.864 487.006 533.32 488.206 533.32ZM495.899 541.192C494.763 541.192 493.307 540.584 493.307 538.92C493.307 536.632 495.803 536.408 498.523 536.408H498.587V536.168C498.587 534.872 497.883 534.232 496.587 534.232C495.707 534.232 494.891 534.584 494.363 535.112L493.755 534.392C494.363 533.784 495.419 533.32 496.699 533.32C498.315 533.32 499.611 534.216 499.611 536.04V539.32C499.611 539.896 499.659 540.584 499.739 541H498.763C498.699 540.632 498.651 540.184 498.651 539.784H498.619C497.931 540.776 497.099 541.192 495.899 541.192ZM496.187 540.296C497.723 540.296 498.587 539.144 498.587 537.816V537.256H498.267C496.491 537.256 494.427 537.448 494.427 538.872C494.427 539.944 495.339 540.296 496.187 540.296ZM502.99 531.4C502.606 531.4 502.222 531.08 502.222 530.632C502.222 530.184 502.606 529.864 502.99 529.864C503.374 529.864 503.758 530.184 503.758 530.632C503.758 531.08 503.374 531.4 502.99 531.4ZM501.406 544.84C501.182 544.84 500.814 544.808 500.542 544.728L500.702 543.816C500.91 543.88 501.182 543.912 501.39 543.912C502.302 543.912 502.446 543.256 502.446 542.312V533.496H503.534V542.488C503.534 543.688 503.102 544.84 501.406 544.84ZM509.213 541.192C507.309 541.192 506.365 539.96 506.365 538.104V533.496H507.453V537.656C507.453 539.224 507.917 540.28 509.485 540.28C510.637 540.28 511.757 539.352 511.757 537.352V533.496H512.845V539.352C512.845 539.752 512.861 540.488 512.909 541H511.869C511.837 540.6 511.805 540.04 511.805 539.72H511.773C511.357 540.584 510.269 541.192 509.213 541.192ZM520.814 541H519.726V535.16C519.726 534.76 519.71 534.008 519.662 533.496H520.702C520.734 533.896 520.766 534.472 520.766 534.792H520.798C521.214 533.928 522.302 533.32 523.358 533.32C525.262 533.32 526.206 534.552 526.206 536.408V541H525.118V536.856C525.118 535.288 524.654 534.232 523.086 534.232C521.934 534.232 520.814 535.16 520.814 537.16V541ZM531.055 541.192C529.919 541.192 528.463 540.584 528.463 538.92C528.463 536.632 530.959 536.408 533.679 536.408H533.743V536.168C533.743 534.872 533.039 534.232 531.743 534.232C530.863 534.232 530.047 534.584 529.519 535.112L528.911 534.392C529.519 533.784 530.575 533.32 531.855 533.32C533.471 533.32 534.767 534.216 534.767 536.04V539.32C534.767 539.896 534.815 540.584 534.895 541H533.919C533.855 540.632 533.807 540.184 533.807 539.784H533.775C533.087 540.776 532.255 541.192 531.055 541.192ZM531.343 540.296C532.879 540.296 533.743 539.144 533.743 537.816V537.256H533.423C531.647 537.256 529.583 537.448 529.583 538.872C529.583 539.944 530.495 540.296 531.343 540.296ZM538.146 531.4C537.762 531.4 537.378 531.08 537.378 530.632C537.378 530.184 537.762 529.864 538.146 529.864C538.53 529.864 538.914 530.184 538.914 530.632C538.914 531.08 538.53 531.4 538.146 531.4ZM536.562 544.84C536.338 544.84 535.97 544.808 535.698 544.728L535.858 543.816C536.066 543.88 536.338 543.912 536.546 543.912C537.458 543.912 537.602 543.256 537.602 542.312V533.496H538.69V542.488C538.69 543.688 538.258 544.84 536.562 544.84ZM544.658 541H543.458L540.402 533.496H541.618L544.05 539.848H544.082L546.53 533.496H547.698L544.658 541ZM552.726 541.192C550.502 541.192 548.854 539.512 548.854 537.256C548.854 535 550.502 533.32 552.63 533.32C554.982 533.32 556.214 534.984 556.214 537.032C556.214 537.176 556.214 537.352 556.198 537.544H549.99C550.022 539.048 551.19 540.264 552.726 540.264C553.846 540.264 554.71 539.64 555.126 538.968L555.942 539.608C555.062 540.728 553.958 541.192 552.726 541.192ZM550.006 536.68H555.11C555.046 535.272 554.182 534.232 552.63 534.232C551.174 534.232 550.102 535.4 550.006 536.68ZM562.058 531.976H561.114L562.73 529.672H564.186L562.058 531.976ZM562.01 541.192C559.594 541.192 558.01 539.512 558.01 537.256C558.01 535 559.594 533.32 562.01 533.32C563.018 533.32 564.154 533.752 564.794 534.616L563.946 535.224C563.594 534.648 562.842 534.232 562.026 534.232C560.282 534.232 559.162 535.544 559.162 537.256C559.162 538.952 560.266 540.264 562.01 540.264C562.954 540.264 563.61 539.864 564.042 539.288L564.858 539.896C564.218 540.68 563.306 541.192 562.01 541.192ZM567.114 531.4C566.73 531.4 566.346 531.08 566.346 530.632C566.346 530.184 566.73 529.864 567.114 529.864C567.498 529.864 567.882 530.184 567.882 530.632C567.882 531.08 567.498 531.4 567.114 531.4ZM567.658 541H566.57V533.496H567.658V541ZM578.538 541.192C577.466 541.192 576.346 540.68 575.706 539.736H575.674V541H574.586V528.904H575.674V534.808H575.706C576.346 533.832 577.466 533.32 578.538 533.32C580.874 533.32 582.41 535.048 582.41 537.256C582.41 539.464 580.874 541.192 578.538 541.192ZM578.426 540.264C580.234 540.264 581.258 538.92 581.258 537.256C581.258 535.592 580.234 534.232 578.426 534.232C576.746 534.232 575.546 535.544 575.546 537.256C575.546 538.968 576.746 540.264 578.426 540.264ZM585.83 541H584.742V535.16C584.742 534.76 584.726 534.008 584.678 533.496H585.718C585.75 533.896 585.782 534.472 585.782 534.792H585.814C586.23 533.928 587.158 533.32 588.214 533.32C588.486 533.32 588.71 533.336 588.934 533.4L588.79 534.424C588.662 534.376 588.31 534.328 588.022 534.328C586.87 534.328 585.83 535.16 585.83 537.16V541ZM593.666 541.192C591.346 541.192 589.682 539.512 589.682 537.256C589.682 535 591.346 533.32 593.666 533.32C596.002 533.32 597.666 535 597.666 537.256C597.666 539.512 596.002 541.192 593.666 541.192ZM593.666 540.264C595.41 540.264 596.514 538.936 596.514 537.256C596.514 535.576 595.41 534.232 593.666 534.232C591.938 534.232 590.834 535.576 590.834 537.256C590.834 538.936 591.938 540.264 593.666 540.264ZM600.583 531.4C600.199 531.4 599.815 531.08 599.815 530.632C599.815 530.184 600.199 529.864 600.583 529.864C600.967 529.864 601.351 530.184 601.351 530.632C601.351 531.08 600.967 531.4 600.583 531.4ZM598.999 544.84C598.775 544.84 598.407 544.808 598.135 544.728L598.295 543.816C598.503 543.88 598.775 543.912 598.983 543.912C599.895 543.912 600.039 543.256 600.039 542.312V533.496H601.127V542.488C601.127 543.688 600.695 544.84 598.999 544.84ZM610.807 541.192C608.903 541.192 607.959 539.96 607.959 538.104V533.496H609.047V537.656C609.047 539.224 609.511 540.28 611.079 540.28C612.231 540.28 613.351 539.352 613.351 537.352V533.496H614.439V539.352C614.439 539.752 614.455 540.488 614.503 541H613.463C613.431 540.6 613.399 540.04 613.399 539.72H613.367C612.951 540.584 611.863 541.192 610.807 541.192ZM618.408 544.84H617.32V533.496H618.408V534.808H618.456C619.08 533.832 620.2 533.32 621.272 533.32C623.608 533.32 625.144 535.048 625.144 537.256C625.144 539.464 623.608 541.192 621.272 541.192C620.2 541.192 619.08 540.664 618.456 539.736H618.408V544.84ZM621.16 540.264C622.968 540.264 623.992 538.92 623.992 537.256C623.992 535.592 622.968 534.232 621.16 534.232C619.48 534.232 618.28 535.544 618.28 537.256C618.28 538.968 619.48 540.264 621.16 540.264ZM628.596 541H627.508V528.904H628.596V541ZM633.539 541.192C632.403 541.192 630.947 540.584 630.947 538.92C630.947 536.632 633.443 536.408 636.163 536.408H636.227V536.168C636.227 534.872 635.523 534.232 634.227 534.232C633.347 534.232 632.531 534.584 632.003 535.112L631.395 534.392C632.003 533.784 633.059 533.32 634.339 533.32C635.955 533.32 637.251 534.216 637.251 536.04V539.32C637.251 539.896 637.299 540.584 637.379 541H636.403C636.339 540.632 636.291 540.184 636.291 539.784H636.259C635.571 540.776 634.739 541.192 633.539 541.192ZM633.827 540.296C635.363 540.296 636.227 539.144 636.227 537.816V537.256H635.907C634.131 537.256 632.067 537.448 632.067 538.872C632.067 539.944 632.979 540.296 633.827 540.296ZM641.994 541.096C641.194 541.096 640.074 540.744 640.074 539.096V534.408H638.522V533.496H640.074V531.4H641.162V533.496H643.274V534.408H641.162V538.792C641.162 539.912 641.626 540.168 642.282 540.168C642.586 540.168 642.938 540.072 643.226 539.928L643.274 540.872C642.89 541.016 642.49 541.096 641.994 541.096ZM647.008 541.192C645.872 541.192 644.416 540.584 644.416 538.92C644.416 536.632 646.912 536.408 649.632 536.408H649.696V536.168C649.696 534.872 648.992 534.232 647.696 534.232C646.816 534.232 646 534.584 645.472 535.112L644.864 534.392C645.472 533.784 646.528 533.32 647.808 533.32C649.424 533.32 650.72 534.216 650.72 536.04V539.32C650.72 539.896 650.768 540.584 650.848 541H649.872C649.808 540.632 649.76 540.184 649.76 539.784H649.728C649.04 540.776 648.208 541.192 647.008 541.192ZM647.296 540.296C648.832 540.296 649.696 539.144 649.696 537.816V537.256H649.376C647.6 537.256 645.536 537.448 645.536 538.872C645.536 539.944 646.448 540.296 647.296 540.296Z" fill="white"/>
</g>
<defs>
<linearGradient id="paint0_linear_1_1099" x1="100.973" y1="41.0468" x2="128.49" y2="34.478" gradientUnits="userSpaceOnUse">
<stop stop-color="#DA54D8"/>
<stop offset="1" stop-color="#FF4800"/>
</linearGradient>
<linearGradient id="paint1_linear_1_1099" x1="389.973" y1="41.0468" x2="417.49" y2="34.478" gradientUnits="userSpaceOnUse">
<stop stop-color="#DA54D8"/>
<stop offset="1" stop-color="#0092F4"/>
</linearGradient>
<linearGradient id="paint2_linear_1_1099" x1="20.426" y1="108.837" x2="35.258" y2="13.681" gradientUnits="userSpaceOnUse">
<stop stop-color="#DA54D8"/>
<stop offset="1" stop-color="#FF4800"/>
</linearGradient>
<linearGradient id="paint3_linear_1_1099" x1="623" y1="144" x2="66" y2="76" gradientUnits="userSpaceOnUse">
<stop stop-color="#DA54D8"/>
<stop offset="1" stop-color="#0092F4"/>
</linearGradient>
<linearGradient id="paint4_linear_1_1099" x1="34.5195" y1="179.837" x2="52.0579" y2="85.6344" gradientUnits="userSpaceOnUse">
<stop stop-color="#DA54D8"/>
<stop offset="1" stop-color="#FF4800"/>
</linearGradient>
<linearGradient id="paint5_linear_1_1099" x1="486.102" y1="215" x2="74.093" y2="178.046" gradientUnits="userSpaceOnUse">
<stop stop-color="#DA54D8"/>
<stop offset="1" stop-color="#0092F4"/>
</linearGradient>
<linearGradient id="paint6_linear_1_1099" x1="48.6129" y1="250.837" x2="69.9972" y2="158.311" gradientUnits="userSpaceOnUse">
<stop stop-color="#DA54D8"/>
<stop offset="1" stop-color="#FF4800"/>
</linearGradient>
<linearGradient id="paint7_linear_1_1099" x1="454.51" y1="286" x2="76.3532" y2="254.908" gradientUnits="userSpaceOnUse">
<stop stop-color="#DA54D8"/>
<stop offset="1" stop-color="#0092F4"/>
</linearGradient>
<linearGradient id="paint8_linear_1_1099" x1="56.6663" y1="321.837" x2="81.0449" y2="230.905" gradientUnits="userSpaceOnUse">
<stop stop-color="#DA54D8"/>
<stop offset="1" stop-color="#FF4800"/>
</linearGradient>
<linearGradient id="paint9_linear_1_1099" x1="412.388" y1="357" x2="79.559" y2="332.952" gradientUnits="userSpaceOnUse">
<stop stop-color="#DA54D8"/>
<stop offset="1" stop-color="#0092F4"/>
</linearGradient>
<linearGradient id="paint10_linear_1_1099" x1="66.733" y1="392.837" x2="96.0986" y2="305.21" gradientUnits="userSpaceOnUse">
<stop stop-color="#DA54D8"/>
<stop offset="1" stop-color="#FF4800"/>
</linearGradient>
<linearGradient id="paint11_linear_1_1099" x1="328.143" y1="428" x2="86.5321" y2="415.359" gradientUnits="userSpaceOnUse">
<stop stop-color="#DA54D8"/>
<stop offset="1" stop-color="#0092F4"/>
</linearGradient>
<linearGradient id="paint12_linear_1_1099" x1="80.8265" y1="463.837" x2="120.526" y2="386.837" gradientUnits="userSpaceOnUse">
<stop stop-color="#DA54D8"/>
<stop offset="1" stop-color="#FF4800"/>
</linearGradient>
<linearGradient id="paint13_linear_1_1099" x1="243.898" y1="499" x2="94.0772" y2="494.147" gradientUnits="userSpaceOnUse">
<stop stop-color="#DA54D8"/>
<stop offset="1" stop-color="#0092F4"/>
</linearGradient>
<clipPath id="clip0_1_1099">
<rect width="660" height="581" fill="white"/>
</clipPath>
</defs>
</svg>
