<?xml version="1.0" encoding="UTF-8"?><svg id="a" xmlns="http://www.w3.org/2000/svg" xmlns:xlink="http://www.w3.org/1999/xlink" viewBox="0 0 50 50"><defs><style>.c{stroke:url(#b);}.c,.d,.e{fill:none;stroke-linejoin:round;stroke-width:1.5px;}.c,.e{stroke-linecap:round;}.d,.e{stroke:#252526;}</style><linearGradient id="b" x1="6.793" y1="8.1261" x2="22.0304" y2="34.518" gradientTransform="matrix(1, 0, 0, 1, 0, 0)" gradientUnits="userSpaceOnUse"><stop offset="0" stop-color="#ff4800"/><stop offset=".5" stop-color="#da54d8"/><stop offset="1" stop-color="#0092f4"/></linearGradient></defs><path class="c" d="M3.5671,43.27c0-9.989,5.9332-19.2429,18.0866-19.2429,4.5575,0,8.2403,1.3013,11.0636,3.4548M21.6537,1.7458c-4.7544,0-8.6087,3.8542-8.6087,8.6087s3.8543,8.6087,8.6087,8.6087,8.6087-3.8542,8.6087-8.6087S26.4082,1.7458,21.6537,1.7458Z"/><path class="d" d="M38.1938,29.9706l-6.3105,1.9762c-.6194,.194-1.0411,.7679-1.0411,1.417v4.3917c0,6.3203,5.2881,9.4449,7.1535,10.3504,.4073,.1977,.8766,.1977,1.2838,0,1.8653-.9056,7.1535-4.0302,7.1535-10.3504v-4.3917c0-.6491-.4216-1.223-1.0411-1.417l-6.3105-1.9762c-.2889-.0905-.5986-.0905-.8875,0Z"/><polyline class="e" points="36.0391 39.3637 38.0057 40.9679 41.9784 36.5134"/></svg>