<?xml version="1.0" encoding="UTF-8"?><svg id="shape" xmlns="http://www.w3.org/2000/svg" xmlns:xlink="http://www.w3.org/1999/xlink" viewBox="0 0 50 50"><defs><style>.cls-1{fill:url(#linear-gradient);}.cls-2{fill:#fff;}</style><linearGradient id="linear-gradient" x1="9.6663" y1="-1738.4812" x2="26.2688" y2="-1767.2376" gradientTransform="translate(0 -1734.4179) scale(1 -1)" gradientUnits="userSpaceOnUse"><stop offset="0" stop-color="#dfd902"/><stop offset=".5005" stop-color="#ff4800"/><stop offset=".9979" stop-color="#da54d8"/></linearGradient></defs><path class="cls-2" d="m45.9561,42.9384h-16.5439c-.0596,0-.1172-.0068-.1729-.0195-.3271-.0293-.6562-.1094-.9785-.2412-1.0967-.4473-1.833-1.5869-1.833-2.8369v-17.376c.001-1.3213,1.0762-2.3955,2.3955-2.3955h14.4824c1.3213,0,2.3955,1.0742,2.3955,2.3955,0,.0127,0,.0254-.001.0381v15.8281h2.5498c.4141,0,.75.3359.75.75,0,1.5732-1.1855,3.8574-3.0439,3.8574h0Zm-13.792-1.5h13.792c.583,0,1.1719-.7939,1.4209-1.6074l-14.7686.0098c0,.5723-.1582,1.123-.4443,1.5977h0Zm-3.3408-19.8692c-.4932,0-.8945.4023-.8955.8965v17.3086c0,.7129.3613,1.2949.8994,1.5146.752.3066,1.3096.0527,1.5771-.1279.4404-.2969.7041-.79.7041-1.3203v-.7598c0-.4141.3359-.75.75-.75h12.3418v-15.8643l.001-.0293c-.0146-.4814-.4111-.8682-.8955-.8682h-14.4824Z"/><path class="cls-1" d="m17.42,37.8125h-9.4014c-.4141,0-.75-.3359-.75-.75s.3359-.75.75-.75h4.1777c1.5303,0,2.5576-1.1221,2.5576-2.792,0-.4141.3359-.75.75-.75s.75.3359.75.75c0,1.1045-.3184,2.0625-.876,2.792h2.042c.4141,0,.75.3359.75.75s-.3359.75-.75.75h.0001Zm6.5488-6.2686H5.7422c-2.6152,0-4.7422-2.127-4.7422-4.7412v-14.999c0-2.6152,2.127-4.7422,4.7422-4.7422h25.4453c2.6152,0,4.7422,2.127,4.7422,4.7422v5.7744c0,.4141-.3359.75-.75.75s-.75-.3359-.75-.75v-5.7744c0-1.7881-1.4541-3.2422-3.2422-3.2422H5.7422c-1.7881,0-3.2422,1.4541-3.2422,3.2422v14.999c0,1.7871,1.4541,3.2412,3.2422,3.2412h18.2265c.4141,0,.75.3359.75.75s-.3359.75-.75.75Zm-8.2822-3.8438c-4.6689,0-8.4678-3.7979-8.4678-8.4668s3.7988-8.4678,8.4678-8.4678,8.4678,3.7988,8.4678,8.4678-3.7988,8.4668-8.4678,8.4668Zm-4.0078-2.7705c1.1338.7998,2.5176,1.2705,4.0078,1.2705,3.8418,0,6.9678-3.125,6.9678-6.9668s-3.126-6.9678-6.9678-6.9678-6.9678,3.126-6.9678,6.9678c0,1.7988.6846,3.4404,1.8086,4.6777.9922-1.6445,2.8896-2.6914,5.0215-2.6914,1.3018,0,2.5303.3867,3.5508,1.1191.3359.2412.4131.71.1719,1.0469-.2412.3359-.709.4121-1.0469.1719-.7637-.5479-1.6895-.8379-2.6758-.8379-1.6758,0-3.1963.8877-3.8701,2.21Zm4.0078-4.4326c-1.832,0-3.3223-1.4902-3.3223-3.3223s1.4902-3.3223,3.3223-3.3223,3.3223,1.4902,3.3223,3.3223-1.4902,3.3223-3.3223,3.3223h0Zm0-5.1445c-1.0049,0-1.8223.8174-1.8223,1.8223s.8174,1.8223,1.8223,1.8223,1.8223-.8174,1.8223-1.8223-.8174-1.8223-1.8223-1.8223h0Z"/></svg>