<?xml version="1.0" encoding="UTF-8"?><svg id="a" xmlns="http://www.w3.org/2000/svg" xmlns:xlink="http://www.w3.org/1999/xlink" viewBox="0 0 50 50"><defs><style>.e{stroke:url(#d);}.e,.f{fill:none;stroke-linecap:round;stroke-linejoin:round;stroke-width:1.5px;}.f{stroke:#252526;}</style><linearGradient id="d" x1="-582.0879" y1="-606.1108" x2="-596.4119" y2="-630.9206" gradientTransform="translate(-570.2566 -608.1578) rotate(-180)" gradientUnits="userSpaceOnUse"><stop offset="0" stop-color="#ff4800"/><stop offset=".5" stop-color="#da54d8"/><stop offset="1" stop-color="#0092f4"/></linearGradient></defs><g><path id="b" class="f" d="M40.3122,41.0228v-2.2886c0-1.303,2.2699-1.956,2.2699-4.5772v-14.1131c0-1.0535-.8467-1.9072-1.8916-1.9072s-1.8916,.8537-1.8916,1.9072v-3.0515c0-1.0535-.8467-1.9072-1.8916-1.9072s-1.8916,.8537-1.8916,1.9072v8.773"/><path id="c" class="f" d="M35.0157,25.7654V14.7038c0-1.0535-.8467-1.9072-1.8916-1.9072s-1.8916,.8537-1.8916,1.9072v1.5257c0-1.0535-.8467-1.9072-1.8916-1.9072s-1.8916,.8537-1.8916,1.9072v9.1789c0,2.297-.3844,3.172-1.2538,3.172-.3405,0-1.1335-.4829-1.9869-2.4328-1.3756-3.1445-3.9557-2.1276-4.6019-1.4746-.6477,.653-.4109,1.5318,1.2258,3.8731,1.1153,1.5944,2.2518,5.9397,4.0291,7.3602,1.7766,1.4212,2.5877,2.1353,2.5877,3.0347v2.0819"/></g><rect class="f" x="25.6115" y="43.7243" width="16.5024" height="6.4176" rx="1.7281" ry="1.7281"/><path class="e" d="M15.0299,26.3712H3.5872c-.8758,0-1.5858-.71-1.5858-1.5858V5.4102c0-.8758,.71-1.5858,1.5858-1.5858H39.8725c.8758,0,1.5858,.71,1.5858,1.5858v7.6513m-22.6829,6.9139c-1.4982-1.0121-2.4832-2.7262-2.4832-4.6703,0-3.1106,2.5216-5.6322,5.6322-5.6322,1.1665,0,2.2501,.3546,3.149,.9619"/></svg>