<?xml version="1.0" encoding="utf-8"?>
<svg width="50" height="50" viewBox="0 0 50 50" fill="none" xmlns="http://www.w3.org/2000/svg">
<path d="M27.07 33.92H3.42C2.06 33.92 1 32.85 1 31.5V10.42C1 9.07 2.07 8 3.42 8H42.8C44.16 8 45.22 9.07 45.22 10.42V21.5C45.22 21.91 44.88 22.24 44.48 22.24C44.08 22.24 43.74 21.9 43.74 21.5V10.42C43.74 9.95 43.38 9.48 42.8 9.48H3.42C2.95 9.48 2.48 9.84 2.48 10.42V31.5C2.48 31.97 2.84 32.44 3.42 32.44H27.07C27.48 32.44 27.81 32.78 27.81 33.18C27.81 33.58 27.47 33.92 27.07 33.92ZM22.91 27.88C19.12 27.88 16.03 24.79 16.03 21C16.03 17.21 19.12 14.12 22.91 14.12C26.7 14.12 29.79 17.14 29.79 21C29.79 24.86 26.7 27.88 22.91 27.88ZM22.91 15.61C19.94 15.61 17.52 18.02 17.52 21C17.52 23.98 19.93 26.39 22.91 26.39C25.89 26.39 28.3 23.98 28.3 21C28.3 18.02 25.94 15.61 22.91 15.61Z" fill="url(#paint0_linear_1439_202)"/>
<path d="M47.88 29.19C47.88 29.19 47.9 29.14 47.9 29.12V25.46C47.9 25.05 47.56 24.72 47.16 24.72C46.76 24.72 46.42 25.06 46.42 25.46V26.83C44.67 24.93 42.19 23.83 39.44 23.83C34.14 23.83 29.99 27.98 29.99 33.28C29.99 33.69 30.33 34.02 30.73 34.02C31.13 34.02 31.47 33.68 31.47 33.28C31.47 28.82 34.97 25.31 39.44 25.31C41.74 25.31 43.8 26.2 45.28 27.76L43.82 27.31C43.43 27.19 43.02 27.41 42.89 27.8C42.77 28.2 42.99 28.61 43.38 28.73L46.94 29.82C47.01 29.84 47.08 29.85 47.15 29.85H47.19C47.19 29.85 47.25 29.85 47.28 29.85C47.34 29.85 47.4 29.82 47.46 29.8C47.48 29.8 47.49 29.8 47.51 29.78C47.51 29.78 47.53 29.76 47.55 29.75C47.57 29.75 47.59 29.73 47.61 29.72C47.63 29.7 47.64 29.68 47.66 29.66C47.71 29.61 47.76 29.56 47.79 29.5C47.81 29.47 47.83 29.44 47.84 29.4C47.87 29.33 47.88 29.26 47.89 29.19H47.88Z" fill="#252526"/>
<path d="M48.25 32.54C47.84 32.54 47.51 32.88 47.51 33.28C47.51 37.74 44.01 41.25 39.54 41.25C37.23 41.25 35.17 40.35 33.68 38.77L35.26 39.24C35.66 39.36 36.06 39.13 36.18 38.75C36.3 38.35 36.07 37.95 35.69 37.83L32.04 36.74C31.94 36.71 31.84 36.71 31.73 36.72C31.69 36.72 31.66 36.74 31.63 36.75C31.58 36.75 31.53 36.77 31.48 36.79C31.46 36.79 31.45 36.82 31.43 36.83C31.43 36.83 31.4 36.83 31.38 36.85C31.36 36.87 31.35 36.89 31.33 36.91C31.28 36.96 31.23 37.01 31.2 37.07C31.18 37.1 31.16 37.14 31.15 37.17C31.12 37.24 31.11 37.31 31.1 37.38C31.1 37.41 31.08 37.43 31.08 37.45V41.11C31.08 41.52 31.42 41.85 31.82 41.85C32.22 41.85 32.56 41.51 32.56 41.11V39.75C34.31 41.65 36.79 42.75 39.54 42.75C44.84 42.75 48.99 38.6 48.99 33.3C48.99 32.89 48.65 32.56 48.25 32.56V32.54Z" fill="#252526"/>
<defs>
<linearGradient id="paint0_linear_1439_202" x1="10.18" y1="2.82" x2="35.56" y2="38.42" gradientUnits="userSpaceOnUse">
<stop stop-color="#FF4800"/>
<stop offset="0.5" stop-color="#DA54D8"/>
<stop offset="1" stop-color="#0092F4"/>
</linearGradient>
</defs>
</svg>
