<?xml version="1.0" encoding="UTF-8"?><svg id="shape" xmlns="http://www.w3.org/2000/svg" xmlns:xlink="http://www.w3.org/1999/xlink" viewBox="0 0 50 50"><defs><style>.cls-1{fill:#fff;}.cls-2{fill:url(#Degradado_sin_nombre_50);}</style><linearGradient id="Degradado_sin_nombre_50" x1="14.1013" y1="8.591" x2="33.0632" y2="41.434" gradientUnits="userSpaceOnUse"><stop offset="0" stop-color="#da54d8"/><stop offset=".5049" stop-color="#0092f4"/><stop offset=".9972" stop-color="#20dc86"/></linearGradient></defs><g><path class="cls-1" d="m35.8413,41.2872h-.0107c-.6904-.0029-1.3389-.2754-1.8262-.7666l-4.376-4.3887c-.1406-.1387-.2812-.2793-.4209-.4199-2.3926,1.1826-5.1523,1.2666-7.4922.2051-3.0557-1.3838-5.0977-4.5645-5.082-7.9131.0137-2.6963,1.2617-5.1865,3.4248-6.8311,1.5205-1.1553,3.3232-1.7656,5.2168-1.7656h.0381c1.4805.0068,2.9443.4014,4.2344,1.1396.5312.3047,1.042.6768,1.5176,1.1074,2.5049,2.2734,3.457,5.8125,2.4268,9.0166-.1553.4854-.3555.9609-.5957,1.4121.1592.166.3164.3193.4736.4736l2.4404,2.4443c.8047.8066,1.5879,1.5918,1.8711,1.8779h0c1.0029,1.0127.9961,2.6543-.0166,3.6582-.4893.4844-1.1367.75-1.8232.75Zm-6.4854-7.2539c.2031,0,.4043.083.5508.2402.25.2705.5146.5322.7773.793l4.3838,4.3965c.207.208.4795.3232.7686.3242h.0049c.2891,0,.5615-.1123.7676-.3154.4248-.4219.4277-1.1113.0059-1.5381h0c-.2812-.2842-1.0635-1.0684-1.8662-1.873l-2.4277-2.4326c-.2422-.2363-.4834-.4736-.71-.7227-.5566-.6172-.2656-1.125-.126-1.3682l.0596-.1064c.2109-.3887.3848-.7979.5186-1.2178.8516-2.6465.0635-5.5693-2.0059-7.4473-.3945-.3574-.8174-.666-1.2539-.916-1.0664-.6104-2.2764-.9365-3.4971-.9424h-.0312c-1.5625,0-3.0518.5039-4.3086,1.459-1.7891,1.3604-2.8223,3.418-2.833,5.6455-.0127,2.7666,1.6748,5.3945,4.2012,6.5391,2.0723.9404,4.5586.7832,6.6475-.418.1172-.0674.2461-.0996.374-.0996Z"/><path class="cls-1" d="m29.3598,35.5372c-.2549,0-.5029-.1289-.6436-.3633-.2139-.3545-.0996-.8154.2559-1.0293.4785-.2881.9229-.6338,1.3203-1.0283.4268-.4229.7969-.8965,1.0996-1.4072.2119-.3555.6689-.4727,1.0283-.2627.3564.2119.4736.6719.2627,1.0283-.3682.6201-.8174,1.1953-1.335,1.707-.4824.4785-1.0215.8984-1.6025,1.248-.1211.0732-.2539.1074-.3857.1074Z"/></g><path class="cls-2" d="m25.0082,41.0929c-8.9971,0-17.6543-3.8057-23.751-10.4404-1.3535-1.4727-1.3535-3.6934.001-5.166,6.0957-6.6357,14.752-10.4414,23.75-10.4414s17.6543,3.8066,23.752,10.4424c1.3057,1.4219,1.3164,3.7266.0225,5.1387-2.2734,2.4795-4.9023,4.5801-7.8154,6.2441-.3604.2051-.8184.0791-1.0234-.2793-.2051-.3594-.0801-.8184.2793-1.0234,2.7783-1.5869,5.2861-3.5898,7.4541-5.9551.7676-.8379.7578-2.2617-.0215-3.1094-5.8145-6.3281-14.0684-9.958-22.6475-9.958s-16.833,3.6289-22.6455,9.957c-.8223.8936-.8223,2.2412-.001,3.1348,5.8135,6.3271,14.0684,9.9561,22.6465,9.9561,1.4082,0,2.8203-.0957,4.1982-.2842.4082-.0566.7881.2305.8447.6416.0557.4102-.2314.7881-.6416.8447-1.4453.1973-2.9258.2979-4.4014.2979Zm-15.75-24.625c-.2871,0-.5605-.166-.6855-.4453l-1.2275-2.7559c-.168-.3779.002-.8213.3809-.9902.375-.167.8203.002.9902.3809l1.2275,2.7559c.168.3779-.002.8213-.3809.9902-.0986.0439-.2021.0645-.3047.0645Zm30.7783-.3193c-.1025,0-.2061-.0205-.3047-.0645-.3789-.1689-.5488-.6123-.3809-.9902l1.2275-2.7568c.1689-.3789.6172-.5488.9902-.3809.3789.1689.5488.6123.3809.9902l-1.2275,2.7568c-.125.2793-.3984.4453-.6855.4453Zm-22.9316-2.0283c-.3467,0-.6582-.2412-.7324-.5938l-.627-2.9512c-.0859-.4053.1729-.8037.5771-.8896.4014-.0928.8037.1719.8896.5771l.627,2.9512c.0859.4053-.1729.8037-.5771.8896-.0527.0117-.1055.0166-.1572.0166Zm15.085-.1064c-.0518,0-.1045-.0049-.1572-.0166-.4043-.0859-.6631-.4844-.5771-.8896l.627-2.9512c.085-.4053.4814-.6689.8896-.5771.4043.0859.6631.4844.5771.8896l-.627,2.9512c-.0742.3525-.3857.5938-.7324.5938Zm-7.542-.7832c-.4141,0-.75-.3359-.75-.75v-3.0176c0-.4141.3359-.75.75-.75s.75.3359.75.75v3.0176c0,.4141-.3359.75-.75.75Z"/></svg>