<?xml version="1.0" encoding="UTF-8"?><svg id="a" xmlns="http://www.w3.org/2000/svg" xmlns:xlink="http://www.w3.org/1999/xlink" viewBox="0 0 50 50"><defs><style>.d{fill:url(#b);}.e{stroke:url(#c);}.e,.f{fill:none;stroke-linecap:round;stroke-linejoin:round;stroke-width:1.5px;}.f{stroke:#fff;}</style><linearGradient id="b" x1="7.8514" y1="21.434" x2="12.7417" y2="29.9043" gradientTransform="matrix(1, 0, 0, 1, 0, 0)" gradientUnits="userSpaceOnUse"><stop offset=".0005" stop-color="#dfd902"/><stop offset="1" stop-color="#ff4800"/></linearGradient><linearGradient id="c" x1="16.9571" y1="11.1929" x2="34.5319" y2="41.6333" gradientTransform="matrix(1, 0, 0, 1, 0, 0)" gradientUnits="userSpaceOnUse"><stop offset=".0005" stop-color="#dfd902"/><stop offset=".5" stop-color="#ff4800"/><stop offset=".9931" stop-color="#da54d8"/></linearGradient></defs><path class="d" d="M12.1908,24.4914c.3383,0,.6134-.2751,.6134-.6134v-.398c0-.9624-.8544-1.7438-1.9244-1.7956v-.9887c0-.3214-.2616-.583-.583-.583-.3226,0-.5842,.2616-.5842,.583v.9888c-1.07,.0518-1.9243,.8332-1.9243,1.7955v.6529c0,.8018,.5176,1.5077,1.2878,1.7569l2.0636,.6709c.2458,.0801,.4387,.3631,.4387,.645v.6518c0,.2808-.3248,.5808-.8086,.5808h-.9472c-.4838,0-.8085-.3-.8085-.5808v-.398c0-.3372-.2751-.6123-.6123-.6123-.3383,0-.6134,.2751-.6134,.6123v.398c0,.9623,.8543,1.7437,1.9243,1.7955v.9897c0,.3214,.2616,.583,.5842,.583,.3214,0,.583-.2616,.583-.583v-.9897c1.07-.0518,1.9244-.8332,1.9244-1.7956v-.6518c0-.8085-.5424-1.5697-1.2878-1.811h-.0012l-2.0625-.6709c-.2582-.0823-.4386-.3248-.4386-.5909v-.6529c0-.2797,.3248-.5796,.8085-.5796h.9472c.4838,0,.8086,.2999,.8086,.5796v.398c0,.3383,.2751,.6134,.6123,.6134Z"/><path class="e" d="M10.2963,17.2141c-4.6696,0-8.4551,3.7855-8.4551,8.4551s3.7855,8.4551,8.4551,8.4551,8.4551-3.7855,8.4551-8.4551-3.7855-8.4551-8.4551-8.4551Zm25.342-4.0658c-6.9149,0-12.5205,5.6056-12.5205,12.5205s5.6056,12.5205,12.5205,12.5205,12.5205-5.6056,12.5205-12.5205-5.6056-12.5205-12.5205-12.5205Zm7.187,15.8715c0,1.2115-.9821,2.1937-2.1937,2.1937s-2.1937-.9821-2.1937-2.1937,.9821-2.1937,2.1937-2.1937,2.1937,.9821,2.1937,2.1937Zm-8.3658-8.3658c0,1.2115-.9821,2.1937-2.1937,2.1937s-2.1937-.9821-2.1937-2.1937,.9821-2.1937,2.1937-2.1937,2.1937,.9821,2.1937,2.1937Zm6.7792-.406l-10.9655,10.9655"/><g><path class="f" d="M10.2963,12.1407c2.4764-2.6221,5.9854-4.2584,9.8767-4.2584,3.3903,0,6.4905,1.2421,8.8703,3.2961"/><polyline class="f" points="24.211 12.1335 29.1065 11.2335 28.341 6.3623"/></g><g><path class="f" d="M31.6784,41.7698c-3.1119,1.8231-6.9389,2.4106-10.6743,1.3202-3.2545-.95-5.8824-3.011-7.5913-5.6496"/><polyline class="f" points="18.3192 37.8776 13.3676 37.3698 12.7374 42.2604"/></g></svg>