<?xml version="1.0" encoding="UTF-8"?><svg id="a" xmlns="http://www.w3.org/2000/svg" xmlns:xlink="http://www.w3.org/1999/xlink" viewBox="0 0 50 50"><defs><style>.e{stroke:url(#b);stroke-miterlimit:10;}.e,.f{fill:none;stroke-width:1.5px;}.f{stroke:#252526;stroke-linecap:round;stroke-linejoin:round;}</style><linearGradient id="b" x1="17.896" y1="11.3167" x2="33.7428" y2="38.7642" gradientTransform="matrix(1, 0, 0, 1, 0, 0)" gradientUnits="userSpaceOnUse"><stop offset="0" stop-color="#ff4800"/><stop offset=".5" stop-color="#da54d8"/><stop offset="1" stop-color="#0092f4"/></linearGradient></defs><path id="c" class="e" d="M17.7092,33.0613v3.8357c0,1.8421,1.632,3.3354,3.6452,3.3354h7.2904c2.0132,0,3.6452-1.4934,3.6452-3.3354v-3.8357c-.0038-.9384,.4322-1.8333,1.1974-2.4582,5.2608-4.2891,5.7256-11.6685,1.0381-16.4822-4.6874-4.8138-12.7521-5.2391-18.013-.9499-5.2608,4.2891-5.7256,11.6685-1.0381,16.4822,.3332,.3421,.688,.666,1.0628,.97,.7547,.6213,1.1815,1.5092,1.1719,2.4382Z"/><line id="d" class="f" x1="25" y1="24.0215" x2="25" y2="36.1391"/><line class="f" x1="18.2499" y1="44.1702" x2="31.7501" y2="44.1702"/><line class="f" x1="20.4084" y1="48.2542" x2="29.5916" y2="48.2542"/><path class="f" d="M30.7216,19.8189l-3.1284,3.1284c-1.4322,1.4322-3.7542,1.4322-5.1864,0l-3.1284-3.1284"/><g><line class="f" x1="40.1712" y1="29.2533" x2="44.7885" y2="31.1189"/><line class="f" x1="41.28" y1="21.4057" x2="46.2326" y2="20.8852"/><line class="f" x1="38.5747" y1="13.9562" x2="42.7032" y2="11.1714"/><line class="f" x1="32.6887" y1="8.6486" x2="35.0267" y2="4.2516"/><line class="f" x1="25" y1="6.7257" x2="25" y2="1.7458"/></g><g><line class="f" x1="9.8288" y1="29.2533" x2="5.2115" y2="31.1189"/><line class="f" x1="8.72" y1="21.4057" x2="3.7674" y2="20.8852"/><line class="f" x1="11.4253" y1="13.9562" x2="7.2968" y2="11.1714"/><line class="f" x1="17.3113" y1="8.6486" x2="14.9733" y2="4.2516"/></g></svg>