<?xml version="1.0" encoding="UTF-8"?><svg id="shape" xmlns="http://www.w3.org/2000/svg" xmlns:xlink="http://www.w3.org/1999/xlink" viewBox="0 0 50 50"><defs><style>.cls-1{fill:#fff;}.cls-2{fill:url(#Degradado_sin_nombre_50);}</style><linearGradient id="Degradado_sin_nombre_50" x1="13.5626" y1="5.1904" x2="36.437" y2="44.8099" gradientUnits="userSpaceOnUse"><stop offset="0" stop-color="#da54d8"/><stop offset=".5049" stop-color="#0092f4"/><stop offset=".9972" stop-color="#20dc86"/></linearGradient></defs><path class="cls-1" d="m17.2742,40.4142c-.168,0-.335-.0557-.4727-.168-.2773-.2256-.3574-.6152-.1904-.9316l5.4141-10.2773-5.415-2.8535c-.2305-.1211-.3809-.3525-.3984-.6113-.0176-.2598.0996-.5098.3105-.6611l17.4766-12.5361c.3027-.2178.7217-.1807.9785.0908.2588.2695.2793.6875.0488.9814l-8.9219,11.3838,5.2832,2.7842c.2217.1162.3701.3369.3965.5859.0254.249-.0752.4951-.2676.6553l-13.7637,11.3857c-.1387.1143-.3086.1719-.4785.1719Zm1.1084-14.9912l5.0049,2.6377c.3662.1924.5068.6465.3135,1.0127l-4.0156,7.623,10.0078-8.2783-5.083-2.6787c-.1963-.1035-.3369-.2891-.3838-.5059-.0469-.2178.0059-.4443.1436-.6201l6.2383-7.96-12.2256,8.7695Z"/><path class="cls-2" d="m24.9998,47.879c-12.6152,0-22.8789-10.2637-22.8789-22.8789S12.3846,2.1212,24.9998,2.1212s22.8789,10.2637,22.8789,22.8789-10.2637,22.8789-22.8789,22.8789Zm0-44.2578C13.2117,3.6212,3.6209,13.2121,3.6209,25.0001s9.5908,21.3789,21.3789,21.3789,21.3789-9.5908,21.3789-21.3789S36.7879,3.6212,24.9998,3.6212Z"/></svg>