<?xml version="1.0" encoding="UTF-8"?><svg id="a" xmlns="http://www.w3.org/2000/svg" xmlns:xlink="http://www.w3.org/1999/xlink" viewBox="0 0 50 50"><defs><style>.e{stroke:url(#b);stroke-linecap:round;}.e,.f{fill:none;stroke-linejoin:round;stroke-width:1.5px;}.f{stroke:#fff;}</style><linearGradient id="b" x1="7.72" y1="5.0746" x2="33.1687" y2="49.153" gradientTransform="matrix(1, 0, 0, 1, 0, 0)" gradientUnits="userSpaceOnUse"><stop offset="0" stop-color="#da54d8"/><stop offset=".5" stop-color="#0092f4"/><stop offset="1" stop-color="#20dc86"/></linearGradient></defs><path class="e" d="M11.5102,46.134h25.3876m-8.8749-4.9278h0c0,2.7216,2.2063,4.9278,4.9278,4.9278m-17.4934,0c2.7216,0,4.9278-2.2063,4.9278-4.9278h0M26.0462,7.1205H7.1177c-2.9668,0-5.372,2.4051-5.372,5.372v20.4126c0,2.9668,2.4051,5.372,5.372,5.372H41.2902c2.9668,0,5.372-2.4051,5.372-5.372"/><g><path id="c" class="f" d="M32.6811,26.7677h13.741c1.0119,0,1.8321-.8203,1.8321-1.8321V11.9412c0-.4787-.1873-.9383-.5219-1.2806l-6.102-6.2431c-.3447-.3527-.8171-.5515-1.3102-.5515h-7.6391c-1.0119,0-1.8321,.8203-1.8321,1.8321V24.9355c0,1.0119,.8203,1.8321,1.8321,1.8321Z"/><path id="d" class="f" d="M41.0913,4.2029l-.061,5.1595c0,1.0119,.8203,1.8321,1.8321,1.8321h5.0032"/></g></svg>