<?xml version="1.0" encoding="UTF-8"?><svg id="shape" xmlns="http://www.w3.org/2000/svg" xmlns:xlink="http://www.w3.org/1999/xlink" viewBox="0 0 50 50"><defs><style>.cls-1{fill:#252526;}.cls-2{fill:url(#Orange-Purple-Blue);}</style><linearGradient id="Orange-Purple-Blue" x1="11.2943" y1="5.5838" x2="31.1798" y2="40.0266" gradientUnits="userSpaceOnUse"><stop offset="0" stop-color="#ff4800"/><stop offset=".5" stop-color="#da54d8"/><stop offset="1" stop-color="#0092f4"/></linearGradient></defs><path class="cls-2" d="m21.5992,44.0238C10.2388,44.0238.9956,34.7806.9956,23.4203S10.2388,2.8168,21.5992,2.8168c10.6787,0,19.7002,8.3291,20.5391,18.9629l.0254.3564c.0264.4131-.2861.7754-.6992.8027-.4072.0254-.7705-.2812-.7969-.6943l-.0244-.3447c-.7783-9.8604-9.1436-17.583-19.0439-17.583C11.065,4.3168,2.4956,12.8861,2.4956,23.4203c0,5.1836,2.0752,9.8916,5.4395,13.3369,1.5205-6.2578,7.1494-10.7236,13.6641-10.7236,1.8418,0,3.6338.3516,5.3271,1.0439.3828.1572.5664.5947.4102.9785-.1582.3828-.5977.5654-.9785.4102-1.5117-.6191-3.1123-.9326-4.7588-.9326-6.0479,0-11.2422,4.3076-12.3496,10.2432-.0107.0576-.0283.1133-.0508.1641,3.3398,2.8564,7.6719,4.583,12.4004,4.583.9014,0,1.8066-.0635,2.6904-.1875.4053-.0684.7891.2275.8467.6377.0586.4102-.2275.7891-.6377.8467-.9521.1348-1.9277.2031-2.8994.2031Zm0-21.0801c-3.7969,0-6.8867-3.0898-6.8867-6.8867s3.0898-6.8867,6.8867-6.8867,6.8867,3.0898,6.8867,6.8867-3.0898,6.8867-6.8867,6.8867Zm0-12.2734c-2.9707,0-5.3867,2.416-5.3867,5.3867s2.416,5.3867,5.3867,5.3867,5.3867-2.416,5.3867-5.3867-2.416-5.3867-5.3867-5.3867Z"/><path class="cls-1" d="m31.7066,47.182c-.4678,0-.9326-.1465-1.3301-.4355-.7041-.5107-1.0508-1.3613-.9033-2.2188l.8262-4.8174c.043-.249-.04-.5039-.2207-.6797l-3.5-3.4111c-.623-.6074-.8428-1.498-.5742-2.3252s.9707-1.4189,1.8311-1.5449l4.8369-.7021c.25-.0361.4668-.1934.5781-.4199l2.1631-4.3828c.3848-.7793,1.1641-1.2646,2.0332-1.2646h.001c.8701,0,1.6494.4844,2.0352,1.2646l2.1631,4.3818c.1113.2275.3281.3848.5781.4209l4.8359.7021c.8613.126,1.5625.7168,1.8311,1.5439s.0498,1.7188-.5732,2.3262l-3.5,3.4111c-.1807.1768-.2637.4307-.2207.6787l.8262,4.8184c.1475.8574-.1992,1.707-.9023,2.2188-.7041.5107-1.6201.5771-2.3896.1729l-4.3252-2.2744c-.2256-.1182-.4922-.1162-.7158,0l-4.3262,2.2744c-.334.1758-.6963.2627-1.0576.2627Zm5.7422-4.126c.3623,0,.7246.0869,1.0547.2607l4.3252,2.2744c.2686.1406.5703.1172.8105-.0586.2422-.1758.3564-.4561.3057-.751l-.8262-4.8174c-.127-.7344.1172-1.4854.6523-2.0078l3.5-3.4111c.2139-.209.2861-.5029.1934-.7881-.0918-.2842-.3242-.4805-.6201-.5234l-4.8359-.7021c-.7402-.1084-1.3779-.5723-1.708-1.2422l-2.1631-4.3809c-.1318-.2686-.3896-.4287-.6895-.4287h0c-.2988,0-.5566.1602-.6885.4287l-2.1631,4.3818c-.3301.6689-.9678,1.1328-1.708,1.2412l-4.8369.7021c-.2959.043-.5273.2393-.6201.5244-.0928.2842-.0195.5781.1943.7871l3.5,3.4111c.5342.5215.7783,1.2715.6523,2.0068l-.8262,4.8184c-.0508.2949.0635.5752.3057.751.2422.1768.5439.1992.8086.0586l4.3271-2.2744h0c.3301-.1738.6924-.2607,1.0557-.2607Z"/></svg>