<?xml version="1.0" encoding="utf-8"?>
<svg width="42" height="36" viewBox="0 0 42 36" fill="none" xmlns="http://www.w3.org/2000/svg">
<path d="M36.225 0.265625H6.40625C3.39109 0.265625 0.9375 2.71922 0.9375 5.73437V23.5459C0.9375 26.5611 3.39109 29.0147 6.40625 29.0147H36.225C39.2402 29.0147 41.6937 26.5611 41.6937 23.5459V5.73437C41.6937 2.71922 39.2402 0.265625 36.225 0.265625ZM40.1312 23.5459C40.1312 25.7005 38.3787 27.4522 36.225 27.4522H6.40625C4.2525 27.4522 2.5 25.7005 2.5 23.5459V5.73437C2.5 3.57984 4.2525 1.82812 6.40625 1.82812H36.225C38.3787 1.82812 40.1312 3.57984 40.1312 5.73437V23.5459ZM33.1733 35.0908C33.1733 35.5227 32.8239 35.872 32.392 35.872H10.2392C9.80734 35.872 9.45797 35.5227 9.45797 35.0908C9.45797 34.6589 9.80734 34.3095 10.2392 34.3095H13.6831C15.6233 34.3095 17.2019 32.7303 17.2019 30.7894H18.7644C18.7644 32.1572 18.2155 33.395 17.3341 34.3095H25.2972C24.4158 33.395 23.8669 32.1572 23.8669 30.7894H25.4294C25.4294 32.7303 27.008 34.3095 28.9481 34.3095H32.392C32.8239 34.3095 33.1733 34.6589 33.1733 35.0908ZM21.3156 5.01719C16.0094 5.01719 11.6927 9.33391 11.6927 14.6409C11.6927 19.948 16.0094 24.2631 21.3156 24.2631C26.6219 24.2631 30.9386 19.9464 30.9386 14.6409C30.9386 9.33547 26.6219 5.01719 21.3156 5.01719ZM21.3156 21.9194C17.3019 21.9194 14.0364 18.6541 14.0364 14.6409C14.0364 10.6278 17.3017 7.36094 21.3156 7.36094C25.3295 7.36094 28.5948 10.6262 28.5948 14.6409C28.5948 18.6556 25.3295 21.9194 21.3156 21.9194Z" fill="url(#paint0_linear_9055_23281)"/>
<defs>
<linearGradient id="paint0_linear_9055_23281" x1="11.1286" y1="2.65382" x2="27.6566" y2="35.4236" gradientUnits="userSpaceOnUse">
<stop stop-color="#FF4800"/>
<stop offset="0.5" stop-color="#DA54D8"/>
<stop offset="1" stop-color="#0092F4"/>
</linearGradient>
</defs>
</svg>
