<?xml version="1.0" encoding="UTF-8"?><svg id="a" xmlns="http://www.w3.org/2000/svg" xmlns:xlink="http://www.w3.org/1999/xlink" viewBox="0 0 50 50"><defs><style>.c{stroke:url(#b);}.c,.d{fill:none;stroke-linecap:round;stroke-linejoin:round;stroke-width:1.5px;}.d{stroke:#252526;}</style><linearGradient id="b" x1="17.4101" y1="6.9238" x2="33.2845" y2="34.4191" gradientTransform="matrix(1, 0, 0, 1, 0, 0)" gradientUnits="userSpaceOnUse"><stop offset="0" stop-color="#ff4800"/><stop offset=".5" stop-color="#da54d8"/><stop offset="1" stop-color="#0092f4"/></linearGradient></defs><path class="c" d="M28.674,10.1017h7.2773c.5287,0,.9572,.4286,.9572,.9572v11.6953c0,.5287-.4286,.9572-.9572,.9572H14.0487c-.5287,0-.9572-.4286-.9572-.9572V11.059c0-.5287,.4286-.9572,.9572-.9572h7.2408m3.6082,3.4024c-1.8792,0-3.4025,1.5234-3.4025,3.4025s1.5234,3.4025,3.4025,3.4025,3.4025-1.5234,3.4025-3.4025-1.5234-3.4025-3.4025-3.4025Zm-2.3185-7.6695l2.435-2.435,2.4409,2.4409m-2.4359,3.5709l-.0037-5.6707m-7.9108,23.5205l-2.606,4.5136m19.2597-4.5136l2.6059,4.5136"/><g><path class="d" d="M1.75,36.0636v9.7405c0,.4379,.3583,.7962,.7962,.7962H21.3684c.4398,0,.7962-.3565,.7962-.7962v-9.7405c0-.4426-.3621-.8047-.8047-.8047H2.5547c-.4444,0-.8047,.3603-.8047,.8047Z"/><line class="d" x1="5.1524" y1="39.7954" x2="18.7622" y2="39.7954"/><line class="d" x1="5.1524" y1="43.1978" x2="9.689" y2="43.1978"/><g><rect class="d" x="31.2378" y="35.2588" width="17.0122" height="11.3415" rx="1.2803" ry="1.2803"/><line class="d" x1="31.2378" y1="38.6613" x2="48.25" y2="38.6613"/><line class="d" x1="33.5061" y1="43.1978" x2="39.1768" y2="43.1978"/></g></g></svg>