<?xml version="1.0" encoding="UTF-8"?><svg id="shape" xmlns="http://www.w3.org/2000/svg" xmlns:xlink="http://www.w3.org/1999/xlink" viewBox="0 0 50 50"><defs><style>.cls-1{fill:#252526;}.cls-2{fill:url(#Orange-Purple-Blue);}</style><linearGradient id="Orange-Purple-Blue" x1="11.8057" y1="-1608.2158" x2="34.4497" y2="-1647.1948" gradientTransform="translate(0 -1603.2844) scale(1 -1)" gradientUnits="userSpaceOnUse"><stop offset="0" stop-color="#ff4800"/><stop offset=".5" stop-color="#da54d8"/><stop offset="1" stop-color="#0092f4"/></linearGradient></defs><path class="cls-2" d="m18.1669,41.8069s-.0791,0-.1286-.0099C8.1693,40.1302,1,31.6077,1,21.5374,1,10.217,10.1867,1,21.4697,1s20.4697,9.217,20.4697,20.5374c0,3.5817-.9295,7.1038-2.6897,10.1893-.2077.3572-.6626.4763-1.0087.2778-.356-.2083-.4746-.6548-.2768-1.0119,1.6316-2.8574,2.4919-6.1315,2.4919-9.4552,0-10.5068-8.5142-19.0492-18.9864-19.0492S2.4833,11.0306,2.4833,21.5374c0,9.3361,6.6452,17.2435,15.8022,18.7912.4055.0695.6725.4564.6033.8533-.0594.3671-.3758.6151-.7318.6151l.0099.0099Zm10.6007-12.1835c-.1879,0-.3758-.0695-.5241-.2183l-7.3968-7.3419c-.1384-.1389-.2175-.3274-.2175-.5258v-12.6002c0-.4068.3362-.7441.7416-.7441s.7417.3373.7417.7441v12.2926l7.1792,7.1237c.2868.2877.2967.7639,0,1.0516-.1483.1488-.3362.2183-.5241.2183Z"/><path class="cls-1" d="m47.3387,49h-19.2435c-.4055,0-.7417-.3373-.7417-.7441s.3362-.7441.7417-.7441h19.2435c.0989,0,.178-.0794.178-.1786v-11.6379c0-.0992-.0791-.1786-.178-.1786h-22.6057c-.4054,0-.7417-.3373-.7417-.7441s.3363-.7441.7417-.7441h22.6057c.9196,0,1.6613.7441,1.6613,1.6668v11.6379c0,.9227-.7417,1.6668-1.6613,1.6668Z"/><path class="cls-1" d="m35.937,45.6366c-2.2646,0-4.1039-1.8454-4.1039-4.1174s1.8393-4.1174,4.1039-4.1174,4.1038,1.8454,4.1038,4.1174-1.8393,4.1174-4.1038,4.1174Zm0-6.7466c-1.4438,0-2.6206,1.1807-2.6206,2.6292s1.1768,2.6292,2.6206,2.6292,2.6205-1.1806,2.6205-2.6292-1.1768-2.6292-2.6205-2.6292Z"/><path class="cls-1" d="m26.9778,40.0112h-5.607c-.4054,0-.7416-.3374-.7416-.7441s.3362-.7442.7416-.7442h5.607c.4054,0,.7416.3374.7416.7442s-.3362.7441-.7416.7441Z"/><path class="cls-1" d="m29.2126,44.5155h-5.597c-.4055,0-.7417-.3373-.7417-.7441s.3362-.7441.7417-.7441h5.597c.4054,0,.7417.3373.7417.7441s-.3363.7441-.7417.7441Z"/></svg>