<?xml version="1.0" encoding="UTF-8"?><svg id="shape" xmlns="http://www.w3.org/2000/svg" xmlns:xlink="http://www.w3.org/1999/xlink" viewBox="0 0 50 50"><defs><style>.cls-1{fill:#fff;}.cls-2{fill:none;stroke:url(#Degradado_sin_nombre_50);stroke-linecap:round;stroke-linejoin:round;stroke-width:1.5px;}</style><linearGradient id="Degradado_sin_nombre_50" x1="12.0257" y1="2.5278" x2="37.9759" y2="47.475" gradientUnits="userSpaceOnUse"><stop offset="0" stop-color="#da54d8"/><stop offset=".5049" stop-color="#0092f4"/><stop offset=".9972" stop-color="#20dc86"/></linearGradient></defs><path class="cls-2" d="m38.3827,19.3246c5.4654,12.8757,3.9043,25.8545-3.4868,28.989-7.3911,3.1344-17.8133-4.7625-23.2786-17.6382-.3421-.806-.6567-1.6124-.944-2.4167m24.8271-14.544c-2.0278-3.2609-4.6227-6.4213-7.078-8.4899m-4.5919-2.9459c-3.0529-1.4235-6.0834-1.7133-8.7264-.5924-5.6926,2.4141-7.8659,11.0483-6.0951,20.5971m5.2525-7.0811C4.8304,25.5325,1.9928,38.2931,7.9235,43.7042c3.1603,2.8834,8.2715,3.0544,13.6917,1.0627m4.6883-2.2368c3.2459-1.8961,6.4879-4.5047,9.4349-7.7325,9.4311-10.33,12.2687-23.0907,6.338-28.5017-4.871-4.4442-14.4675-2.4116-22.8502,4.131m26.3026,24.8042c1.7139-1.4292,2.8689-3.174,3.2934-5.179,1.599-7.5518-7.7705-15.9357-20.9271-18.7258-7.0767-1.5008-14.2712-1.0562-19.2298.8306m-4.2108,2.626c-1.7048,1.4266-2.8537,3.1666-3.2769,5.1651-1.599,7.5518,7.7705,15.9357,20.9271,18.7258,7.0766,1.5007,14.3627.957,19.3213-.9298"/><path class="cls-1" d="m24.9996,34.2667c-.1396,0-.2783-.0391-.4014-.1162-.3301-.21-8.0908-5.1924-8.0908-11.0547,0-2.7793,2.207-5.04,4.9189-5.04,1.3818,0,2.6582.5771,3.5762,1.582.9199-.9941,2.2139-1.582,3.5713-1.582,2.7119,0,4.9189,2.2607,4.9189,5.04,0,5.8623-7.7617,10.8457-8.0918,11.0547-.123.0771-.2617.1162-.4014.1162Zm-3.5732-14.7109c-1.8848,0-3.4189,1.5879-3.4189,3.54,0,4.3535,5.4492,8.4463,6.9922,9.5166,1.541-1.0713,6.9932-5.1699,6.9932-9.5166,0-1.9521-1.5342-3.54-3.4189-3.54-1.2061,0-2.2998.6416-2.9258,1.7168-.2695.4609-1.0273.4609-1.2969,0-.626-1.0752-1.7197-1.7168-2.9248-1.7168Z"/></svg>