<?xml version="1.0" encoding="UTF-8"?><svg id="shape" xmlns="http://www.w3.org/2000/svg" xmlns:xlink="http://www.w3.org/1999/xlink" viewBox="0 0 50 50"><defs><style>.cls-1{fill:#252526;}.cls-2{fill:url(#Orange-Purple-Blue);}</style><linearGradient id="Orange-Purple-Blue" x1="22.8679" y1="5.5024" x2="44.9854" y2="43.8111" gradientTransform="translate(-1.5895 -.6584)" gradientUnits="userSpaceOnUse"><stop offset="0" stop-color="#ff4800"/><stop offset=".5" stop-color="#da54d8"/><stop offset="1" stop-color="#0092f4"/></linearGradient></defs><path class="cls-1" d="m5.789,45.1849c-.1963,0-.3877-.0762-.5312-.2197-.1816-.1816-.2559-.4424-.2031-.6895.0068-.0557.0176-.1582.0312-.2998.6494-6.3223,1.7471-10.2969,3.2627-11.8125,1.2969-1.2969,3.0215-2.0117,4.8555-2.0117s3.5586.7148,4.8555,2.0117,2.0117,3.0215,2.0117,4.8545c0,1.834-.7148,3.5586-2.0117,4.8555-1.5156,1.5156-5.4902,2.6133-11.8125,3.2627-.1416.0146-.2441.0254-.2998.0322-.0527.0107-.1055.0166-.1582.0166Zm-.2373-1.4619l.002.0059-.002-.0059Zm7.6523-12.0713c-1.4336,0-2.7812.5586-3.7949,1.5723-.6953.6953-1.9658,2.9658-2.7734,10.3633,7.3975-.8086,9.668-2.0791,10.3633-2.7744,1.0137-1.0137,1.5723-2.3613,1.5723-3.7949,0-1.4326-.5586-2.7803-1.5723-3.7939s-2.3613-1.5723-3.7949-1.5723Z"/><path class="cls-2" d="m31.7675,49.7504c-.04,0-.0801-.0029-.1211-.0098-.2383-.0391-.4424-.1904-.5508-.4062l-4.959-9.9609c-.1846-.3701-.0332-.8203.3379-1.0059.3721-.1826.8203-.0332,1.0059.3379l4.4805,9.001c3.1064-3.4512,4.9014-7.8604,5.0791-12.5273l.2617-4.791c.0225-.415.3945-.7285.79-.708.4141.0225.7305.376.708.79l-.2617,4.7783c-.2051,5.3857-2.4209,10.4619-6.2402,14.2822-.1416.1416-.333.2197-.5303.2197Zm-5.8545-13.124c-1.04,0-2.0742-.4033-2.8584-1.1875l-8.0557-8.0557c-1.2754-1.2754-1.5566-3.251-.6836-4.8037,4.4238-7.8682,12.1689-16.3174,14.001-18.1494,3.085-3.0859,9.915-3.6699,15.4033-4.1396l.2432-.0205c1.5703-.1377,3.1143.4258,4.2275,1.5391s1.6738,2.6543,1.5391,4.2285l-.0205.2373c-.4688,5.4902-1.0518,12.3223-4.1387,15.4082-2.4004,2.4004-11.0322,9.8076-17.3701,14.2246-.6924.4824-1.4922.7188-2.2871.7188ZM44.4228,1.7504c-.1104,0-.2207.0039-.3311.0137l-.2441.0215c-4.9688.4248-11.7725,1.0068-14.4707,3.7051-1.6914,1.6924-9.457,10.1816-13.7549,17.8242-.5439.9688-.3643,2.2061.4375,3.0078l8.0557,8.0557c.8691.8682,2.2275.9941,3.2275.2988,6.2705-4.3711,14.7988-11.6865,17.167-14.0547,2.6992-2.6982,3.2803-9.5049,3.7051-14.4756l.0205-.2373c.0967-1.1328-.3066-2.2402-1.1055-3.04-.7217-.7207-1.6934-1.1191-2.707-1.1191ZM11.042,24.3734c-.1191,0-.2412-.0283-.3535-.0889L.6455,18.8939c-.209-.1123-.3525-.3174-.3877-.5518-.0342-.2344.0439-.4717.2119-.6396,3.8193-3.8193,8.8955-6.0352,14.2939-6.2402l4.4385-.2617c.3955-.0176.7686.291.793.7051.0244.4131-.292.7686-.7051.793l-4.4541.2617c-4.6934.1777-9.1133,1.9814-12.5684,5.1016l9.1299,4.9004c.3652.1963.502.6504.3066,1.0156-.1357.252-.3945.3955-.6621.3955Zm25.2988-5.3867c-1.3652,0-2.7295-.5195-3.7686-1.5586-2.0781-2.0781-2.0781-5.46,0-7.5381s5.46-2.0781,7.5381,0h0c2.0771,2.0781,2.0771,5.46,0,7.5381-1.0391,1.0391-2.4043,1.5586-3.7695,1.5586Zm0-9.1562c-.9805,0-1.9619.374-2.708,1.1201-.7236.7236-1.1221,1.6855-1.1221,2.708,0,1.0234.3984,1.9854,1.1221,2.709,1.4922,1.4922,3.9229,1.4902,5.417,0,1.4922-1.4932,1.4922-3.9238,0-5.417-.7471-.7461-1.7285-1.1201-2.709-1.1201Z"/></svg>