<?xml version="1.0" encoding="UTF-8"?><svg id="a" xmlns="http://www.w3.org/2000/svg" xmlns:xlink="http://www.w3.org/1999/xlink" viewBox="0 0 50 50"><defs><style>.c{stroke:url(#b);}.c,.d{fill:none;stroke-linecap:round;stroke-linejoin:round;stroke-width:1.5px;}.d{stroke:#252526;}</style><linearGradient id="b" x1="12.1363" y1="5.8455" x2="35.3872" y2="46.1173" gradientTransform="matrix(1, 0, 0, 1, 0, 0)" gradientUnits="userSpaceOnUse"><stop offset="0" stop-color="#ff4800"/><stop offset=".5" stop-color="#da54d8"/><stop offset="1" stop-color="#0092f4"/></linearGradient></defs><g><line class="d" x1="24.2429" y1="25.9165" x2="31.7751" y2="18.7093"/><path class="d" d="M40.0842,19.6339l-6.7999-.7567c-.8882-.0988-1.5967-.7866-1.7218-1.6714l-1.0042-7.0984c-.0862-.6092,.119-1.2234,.5541-1.6585l6.0741-6.0741c1.1416-1.1416,3.0965-.4884,3.3226,1.1101l.5917,4.1826c.1252,.8848,.8337,1.5726,1.7218,1.6714l3.688,.4104c1.6313,.1815,2.3283,2.1693,1.1677,3.3299l-5.9934,5.9934c-.4206,.4206-1.0096,.6272-1.6008,.5614Z"/></g><path class="c" d="M38.4015,25.7036c0,7.7543-6.2861,14.0404-14.0404,14.0404s-14.0404-6.2861-14.0404-14.0404,6.2861-14.0404,14.0404-14.0404m0,8.1944c-3.2287,0-5.846,2.6174-5.846,5.846s2.6174,5.846,5.846,5.846,5.846-2.6174,5.846-5.846m-1.3779-22.0293c-1.4807-.3067-3.0147-.4678-4.5863-.4678C11.8181,3.2064,1.7458,13.2788,1.7458,25.7036s10.0723,22.4972,22.4972,22.4972,22.4972-10.0723,22.4972-22.4972c0-1.5922-.1654-3.1457-.4799-4.6444"/></svg>