<?xml version="1.0" encoding="UTF-8"?><svg id="shape" xmlns="http://www.w3.org/2000/svg" xmlns:xlink="http://www.w3.org/1999/xlink" viewBox="0 0 50 50"><defs><style>.cls-1{fill:#fff;}.cls-2{fill:url(#Degradado_sin_nombre_50);}</style><linearGradient id="Degradado_sin_nombre_50" x1="14.2761" y1="-.8181" x2="35.6651" y2="36.2288" gradientUnits="userSpaceOnUse"><stop offset="0" stop-color="#da54d8"/><stop offset=".5049" stop-color="#0092f4"/><stop offset=".9972" stop-color="#20dc86"/></linearGradient></defs><path class="cls-2" d="m23.5599,43.1017c-.1133,0-.2275-.0254-.335-.0801-.1982-.0986-4.9648-2.5488-15.8828-13.2002C1.2836,23.9113-1.0543,16.9718.9281,10.7804,2.3529,6.3292,5.9291,3.0431,10.0394,2.4083c7.8057-1.2051,11.5391,2.6934,13.6582,6.3066,2.1191-3.6123,5.8574-7.5117,13.6582-6.3066,3.5967.5557,6.7686,3.0859,8.4844,6.7686,2.1553,4.626,1.6152,10.208-1.4824,15.3145-.2148.3525-.6777.4678-1.0303.2529-.3545-.2148-.4678-.6768-.2529-1.0303,2.834-4.6719,3.3467-9.7393,1.4053-13.9033-1.5039-3.2275-4.2529-5.4404-7.3525-5.9199-6.0469-.9336-9.8623,1.0781-12.7588,6.7217-.0352.0703-.0801.1348-.1367.1914-.0674.0684-.1465.1221-.2324.1602-.0977.043-.2002.0635-.3008.0635h-.002c-.0996,0-.2002-.0195-.2969-.0615-.0918-.04-.1758-.0977-.2461-.1719-.0518-.0547-.0947-.1162-.127-.1816-2.8955-5.6445-6.7041-7.6562-12.7588-6.7217-3.5527.5488-6.6582,3.4326-7.9121,7.3477-1.8018,5.6289.3975,12.0107,6.0332,17.5088,10.6982,10.4365,15.4629,12.9111,15.5098,12.9346.3691.1875.5176.6377.3311,1.0068-.1318.2617-.3955.4131-.6699.4131Z"/><path class="cls-1" d="m28.6537,47.8185c-.54,0-1.0762-.1699-1.5352-.5029-.8125-.5898-1.2119-1.5713-1.042-2.5605l1.0156-5.9219c.0625-.3623-.0576-.7324-.3213-.9893l-4.3027-4.1943c-.7188-.7002-.9727-1.7275-.6621-2.6816.3096-.9551,1.1191-1.6377,2.1123-1.7822l5.9473-.8643c.3633-.0527.6777-.2812.8418-.6123l2.6582-5.3877c.4443-.8994,1.3438-1.459,2.3477-1.459,1.0029,0,1.9023.5596,2.3467,1.459l2.6592,5.3887c.1631.3301.4775.5586.8408.6113l5.9463.8643c.9941.1445,1.8037.8271,2.1143,1.7812.3096.9541.0557,1.9824-.6631,2.6826l-4.3027,4.1943c-.2627.2568-.3838.627-.3213.9902l1.0156,5.9209c.1699.9893-.2295,1.9707-1.042,2.5605-.8096.5889-1.8662.666-2.7559.1992l-5.3184-2.7959c-.3262-.1719-.7148-.1729-1.0391,0h-.001l-5.3193,2.7959c-.3857.2031-.8037.3037-1.2197.3037Zm7.0596-25.4561c-.4355,0-.8096.2334-1.002.623l-2.6592,5.3887c-.3828.7734-1.1201,1.3086-1.9717,1.4316l-5.9463.8643c-.4297.0625-.7676.3467-.9014.7607-.1348.4131-.0293.8408.2822,1.1445l4.3027,4.1943c.6182.6025.8994,1.4697.7529,2.3184l-1.0156,5.9209c-.0732.4287.0928.8379.4453,1.0938.3516.2549.791.2881,1.1748.084l5.3203-2.7959c.7617-.3984,1.6719-.4004,2.4355,0l5.3184,2.7959c.3857.2041.8252.1709,1.1768-.084.3516-.2559.5176-.665.4443-1.0938l-1.0156-5.9219c-.1455-.8496.1357-1.7158.7529-2.3174l4.3027-4.1943c.3115-.3037.417-.7314.2832-1.1445-.1348-.4141-.4717-.6982-.9023-.7607l-5.9463-.8643c-.8516-.123-1.5889-.6582-1.9707-1.4307l-2.6602-5.3896c-.1924-.3896-.5664-.623-1.001-.623Zm-.8691,21.6924h.0098-.0098Z"/></svg>