<?xml version="1.0" encoding="UTF-8"?><svg id="shape" xmlns="http://www.w3.org/2000/svg" xmlns:xlink="http://www.w3.org/1999/xlink" viewBox="0 0 50 50"><defs><style>.cls-1{fill:#252526;}.cls-2{fill:url(#New_Gradient_Swatch_2);}</style><linearGradient id="New_Gradient_Swatch_2" x1="13.0004" y1="4.216" x2="36.9996" y2="45.7838" gradientUnits="userSpaceOnUse"><stop offset="0" stop-color="#da54d8"/><stop offset=".5108" stop-color="#0092f4"/><stop offset="1" stop-color="#20dc86"/></linearGradient></defs><path class="cls-2" d="M24.9995,49.0038C11.7642,49.0038,.9956,38.2353,.9956,24.9999S11.7642,.996,24.9995,.996s24.0049,10.7686,24.0049,24.0039-10.7686,24.0039-24.0049,24.0039Zm0-46.5078C12.5904,2.496,2.4956,12.5908,2.4956,24.9999s10.0947,22.5039,22.5039,22.5039,22.5049-10.0947,22.5049-22.5039S37.4087,2.496,24.9995,2.496Z"/><path class="cls-1" d="M21.6509,33.4594c-.1748,0-.3496-.0605-.4912-.1826l-6.7451-5.8379c-.3125-.2715-.3467-.7451-.0762-1.0586,.2715-.3125,.7432-.3457,1.0586-.0762l6.2002,5.3662,13.9619-14.8926c.2822-.3027,.7578-.3174,1.0596-.0342,.3027,.2832,.3174,.7578,.0342,1.0596l-14.4551,15.4189c-.1475,.1572-.3467,.2373-.5469,.2373Z"/></svg>