<?xml version="1.0" encoding="UTF-8"?><svg id="a" xmlns="http://www.w3.org/2000/svg" xmlns:xlink="http://www.w3.org/1999/xlink" viewBox="0 0 50 50"><defs><style>.c{fill:#fff;}.d{stroke:url(#b);}.d,.e{fill:none;stroke-linecap:round;stroke-linejoin:round;stroke-width:1.5px;}.e{stroke:#fff;}</style><linearGradient id="b" x1="16.7194" y1="12.188" x2="34.1547" y2="42.3867" gradientTransform="matrix(1, 0, 0, 1, 0, 0)" gradientUnits="userSpaceOnUse"><stop offset="0" stop-color="#da54d8"/><stop offset=".5049" stop-color="#0092f4"/><stop offset=".9972" stop-color="#20dc86"/></linearGradient></defs><path class="d" d="M25.68,15.7693c-2.8715,0-5.1993,2.3278-5.1993,5.1993s2.3278,5.1993,5.1993,5.1993,5.1993-2.3278,5.1993-5.1993-2.3278-5.1993-5.1993-5.1993Zm5.1572,15.7655c-1.5571-.7107-3.3192-1.1113-5.1855-1.1113-6.3286,0-11.4589,4.6063-11.4589,10.2886m14.413,4.0122c-.9609,.1603-1.9479,.2437-2.9544,.2437-9.4484,0-17.18-7.3507-17.7879-16.6454M21.5658,10.256c1.2237-.2655,2.4943-.4054,3.7976-.4054,9.6661,0,17.5354,7.6934,17.8185,17.2909"/><circle class="e" cx="9.7618" cy="16.8092" r="8.319"/><circle class="e" cx="9.7521" cy="13.9651" r="2.5997"/><path class="e" d="M13.4157,20.5095c-.9748-.8727-2.3198-1.4122-3.8051-1.4122-2.6043,0-4.7771,1.6586-5.2796,3.8636"/><g><path class="c" d="M37.8669,39.8708c-.3685,0-.6683,.2997-.6683,.667v.4336c0,1.0847,.9938,1.9667,2.216,1.9667h1.0319c1.2223,0,2.216-.882,2.216-1.9667v-.71c0-.8808-.5909-1.7099-1.4028-1.9728h-.0012l-2.2468-.7309c-.2813-.0897-.4779-.3538-.4779-.6437v-.7112c0-.3046,.3538-.6314,.8808-.6314h1.0319c.527,0,.8808,.3268,.8808,.6314v.4336c0,.3685,.2997,.6683,.667,.6683,.3685,0,.6683-.2997,.6683-.6683v-.4336c0-1.0847-.9938-1.9667-2.216-1.9667h-1.0319c-1.2223,0-2.216,.882-2.216,1.9667v.7112c0,.8734,.5638,1.6424,1.4028,1.9139l2.248,.7309c.2678,.0872,.4779,.3955,.4779,.7026v.71c0,.3059-.3538,.6326-.8808,.6326h-1.0319c-.527,0-.8808-.3268-.8808-.6326v-.4336c0-.3673-.2997-.667-.667-.667Z"/><path class="c" d="M39.9312,32.5346c-.3513,0-.6363,.285-.6363,.6351v1.7345c0,.3501,.285,.6351,.6363,.6351,.3501,0,.6351-.285,.6351-.6351v-1.7345c0-.3501-.285-.6351-.6351-.6351Z"/><path class="c" d="M39.9312,41.6359c-.3513,0-.6363,.285-.6363,.6351v1.7345c0,.3501,.285,.6351,.6363,.6351,.3501,0,.6351-.285,.6351-.6351v-1.7345c0-.3501-.285-.6351-.6351-.6351Z"/></g><circle class="e" cx="40.2382" cy="38.6464" r="8.319"/><line class="e" x1="18.1086" y1="3.0346" x2="18.1086" y2="8.234"/><line class="e" x1="20.7082" y1="5.6522" x2="15.509" y2="5.6164"/></svg>