<?xml version="1.0" encoding="utf-8"?>
<!-- Generator: Adobe Illustrator 26.5.0, SVG Export Plug-In . SVG Version: 6.00 Build 0)  -->
<svg version="1.1" id="a" xmlns="http://www.w3.org/2000/svg" xmlns:xlink="http://www.w3.org/1999/xlink" x="0px" y="0px"
	 viewBox="0 0 50 50" style="enable-background:new 0 0 50 50;" xml:space="preserve">
<style type="text/css">
	.st0{fill:none;stroke:#FFFFFF;stroke-width:1.5;stroke-linecap:round;stroke-linejoin:round;}
	.st1{fill:none;stroke:#FFFFFF;stroke-width:1.5;stroke-miterlimit:10;}
	.st2{fill:none;stroke:url(#SVGID_1_);stroke-width:1.5;stroke-linecap:round;stroke-linejoin:round;}
	.st3{fill:#FFFFFF;stroke:#FFFFFF;stroke-width:0.25;stroke-miterlimit:10;}
</style>
<g>
	<g>
		<path class="st0" d="M25.4,28.3h22c0.5,0,0.9,0.4,0.9,0.9v11.3c0,0.5-0.4,0.9-0.9,0.9H28.7"/>
		<circle class="st1" cx="36.3" cy="34.8" r="3.3"/>
	</g>
	<line class="st0" x1="22.1" y1="32.6" x2="27.6" y2="32.6"/>
	<line class="st0" x1="24.3" y1="37" x2="29.7" y2="37"/>
</g>
<linearGradient id="SVGID_1_" gradientUnits="userSpaceOnUse" x1="173.3863" y1="47.2037" x2="190.5223" y2="17.5232" gradientTransform="matrix(1 0 0 -1 -163.3746 52)">
	<stop  offset="0" style="stop-color:#DA54D8"/>
	<stop  offset="0.5049" style="stop-color:#0092F4"/>
	<stop  offset="0.9972" style="stop-color:#20DC86"/>
</linearGradient>
<path class="st2" d="M18.1,39.1H8.3 M16.1,35.5c0,2.1-1.3,3.7-3.4,3.7 M18.5,39.2 M18.5,32.6H5.9c-2.3,0-4.2-1.9-4.2-4.2V12.8
	c0-2.3,1.9-4.2,4.2-4.2h26.5c2.3,0,4.2,1.9,4.2,4.2v12.1"/>
<g>
	<path class="st3" d="M22.2,25.3c-0.2,0-0.5-0.2-0.6-0.4l-2.3-6l-2.3,6c-0.1,0.3-0.5,0.5-0.8,0.3c-0.3-0.1-0.5-0.5-0.3-0.8l0,0
		l2.9-7.3c0-0.1,0-0.2,0.1-0.2c0.2-0.3,0.6-0.3,0.9-0.1c0,0,0.1,0.1,0.1,0.1c0,0.1,0.1,0.1,0.1,0.2l2.9,7.4c0.1,0.3,0,0.7-0.3,0.8
		l0,0C22.4,25.3,22.3,25.3,22.2,25.3L22.2,25.3z"/>
	<path class="st3" d="M21,22.8h-3.3c-0.3,0-0.6-0.3-0.6-0.6s0.3-0.6,0.6-0.6H21c0.3,0,0.6,0.3,0.6,0.6C21.6,22.6,21.3,22.8,21,22.8z
		"/>
	<path class="st3" d="M12.2,25.3c-0.2,0-0.4-0.1-0.5-0.3c0-0.1-0.1-0.1-0.1-0.2l-2.9-7.4c0-0.3,0.2-0.6,0.5-0.7
		c0.2,0,0.5,0.1,0.6,0.3l2.3,6l2.3-6c0.1-0.3,0.5-0.5,0.8-0.3c0.3,0.1,0.5,0.5,0.3,0.8l0,0l-2.9,7.3c0,0.1,0,0.2-0.1,0.2
		C12.6,25.2,12.4,25.3,12.2,25.3L12.2,25.3z"/>
	<path class="st3" d="M26.1,25.3c-0.3,0-0.6-0.3-0.6-0.6v-7.4c0-0.3,0.3-0.6,0.6-0.6s0.6,0.3,0.6,0.6v7.4
		C26.7,25,26.4,25.3,26.1,25.3z"/>
	<path class="st3" d="M28.7,17.9h-5.2c-0.3,0-0.6-0.3-0.6-0.6s0.3-0.6,0.6-0.6h5.2c0.3,0,0.6,0.3,0.6,0.6S29,17.9,28.7,17.9z"/>
</g>
</svg>
