<?xml version="1.0" encoding="UTF-8"?><svg id="a" xmlns="http://www.w3.org/2000/svg" xmlns:xlink="http://www.w3.org/1999/xlink" viewBox="0 0 50 50"><defs><style>.c{stroke:url(#b);}.c,.d{fill:none;stroke-linecap:round;stroke-linejoin:round;stroke-width:1.4867px;}.d{stroke:#252526;}</style><linearGradient id="b" x1="9.6687" y1="4.0671" x2="26.2653" y2="32.8133" gradientTransform="matrix(1, 0, 0, 1, 0, 0)" gradientUnits="userSpaceOnUse"><stop offset="0" stop-color="#ff4800"/><stop offset=".5" stop-color="#da54d8"/><stop offset="1" stop-color="#0092f4"/></linearGradient></defs><path class="d" d="M29.4118,42.1891h16.5443m0,0c1.2923,0,2.294-1.8155,2.294-3.1079H31.858v.7599c0,1.6063-1.6185,2.8345-3.3136,2.1429-.8503-.3469-1.3665-1.2246-1.3663-2.1429V22.4656c.0002-.9088,.7368-1.6454,1.6455-1.6454h14.4822c.9087,0,1.6453,.7366,1.6453,1.6453l-.0006,.0023v16.6074"/><path class="c" d="M23.4044,19.2324c0,4.2624-3.4553,7.7177-7.7177,7.7177-4.2624,0-7.7177-3.4553-7.7177-7.7177,0-4.2624,3.4553-7.7177,7.7177-7.7177,4.2624,0,7.7177,3.4553,7.7177,7.7177Zm-7.7177-4.6306c-1.4208,0-2.5726,1.1518-2.5726,2.5726,0,1.4208,1.1518,2.5726,2.5726,2.5726,1.4208,0,2.5726-1.1518,2.5726-2.5726s-1.1518-2.5726-2.5726-2.5726Zm2.9751,8.346c-.8532-.6125-1.9353-.9786-3.1127-.9786-2.2491,0-4.1506,1.3364-4.7732,3.1731m6.6441,11.9195H8.018m9.7727,.0751-2.2867-3.6173h0c0,2.0224-1.2849,3.5422-3.3073,3.5422m11.7723-6.268H5.7419c-2.2047,0-3.9919-1.7873-3.9919-3.9919V11.8029c0-2.2047,1.7873-3.9919,3.9919-3.9919H31.1876c2.2047,0,3.9919,1.7873,3.9919,3.9919v5.7743"/></svg>