<?xml version="1.0" encoding="utf-8"?><svg width="150" height="50" viewBox="0 0 150 50" fill="none" xmlns="http://www.w3.org/2000/svg">
<mask id="mask0_3708_56406" style="mask-type:alpha" maskUnits="userSpaceOnUse" x="0" y="0" width="150" height="50">
<rect width="150" height="50" fill="#D9D9D9"/>
</mask>
<g mask="url(#mask0_3708_56406)">
<path d="M30.9769 18.3597H25.1495V13.0499H43.1827V18.3597H37.3553V33.9217H30.9769V18.3597Z" fill="#004B7A"/>
<path d="M48.493 27.1089C47.7583 27.4262 47.0069 27.6599 46.2221 27.7935C44.9364 28.0774 44.2685 28.3946 44.2518 29.4132C44.3854 30.2814 45.1869 30.8826 46.0552 30.7991C47.3242 30.8826 48.4095 29.9141 48.493 28.6618C48.493 28.6117 48.493 28.5616 48.493 28.5115V27.1089ZM54.0198 30.5653C53.9197 31.7341 54.1534 32.9196 54.7044 33.9549L48.8102 33.8714C48.66 33.4206 48.5932 32.953 48.6099 32.4855H48.5431C47.3075 33.8714 45.5375 34.2721 43.6674 34.2554C40.7454 34.2554 38.3409 32.8195 38.3576 29.6469C38.3576 24.8715 43.9847 25.0718 46.9234 24.5375C47.7249 24.3706 48.4763 24.1702 48.4763 23.185C48.4763 22.1999 47.5245 21.7991 46.5895 21.7991C44.8195 21.7991 44.4522 22.6841 44.4188 23.3353H39.0589C39.2593 19.0942 43.2834 18.4096 46.8733 18.4263C54.12 18.4096 54.0532 21.3984 54.0031 24.3205V30.5653H54.0198Z" fill="#004B7A"/>
<path d="M63.5534 22.6845C61.4829 22.6845 61.0153 24.6214 60.9986 26.3914C60.9819 28.1613 61.4328 30.165 63.52 30.165C65.5904 30.165 66.0747 28.2281 66.0747 26.4247C66.0747 24.6214 65.6238 22.6845 63.5534 22.6845ZM55.5219 13H61.2992L61.2658 20.4972H61.3159C62.2843 19.1781 63.8372 18.4267 65.4569 18.4768C70.5162 18.4768 71.8687 22.8181 71.852 26.3747C71.852 30.165 69.7314 34.3727 65.4569 34.356C62.635 34.356 61.7667 33.254 61.0487 32.2856H60.9986V33.9052H55.5553L55.5219 13Z" fill="#004B7A"/>
<path d="M79.9347 17.2412C77.7474 17.2412 77.4468 19.3618 77.4301 20.948C77.4134 22.551 77.6973 24.705 79.8846 24.7217C82.072 24.7384 82.3726 22.5844 82.3893 20.9814C82.4059 19.3785 82.1221 17.2913 79.9347 17.2412ZM79.8679 28.9294C74.1908 28.9294 71.6528 25.1224 71.6695 20.9313C71.6862 16.7403 74.2743 13.0168 79.9681 13.0501C85.662 13.0835 88.1833 16.8238 88.1666 21.0315C88.1332 25.2226 85.5451 28.9628 79.8679 28.9294Z" fill="#004B7A"/>
<path d="M94.2446 17.2412C92.0572 17.2412 91.7567 19.3618 91.7567 20.9647C91.7567 22.5677 92.0238 24.7217 94.2112 24.7384C96.3986 24.7551 96.6991 22.6011 96.6991 20.9981C96.6991 19.3952 96.432 17.2579 94.2446 17.2412ZM94.1778 28.9294C88.5007 28.9294 85.9627 25.1224 85.9794 20.9313C86.0128 16.7403 88.5842 13.0168 94.278 13.0501C99.9718 13.0835 102.493 16.8238 102.476 21.0315C102.443 25.2226 99.8549 28.9628 94.1778 28.9294Z" fill="#004B7A"/>
<path d="M103.076 13.0499H108.72V33.9217H103.076V13.0499Z" fill="#004B7A"/>
<path d="M119.239 27.0593C118.505 27.3766 117.753 27.6104 116.969 27.7439C115.683 28.0278 115.015 28.345 114.998 29.3636C115.132 30.2319 115.933 30.833 116.802 30.7495C118.054 30.833 119.156 29.8812 119.223 28.6122C119.223 28.5454 119.223 28.4619 119.223 28.3951L119.239 27.0593ZM124.766 30.5157C124.766 31.6511 124.7 32.9869 125.334 33.9721H119.54C119.39 33.4879 119.323 32.9702 119.34 32.4526H119.273C118.037 33.8385 116.267 34.2392 114.397 34.2225C111.475 34.2225 109.071 32.7866 109.087 29.614C109.087 24.8386 114.698 25.0389 117.653 24.5046C118.438 24.3544 119.223 24.1373 119.239 23.1688C119.239 22.2004 118.288 21.7829 117.353 21.7829C115.583 21.7829 115.215 22.6679 115.182 23.3191H109.822C110.022 19.0613 114.047 18.3934 117.637 18.4101C124.867 18.4435 124.783 21.449 124.766 24.3711V30.5157Z" fill="#004B7A"/>
<path d="M73.823 28.9288C77.9139 30.7322 82.3387 31.6338 86.7969 31.6004C91.6392 31.6004 95.346 30.7155 100.021 28.9288V33.9715C95.9138 36.0419 91.3887 37.1273 86.7969 37.144C81.8712 37.144 78.3313 36.1087 73.823 33.9715V28.9288Z" fill="#004B7A"/>
</g>
</svg>
