<?xml version="1.0" encoding="utf-8"?><svg width="150" height="50" viewBox="0 0 150 50" fill="none" xmlns="http://www.w3.org/2000/svg">
<mask id="mask0_7544_133765" style="mask-type:alpha" maskUnits="userSpaceOnUse" x="0" y="0" width="150" height="50">
<rect width="150" height="50" fill="#D9D9D9"/>
</mask>
<g mask="url(#mask0_7544_133765)">
<mask id="mask1_7544_133765" style="mask-type:alpha" maskUnits="userSpaceOnUse" x="0" y="0" width="150" height="50">
<rect width="150" height="50" fill="#D9D9D9"/>
</mask>
<g mask="url(#mask1_7544_133765)">
</g>
<g clip-path="url(#clip0_7544_133765)">
<path d="M136.039 22.3672V22.6231H136.464V23.9091H136.719V22.6231H137.144V22.3672H136.039Z" fill="#635954"/>
<path d="M138.813 22.3672L138.25 23.4565L137.687 22.3672H137.48V23.9091H137.708V22.9197L138.223 23.9091H138.253L138.768 22.9259V23.9091H139.002V22.3672H138.813Z" fill="#635954"/>
<path d="M52.6918 28.0844C52.539 27.9596 52.3683 27.8722 52.1796 27.8347C51.0775 28.9803 49.7357 30.1851 48.5407 30.9966C47.9897 31.3774 47.2948 31.5709 46.8366 31.5709C45.7794 31.5709 45.3211 30.5222 45.1834 28.8523C44.9977 26.6112 44.8749 23.9269 44.8749 19.7786C44.8749 15.6304 43.9494 12.6308 41.4816 12.4061C41.3767 12.3936 41.2719 12.3905 41.1611 12.3905C39.6486 12.3905 38.9119 13.1989 37.9475 15.2496C37.1209 17.0163 35.833 19.5882 33.446 24.4544C31.3795 28.6525 29.0853 32.37 27.1116 34.942C26.5605 35.6567 26.1263 36.1468 25.7189 36.4277C25.4464 36.6119 25.1828 36.7055 24.9073 36.7055C24.1286 36.7055 23.5596 36.0188 23.3679 34.4238C23.323 34.0461 23.299 33.6154 23.299 33.1285C23.299 29.8386 24.491 24.4981 26.5575 16.6324C28.079 10.9079 27.4351 7 24.1286 7H24.0867C23.3379 7.00936 22.718 7.2934 22.119 7.78345C21.532 8.26413 20.9419 9.30665 20.3909 10.7144C19.7739 12.2937 16.0032 20.1719 10.0043 24.2327C9.93238 25.7747 10.771 27.3197 12.4721 27.4851C14.0175 27.6381 15.1137 26.9608 16.5303 25.9682C16.4225 26.4614 16.3267 26.9202 16.2368 27.3416C16.129 27.8379 16.0421 28.2686 15.9673 28.6151C15.8595 29.1301 15.7936 29.4609 15.7726 29.5546C15.5749 30.4941 15.4372 31.3868 15.3443 32.2327C14.4967 40.114 18.0009 44.0031 22.107 44.0031C22.7928 44.0031 23.4727 43.9188 24.1496 43.7378C28.672 42.5423 33.0267 37.1362 38.1781 24.6916C38.1002 26.0462 38.0912 27.3104 38.1481 28.484C38.4896 35.6162 41.197 37.7574 45.0216 37.7574C47.9118 37.7574 50.6222 36.1811 51.9999 34.2272C53.0093 32.8444 53.4226 31.3181 53.4226 30.1258C53.4226 29.2019 53.141 28.4621 52.6918 28.0844Z" fill="#ED5252"/>
<path d="M125.469 38.7652H129.054L135.257 22.3814H131.708L129.144 30.5437L126.442 22.3814H122.483L127.197 34.2174L125.469 38.7683V38.7652ZM107.673 26.2706V34.6669H104.055V22.3783H106.598L107.352 23.452C108.335 22.5906 109.389 22.0912 110.602 22.0912C112.225 22.0912 113.465 22.5906 114.22 23.8297C115.319 22.781 116.487 22.0912 117.976 22.0912C120.767 22.0912 122.393 23.5925 122.393 27.6752V34.6638H118.775V28.1028C118.775 26.2175 118.041 25.6682 116.873 25.6682C116.188 25.6682 115.613 25.8617 114.972 26.2893C115.017 26.7201 115.043 27.1726 115.043 27.6752V34.6638H111.426V28.1028C111.426 26.2175 110.692 25.6682 109.503 25.6682C108.838 25.6682 108.29 25.8367 107.67 26.2643M95.055 27.3131H99.7002C99.4486 25.715 98.625 24.9503 97.3881 24.9503C96.3338 24.9503 95.3275 25.5933 95.052 27.3131M97.6396 34.8979C94.1595 34.8979 91.3651 33.1094 91.3651 28.3837C91.3651 23.9702 94.0666 22.0599 97.1814 22.0599C100.937 22.0599 102.608 24.8036 102.608 29.1235H95.031C95.2826 31.246 96.5435 31.8671 98.2117 31.8671C99.8799 31.8671 101.093 31.452 102.069 30.7653L101.581 33.7555C100.647 34.5077 99.5265 34.8948 97.6396 34.8948M84.1712 31.7235C84.9948 31.7235 85.6118 31.5799 86.2557 31.0774V25.7337C85.6837 25.3779 85.1116 25.2093 84.285 25.2093C82.5239 25.2093 81.5146 26.4516 81.5146 28.5273C81.5146 30.603 82.5449 31.7235 84.1682 31.7235M86.9625 33.7524C86.0251 34.4921 84.9469 34.9447 83.4135 34.9447C80.1849 34.9447 77.8488 32.869 77.8488 28.596C77.8488 24.3229 80.5293 22.0599 83.9645 22.0599C84.7642 22.0599 85.5429 22.1785 86.2527 22.4657V17.25H89.8706V34.6575H87.5795L86.9625 33.7524ZM62.5234 27.3818V18.2738H66.2792V27.31C66.2792 30.5561 67.6748 31.2241 69.6006 31.2241C71.6821 31.2241 72.7573 30.269 72.7573 27.31V18.2738H76.534V27.3818C76.534 32.7504 74.2907 34.9946 69.4149 34.9946C64.8835 34.9946 62.5264 33.0626 62.5264 27.3818" fill="#635954"/>
</g>
</g>
<defs>
<clipPath id="clip0_7544_133765">
<rect width="129" height="37" fill="white" transform="translate(10 7)"/>
</clipPath>
</defs>
</svg>
