<?xml version="1.0" encoding="utf-8"?>
<svg width="660" height="581" viewBox="0 0 660 581" fill="none" xmlns="http://www.w3.org/2000/svg">
<rect width="660" height="581" fill="#252526"/>
<path d="M143.672 28.608L136.472 40.496L135.64 40.064L142.856 28.176L143.672 28.608ZM136.424 34.08C134.84 34.08 133.608 32.848 133.608 31.28C133.608 29.712 134.84 28.48 136.424 28.48C138.008 28.48 139.24 29.712 139.24 31.28C139.24 32.848 138.008 34.08 136.424 34.08ZM136.424 33.12C137.432 33.12 138.28 32.336 138.28 31.28C138.28 30.224 137.432 29.44 136.424 29.44C135.416 29.44 134.568 30.224 134.568 31.28C134.568 32.336 135.416 33.12 136.424 33.12ZM142.904 40.192C141.32 40.192 140.088 38.96 140.088 37.392C140.088 35.824 141.32 34.592 142.904 34.592C144.488 34.592 145.72 35.824 145.72 37.392C145.72 38.96 144.488 40.192 142.904 40.192ZM142.904 39.232C143.912 39.232 144.76 38.448 144.76 37.392C144.76 36.336 143.912 35.552 142.904 35.552C141.896 35.552 141.048 36.336 141.048 37.392C141.048 38.448 141.896 39.232 142.904 39.232ZM155.208 40.192C152.888 40.192 151.224 38.512 151.224 36.256C151.224 34 152.888 32.32 155.208 32.32C157.544 32.32 159.208 34 159.208 36.256C159.208 38.512 157.544 40.192 155.208 40.192ZM155.208 39.264C156.952 39.264 158.056 37.936 158.056 36.256C158.056 34.576 156.952 33.232 155.208 33.232C153.48 33.232 152.376 34.576 152.376 36.256C152.376 37.936 153.48 39.264 155.208 39.264ZM162.957 40H161.869V33.408H160.301V32.496H161.869V30.464C161.869 28.768 162.701 27.712 164.413 27.712C164.685 27.712 165.037 27.744 165.309 27.824L165.117 28.784C164.893 28.72 164.653 28.672 164.365 28.672C163.197 28.672 162.957 29.504 162.957 30.592V32.496H164.717V33.408H162.957V40ZM171.747 40H170.659V34.16C170.659 33.76 170.643 33.008 170.595 32.496H171.635C171.667 32.896 171.699 33.472 171.699 33.792H171.731C172.147 32.928 173.075 32.32 174.131 32.32C174.403 32.32 174.627 32.336 174.851 32.4L174.707 33.424C174.579 33.376 174.227 33.328 173.939 33.328C172.787 33.328 171.747 34.16 171.747 36.16V40ZM179.471 40.192C177.247 40.192 175.599 38.512 175.599 36.256C175.599 34 177.247 32.32 179.375 32.32C181.727 32.32 182.959 33.984 182.959 36.032C182.959 36.176 182.959 36.352 182.943 36.544H176.735C176.767 38.048 177.935 39.264 179.471 39.264C180.591 39.264 181.455 38.64 181.871 37.968L182.687 38.608C181.807 39.728 180.703 40.192 179.471 40.192ZM176.751 35.68H181.855C181.791 34.272 180.927 33.232 179.375 33.232C177.919 33.232 176.847 34.4 176.751 35.68ZM187.427 40.192C186.291 40.192 185.155 39.744 184.467 38.736L185.331 38.096C185.715 38.752 186.531 39.264 187.411 39.264C188.339 39.264 189.171 38.928 189.171 37.952C189.171 37.168 188.387 36.848 186.963 36.512C186.083 36.304 184.819 35.92 184.819 34.496C184.819 32.976 186.131 32.32 187.491 32.32C188.531 32.32 189.635 32.816 190.115 33.664L189.283 34.288C188.963 33.664 188.275 33.232 187.443 33.232C186.659 33.232 185.859 33.568 185.859 34.4C185.859 35.104 186.419 35.424 187.651 35.68C189.411 36.048 190.243 36.704 190.243 37.872C190.243 39.584 188.803 40.192 187.427 40.192ZM193.497 43.84H192.409V32.496H193.497V33.808H193.545C194.169 32.832 195.289 32.32 196.361 32.32C198.697 32.32 200.233 34.048 200.233 36.256C200.233 38.464 198.697 40.192 196.361 40.192C195.289 40.192 194.169 39.664 193.545 38.736H193.497V43.84ZM196.249 39.264C198.057 39.264 199.081 37.92 199.081 36.256C199.081 34.592 198.057 33.232 196.249 33.232C194.569 33.232 193.369 34.544 193.369 36.256C193.369 37.968 194.569 39.264 196.249 39.264ZM206.005 40.192C203.685 40.192 202.021 38.512 202.021 36.256C202.021 34 203.685 32.32 206.005 32.32C208.341 32.32 210.005 34 210.005 36.256C210.005 38.512 208.341 40.192 206.005 40.192ZM206.005 39.264C207.749 39.264 208.853 37.936 208.853 36.256C208.853 34.576 207.749 33.232 206.005 33.232C204.277 33.232 203.173 34.576 203.173 36.256C203.173 37.936 204.277 39.264 206.005 39.264ZM213.434 40H212.346V34.16C212.346 33.76 212.33 33.008 212.282 32.496H213.322C213.354 32.896 213.386 33.472 213.386 33.792H213.418C213.834 32.928 214.922 32.32 215.978 32.32C217.882 32.32 218.826 33.552 218.826 35.408V40H217.738V35.856C217.738 34.288 217.274 33.232 215.706 33.232C214.554 33.232 213.434 34.16 213.434 36.16V40ZM224.971 40.192C222.635 40.192 221.099 38.464 221.099 36.256C221.099 34.048 222.635 32.32 224.971 32.32C226.043 32.32 227.163 32.832 227.803 33.808H227.835V27.904H228.923V40H227.835V38.736H227.803C227.163 39.68 226.043 40.192 224.971 40.192ZM225.083 39.264C226.763 39.264 227.963 37.968 227.963 36.256C227.963 34.544 226.763 33.232 225.083 33.232C223.275 33.232 222.251 34.592 222.251 36.256C222.251 37.92 223.275 39.264 225.083 39.264ZM235.159 40.192C232.935 40.192 231.287 38.512 231.287 36.256C231.287 34 232.935 32.32 235.063 32.32C237.415 32.32 238.647 33.984 238.647 36.032C238.647 36.176 238.647 36.352 238.631 36.544H232.423C232.455 38.048 233.623 39.264 235.159 39.264C236.279 39.264 237.143 38.64 237.559 37.968L238.375 38.608C237.495 39.728 236.391 40.192 235.159 40.192ZM232.439 35.68H237.543C237.479 34.272 236.615 33.232 235.063 33.232C233.607 33.232 232.535 34.4 232.439 35.68ZM242.075 40H240.987V34.16C240.987 33.76 240.971 33.008 240.923 32.496H241.963C241.995 32.896 242.027 33.472 242.027 33.792H242.059C242.475 32.928 243.563 32.32 244.619 32.32C246.523 32.32 247.467 33.552 247.467 35.408V40H246.379V35.856C246.379 34.288 245.915 33.232 244.347 33.232C243.195 33.232 242.075 34.16 242.075 36.16V40ZM252.38 40.096C251.58 40.096 250.46 39.744 250.46 38.096V33.408H248.908V32.496H250.46V30.4H251.548V32.496H253.66V33.408H251.548V37.792C251.548 38.912 252.012 39.168 252.668 39.168C252.972 39.168 253.324 39.072 253.612 38.928L253.66 39.872C253.276 40.016 252.876 40.096 252.38 40.096ZM257.49 40.192C256.354 40.192 255.218 39.744 254.53 38.736L255.394 38.096C255.778 38.752 256.594 39.264 257.474 39.264C258.402 39.264 259.234 38.928 259.234 37.952C259.234 37.168 258.45 36.848 257.026 36.512C256.146 36.304 254.882 35.92 254.882 34.496C254.882 32.976 256.194 32.32 257.554 32.32C258.594 32.32 259.698 32.816 260.178 33.664L259.346 34.288C259.026 33.664 258.338 33.232 257.506 33.232C256.722 33.232 255.922 33.568 255.922 34.4C255.922 35.104 256.482 35.424 257.714 35.68C259.474 36.048 260.306 36.704 260.306 37.872C260.306 39.584 258.866 40.192 257.49 40.192ZM268.999 40H267.815L265.447 32.496H266.615L268.423 38.592H268.455L270.471 32.496H271.527L273.575 38.592H273.607L275.399 32.496H276.551L274.183 40H272.999L270.999 33.92H270.967L268.999 40ZM279.529 40H278.441V27.904H279.529V33.744H279.561C279.961 32.88 281.017 32.32 282.073 32.32C283.977 32.32 284.921 33.552 284.921 35.408V40H283.833V35.856C283.833 34.288 283.369 33.232 281.801 33.232C280.649 33.232 279.529 34.16 279.529 36.16V40ZM291.177 40.192C288.857 40.192 287.193 38.512 287.193 36.256C287.193 34 288.857 32.32 291.177 32.32C293.513 32.32 295.177 34 295.177 36.256C295.177 38.512 293.513 40.192 291.177 40.192ZM291.177 39.264C292.921 39.264 294.025 37.936 294.025 36.256C294.025 34.576 292.921 33.232 291.177 33.232C289.449 33.232 288.345 34.576 288.345 36.256C288.345 37.936 289.449 39.264 291.177 39.264ZM303.15 40H301.23V33.76V32.256H303.07V33.536H303.102C303.518 32.656 304.334 32.032 305.342 32.032C305.486 32.032 305.678 32.048 305.806 32.08V33.84C305.55 33.776 305.39 33.76 305.214 33.76C303.486 33.76 303.15 35.264 303.15 35.824V40ZM310.457 40.224C308.089 40.224 306.329 38.704 306.329 36.208C306.329 33.728 308.073 32.096 310.393 32.096C312.537 32.096 314.105 33.488 314.105 36.256C314.105 36.432 314.105 36.592 314.089 36.768H308.249C308.329 37.856 309.321 38.656 310.441 38.656C311.401 38.656 312.041 38.272 312.473 37.664L313.753 38.688C313.001 39.712 311.913 40.224 310.457 40.224ZM308.249 35.392H312.185C312.185 34.4 311.625 33.536 310.377 33.536C309.241 33.536 308.329 34.32 308.249 35.392ZM319.677 40.224C317.405 40.224 315.517 38.72 315.517 36.16C315.517 33.664 317.373 32.096 319.629 32.096C320.749 32.096 321.917 32.544 322.525 33.296L321.213 34.448C320.909 34.016 320.253 33.696 319.629 33.696C318.221 33.696 317.517 34.96 317.517 36.16C317.517 37.36 318.237 38.624 319.693 38.624C320.285 38.624 320.941 38.384 321.309 37.936L322.509 39.152C321.869 39.84 320.813 40.224 319.677 40.224ZM327.457 40.224C325.089 40.224 323.329 38.704 323.329 36.208C323.329 33.728 325.073 32.096 327.393 32.096C329.537 32.096 331.105 33.488 331.105 36.256C331.105 36.432 331.105 36.592 331.089 36.768H325.249C325.329 37.856 326.321 38.656 327.441 38.656C328.401 38.656 329.041 38.272 329.473 37.664L330.753 38.688C330.001 39.712 328.913 40.224 327.457 40.224ZM325.249 35.392H329.185C329.185 34.4 328.625 33.536 327.377 33.536C326.241 33.536 325.329 34.32 325.249 35.392ZM333.941 30.864C333.237 30.864 332.725 30.32 332.725 29.712C332.725 29.104 333.237 28.56 333.941 28.56C334.645 28.56 335.189 29.056 335.189 29.712C335.189 30.368 334.645 30.864 333.941 30.864ZM334.917 40H332.997V32.256H334.917V40ZM341.246 40H339.198L336.094 32.256H338.19L340.206 37.92H340.238L342.27 32.256H344.302L341.246 40ZM349.129 40.224C346.761 40.224 345.001 38.704 345.001 36.208C345.001 33.728 346.745 32.096 349.065 32.096C351.209 32.096 352.777 33.488 352.777 36.256C352.777 36.432 352.777 36.592 352.761 36.768H346.921C347.001 37.856 347.993 38.656 349.113 38.656C350.073 38.656 350.713 38.272 351.145 37.664L352.425 38.688C351.673 39.712 350.585 40.224 349.129 40.224ZM346.921 35.392H350.857C350.857 34.4 350.297 33.536 349.049 33.536C347.913 33.536 347.001 34.32 346.921 35.392ZM135.528 63.84H134.44V52.496H135.528V53.808H135.576C136.2 52.832 137.32 52.32 138.392 52.32C140.728 52.32 142.264 54.048 142.264 56.256C142.264 58.464 140.728 60.192 138.392 60.192C137.32 60.192 136.2 59.664 135.576 58.736H135.528V63.84ZM138.28 59.264C140.088 59.264 141.112 57.92 141.112 56.256C141.112 54.592 140.088 53.232 138.28 53.232C136.6 53.232 135.4 54.544 135.4 56.256C135.4 57.968 136.6 59.264 138.28 59.264ZM146.628 60.192C145.492 60.192 144.036 59.584 144.036 57.92C144.036 55.632 146.532 55.408 149.252 55.408H149.316V55.168C149.316 53.872 148.612 53.232 147.316 53.232C146.436 53.232 145.62 53.584 145.092 54.112L144.484 53.392C145.092 52.784 146.148 52.32 147.428 52.32C149.044 52.32 150.34 53.216 150.34 55.04V58.32C150.34 58.896 150.388 59.584 150.468 60H149.492C149.428 59.632 149.38 59.184 149.38 58.784H149.348C148.66 59.776 147.828 60.192 146.628 60.192ZM146.916 59.296C148.452 59.296 149.316 58.144 149.316 56.816V56.256H148.996C147.22 56.256 145.156 56.448 145.156 57.872C145.156 58.944 146.068 59.296 146.916 59.296ZM153.175 63.84C152.855 63.84 152.519 63.808 152.199 63.744L152.311 62.752C152.551 62.832 152.823 62.88 153.111 62.88C153.847 62.88 154.231 62.4 154.551 61.552L155.159 59.984L151.959 52.496H153.175L155.719 58.832H155.751L158.071 52.496H159.255L155.527 61.936C155.079 63.088 154.471 63.84 153.175 63.84ZM169.42 52.32C171.324 52.32 172.268 53.552 172.268 55.408V60H171.18V55.856C171.18 54.288 170.652 53.232 169.244 53.232C167.676 53.232 167.116 54.624 167.116 56.016V60H166.028V55.632C166.028 54.176 165.676 53.232 164.22 53.232C163.18 53.232 162.044 54.16 162.044 56.16V60H160.956V54.16C160.956 53.76 160.94 53.008 160.892 52.496H161.932C161.964 52.896 161.996 53.472 161.996 53.792H162.028C162.46 52.928 163.42 52.32 164.492 52.32C165.308 52.32 166.3 52.64 166.796 53.904C167.308 52.864 168.22 52.32 169.42 52.32ZM178.409 60.192C176.185 60.192 174.537 58.512 174.537 56.256C174.537 54 176.185 52.32 178.313 52.32C180.665 52.32 181.897 53.984 181.897 56.032C181.897 56.176 181.897 56.352 181.881 56.544H175.673C175.705 58.048 176.873 59.264 178.409 59.264C179.529 59.264 180.393 58.64 180.809 57.968L181.625 58.608C180.745 59.728 179.641 60.192 178.409 60.192ZM175.689 55.68H180.793C180.729 54.272 179.865 53.232 178.313 53.232C176.857 53.232 175.785 54.4 175.689 55.68ZM185.325 60H184.237V54.16C184.237 53.76 184.221 53.008 184.173 52.496H185.213C185.245 52.896 185.277 53.472 185.277 53.792H185.309C185.725 52.928 186.813 52.32 187.869 52.32C189.773 52.32 190.717 53.552 190.717 55.408V60H189.629V55.856C189.629 54.288 189.165 53.232 187.597 53.232C186.445 53.232 185.325 54.16 185.325 56.16V60ZM195.63 60.096C194.83 60.096 193.71 59.744 193.71 58.096V53.408H192.158V52.496H193.71V50.4H194.798V52.496H196.91V53.408H194.798V57.792C194.798 58.912 195.262 59.168 195.918 59.168C196.222 59.168 196.574 59.072 196.862 58.928L196.91 59.872C196.526 60.016 196.126 60.096 195.63 60.096ZM200.74 60.192C199.604 60.192 198.468 59.744 197.78 58.736L198.644 58.096C199.028 58.752 199.844 59.264 200.724 59.264C201.652 59.264 202.484 58.928 202.484 57.952C202.484 57.168 201.7 56.848 200.276 56.512C199.396 56.304 198.132 55.92 198.132 54.496C198.132 52.976 199.444 52.32 200.804 52.32C201.844 52.32 202.948 52.816 203.428 53.664L202.596 54.288C202.276 53.664 201.588 53.232 200.756 53.232C199.972 53.232 199.172 53.568 199.172 54.4C199.172 55.104 199.732 55.424 200.964 55.68C202.724 56.048 203.556 56.704 203.556 57.872C203.556 59.584 202.116 60.192 200.74 60.192ZM211.129 60H210.041V53.408H208.473V52.496H210.041V50.464C210.041 48.768 210.873 47.712 212.585 47.712C212.857 47.712 213.209 47.744 213.481 47.824L213.289 48.784C213.065 48.72 212.825 48.672 212.537 48.672C211.369 48.672 211.129 49.504 211.129 50.592V52.496H212.889V53.408H211.129V60ZM215.528 60H214.44V54.16C214.44 53.76 214.424 53.008 214.376 52.496H215.416C215.448 52.896 215.48 53.472 215.48 53.792H215.512C215.928 52.928 216.856 52.32 217.912 52.32C218.184 52.32 218.408 52.336 218.632 52.4L218.488 53.424C218.36 53.376 218.008 53.328 217.72 53.328C216.568 53.328 215.528 54.16 215.528 56.16V60ZM223.364 60.192C221.044 60.192 219.38 58.512 219.38 56.256C219.38 54 221.044 52.32 223.364 52.32C225.7 52.32 227.364 54 227.364 56.256C227.364 58.512 225.7 60.192 223.364 60.192ZM223.364 59.264C225.108 59.264 226.212 57.936 226.212 56.256C226.212 54.576 225.108 53.232 223.364 53.232C221.636 53.232 220.532 54.576 220.532 56.256C220.532 57.936 221.636 59.264 223.364 59.264ZM238.17 52.32C240.074 52.32 241.018 53.552 241.018 55.408V60H239.93V55.856C239.93 54.288 239.402 53.232 237.994 53.232C236.426 53.232 235.866 54.624 235.866 56.016V60H234.778V55.632C234.778 54.176 234.426 53.232 232.97 53.232C231.93 53.232 230.794 54.16 230.794 56.16V60H229.706V54.16C229.706 53.76 229.69 53.008 229.642 52.496H230.682C230.714 52.896 230.746 53.472 230.746 53.792H230.778C231.21 52.928 232.17 52.32 233.242 52.32C234.058 52.32 235.05 52.64 235.546 53.904C236.058 52.864 236.97 52.32 238.17 52.32ZM249.927 60.096C249.127 60.096 248.007 59.744 248.007 58.096V53.408H246.455V52.496H248.007V50.4H249.095V52.496H251.207V53.408H249.095V57.792C249.095 58.912 249.559 59.168 250.215 59.168C250.519 59.168 250.871 59.072 251.159 58.928L251.207 59.872C250.823 60.016 250.423 60.096 249.927 60.096ZM254.029 60H252.941V47.904H254.029V53.744H254.061C254.461 52.88 255.517 52.32 256.573 52.32C258.477 52.32 259.421 53.552 259.421 55.408V60H258.333V55.856C258.333 54.288 257.869 53.232 256.301 53.232C255.149 53.232 254.029 54.16 254.029 56.16V60ZM262.797 50.4C262.413 50.4 262.029 50.08 262.029 49.632C262.029 49.184 262.413 48.864 262.797 48.864C263.181 48.864 263.565 49.184 263.565 49.632C263.565 50.08 263.181 50.4 262.797 50.4ZM263.341 60H262.253V52.496H263.341V60ZM268.365 60.192C267.229 60.192 266.093 59.744 265.405 58.736L266.269 58.096C266.653 58.752 267.469 59.264 268.349 59.264C269.277 59.264 270.109 58.928 270.109 57.952C270.109 57.168 269.325 56.848 267.901 56.512C267.021 56.304 265.757 55.92 265.757 54.496C265.757 52.976 267.069 52.32 268.429 52.32C269.469 52.32 270.573 52.816 271.053 53.664L270.221 54.288C269.901 53.664 269.213 53.232 268.381 53.232C267.597 53.232 266.797 53.568 266.797 54.4C266.797 55.104 267.357 55.424 268.589 55.68C270.349 56.048 271.181 56.704 271.181 57.872C271.181 59.584 269.741 60.192 268.365 60.192ZM280.802 60.192C278.386 60.192 276.802 58.512 276.802 56.256C276.802 54 278.386 52.32 280.802 52.32C281.81 52.32 282.946 52.752 283.586 53.616L282.738 54.224C282.386 53.648 281.634 53.232 280.818 53.232C279.074 53.232 277.954 54.544 277.954 56.256C277.954 57.952 279.058 59.264 280.802 59.264C281.746 59.264 282.402 58.864 282.834 58.288L283.65 58.896C283.01 59.68 282.098 60.192 280.802 60.192ZM288.786 60.192C286.466 60.192 284.802 58.512 284.802 56.256C284.802 54 286.466 52.32 288.786 52.32C291.122 52.32 292.786 54 292.786 56.256C292.786 58.512 291.122 60.192 288.786 60.192ZM288.786 59.264C290.53 59.264 291.634 57.936 291.634 56.256C291.634 54.576 290.53 53.232 288.786 53.232C287.058 53.232 285.954 54.576 285.954 56.256C285.954 57.936 287.058 59.264 288.786 59.264ZM297.911 60.192C296.008 60.192 295.064 58.96 295.064 57.104V52.496H296.152V56.656C296.152 58.224 296.616 59.28 298.184 59.28C299.336 59.28 300.456 58.352 300.456 56.352V52.496H301.544V58.352C301.544 58.752 301.56 59.488 301.608 60H300.568C300.536 59.6 300.504 59.04 300.504 58.72H300.472C300.056 59.584 298.968 60.192 297.911 60.192ZM305.512 60H304.424V54.16C304.424 53.76 304.408 53.008 304.36 52.496H305.4C305.432 52.896 305.464 53.472 305.464 53.792H305.496C305.912 52.928 307 52.32 308.056 52.32C309.96 52.32 310.904 53.552 310.904 55.408V60H309.816V55.856C309.816 54.288 309.352 53.232 307.784 53.232C306.632 53.232 305.512 54.16 305.512 56.16V60ZM315.817 60.096C315.017 60.096 313.897 59.744 313.897 58.096V53.408H312.345V52.496H313.897V50.4H314.985V52.496H317.097V53.408H314.985V57.792C314.985 58.912 315.449 59.168 316.105 59.168C316.409 59.168 316.761 59.072 317.049 58.928L317.097 59.872C316.713 60.016 316.313 60.096 315.817 60.096ZM319.887 60H318.799V54.16C318.799 53.76 318.783 53.008 318.735 52.496H319.775C319.807 52.896 319.839 53.472 319.839 53.792H319.871C320.287 52.928 321.215 52.32 322.271 52.32C322.543 52.32 322.767 52.336 322.991 52.4L322.847 53.424C322.719 53.376 322.367 53.328 322.079 53.328C320.927 53.328 319.887 54.16 319.887 56.16V60ZM324.597 63.84C324.277 63.84 323.941 63.808 323.621 63.744L323.733 62.752C323.973 62.832 324.245 62.88 324.533 62.88C325.269 62.88 325.653 62.4 325.973 61.552L326.581 59.984L323.381 52.496H324.597L327.141 58.832H327.173L329.493 52.496H330.677L326.949 61.936C326.501 63.088 325.893 63.84 324.597 63.84Z" fill="white"/>
<rect x="105" y="25" width="20" height="20" rx="2.6" fill="url(#paint0_linear_445_1134)"/>
<path d="M435.672 28.608L428.472 40.496L427.64 40.064L434.856 28.176L435.672 28.608ZM428.424 34.08C426.84 34.08 425.608 32.848 425.608 31.28C425.608 29.712 426.84 28.48 428.424 28.48C430.008 28.48 431.24 29.712 431.24 31.28C431.24 32.848 430.008 34.08 428.424 34.08ZM428.424 33.12C429.432 33.12 430.28 32.336 430.28 31.28C430.28 30.224 429.432 29.44 428.424 29.44C427.416 29.44 426.568 30.224 426.568 31.28C426.568 32.336 427.416 33.12 428.424 33.12ZM434.904 40.192C433.32 40.192 432.088 38.96 432.088 37.392C432.088 35.824 433.32 34.592 434.904 34.592C436.488 34.592 437.72 35.824 437.72 37.392C437.72 38.96 436.488 40.192 434.904 40.192ZM434.904 39.232C435.912 39.232 436.76 38.448 436.76 37.392C436.76 36.336 435.912 35.552 434.904 35.552C433.896 35.552 433.048 36.336 433.048 37.392C433.048 38.448 433.896 39.232 434.904 39.232ZM447.208 40.192C444.888 40.192 443.224 38.512 443.224 36.256C443.224 34 444.888 32.32 447.208 32.32C449.544 32.32 451.208 34 451.208 36.256C451.208 38.512 449.544 40.192 447.208 40.192ZM447.208 39.264C448.952 39.264 450.056 37.936 450.056 36.256C450.056 34.576 448.952 33.232 447.208 33.232C445.48 33.232 444.376 34.576 444.376 36.256C444.376 37.936 445.48 39.264 447.208 39.264ZM454.957 40H453.869V33.408H452.301V32.496H453.869V30.464C453.869 28.768 454.701 27.712 456.413 27.712C456.685 27.712 457.037 27.744 457.309 27.824L457.117 28.784C456.893 28.72 456.653 28.672 456.365 28.672C455.197 28.672 454.957 29.504 454.957 30.592V32.496H456.717V33.408H454.957V40ZM463.747 40H462.659V34.16C462.659 33.76 462.643 33.008 462.595 32.496H463.635C463.667 32.896 463.699 33.472 463.699 33.792H463.731C464.147 32.928 465.075 32.32 466.131 32.32C466.403 32.32 466.627 32.336 466.851 32.4L466.707 33.424C466.579 33.376 466.227 33.328 465.939 33.328C464.787 33.328 463.747 34.16 463.747 36.16V40ZM471.471 40.192C469.247 40.192 467.599 38.512 467.599 36.256C467.599 34 469.247 32.32 471.375 32.32C473.727 32.32 474.959 33.984 474.959 36.032C474.959 36.176 474.959 36.352 474.943 36.544H468.735C468.767 38.048 469.935 39.264 471.471 39.264C472.591 39.264 473.455 38.64 473.871 37.968L474.687 38.608C473.807 39.728 472.703 40.192 471.471 40.192ZM468.751 35.68H473.855C473.791 34.272 472.927 33.232 471.375 33.232C469.919 33.232 468.847 34.4 468.751 35.68ZM479.427 40.192C478.291 40.192 477.155 39.744 476.467 38.736L477.331 38.096C477.715 38.752 478.531 39.264 479.411 39.264C480.339 39.264 481.171 38.928 481.171 37.952C481.171 37.168 480.387 36.848 478.963 36.512C478.083 36.304 476.819 35.92 476.819 34.496C476.819 32.976 478.131 32.32 479.491 32.32C480.531 32.32 481.635 32.816 482.115 33.664L481.283 34.288C480.963 33.664 480.275 33.232 479.443 33.232C478.659 33.232 477.859 33.568 477.859 34.4C477.859 35.104 478.419 35.424 479.651 35.68C481.411 36.048 482.243 36.704 482.243 37.872C482.243 39.584 480.803 40.192 479.427 40.192ZM485.497 43.84H484.409V32.496H485.497V33.808H485.545C486.169 32.832 487.289 32.32 488.361 32.32C490.697 32.32 492.233 34.048 492.233 36.256C492.233 38.464 490.697 40.192 488.361 40.192C487.289 40.192 486.169 39.664 485.545 38.736H485.497V43.84ZM488.249 39.264C490.057 39.264 491.081 37.92 491.081 36.256C491.081 34.592 490.057 33.232 488.249 33.232C486.569 33.232 485.369 34.544 485.369 36.256C485.369 37.968 486.569 39.264 488.249 39.264ZM498.005 40.192C495.685 40.192 494.021 38.512 494.021 36.256C494.021 34 495.685 32.32 498.005 32.32C500.341 32.32 502.005 34 502.005 36.256C502.005 38.512 500.341 40.192 498.005 40.192ZM498.005 39.264C499.749 39.264 500.853 37.936 500.853 36.256C500.853 34.576 499.749 33.232 498.005 33.232C496.277 33.232 495.173 34.576 495.173 36.256C495.173 37.936 496.277 39.264 498.005 39.264ZM505.434 40H504.346V34.16C504.346 33.76 504.33 33.008 504.282 32.496H505.322C505.354 32.896 505.386 33.472 505.386 33.792H505.418C505.834 32.928 506.922 32.32 507.978 32.32C509.882 32.32 510.826 33.552 510.826 35.408V40H509.738V35.856C509.738 34.288 509.274 33.232 507.706 33.232C506.554 33.232 505.434 34.16 505.434 36.16V40ZM516.971 40.192C514.635 40.192 513.099 38.464 513.099 36.256C513.099 34.048 514.635 32.32 516.971 32.32C518.043 32.32 519.163 32.832 519.803 33.808H519.835V27.904H520.923V40H519.835V38.736H519.803C519.163 39.68 518.043 40.192 516.971 40.192ZM517.083 39.264C518.763 39.264 519.963 37.968 519.963 36.256C519.963 34.544 518.763 33.232 517.083 33.232C515.275 33.232 514.251 34.592 514.251 36.256C514.251 37.92 515.275 39.264 517.083 39.264ZM527.159 40.192C524.935 40.192 523.287 38.512 523.287 36.256C523.287 34 524.935 32.32 527.063 32.32C529.415 32.32 530.647 33.984 530.647 36.032C530.647 36.176 530.647 36.352 530.631 36.544H524.423C524.455 38.048 525.623 39.264 527.159 39.264C528.279 39.264 529.143 38.64 529.559 37.968L530.375 38.608C529.495 39.728 528.391 40.192 527.159 40.192ZM524.439 35.68H529.543C529.479 34.272 528.615 33.232 527.063 33.232C525.607 33.232 524.535 34.4 524.439 35.68ZM534.075 40H532.987V34.16C532.987 33.76 532.971 33.008 532.923 32.496H533.963C533.995 32.896 534.027 33.472 534.027 33.792H534.059C534.475 32.928 535.563 32.32 536.619 32.32C538.523 32.32 539.467 33.552 539.467 35.408V40H538.379V35.856C538.379 34.288 537.915 33.232 536.347 33.232C535.195 33.232 534.075 34.16 534.075 36.16V40ZM544.38 40.096C543.58 40.096 542.46 39.744 542.46 38.096V33.408H540.908V32.496H542.46V30.4H543.548V32.496H545.66V33.408H543.548V37.792C543.548 38.912 544.012 39.168 544.668 39.168C544.972 39.168 545.324 39.072 545.612 38.928L545.66 39.872C545.276 40.016 544.876 40.096 544.38 40.096ZM549.49 40.192C548.354 40.192 547.218 39.744 546.53 38.736L547.394 38.096C547.778 38.752 548.594 39.264 549.474 39.264C550.402 39.264 551.234 38.928 551.234 37.952C551.234 37.168 550.45 36.848 549.026 36.512C548.146 36.304 546.882 35.92 546.882 34.496C546.882 32.976 548.194 32.32 549.554 32.32C550.594 32.32 551.698 32.816 552.178 33.664L551.346 34.288C551.026 33.664 550.338 33.232 549.506 33.232C548.722 33.232 547.922 33.568 547.922 34.4C547.922 35.104 548.482 35.424 549.714 35.68C551.474 36.048 552.306 36.704 552.306 37.872C552.306 39.584 550.866 40.192 549.49 40.192ZM560.999 40H559.815L557.447 32.496H558.615L560.423 38.592H560.455L562.471 32.496H563.527L565.575 38.592H565.607L567.399 32.496H568.551L566.183 40H564.999L562.999 33.92H562.967L560.999 40ZM571.529 40H570.441V27.904H571.529V33.744H571.561C571.961 32.88 573.017 32.32 574.073 32.32C575.977 32.32 576.921 33.552 576.921 35.408V40H575.833V35.856C575.833 34.288 575.369 33.232 573.801 33.232C572.649 33.232 571.529 34.16 571.529 36.16V40ZM583.177 40.192C580.857 40.192 579.193 38.512 579.193 36.256C579.193 34 580.857 32.32 583.177 32.32C585.513 32.32 587.177 34 587.177 36.256C587.177 38.512 585.513 40.192 583.177 40.192ZM583.177 39.264C584.921 39.264 586.025 37.936 586.025 36.256C586.025 34.576 584.921 33.232 583.177 33.232C581.449 33.232 580.345 34.576 580.345 36.256C580.345 37.936 581.449 39.264 583.177 39.264ZM595.47 40.224C594.286 40.224 593.054 39.776 592.318 38.96L593.582 37.776C593.998 38.32 594.718 38.736 595.55 38.736C596.11 38.736 596.782 38.512 596.782 37.824C596.782 37.184 596.19 36.992 595.022 36.72C593.886 36.448 592.75 35.984 592.75 34.544C592.75 32.832 594.286 32.096 595.806 32.096C596.91 32.096 598.062 32.48 598.686 33.264L597.438 34.368C597.102 33.92 596.462 33.536 595.758 33.536C595.15 33.536 594.526 33.76 594.526 34.368C594.526 34.96 595.118 35.12 596.19 35.376C597.326 35.648 598.67 36.16 598.67 37.664C598.67 39.536 597.15 40.224 595.47 40.224ZM604.02 40.224C601.652 40.224 599.892 38.704 599.892 36.208C599.892 33.728 601.636 32.096 603.956 32.096C606.1 32.096 607.668 33.488 607.668 36.256C607.668 36.432 607.668 36.592 607.652 36.768H601.812C601.892 37.856 602.884 38.656 604.004 38.656C604.964 38.656 605.604 38.272 606.036 37.664L607.316 38.688C606.564 39.712 605.476 40.224 604.02 40.224ZM601.812 35.392H605.748C605.748 34.4 605.188 33.536 603.94 33.536C602.804 33.536 601.892 34.32 601.812 35.392ZM611.447 40H609.527V33.936V32.256H611.351V33.488H611.383C611.719 32.72 612.631 32.032 613.767 32.032C615.767 32.032 616.599 33.568 616.599 35.136V40H614.679V35.68C614.679 34.768 614.471 33.632 613.239 33.632C612.023 33.632 611.447 34.688 611.447 35.712V40ZM622.152 40.224C619.816 40.224 618.376 38.368 618.376 36.128C618.376 33.856 619.912 32.096 622.104 32.096C623.512 32.096 624.28 32.8 624.68 33.296H624.728V27.904H626.648V40H624.824V38.848H624.792C624.264 39.728 623.224 40.224 622.152 40.224ZM622.536 38.624C623.944 38.624 624.792 37.36 624.792 36.16C624.792 34.96 623.944 33.664 622.536 33.664C621.048 33.664 620.328 34.928 620.328 36.128C620.328 37.328 621.048 38.624 622.536 38.624ZM427.528 63.84H426.44V52.496H427.528V53.808H427.576C428.2 52.832 429.32 52.32 430.392 52.32C432.728 52.32 434.264 54.048 434.264 56.256C434.264 58.464 432.728 60.192 430.392 60.192C429.32 60.192 428.2 59.664 427.576 58.736H427.528V63.84ZM430.28 59.264C432.088 59.264 433.112 57.92 433.112 56.256C433.112 54.592 432.088 53.232 430.28 53.232C428.6 53.232 427.4 54.544 427.4 56.256C427.4 57.968 428.6 59.264 430.28 59.264ZM438.628 60.192C437.492 60.192 436.036 59.584 436.036 57.92C436.036 55.632 438.532 55.408 441.252 55.408H441.316V55.168C441.316 53.872 440.612 53.232 439.316 53.232C438.436 53.232 437.62 53.584 437.092 54.112L436.484 53.392C437.092 52.784 438.148 52.32 439.428 52.32C441.044 52.32 442.34 53.216 442.34 55.04V58.32C442.34 58.896 442.388 59.584 442.468 60H441.492C441.428 59.632 441.38 59.184 441.38 58.784H441.348C440.66 59.776 439.828 60.192 438.628 60.192ZM438.916 59.296C440.452 59.296 441.316 58.144 441.316 56.816V56.256H440.996C439.22 56.256 437.156 56.448 437.156 57.872C437.156 58.944 438.068 59.296 438.916 59.296ZM445.175 63.84C444.855 63.84 444.519 63.808 444.199 63.744L444.311 62.752C444.551 62.832 444.823 62.88 445.111 62.88C445.847 62.88 446.231 62.4 446.551 61.552L447.159 59.984L443.959 52.496H445.175L447.719 58.832H447.751L450.071 52.496H451.255L447.527 61.936C447.079 63.088 446.471 63.84 445.175 63.84ZM461.42 52.32C463.324 52.32 464.268 53.552 464.268 55.408V60H463.18V55.856C463.18 54.288 462.652 53.232 461.244 53.232C459.676 53.232 459.116 54.624 459.116 56.016V60H458.028V55.632C458.028 54.176 457.676 53.232 456.22 53.232C455.18 53.232 454.044 54.16 454.044 56.16V60H452.956V54.16C452.956 53.76 452.94 53.008 452.892 52.496H453.932C453.964 52.896 453.996 53.472 453.996 53.792H454.028C454.46 52.928 455.42 52.32 456.492 52.32C457.308 52.32 458.3 52.64 458.796 53.904C459.308 52.864 460.22 52.32 461.42 52.32ZM470.409 60.192C468.185 60.192 466.537 58.512 466.537 56.256C466.537 54 468.185 52.32 470.313 52.32C472.665 52.32 473.897 53.984 473.897 56.032C473.897 56.176 473.897 56.352 473.881 56.544H467.673C467.705 58.048 468.873 59.264 470.409 59.264C471.529 59.264 472.393 58.64 472.809 57.968L473.625 58.608C472.745 59.728 471.641 60.192 470.409 60.192ZM467.689 55.68H472.793C472.729 54.272 471.865 53.232 470.313 53.232C468.857 53.232 467.785 54.4 467.689 55.68ZM477.325 60H476.237V54.16C476.237 53.76 476.221 53.008 476.173 52.496H477.213C477.245 52.896 477.277 53.472 477.277 53.792H477.309C477.725 52.928 478.813 52.32 479.869 52.32C481.773 52.32 482.717 53.552 482.717 55.408V60H481.629V55.856C481.629 54.288 481.165 53.232 479.597 53.232C478.445 53.232 477.325 54.16 477.325 56.16V60ZM487.63 60.096C486.83 60.096 485.71 59.744 485.71 58.096V53.408H484.158V52.496H485.71V50.4H486.798V52.496H488.91V53.408H486.798V57.792C486.798 58.912 487.262 59.168 487.918 59.168C488.222 59.168 488.574 59.072 488.862 58.928L488.91 59.872C488.526 60.016 488.126 60.096 487.63 60.096ZM492.74 60.192C491.604 60.192 490.468 59.744 489.78 58.736L490.644 58.096C491.028 58.752 491.844 59.264 492.724 59.264C493.652 59.264 494.484 58.928 494.484 57.952C494.484 57.168 493.7 56.848 492.276 56.512C491.396 56.304 490.132 55.92 490.132 54.496C490.132 52.976 491.444 52.32 492.804 52.32C493.844 52.32 494.948 52.816 495.428 53.664L494.596 54.288C494.276 53.664 493.588 53.232 492.756 53.232C491.972 53.232 491.172 53.568 491.172 54.4C491.172 55.104 491.732 55.424 492.964 55.68C494.724 56.048 495.556 56.704 495.556 57.872C495.556 59.584 494.116 60.192 492.74 60.192ZM503.817 60.096C503.017 60.096 501.897 59.744 501.897 58.096V53.408H500.345V52.496H501.897V50.4H502.985V52.496H505.097V53.408H502.985V57.792C502.985 58.912 503.449 59.168 504.105 59.168C504.409 59.168 504.761 59.072 505.049 58.928L505.097 59.872C504.713 60.016 504.313 60.096 503.817 60.096ZM510.239 60.192C507.919 60.192 506.255 58.512 506.255 56.256C506.255 54 507.919 52.32 510.239 52.32C512.575 52.32 514.239 54 514.239 56.256C514.239 58.512 512.575 60.192 510.239 60.192ZM510.239 59.264C511.983 59.264 513.087 57.936 513.087 56.256C513.087 54.576 511.983 53.232 510.239 53.232C508.511 53.232 507.407 54.576 507.407 56.256C507.407 57.936 508.511 59.264 510.239 59.264ZM522.677 60.096C521.877 60.096 520.757 59.744 520.757 58.096V53.408H519.205V52.496H520.757V50.4H521.845V52.496H523.957V53.408H521.845V57.792C521.845 58.912 522.309 59.168 522.965 59.168C523.269 59.168 523.621 59.072 523.909 58.928L523.957 59.872C523.573 60.016 523.173 60.096 522.677 60.096ZM526.779 60H525.691V47.904H526.779V53.744H526.811C527.211 52.88 528.267 52.32 529.323 52.32C531.227 52.32 532.171 53.552 532.171 55.408V60H531.083V55.856C531.083 54.288 530.619 53.232 529.051 53.232C527.899 53.232 526.779 54.16 526.779 56.16V60ZM535.547 50.4C535.163 50.4 534.779 50.08 534.779 49.632C534.779 49.184 535.163 48.864 535.547 48.864C535.931 48.864 536.315 49.184 536.315 49.632C536.315 50.08 535.931 50.4 535.547 50.4ZM536.091 60H535.003V52.496H536.091V60ZM541.115 60.192C539.979 60.192 538.843 59.744 538.155 58.736L539.019 58.096C539.403 58.752 540.219 59.264 541.099 59.264C542.027 59.264 542.859 58.928 542.859 57.952C542.859 57.168 542.075 56.848 540.651 56.512C539.771 56.304 538.507 55.92 538.507 54.496C538.507 52.976 539.819 52.32 541.179 52.32C542.219 52.32 543.323 52.816 543.803 53.664L542.971 54.288C542.651 53.664 541.963 53.232 541.131 53.232C540.347 53.232 539.547 53.568 539.547 54.4C539.547 55.104 540.107 55.424 541.339 55.68C543.099 56.048 543.931 56.704 543.931 57.872C543.931 59.584 542.491 60.192 541.115 60.192ZM553.552 60.192C551.136 60.192 549.552 58.512 549.552 56.256C549.552 54 551.136 52.32 553.552 52.32C554.56 52.32 555.696 52.752 556.336 53.616L555.488 54.224C555.136 53.648 554.384 53.232 553.568 53.232C551.824 53.232 550.704 54.544 550.704 56.256C550.704 57.952 551.808 59.264 553.552 59.264C554.496 59.264 555.152 58.864 555.584 58.288L556.4 58.896C555.76 59.68 554.848 60.192 553.552 60.192ZM561.536 60.192C559.216 60.192 557.552 58.512 557.552 56.256C557.552 54 559.216 52.32 561.536 52.32C563.872 52.32 565.536 54 565.536 56.256C565.536 58.512 563.872 60.192 561.536 60.192ZM561.536 59.264C563.28 59.264 564.384 57.936 564.384 56.256C564.384 54.576 563.28 53.232 561.536 53.232C559.808 53.232 558.704 54.576 558.704 56.256C558.704 57.936 559.808 59.264 561.536 59.264ZM570.661 60.192C568.758 60.192 567.814 58.96 567.814 57.104V52.496H568.902V56.656C568.902 58.224 569.366 59.28 570.934 59.28C572.086 59.28 573.206 58.352 573.206 56.352V52.496H574.294V58.352C574.294 58.752 574.31 59.488 574.358 60H573.318C573.286 59.6 573.254 59.04 573.254 58.72H573.222C572.806 59.584 571.718 60.192 570.661 60.192ZM578.262 60H577.174V54.16C577.174 53.76 577.158 53.008 577.11 52.496H578.15C578.182 52.896 578.214 53.472 578.214 53.792H578.246C578.662 52.928 579.75 52.32 580.806 52.32C582.71 52.32 583.654 53.552 583.654 55.408V60H582.566V55.856C582.566 54.288 582.102 53.232 580.534 53.232C579.382 53.232 578.262 54.16 578.262 56.16V60ZM588.567 60.096C587.767 60.096 586.647 59.744 586.647 58.096V53.408H585.095V52.496H586.647V50.4H587.735V52.496H589.847V53.408H587.735V57.792C587.735 58.912 588.199 59.168 588.855 59.168C589.159 59.168 589.511 59.072 589.799 58.928L589.847 59.872C589.463 60.016 589.063 60.096 588.567 60.096ZM592.637 60H591.549V54.16C591.549 53.76 591.533 53.008 591.485 52.496H592.525C592.557 52.896 592.589 53.472 592.589 53.792H592.621C593.037 52.928 593.965 52.32 595.021 52.32C595.293 52.32 595.517 52.336 595.741 52.4L595.597 53.424C595.469 53.376 595.117 53.328 594.829 53.328C593.677 53.328 592.637 54.16 592.637 56.16V60ZM597.347 63.84C597.027 63.84 596.691 63.808 596.371 63.744L596.483 62.752C596.723 62.832 596.995 62.88 597.283 62.88C598.019 62.88 598.403 62.4 598.723 61.552L599.331 59.984L596.131 52.496H597.347L599.891 58.832H599.923L602.243 52.496H603.427L599.699 61.936C599.251 63.088 598.643 63.84 597.347 63.84Z" fill="white"/>
<rect x="394" y="25" width="20" height="20" rx="2.6" fill="url(#paint1_linear_445_1134)"/>
<path d="M78.6117 123.36C74.3717 123.36 73.3117 120.08 73.3117 117.72V108.84H74.7517V117.56C74.7517 119.84 75.7317 122.08 78.6117 122.08C81.4917 122.08 82.4717 119.84 82.4717 117.56V108.84H83.9117V117.72C83.9117 120.08 82.8517 123.36 78.6117 123.36ZM91.1709 123.36C89.4509 123.36 87.7309 122.66 86.7109 121.26L87.9509 120.34C88.5709 121.34 89.7109 122.12 91.1909 122.12C92.6509 122.12 94.3309 121.2 94.3309 119.38C94.3309 117.4 92.6709 116.9 90.8709 116.34C88.9909 115.76 87.0709 114.94 87.0709 112.38C87.0709 109.64 89.5109 108.48 91.5909 108.48C93.4909 108.48 94.9109 109.28 95.5909 110.2L94.4509 111.12C93.8509 110.26 92.8709 109.7 91.5309 109.7C90.1309 109.7 88.5109 110.54 88.5109 112.36C88.5109 114.16 90.0109 114.62 91.5909 115.14C93.5909 115.8 95.7909 116.44 95.7909 119.28C95.7909 122.12 93.4109 123.36 91.1709 123.36Z" fill="white"/>
<rect x="107" y="96" width="430" height="16" rx="2.6" fill="url(#paint2_linear_445_1134)"/>
<rect x="107" y="119" width="490" height="16" rx="2.6" fill="url(#paint3_linear_445_1134)"/>
<path d="M550.12 96.76H552.28L549.22 106.96H551.24V102.9H553.28V106.96H554.26V108.88H553.28V111H551.24V108.88H547.18V106.96L550.12 96.76ZM561.201 100.68C561.201 102.5 561.161 102.94 559.941 103.64C560.981 104.24 561.201 104.84 561.201 106.06V107.34C561.201 107.96 561.161 108.92 560.881 109.46C560.461 110.26 559.641 111.12 558.141 111.12C556.401 111.12 555.121 109.9 555.121 108.18V106.92H557.161V107.98C557.161 108.62 557.541 109.08 558.161 109.08C558.801 109.08 559.161 108.6 559.161 107.98V105.82C559.161 105.16 559.081 104.56 557.781 104.56H557.541V102.76H557.741C558.761 102.76 559.161 102.5 559.161 101.56V99.76C559.161 98.94 558.641 98.68 558.161 98.68C557.441 98.68 557.161 99.26 557.161 99.7V100.84H555.121V99.66C555.121 97.96 556.541 96.64 558.201 96.64C558.761 96.64 559.481 96.82 559.921 97.18C560.861 97.92 561.201 98.58 561.201 100.68ZM565.463 98.24V99.62C565.463 100.44 564.823 101.1 563.763 101.1C562.703 101.1 562.063 100.44 562.063 99.62V98.22C562.063 97.32 562.703 96.64 563.763 96.64C564.823 96.64 565.463 97.3 565.463 98.24ZM567.183 96.76H568.503L563.623 111H562.303L567.183 96.76ZM564.263 99.38V98.4C564.263 97.96 563.923 97.84 563.763 97.84C563.503 97.84 563.263 98.06 563.263 98.38V99.34C563.263 99.8 563.643 99.9 563.763 99.9C564.023 99.9 564.263 99.68 564.263 99.38ZM568.743 108.26V109.64C568.743 110.46 568.103 111.12 567.043 111.12C565.983 111.12 565.343 110.46 565.343 109.64V108.24C565.343 107.34 565.983 106.66 567.043 106.66C568.103 106.66 568.743 107.32 568.743 108.26ZM567.543 109.4V108.44C567.543 108.18 567.383 107.86 567.043 107.86C566.783 107.86 566.543 108.08 566.543 108.4V109.34C566.543 109.8 566.863 109.92 567.043 109.92C567.303 109.92 567.543 109.7 567.543 109.4Z" fill="white"/>
<path d="M609.12 120.76H611.28L608.22 130.96H610.24V126.9H612.28V130.96H613.26V132.88H612.28V135H610.24V132.88H606.18V130.96L609.12 120.76ZM619.061 121.28C620.201 122.26 620.201 123.22 620.201 125.28C620.201 126.78 620.081 127.14 619.821 127.84L617.141 135H614.861L617.181 129.02L617.141 128.98C617.001 129.08 616.721 129.16 616.301 129.16C615.581 129.16 614.901 128.78 614.541 128.2C614.161 127.6 614.141 126.64 614.141 126.46C614.141 125.98 614.121 125.5 614.121 124.78C614.121 123.86 614.121 123.08 614.341 122.5C614.641 121.68 615.521 120.64 617.161 120.64C617.781 120.64 618.561 120.84 619.061 121.28ZM618.161 126.38V123.7C618.161 123.26 617.861 122.68 617.161 122.68C616.461 122.68 616.161 123.28 616.161 123.7V126.28C616.161 127.08 616.721 127.36 617.161 127.36C617.721 127.36 618.161 126.92 618.161 126.38ZM624.463 122.24V123.62C624.463 124.44 623.823 125.1 622.763 125.1C621.703 125.1 621.063 124.44 621.063 123.62V122.22C621.063 121.32 621.703 120.64 622.763 120.64C623.823 120.64 624.463 121.3 624.463 122.24ZM626.183 120.76H627.503L622.623 135H621.303L626.183 120.76ZM623.263 123.38V122.4C623.263 121.96 622.923 121.84 622.763 121.84C622.503 121.84 622.263 122.06 622.263 122.38V123.34C622.263 123.8 622.643 123.9 622.763 123.9C623.023 123.9 623.263 123.68 623.263 123.38ZM627.743 132.26V133.64C627.743 134.46 627.103 135.12 626.043 135.12C624.983 135.12 624.343 134.46 624.343 133.64V132.24C624.343 131.34 624.983 130.66 626.043 130.66C627.103 130.66 627.743 131.32 627.743 132.26ZM626.543 133.4V132.44C626.543 132.18 626.383 131.86 626.043 131.86C625.783 131.86 625.543 132.08 625.543 132.4V133.34C625.543 133.8 625.863 133.92 626.043 133.92C626.303 133.92 626.543 133.7 626.543 133.4Z" fill="white"/>
<path d="M47.5 194.36C43.22 194.36 40.12 191.22 40.12 186.92C40.12 182.62 43.28 179.48 47.5 179.48C49.58 179.48 51.56 180.34 52.54 181.72L51.34 182.6C50.74 181.68 49.32 180.74 47.52 180.74C43.86 180.74 41.64 183.62 41.64 186.92C41.64 190.22 43.88 193.1 47.52 193.1C49.14 193.1 50.7 192.46 51.68 191L52.8 191.72C51.86 193.14 50.04 194.36 47.5 194.36ZM56.5945 194H55.2345V178.88H56.5945V186.18H56.6345C57.1345 185.1 58.4545 184.4 59.7745 184.4C62.1545 184.4 63.3345 185.94 63.3345 188.26V194H61.9745V188.82C61.9745 186.86 61.3945 185.54 59.4345 185.54C57.9945 185.54 56.5945 186.7 56.5945 189.2V194ZM67.5547 182C67.0747 182 66.5947 181.6 66.5947 181.04C66.5947 180.48 67.0747 180.08 67.5547 180.08C68.0347 180.08 68.5147 180.48 68.5147 181.04C68.5147 181.6 68.0347 182 67.5547 182ZM68.2347 194H66.8747V184.62H68.2347V194ZM73.2147 194H71.8547V186.7C71.8547 186.2 71.8347 185.26 71.7747 184.62H73.0747C73.1147 185.12 73.1547 185.84 73.1547 186.24H73.1947C73.7147 185.16 75.0747 184.4 76.3947 184.4C78.7747 184.4 79.9547 185.94 79.9547 188.26V194H78.5947V188.82C78.5947 186.86 78.0147 185.54 76.0547 185.54C74.6147 185.54 73.2147 186.7 73.2147 189.2V194ZM86.0158 194.24C84.5958 194.24 82.7758 193.48 82.7758 191.4C82.7758 188.54 85.8958 188.26 89.2958 188.26H89.3758V187.96C89.3758 186.34 88.4958 185.54 86.8758 185.54C85.7758 185.54 84.7558 185.98 84.0958 186.64L83.3358 185.74C84.0958 184.98 85.4158 184.4 87.0158 184.4C89.0358 184.4 90.6558 185.52 90.6558 187.8V191.9C90.6558 192.62 90.7158 193.48 90.8158 194H89.5958C89.5158 193.54 89.4558 192.98 89.4558 192.48H89.4158C88.5558 193.72 87.5158 194.24 86.0158 194.24ZM86.3758 193.12C88.2958 193.12 89.3758 191.68 89.3758 190.02V189.32H88.9758C86.7558 189.32 84.1758 189.56 84.1758 191.34C84.1758 192.68 85.3158 193.12 86.3758 193.12Z" fill="white"/>
<rect x="107" y="167" width="360" height="16" rx="2.6" fill="url(#paint4_linear_445_1134)"/>
<rect x="107" y="190" width="360" height="16" rx="2.6" fill="url(#paint5_linear_445_1134)"/>
<path d="M486.76 171.68C486.76 173.5 486.72 173.94 485.5 174.64C486.54 175.24 486.76 175.84 486.76 177.06V178.34C486.76 178.96 486.72 179.92 486.44 180.46C486.02 181.26 485.2 182.12 483.7 182.12C481.96 182.12 480.68 180.9 480.68 179.18V177.92H482.72V178.98C482.72 179.62 483.1 180.08 483.72 180.08C484.36 180.08 484.72 179.6 484.72 178.98V176.82C484.72 176.16 484.64 175.56 483.34 175.56H483.1V173.76H483.3C484.32 173.76 484.72 173.5 484.72 172.56V170.76C484.72 169.94 484.2 169.68 483.72 169.68C483 169.68 482.72 170.26 482.72 170.7V171.84H480.68V170.66C480.68 168.96 482.1 167.64 483.76 167.64C484.32 167.64 485.04 167.82 485.48 168.18C486.42 168.92 486.76 169.58 486.76 171.68ZM491.181 167.76H493.461L491.141 173.74L491.181 173.78C491.321 173.68 491.581 173.6 492.041 173.6C492.901 173.6 493.721 174.16 494.001 175.02C494.141 175.42 494.201 176.36 494.201 177.82C494.201 178.74 494.201 179.44 494.061 179.98C493.721 181.26 492.621 182.12 491.161 182.12C489.941 182.12 488.801 181.42 488.361 180.28C488.201 179.86 488.121 179.46 488.121 177.84C488.121 176.94 488.141 176.34 488.201 176.02C488.281 175.58 488.361 175.28 488.581 174.7L491.181 167.76ZM492.161 179.1V176.48C492.161 175.7 491.621 175.4 491.161 175.4C490.601 175.4 490.161 175.84 490.161 176.38V179.02C490.161 179.94 490.941 180.08 491.161 180.08C491.721 180.08 492.161 179.64 492.161 179.1ZM498.463 169.24V170.62C498.463 171.44 497.823 172.1 496.763 172.1C495.703 172.1 495.063 171.44 495.063 170.62V169.22C495.063 168.32 495.703 167.64 496.763 167.64C497.823 167.64 498.463 168.3 498.463 169.24ZM500.183 167.76H501.503L496.623 182H495.303L500.183 167.76ZM497.263 170.38V169.4C497.263 168.96 496.923 168.84 496.763 168.84C496.503 168.84 496.263 169.06 496.263 169.38V170.34C496.263 170.8 496.643 170.9 496.763 170.9C497.023 170.9 497.263 170.68 497.263 170.38ZM501.743 179.26V180.64C501.743 181.46 501.103 182.12 500.043 182.12C498.983 182.12 498.343 181.46 498.343 180.64V179.24C498.343 178.34 498.983 177.66 500.043 177.66C501.103 177.66 501.743 178.32 501.743 179.26ZM500.543 180.4V179.44C500.543 179.18 500.383 178.86 500.043 178.86C499.783 178.86 499.543 179.08 499.543 179.4V180.34C499.543 180.8 499.863 180.92 500.043 180.92C500.303 180.92 500.543 180.7 500.543 180.4Z" fill="white"/>
<path d="M486.76 195.68C486.76 197.5 486.72 197.94 485.5 198.64C486.54 199.24 486.76 199.84 486.76 201.06V202.34C486.76 202.96 486.72 203.92 486.44 204.46C486.02 205.26 485.2 206.12 483.7 206.12C481.96 206.12 480.68 204.9 480.68 203.18V201.92H482.72V202.98C482.72 203.62 483.1 204.08 483.72 204.08C484.36 204.08 484.72 203.6 484.72 202.98V200.82C484.72 200.16 484.64 199.56 483.34 199.56H483.1V197.76H483.3C484.32 197.76 484.72 197.5 484.72 196.56V194.76C484.72 193.94 484.2 193.68 483.72 193.68C483 193.68 482.72 194.26 482.72 194.7V195.84H480.68V194.66C480.68 192.96 482.1 191.64 483.76 191.64C484.32 191.64 485.04 191.82 485.48 192.18C486.42 192.92 486.76 193.58 486.76 195.68ZM491.181 191.76H493.461L491.141 197.74L491.181 197.78C491.321 197.68 491.581 197.6 492.041 197.6C492.901 197.6 493.721 198.16 494.001 199.02C494.141 199.42 494.201 200.36 494.201 201.82C494.201 202.74 494.201 203.44 494.061 203.98C493.721 205.26 492.621 206.12 491.161 206.12C489.941 206.12 488.801 205.42 488.361 204.28C488.201 203.86 488.121 203.46 488.121 201.84C488.121 200.94 488.141 200.34 488.201 200.02C488.281 199.58 488.361 199.28 488.581 198.7L491.181 191.76ZM492.161 203.1V200.48C492.161 199.7 491.621 199.4 491.161 199.4C490.601 199.4 490.161 199.84 490.161 200.38V203.02C490.161 203.94 490.941 204.08 491.161 204.08C491.721 204.08 492.161 203.64 492.161 203.1ZM498.463 193.24V194.62C498.463 195.44 497.823 196.1 496.763 196.1C495.703 196.1 495.063 195.44 495.063 194.62V193.22C495.063 192.32 495.703 191.64 496.763 191.64C497.823 191.64 498.463 192.3 498.463 193.24ZM500.183 191.76H501.503L496.623 206H495.303L500.183 191.76ZM497.263 194.38V193.4C497.263 192.96 496.923 192.84 496.763 192.84C496.503 192.84 496.263 193.06 496.263 193.38V194.34C496.263 194.8 496.643 194.9 496.763 194.9C497.023 194.9 497.263 194.68 497.263 194.38ZM501.743 203.26V204.64C501.743 205.46 501.103 206.12 500.043 206.12C498.983 206.12 498.343 205.46 498.343 204.64V203.24C498.343 202.34 498.983 201.66 500.043 201.66C501.103 201.66 501.743 202.32 501.743 203.26ZM500.543 204.4V203.44C500.543 203.18 500.383 202.86 500.043 202.86C499.783 202.86 499.543 203.08 499.543 203.4V204.34C499.543 204.8 499.863 204.92 500.043 204.92C500.303 204.92 500.543 204.7 500.543 204.4Z" fill="white"/>
<path d="M77.3422 265.36C73.1022 265.36 72.0422 262.08 72.0422 259.72V250.84H73.4822V259.56C73.4822 261.84 74.4622 264.08 77.3422 264.08C80.2222 264.08 81.2022 261.84 81.2022 259.56V250.84H82.6422V259.72C82.6422 262.08 81.5822 265.36 77.3422 265.36ZM87.7614 265H86.3214V250.84H87.7614V257.2H87.7814L94.5214 250.84H96.5814L89.4414 257.26L96.9814 265H94.8614L87.7814 257.46H87.7614V265Z" fill="white"/>
<rect x="107" y="238" width="290" height="16" rx="2.6" fill="url(#paint6_linear_445_1134)"/>
<rect x="107" y="261" width="330" height="16" rx="2.6" fill="url(#paint7_linear_445_1134)"/>
<path d="M411.76 242.26C411.76 244.14 411.6 244.16 410.54 246.22L408.08 250.96H411.76V253H405.68V251.08L409.38 244.1C409.64 243.62 409.72 243.22 409.72 242.32C409.72 241.48 409.68 240.68 408.72 240.68C408.1 240.68 407.72 241.04 407.72 241.7V242.86H405.68V242.02C405.68 241.36 405.72 241.14 405.84 240.74C406.16 239.76 407.2 238.64 408.74 238.64C410.66 238.64 411.76 240.02 411.76 242.26ZM418.061 239.28C419.201 240.26 419.201 241.22 419.201 243.28C419.201 244.78 419.081 245.14 418.821 245.84L416.141 253H413.861L416.181 247.02L416.141 246.98C416.001 247.08 415.721 247.16 415.301 247.16C414.581 247.16 413.901 246.78 413.541 246.2C413.161 245.6 413.141 244.64 413.141 244.46C413.141 243.98 413.121 243.5 413.121 242.78C413.121 241.86 413.121 241.08 413.341 240.5C413.641 239.68 414.521 238.64 416.161 238.64C416.781 238.64 417.561 238.84 418.061 239.28ZM417.161 244.38V241.7C417.161 241.26 416.861 240.68 416.161 240.68C415.461 240.68 415.161 241.28 415.161 241.7V244.28C415.161 245.08 415.721 245.36 416.161 245.36C416.721 245.36 417.161 244.92 417.161 244.38ZM423.463 240.24V241.62C423.463 242.44 422.823 243.1 421.763 243.1C420.703 243.1 420.063 242.44 420.063 241.62V240.22C420.063 239.32 420.703 238.64 421.763 238.64C422.823 238.64 423.463 239.3 423.463 240.24ZM425.183 238.76H426.503L421.623 253H420.303L425.183 238.76ZM422.263 241.38V240.4C422.263 239.96 421.923 239.84 421.763 239.84C421.503 239.84 421.263 240.06 421.263 240.38V241.34C421.263 241.8 421.643 241.9 421.763 241.9C422.023 241.9 422.263 241.68 422.263 241.38ZM426.743 250.26V251.64C426.743 252.46 426.103 253.12 425.043 253.12C423.983 253.12 423.343 252.46 423.343 251.64V250.24C423.343 249.34 423.983 248.66 425.043 248.66C426.103 248.66 426.743 249.32 426.743 250.26ZM425.543 251.4V250.44C425.543 250.18 425.383 249.86 425.043 249.86C424.783 249.86 424.543 250.08 424.543 250.4V251.34C424.543 251.8 424.863 251.92 425.043 251.92C425.303 251.92 425.543 251.7 425.543 251.4Z" fill="white"/>
<path d="M452.76 266.68C452.76 268.5 452.72 268.94 451.5 269.64C452.54 270.24 452.76 270.84 452.76 272.06V273.34C452.76 273.96 452.72 274.92 452.44 275.46C452.02 276.26 451.2 277.12 449.7 277.12C447.96 277.12 446.68 275.9 446.68 274.18V272.92H448.72V273.98C448.72 274.62 449.1 275.08 449.72 275.08C450.36 275.08 450.72 274.6 450.72 273.98V271.82C450.72 271.16 450.64 270.56 449.34 270.56H449.1V268.76H449.3C450.32 268.76 450.72 268.5 450.72 267.56V265.76C450.72 264.94 450.2 264.68 449.72 264.68C449 264.68 448.72 265.26 448.72 265.7V266.84H446.68V265.66C446.68 263.96 448.1 262.64 449.76 262.64C450.32 262.64 451.04 262.82 451.48 263.18C452.42 263.92 452.76 264.58 452.76 266.68ZM460.201 266.68C460.201 268.5 460.161 268.94 458.941 269.64C459.981 270.24 460.201 270.84 460.201 272.06V273.34C460.201 273.96 460.161 274.92 459.881 275.46C459.461 276.26 458.641 277.12 457.141 277.12C455.401 277.12 454.121 275.9 454.121 274.18V272.92H456.161V273.98C456.161 274.62 456.541 275.08 457.161 275.08C457.801 275.08 458.161 274.6 458.161 273.98V271.82C458.161 271.16 458.081 270.56 456.781 270.56H456.541V268.76H456.741C457.761 268.76 458.161 268.5 458.161 267.56V265.76C458.161 264.94 457.641 264.68 457.161 264.68C456.441 264.68 456.161 265.26 456.161 265.7V266.84H454.121V265.66C454.121 263.96 455.541 262.64 457.201 262.64C457.761 262.64 458.481 262.82 458.921 263.18C459.861 263.92 460.201 264.58 460.201 266.68ZM464.463 264.24V265.62C464.463 266.44 463.823 267.1 462.763 267.1C461.703 267.1 461.063 266.44 461.063 265.62V264.22C461.063 263.32 461.703 262.64 462.763 262.64C463.823 262.64 464.463 263.3 464.463 264.24ZM466.183 262.76H467.503L462.623 277H461.303L466.183 262.76ZM463.263 265.38V264.4C463.263 263.96 462.923 263.84 462.763 263.84C462.503 263.84 462.263 264.06 462.263 264.38V265.34C462.263 265.8 462.643 265.9 462.763 265.9C463.023 265.9 463.263 265.68 463.263 265.38ZM467.743 274.26V275.64C467.743 276.46 467.103 277.12 466.043 277.12C464.983 277.12 464.343 276.46 464.343 275.64V274.24C464.343 273.34 464.983 272.66 466.043 272.66C467.103 272.66 467.743 273.32 467.743 274.26ZM466.543 275.4V274.44C466.543 274.18 466.383 273.86 466.043 273.86C465.783 273.86 465.543 274.08 465.543 274.4V275.34C465.543 275.8 465.863 275.92 466.043 275.92C466.303 275.92 466.543 275.7 466.543 275.4Z" fill="white"/>
<path d="M33.5 336.36C29.22 336.36 26.12 333.22 26.12 328.92C26.12 324.62 29.28 321.48 33.5 321.48C35.58 321.48 37.56 322.34 38.54 323.72L37.34 324.6C36.74 323.68 35.32 322.74 33.52 322.74C29.86 322.74 27.64 325.62 27.64 328.92C27.64 332.22 29.88 335.1 33.52 335.1C35.14 335.1 36.7 334.46 37.68 333L38.8 333.72C37.86 335.14 36.04 336.36 33.5 336.36ZM43.383 336.24C41.963 336.24 40.143 335.48 40.143 333.4C40.143 330.54 43.263 330.26 46.663 330.26H46.743V329.96C46.743 328.34 45.863 327.54 44.243 327.54C43.143 327.54 42.123 327.98 41.463 328.64L40.703 327.74C41.463 326.98 42.783 326.4 44.383 326.4C46.403 326.4 48.023 327.52 48.023 329.8V333.9C48.023 334.62 48.083 335.48 48.183 336H46.963C46.883 335.54 46.823 334.98 46.823 334.48H46.783C45.923 335.72 44.883 336.24 43.383 336.24ZM43.743 335.12C45.663 335.12 46.743 333.68 46.743 332.02V331.32H46.343C44.123 331.32 41.543 331.56 41.543 333.34C41.543 334.68 42.683 335.12 43.743 335.12ZM52.8866 336H51.5266V328.7C51.5266 328.2 51.5066 327.26 51.4466 326.62H52.7466C52.7866 327.12 52.8266 327.84 52.8266 328.24H52.8666C53.3866 327.16 54.7466 326.4 56.0666 326.4C58.4466 326.4 59.6266 327.94 59.6266 330.26V336H58.2666V330.82C58.2666 328.86 57.6866 327.54 55.7266 327.54C54.2866 327.54 52.8866 328.7 52.8866 331.2V336ZM65.6877 336.24C64.2677 336.24 62.4477 335.48 62.4477 333.4C62.4477 330.54 65.5677 330.26 68.9677 330.26H69.0477V329.96C69.0477 328.34 68.1677 327.54 66.5477 327.54C65.4477 327.54 64.4277 327.98 63.7677 328.64L63.0077 327.74C63.7677 326.98 65.0877 326.4 66.6877 326.4C68.7077 326.4 70.3277 327.52 70.3277 329.8V333.9C70.3277 334.62 70.3877 335.48 70.4877 336H69.2677C69.1877 335.54 69.1277 334.98 69.1277 334.48H69.0877C68.2277 335.72 67.1877 336.24 65.6877 336.24ZM66.0477 335.12C67.9677 335.12 69.0477 333.68 69.0477 332.02V331.32H68.6477C66.4277 331.32 63.8477 331.56 63.8477 333.34C63.8477 334.68 64.9877 335.12 66.0477 335.12ZM77.9913 336.24C75.0713 336.24 73.1513 334.08 73.1513 331.32C73.1513 328.56 75.0713 326.4 77.9913 326.4C79.3313 326.4 80.7313 327.04 81.5313 328.26H81.5713V320.88H82.9313V336H81.5713V334.42H81.5313C80.7313 335.6 79.3313 336.24 77.9913 336.24ZM78.1313 335.08C80.2313 335.08 81.7313 333.46 81.7313 331.32C81.7313 329.18 80.2313 327.54 78.1313 327.54C75.8713 327.54 74.5913 329.24 74.5913 331.32C74.5913 333.4 75.8713 335.08 78.1313 335.08ZM89.1056 336.24C87.6856 336.24 85.8656 335.48 85.8656 333.4C85.8656 330.54 88.9856 330.26 92.3856 330.26H92.4656V329.96C92.4656 328.34 91.5856 327.54 89.9656 327.54C88.8656 327.54 87.8456 327.98 87.1856 328.64L86.4256 327.74C87.1856 326.98 88.5056 326.4 90.1056 326.4C92.1256 326.4 93.7456 327.52 93.7456 329.8V333.9C93.7456 334.62 93.8056 335.48 93.9056 336H92.6856C92.6056 335.54 92.5456 334.98 92.5456 334.48H92.5056C91.6456 335.72 90.6056 336.24 89.1056 336.24ZM89.4656 335.12C91.3856 335.12 92.4656 333.68 92.4656 332.02V331.32H92.0656C89.8456 331.32 87.2656 331.56 87.2656 333.34C87.2656 334.68 88.4056 335.12 89.4656 335.12Z" fill="white"/>
<rect x="107" y="309" width="250" height="16" rx="2.6" fill="url(#paint8_linear_445_1134)"/>
<rect x="107" y="332" width="290" height="16" rx="2.6" fill="url(#paint9_linear_445_1134)"/>
<path d="M372.76 313.26C372.76 315.14 372.6 315.16 371.54 317.22L369.08 321.96H372.76V324H366.68V322.08L370.38 315.1C370.64 314.62 370.72 314.22 370.72 313.32C370.72 312.48 370.68 311.68 369.72 311.68C369.1 311.68 368.72 312.04 368.72 312.7V313.86H366.68V313.02C366.68 312.36 366.72 312.14 366.84 311.74C367.16 310.76 368.2 309.64 369.74 309.64C371.66 309.64 372.76 311.02 372.76 313.26ZM374.361 309.76H380.201V311.68H376.161V315.52C376.541 315.16 377.141 314.86 377.861 314.86C379.301 314.86 380.201 315.82 380.201 317.34V321.12C380.201 322.84 378.881 324.12 377.161 324.12C375.421 324.12 374.121 322.84 374.121 321.04V320.46H376.161V321C376.161 321.78 376.701 322.08 377.201 322.08C377.841 322.08 378.161 321.64 378.161 321.06V317.64C378.161 317.16 377.761 316.66 377.201 316.66C376.721 316.66 376.401 316.9 376.161 317.44H374.361V309.76ZM384.463 311.24V312.62C384.463 313.44 383.823 314.1 382.763 314.1C381.703 314.1 381.063 313.44 381.063 312.62V311.22C381.063 310.32 381.703 309.64 382.763 309.64C383.823 309.64 384.463 310.3 384.463 311.24ZM386.183 309.76H387.503L382.623 324H381.303L386.183 309.76ZM383.263 312.38V311.4C383.263 310.96 382.923 310.84 382.763 310.84C382.503 310.84 382.263 311.06 382.263 311.38V312.34C382.263 312.8 382.643 312.9 382.763 312.9C383.023 312.9 383.263 312.68 383.263 312.38ZM387.743 321.26V322.64C387.743 323.46 387.103 324.12 386.043 324.12C384.983 324.12 384.343 323.46 384.343 322.64V321.24C384.343 320.34 384.983 319.66 386.043 319.66C387.103 319.66 387.743 320.32 387.743 321.26ZM386.543 322.4V321.44C386.543 321.18 386.383 320.86 386.043 320.86C385.783 320.86 385.543 321.08 385.543 321.4V322.34C385.543 322.8 385.863 322.92 386.043 322.92C386.303 322.92 386.543 322.7 386.543 322.4Z" fill="white"/>
<path d="M414.76 337.26C414.76 339.14 414.6 339.16 413.54 341.22L411.08 345.96H414.76V348H408.68V346.08L412.38 339.1C412.64 338.62 412.72 338.22 412.72 337.32C412.72 336.48 412.68 335.68 411.72 335.68C411.1 335.68 410.72 336.04 410.72 336.7V337.86H408.68V337.02C408.68 336.36 408.72 336.14 408.84 335.74C409.16 334.76 410.2 333.64 411.74 333.64C413.66 333.64 414.76 335.02 414.76 337.26ZM421.061 334.28C422.201 335.26 422.201 336.22 422.201 338.28C422.201 339.78 422.081 340.14 421.821 340.84L419.141 348H416.861L419.181 342.02L419.141 341.98C419.001 342.08 418.721 342.16 418.301 342.16C417.581 342.16 416.901 341.78 416.541 341.2C416.161 340.6 416.141 339.64 416.141 339.46C416.141 338.98 416.121 338.5 416.121 337.78C416.121 336.86 416.121 336.08 416.341 335.5C416.641 334.68 417.521 333.64 419.161 333.64C419.781 333.64 420.561 333.84 421.061 334.28ZM420.161 339.38V336.7C420.161 336.26 419.861 335.68 419.161 335.68C418.461 335.68 418.161 336.28 418.161 336.7V339.28C418.161 340.08 418.721 340.36 419.161 340.36C419.721 340.36 420.161 339.92 420.161 339.38ZM426.463 335.24V336.62C426.463 337.44 425.823 338.1 424.763 338.1C423.703 338.1 423.063 337.44 423.063 336.62V335.22C423.063 334.32 423.703 333.64 424.763 333.64C425.823 333.64 426.463 334.3 426.463 335.24ZM428.183 333.76H429.503L424.623 348H423.303L428.183 333.76ZM425.263 336.38V335.4C425.263 334.96 424.923 334.84 424.763 334.84C424.503 334.84 424.263 335.06 424.263 335.38V336.34C424.263 336.8 424.643 336.9 424.763 336.9C425.023 336.9 425.263 336.68 425.263 336.38ZM429.743 345.26V346.64C429.743 347.46 429.103 348.12 428.043 348.12C426.983 348.12 426.343 347.46 426.343 346.64V345.24C426.343 344.34 426.983 343.66 428.043 343.66C429.103 343.66 429.743 344.32 429.743 345.26ZM428.543 346.4V345.44C428.543 345.18 428.383 344.86 428.043 344.86C427.783 344.86 427.543 345.08 427.543 345.4V346.34C427.543 346.8 427.863 346.92 428.043 346.92C428.303 346.92 428.543 346.7 428.543 346.4Z" fill="white"/>
<path d="M23.32 392.84H24.72L30.8 407H29.2L27.64 403.28H20.32L18.78 407H17.2L23.32 392.84ZM23.98 394.42L20.86 401.96H27.1L23.98 394.42ZM36.2839 407.24C33.9039 407.24 32.7239 405.7 32.7239 403.38V397.62H34.0839V402.82C34.0839 404.78 34.6639 406.1 36.6239 406.1C38.0639 406.1 39.4639 404.94 39.4639 402.44V397.62H40.8239V404.94C40.8239 405.44 40.8439 406.36 40.9039 407H39.6039C39.5639 406.5 39.5239 405.8 39.5239 405.4H39.4839C38.9639 406.48 37.6039 407.24 36.2839 407.24ZM47.085 407.24C45.665 407.24 44.245 406.68 43.385 405.42L44.465 404.62C44.945 405.44 45.965 406.08 47.065 406.08C48.225 406.08 49.265 405.66 49.265 404.44C49.265 403.46 48.285 403.06 46.505 402.64C45.405 402.38 43.825 401.9 43.825 400.12C43.825 398.22 45.465 397.4 47.165 397.4C48.465 397.4 49.845 398.02 50.445 399.08L49.405 399.86C49.005 399.08 48.145 398.54 47.105 398.54C46.125 398.54 45.125 398.96 45.125 400C45.125 400.88 45.825 401.28 47.365 401.6C49.565 402.06 50.605 402.88 50.605 404.34C50.605 406.48 48.805 407.24 47.085 407.24ZM55.9317 407.12C54.9317 407.12 53.5317 406.68 53.5317 404.62V398.76H51.5917V397.62H53.5317V395H54.8917V397.62H57.5317V398.76H54.8917V404.24C54.8917 405.64 55.4717 405.96 56.2917 405.96C56.6717 405.96 57.1117 405.84 57.4717 405.66L57.5317 406.84C57.0517 407.02 56.5517 407.12 55.9317 407.12ZM61.0194 407H59.6594V399.7C59.6594 399.2 59.6394 398.26 59.5794 397.62H60.8794C60.9194 398.12 60.9594 398.84 60.9594 399.24H60.9994C61.5194 398.16 62.6794 397.4 63.9994 397.4C64.3394 397.4 64.6194 397.42 64.8994 397.5L64.7194 398.78C64.5594 398.72 64.1194 398.66 63.7594 398.66C62.3194 398.66 61.0194 399.7 61.0194 402.2V407ZM69.1525 407.24C67.7325 407.24 65.9125 406.48 65.9125 404.4C65.9125 401.54 69.0325 401.26 72.4325 401.26H72.5125V400.96C72.5125 399.34 71.6325 398.54 70.0125 398.54C68.9125 398.54 67.8925 398.98 67.2325 399.64L66.4725 398.74C67.2325 397.98 68.5525 397.4 70.1525 397.4C72.1725 397.4 73.7925 398.52 73.7925 400.8V404.9C73.7925 405.62 73.8525 406.48 73.9525 407H72.7325C72.6525 406.54 72.5925 405.98 72.5925 405.48H72.5525C71.6925 406.72 70.6525 407.24 69.1525 407.24ZM69.5125 406.12C71.4325 406.12 72.5125 404.68 72.5125 403.02V402.32H72.1125C69.8925 402.32 67.3125 402.56 67.3125 404.34C67.3125 405.68 68.4525 406.12 69.5125 406.12ZM78.6961 407H77.3361V391.88H78.6961V407ZM83.0352 395C82.5552 395 82.0752 394.6 82.0752 394.04C82.0752 393.48 82.5552 393.08 83.0352 393.08C83.5152 393.08 83.9952 393.48 83.9952 394.04C83.9952 394.6 83.5152 395 83.0352 395ZM83.7152 407H82.3552V397.62H83.7152V407ZM89.8752 407.24C88.4552 407.24 86.6352 406.48 86.6352 404.4C86.6352 401.54 89.7552 401.26 93.1552 401.26H93.2352V400.96C93.2352 399.34 92.3552 398.54 90.7352 398.54C89.6352 398.54 88.6152 398.98 87.9552 399.64L87.1952 398.74C87.9552 397.98 89.2752 397.4 90.8752 397.4C92.8952 397.4 94.5152 398.52 94.5152 400.8V404.9C94.5152 405.62 94.5752 406.48 94.6752 407H93.4552C93.3752 406.54 93.3152 405.98 93.3152 405.48H93.2752C92.4152 406.72 91.3752 407.24 89.8752 407.24ZM90.2352 406.12C92.1552 406.12 93.2352 404.68 93.2352 403.02V402.32H92.8352C90.6152 402.32 88.0352 402.56 88.0352 404.34C88.0352 405.68 89.1752 406.12 90.2352 406.12Z" fill="white"/>
<rect x="107" y="380" width="200" height="16" rx="2.6" fill="url(#paint10_linear_445_1134)"/>
<rect x="107" y="403" width="210" height="16" rx="2.6" fill="url(#paint11_linear_445_1134)"/>
<path d="M321.76 384.26C321.76 386.14 321.6 386.16 320.54 388.22L318.08 392.96H321.76V395H315.68V393.08L319.38 386.1C319.64 385.62 319.72 385.22 319.72 384.32C319.72 383.48 319.68 382.68 318.72 382.68C318.1 382.68 317.72 383.04 317.72 383.7V384.86H315.68V384.02C315.68 383.36 315.72 383.14 315.84 382.74C316.16 381.76 317.2 380.64 318.74 380.64C320.66 380.64 321.76 382.02 321.76 384.26ZM329.201 383.64V392.12C329.201 393.76 327.961 395.12 326.161 395.12C324.421 395.12 323.121 393.82 323.121 392.12V383.64C323.121 381.98 324.381 380.64 326.161 380.64C327.941 380.64 329.201 381.98 329.201 383.64ZM325.161 383.68V392.1C325.161 392.6 325.561 393.08 326.161 393.08C326.761 393.08 327.161 392.6 327.161 392.1V383.66C327.161 383.16 326.781 382.68 326.161 382.68C325.601 382.68 325.161 383.12 325.161 383.68ZM333.463 382.24V383.62C333.463 384.44 332.823 385.1 331.763 385.1C330.703 385.1 330.063 384.44 330.063 383.62V382.22C330.063 381.32 330.703 380.64 331.763 380.64C332.823 380.64 333.463 381.3 333.463 382.24ZM335.183 380.76H336.503L331.623 395H330.303L335.183 380.76ZM332.263 383.38V382.4C332.263 381.96 331.923 381.84 331.763 381.84C331.503 381.84 331.263 382.06 331.263 382.38V383.34C331.263 383.8 331.643 383.9 331.763 383.9C332.023 383.9 332.263 383.68 332.263 383.38ZM336.743 392.26V393.64C336.743 394.46 336.103 395.12 335.043 395.12C333.983 395.12 333.343 394.46 333.343 393.64V392.24C333.343 391.34 333.983 390.66 335.043 390.66C336.103 390.66 336.743 391.32 336.743 392.26ZM335.543 393.4V392.44C335.543 392.18 335.383 391.86 335.043 391.86C334.783 391.86 334.543 392.08 334.543 392.4V393.34C334.543 393.8 334.863 393.92 335.043 393.92C335.303 393.92 335.543 393.7 335.543 393.4Z" fill="white"/>
<path d="M333.76 408.26C333.76 410.14 333.6 410.16 332.54 412.22L330.08 416.96H333.76V419H327.68V417.08L331.38 410.1C331.64 409.62 331.72 409.22 331.72 408.32C331.72 407.48 331.68 406.68 330.72 406.68C330.1 406.68 329.72 407.04 329.72 407.7V408.86H327.68V408.02C327.68 407.36 327.72 407.14 327.84 406.74C328.16 405.76 329.2 404.64 330.74 404.64C332.66 404.64 333.76 406.02 333.76 408.26ZM337.541 404.76H339.581V419H337.541V406.92L335.501 408.42V406.26L337.541 404.76ZM345.463 406.24V407.62C345.463 408.44 344.823 409.1 343.763 409.1C342.703 409.1 342.063 408.44 342.063 407.62V406.22C342.063 405.32 342.703 404.64 343.763 404.64C344.823 404.64 345.463 405.3 345.463 406.24ZM347.183 404.76H348.503L343.623 419H342.303L347.183 404.76ZM344.263 407.38V406.4C344.263 405.96 343.923 405.84 343.763 405.84C343.503 405.84 343.263 406.06 343.263 406.38V407.34C343.263 407.8 343.643 407.9 343.763 407.9C344.023 407.9 344.263 407.68 344.263 407.38ZM348.743 416.26V417.64C348.743 418.46 348.103 419.12 347.043 419.12C345.983 419.12 345.343 418.46 345.343 417.64V416.24C345.343 415.34 345.983 414.66 347.043 414.66C348.103 414.66 348.743 415.32 348.743 416.26ZM347.543 417.4V416.44C347.543 416.18 347.383 415.86 347.043 415.86C346.783 415.86 346.543 416.08 346.543 416.4V417.34C346.543 417.8 346.863 417.92 347.043 417.92C347.303 417.92 347.543 417.7 347.543 417.4Z" fill="white"/>
<path d="M64.3148 478.36C60.0748 478.36 59.0148 475.08 59.0148 472.72V463.84H60.4548V472.56C60.4548 474.84 61.4348 477.08 64.3148 477.08C67.1948 477.08 68.1748 474.84 68.1748 472.56V463.84H69.6148V472.72C69.6148 475.08 68.5548 478.36 64.3148 478.36ZM77.4802 463.84H78.8802L84.9602 478H83.3602L81.8002 474.28H74.4802L72.9402 478H71.3602L77.4802 463.84ZM78.1402 465.42L75.0202 472.96H81.2602L78.1402 465.42ZM96.0641 478H87.0441V463.84H95.8241V465.12H88.4841V470H95.3441V471.26H88.4841V476.72H96.0641V478Z" fill="white"/>
<rect x="107" y="451" width="130" height="16" rx="2.6" fill="url(#paint12_linear_445_1134)"/>
<rect x="107" y="474" width="130" height="16" rx="2.6" fill="url(#paint13_linear_445_1134)"/>
<path d="M246.1 451.76H248.14V466H246.1V453.92L244.06 455.42V453.26L246.1 451.76ZM257.201 455.68C257.201 457.5 257.161 457.94 255.941 458.64C256.981 459.24 257.201 459.84 257.201 461.06V462.34C257.201 462.96 257.161 463.92 256.881 464.46C256.461 465.26 255.641 466.12 254.141 466.12C252.401 466.12 251.121 464.9 251.121 463.18V461.92H253.161V462.98C253.161 463.62 253.541 464.08 254.161 464.08C254.801 464.08 255.161 463.6 255.161 462.98V460.82C255.161 460.16 255.081 459.56 253.781 459.56H253.541V457.76H253.741C254.761 457.76 255.161 457.5 255.161 456.56V454.76C255.161 453.94 254.641 453.68 254.161 453.68C253.441 453.68 253.161 454.26 253.161 454.7V455.84H251.121V454.66C251.121 452.96 252.541 451.64 254.201 451.64C254.761 451.64 255.481 451.82 255.921 452.18C256.861 452.92 257.201 453.58 257.201 455.68ZM261.463 453.24V454.62C261.463 455.44 260.823 456.1 259.763 456.1C258.703 456.1 258.063 455.44 258.063 454.62V453.22C258.063 452.32 258.703 451.64 259.763 451.64C260.823 451.64 261.463 452.3 261.463 453.24ZM263.183 451.76H264.503L259.623 466H258.303L263.183 451.76ZM260.263 454.38V453.4C260.263 452.96 259.923 452.84 259.763 452.84C259.503 452.84 259.263 453.06 259.263 453.38V454.34C259.263 454.8 259.643 454.9 259.763 454.9C260.023 454.9 260.263 454.68 260.263 454.38ZM264.743 463.26V464.64C264.743 465.46 264.103 466.12 263.043 466.12C261.983 466.12 261.343 465.46 261.343 464.64V463.24C261.343 462.34 261.983 461.66 263.043 461.66C264.103 461.66 264.743 462.32 264.743 463.26ZM263.543 464.4V463.44C263.543 463.18 263.383 462.86 263.043 462.86C262.783 462.86 262.543 463.08 262.543 463.4V464.34C262.543 464.8 262.863 464.92 263.043 464.92C263.303 464.92 263.543 464.7 263.543 464.4Z" fill="white"/>
<path d="M246.1 475.76H248.14V490H246.1V477.92L244.06 479.42V477.26L246.1 475.76ZM257.201 479.68C257.201 481.5 257.161 481.94 255.941 482.64C256.981 483.24 257.201 483.84 257.201 485.06V486.34C257.201 486.96 257.161 487.92 256.881 488.46C256.461 489.26 255.641 490.12 254.141 490.12C252.401 490.12 251.121 488.9 251.121 487.18V485.92H253.161V486.98C253.161 487.62 253.541 488.08 254.161 488.08C254.801 488.08 255.161 487.6 255.161 486.98V484.82C255.161 484.16 255.081 483.56 253.781 483.56H253.541V481.76H253.741C254.761 481.76 255.161 481.5 255.161 480.56V478.76C255.161 477.94 254.641 477.68 254.161 477.68C253.441 477.68 253.161 478.26 253.161 478.7V479.84H251.121V478.66C251.121 476.96 252.541 475.64 254.201 475.64C254.761 475.64 255.481 475.82 255.921 476.18C256.861 476.92 257.201 477.58 257.201 479.68ZM261.463 477.24V478.62C261.463 479.44 260.823 480.1 259.763 480.1C258.703 480.1 258.063 479.44 258.063 478.62V477.22C258.063 476.32 258.703 475.64 259.763 475.64C260.823 475.64 261.463 476.3 261.463 477.24ZM263.183 475.76H264.503L259.623 490H258.303L263.183 475.76ZM260.263 478.38V477.4C260.263 476.96 259.923 476.84 259.763 476.84C259.503 476.84 259.263 477.06 259.263 477.38V478.34C259.263 478.8 259.643 478.9 259.763 478.9C260.023 478.9 260.263 478.68 260.263 478.38ZM264.743 487.26V488.64C264.743 489.46 264.103 490.12 263.043 490.12C261.983 490.12 261.343 489.46 261.343 488.64V487.24C261.343 486.34 261.983 485.66 263.043 485.66C264.103 485.66 264.743 486.32 264.743 487.26ZM263.543 488.4V487.44C263.543 487.18 263.383 486.86 263.043 486.86C262.783 486.86 262.543 487.08 262.543 487.4V488.34C262.543 488.8 262.863 488.92 263.043 488.92C263.303 488.92 263.543 488.7 263.543 488.4Z" fill="white"/>
<path d="M180.542 541.288C177.118 541.288 174.638 538.776 174.638 535.336C174.638 531.896 177.166 529.384 180.542 529.384C182.206 529.384 183.79 530.072 184.574 531.176L183.614 531.88C183.134 531.144 181.998 530.392 180.558 530.392C177.63 530.392 175.854 532.696 175.854 535.336C175.854 537.976 177.646 540.28 180.558 540.28C181.854 540.28 183.102 539.768 183.886 538.6L184.782 539.176C184.03 540.312 182.574 541.288 180.542 541.288ZM189.95 541.192C187.63 541.192 185.966 539.512 185.966 537.256C185.966 535 187.63 533.32 189.95 533.32C192.286 533.32 193.95 535 193.95 537.256C193.95 539.512 192.286 541.192 189.95 541.192ZM189.95 540.264C191.694 540.264 192.798 538.936 192.798 537.256C192.798 535.576 191.694 534.232 189.95 534.232C188.222 534.232 187.118 535.576 187.118 537.256C187.118 538.936 188.222 540.264 189.95 540.264ZM199.076 541.192C197.172 541.192 196.228 539.96 196.228 538.104V533.496H197.316V537.656C197.316 539.224 197.78 540.28 199.348 540.28C200.5 540.28 201.62 539.352 201.62 537.352V533.496H202.708V539.352C202.708 539.752 202.724 540.488 202.772 541H201.732C201.7 540.6 201.668 540.04 201.668 539.72H201.636C201.22 540.584 200.132 541.192 199.076 541.192ZM206.676 541H205.588V535.16C205.588 534.76 205.572 534.008 205.524 533.496H206.564C206.596 533.896 206.628 534.472 206.628 534.792H206.66C207.076 533.928 208.164 533.32 209.22 533.32C211.124 533.32 212.068 534.552 212.068 536.408V541H210.98V536.856C210.98 535.288 210.516 534.232 208.948 534.232C207.796 534.232 206.676 535.16 206.676 537.16V541ZM216.981 541.096C216.181 541.096 215.061 540.744 215.061 539.096V534.408H213.509V533.496H215.061V531.4H216.149V533.496H218.261V534.408H216.149V538.792C216.149 539.912 216.613 540.168 217.269 540.168C217.573 540.168 217.925 540.072 218.213 539.928L218.261 540.872C217.877 541.016 217.477 541.096 216.981 541.096ZM221.051 541H219.963V535.16C219.963 534.76 219.947 534.008 219.899 533.496H220.939C220.971 533.896 221.003 534.472 221.003 534.792H221.035C221.451 533.928 222.379 533.32 223.435 533.32C223.707 533.32 223.931 533.336 224.155 533.4L224.011 534.424C223.883 534.376 223.531 534.328 223.243 534.328C222.091 534.328 221.051 535.16 221.051 537.16V541ZM226.289 531.4C225.905 531.4 225.521 531.08 225.521 530.632C225.521 530.184 225.905 529.864 226.289 529.864C226.673 529.864 227.057 530.184 227.057 530.632C227.057 531.08 226.673 531.4 226.289 531.4ZM226.833 541H225.745V533.496H226.833V541ZM233.057 541.192C230.833 541.192 229.185 539.512 229.185 537.256C229.185 535 230.833 533.32 232.961 533.32C235.313 533.32 236.545 534.984 236.545 537.032C236.545 537.176 236.545 537.352 236.529 537.544H230.321C230.353 539.048 231.521 540.264 233.057 540.264C234.177 540.264 235.041 539.64 235.457 538.968L236.273 539.608C235.393 540.728 234.289 541.192 233.057 541.192ZM230.337 536.68H235.441C235.377 535.272 234.513 534.232 232.961 534.232C231.505 534.232 230.433 535.4 230.337 536.68ZM241.013 541.192C239.877 541.192 238.741 540.744 238.053 539.736L238.917 539.096C239.301 539.752 240.117 540.264 240.997 540.264C241.925 540.264 242.757 539.928 242.757 538.952C242.757 538.168 241.973 537.848 240.549 537.512C239.669 537.304 238.405 536.92 238.405 535.496C238.405 533.976 239.717 533.32 241.077 533.32C242.117 533.32 243.221 533.816 243.701 534.664L242.869 535.288C242.549 534.664 241.861 534.232 241.029 534.232C240.245 534.232 239.445 534.568 239.445 535.4C239.445 536.104 240.005 536.424 241.237 536.68C242.997 537.048 243.829 537.704 243.829 538.872C243.829 540.584 242.389 541.192 241.013 541.192ZM252.523 541H251.339L248.971 533.496H250.139L251.947 539.592H251.979L253.995 533.496H255.051L257.099 539.592H257.131L258.923 533.496H260.075L257.707 541H256.523L254.523 534.92H254.491L252.523 541ZM262.492 531.4C262.108 531.4 261.724 531.08 261.724 530.632C261.724 530.184 262.108 529.864 262.492 529.864C262.876 529.864 263.26 530.184 263.26 530.632C263.26 531.08 262.876 531.4 262.492 531.4ZM263.036 541H261.948V533.496H263.036V541ZM268.028 541.096C267.228 541.096 266.108 540.744 266.108 539.096V534.408H264.556V533.496H266.108V531.4H267.196V533.496H269.308V534.408H267.196V538.792C267.196 539.912 267.66 540.168 268.316 540.168C268.62 540.168 268.972 540.072 269.26 539.928L269.308 540.872C268.924 541.016 268.524 541.096 268.028 541.096ZM272.13 541H271.042V528.904H272.13V534.744H272.162C272.562 533.88 273.618 533.32 274.674 533.32C276.578 533.32 277.522 534.552 277.522 536.408V541H276.434V536.856C276.434 535.288 275.97 534.232 274.402 534.232C273.25 534.232 272.13 535.16 272.13 537.16V541ZM286.434 541.096C285.634 541.096 284.514 540.744 284.514 539.096V534.408H282.962V533.496H284.514V531.4H285.602V533.496H287.714V534.408H285.602V538.792C285.602 539.912 286.066 540.168 286.722 540.168C287.026 540.168 287.378 540.072 287.666 539.928L287.714 540.872C287.33 541.016 286.93 541.096 286.434 541.096ZM290.537 541H289.449V528.904H290.537V534.744H290.569C290.969 533.88 292.025 533.32 293.081 533.32C294.985 533.32 295.929 534.552 295.929 536.408V541H294.841V536.856C294.841 535.288 294.377 534.232 292.809 534.232C291.657 534.232 290.537 535.16 290.537 537.16V541ZM302.073 541.192C299.849 541.192 298.201 539.512 298.201 537.256C298.201 535 299.849 533.32 301.977 533.32C304.329 533.32 305.561 534.984 305.561 537.032C305.561 537.176 305.561 537.352 305.545 537.544H299.337C299.369 539.048 300.537 540.264 302.073 540.264C303.193 540.264 304.057 539.64 304.473 538.968L305.289 539.608C304.409 540.728 303.305 541.192 302.073 541.192ZM299.353 536.68H304.457C304.393 535.272 303.529 534.232 301.977 534.232C300.521 534.232 299.449 535.4 299.353 536.68ZM320.365 533.32C322.269 533.32 323.213 534.552 323.213 536.408V541H322.125V536.856C322.125 535.288 321.597 534.232 320.189 534.232C318.621 534.232 318.061 535.624 318.061 537.016V541H316.973V536.632C316.973 535.176 316.621 534.232 315.165 534.232C314.125 534.232 312.989 535.16 312.989 537.16V541H311.901V535.16C311.901 534.76 311.885 534.008 311.837 533.496H312.877C312.909 533.896 312.941 534.472 312.941 534.792H312.973C313.405 533.928 314.365 533.32 315.437 533.32C316.253 533.32 317.245 533.64 317.741 534.904C318.253 533.864 319.165 533.32 320.365 533.32ZM329.466 541.192C327.146 541.192 325.482 539.512 325.482 537.256C325.482 535 327.146 533.32 329.466 533.32C331.802 533.32 333.466 535 333.466 537.256C333.466 539.512 331.802 541.192 329.466 541.192ZM329.466 540.264C331.21 540.264 332.314 538.936 332.314 537.256C332.314 535.576 331.21 534.232 329.466 534.232C327.738 534.232 326.634 535.576 326.634 537.256C326.634 538.936 327.738 540.264 329.466 540.264ZM337.935 541.192C336.799 541.192 335.663 540.744 334.975 539.736L335.839 539.096C336.223 539.752 337.039 540.264 337.919 540.264C338.847 540.264 339.679 539.928 339.679 538.952C339.679 538.168 338.895 537.848 337.471 537.512C336.591 537.304 335.327 536.92 335.327 535.496C335.327 533.976 336.639 533.32 337.999 533.32C339.039 533.32 340.143 533.816 340.623 534.664L339.791 535.288C339.471 534.664 338.783 534.232 337.951 534.232C337.167 534.232 336.367 534.568 336.367 535.4C336.367 536.104 336.927 536.424 338.159 536.68C339.919 537.048 340.751 537.704 340.751 538.872C340.751 540.584 339.311 541.192 337.935 541.192ZM345.013 541.096C344.213 541.096 343.093 540.744 343.093 539.096V534.408H341.541V533.496H343.093V531.4H344.181V533.496H346.293V534.408H344.181V538.792C344.181 539.912 344.645 540.168 345.301 540.168C345.605 540.168 345.957 540.072 346.245 539.928L346.293 540.872C345.909 541.016 345.509 541.096 345.013 541.096ZM355.451 541.192C353.035 541.192 351.451 539.512 351.451 537.256C351.451 535 353.035 533.32 355.451 533.32C356.459 533.32 357.595 533.752 358.235 534.616L357.387 535.224C357.035 534.648 356.283 534.232 355.467 534.232C353.723 534.232 352.603 535.544 352.603 537.256C352.603 538.952 353.707 540.264 355.451 540.264C356.395 540.264 357.051 539.864 357.483 539.288L358.299 539.896C357.659 540.68 356.747 541.192 355.451 541.192ZM361.083 541H359.995V535.16C359.995 534.76 359.979 534.008 359.931 533.496H360.971C361.003 533.896 361.035 534.472 361.035 534.792H361.067C361.483 533.928 362.411 533.32 363.467 533.32C363.739 533.32 363.963 533.336 364.187 533.4L364.043 534.424C363.915 534.376 363.563 534.328 363.275 534.328C362.123 534.328 361.083 535.16 361.083 537.16V541ZM368.919 541.192C366.599 541.192 364.935 539.512 364.935 537.256C364.935 535 366.599 533.32 368.919 533.32C371.255 533.32 372.919 535 372.919 537.256C372.919 539.512 371.255 541.192 368.919 541.192ZM368.919 540.264C370.663 540.264 371.767 538.936 371.767 537.256C371.767 535.576 370.663 534.232 368.919 534.232C367.191 534.232 366.087 535.576 366.087 537.256C366.087 538.936 367.191 540.264 368.919 540.264ZM377.388 541.192C376.252 541.192 375.116 540.744 374.428 539.736L375.292 539.096C375.676 539.752 376.492 540.264 377.372 540.264C378.3 540.264 379.132 539.928 379.132 538.952C379.132 538.168 378.348 537.848 376.924 537.512C376.044 537.304 374.78 536.92 374.78 535.496C374.78 533.976 376.092 533.32 377.452 533.32C378.492 533.32 379.596 533.816 380.076 534.664L379.244 535.288C378.924 534.664 378.236 534.232 377.404 534.232C376.62 534.232 375.82 534.568 375.82 535.4C375.82 536.104 376.38 536.424 377.612 536.68C379.372 537.048 380.204 537.704 380.204 538.872C380.204 540.584 378.764 541.192 377.388 541.192ZM384.498 541.192C383.362 541.192 382.226 540.744 381.538 539.736L382.402 539.096C382.786 539.752 383.602 540.264 384.482 540.264C385.41 540.264 386.242 539.928 386.242 538.952C386.242 538.168 385.458 537.848 384.034 537.512C383.154 537.304 381.89 536.92 381.89 535.496C381.89 533.976 383.202 533.32 384.562 533.32C385.602 533.32 386.706 533.816 387.186 534.664L386.354 535.288C386.034 534.664 385.346 534.232 384.514 534.232C383.73 534.232 382.93 534.568 382.93 535.4C382.93 536.104 383.49 536.424 384.722 536.68C386.482 537.048 387.314 537.704 387.314 538.872C387.314 540.584 385.874 541.192 384.498 541.192ZM392.391 537.576H388.807V536.664H392.391V537.576ZM398.588 541.192C397.516 541.192 396.396 540.68 395.756 539.736H395.724V541H394.636V528.904H395.724V534.808H395.756C396.396 533.832 397.516 533.32 398.588 533.32C400.924 533.32 402.46 535.048 402.46 537.256C402.46 539.464 400.924 541.192 398.588 541.192ZM398.476 540.264C400.284 540.264 401.308 538.92 401.308 537.256C401.308 535.592 400.284 534.232 398.476 534.232C396.796 534.232 395.596 535.544 395.596 537.256C395.596 538.968 396.796 540.264 398.476 540.264ZM408.232 541.192C405.912 541.192 404.248 539.512 404.248 537.256C404.248 535 405.912 533.32 408.232 533.32C410.568 533.32 412.232 535 412.232 537.256C412.232 539.512 410.568 541.192 408.232 541.192ZM408.232 540.264C409.976 540.264 411.08 538.936 411.08 537.256C411.08 535.576 409.976 534.232 408.232 534.232C406.504 534.232 405.4 535.576 405.4 537.256C405.4 538.936 406.504 540.264 408.232 540.264ZM415.661 541H414.573V535.16C414.573 534.76 414.557 534.008 414.509 533.496H415.549C415.581 533.896 415.613 534.472 415.613 534.792H415.645C416.061 533.928 416.989 533.32 418.045 533.32C418.317 533.32 418.541 533.336 418.765 533.4L418.621 534.424C418.493 534.376 418.141 534.328 417.853 534.328C416.701 534.328 415.661 535.16 415.661 537.16V541ZM423.385 541.192C421.049 541.192 419.513 539.464 419.513 537.256C419.513 535.048 421.049 533.32 423.385 533.32C424.457 533.32 425.577 533.832 426.217 534.808H426.249V528.904H427.337V541H426.249V539.736H426.217C425.577 540.68 424.457 541.192 423.385 541.192ZM423.497 540.264C425.177 540.264 426.377 538.968 426.377 537.256C426.377 535.544 425.177 534.232 423.497 534.232C421.689 534.232 420.665 535.592 420.665 537.256C420.665 538.92 421.689 540.264 423.497 540.264ZM433.573 541.192C431.349 541.192 429.701 539.512 429.701 537.256C429.701 535 431.349 533.32 433.477 533.32C435.829 533.32 437.061 534.984 437.061 537.032C437.061 537.176 437.061 537.352 437.045 537.544H430.837C430.869 539.048 432.037 540.264 433.573 540.264C434.693 540.264 435.557 539.64 435.973 538.968L436.789 539.608C435.909 540.728 434.805 541.192 433.573 541.192ZM430.853 536.68H435.957C435.893 535.272 435.029 534.232 433.477 534.232C432.021 534.232 430.949 535.4 430.853 536.68ZM440.489 541H439.401V535.16C439.401 534.76 439.385 534.008 439.337 533.496H440.377C440.409 533.896 440.441 534.472 440.441 534.792H440.473C440.889 533.928 441.817 533.32 442.873 533.32C443.145 533.32 443.369 533.336 443.593 533.4L443.449 534.424C443.321 534.376 442.969 534.328 442.681 534.328C441.529 534.328 440.489 535.16 440.489 537.16V541ZM451.263 541.096C450.463 541.096 449.343 540.744 449.343 539.096V534.408H447.791V533.496H449.343V531.4H450.431V533.496H452.543V534.408H450.431V538.792C450.431 539.912 450.895 540.168 451.551 540.168C451.855 540.168 452.207 540.072 452.495 539.928L452.543 540.872C452.159 541.016 451.759 541.096 451.263 541.096ZM455.333 541H454.245V535.16C454.245 534.76 454.229 534.008 454.181 533.496H455.221C455.253 533.896 455.285 534.472 455.285 534.792H455.317C455.733 533.928 456.661 533.32 457.717 533.32C457.989 533.32 458.213 533.336 458.437 533.4L458.293 534.424C458.165 534.376 457.813 534.328 457.525 534.328C456.373 534.328 455.333 535.16 455.333 537.16V541ZM461.839 541.192C460.703 541.192 459.247 540.584 459.247 538.92C459.247 536.632 461.743 536.408 464.463 536.408H464.527V536.168C464.527 534.872 463.823 534.232 462.527 534.232C461.647 534.232 460.831 534.584 460.303 535.112L459.695 534.392C460.303 533.784 461.359 533.32 462.639 533.32C464.255 533.32 465.551 534.216 465.551 536.04V539.32C465.551 539.896 465.599 540.584 465.679 541H464.703C464.639 540.632 464.591 540.184 464.591 539.784H464.559C463.871 540.776 463.039 541.192 461.839 541.192ZM462.127 540.296C463.663 540.296 464.527 539.144 464.527 537.816V537.256H464.207C462.431 537.256 460.367 537.448 460.367 538.872C460.367 539.944 461.279 540.296 462.127 540.296ZM471.682 541.192C469.346 541.192 467.81 539.464 467.81 537.256C467.81 535.048 469.346 533.32 471.682 533.32C472.754 533.32 473.874 533.832 474.514 534.808H474.546V528.904H475.634V541H474.546V539.736H474.514C473.874 540.68 472.754 541.192 471.682 541.192ZM471.794 540.264C473.474 540.264 474.674 538.968 474.674 537.256C474.674 535.544 473.474 534.232 471.794 534.232C469.986 534.232 468.962 535.592 468.962 537.256C468.962 538.92 469.986 540.264 471.794 540.264ZM481.87 541.192C479.646 541.192 477.998 539.512 477.998 537.256C477.998 535 479.646 533.32 481.774 533.32C484.126 533.32 485.358 534.984 485.358 537.032C485.358 537.176 485.358 537.352 485.342 537.544H479.134C479.166 539.048 480.334 540.264 481.87 540.264C482.99 540.264 483.854 539.64 484.27 538.968L485.086 539.608C484.206 540.728 483.102 541.192 481.87 541.192ZM479.15 536.68H484.254C484.19 535.272 483.326 534.232 481.774 534.232C480.318 534.232 479.246 535.4 479.15 536.68Z" fill="white"/>
<defs>
<linearGradient id="paint0_linear_445_1134" x1="100.973" y1="41.0468" x2="128.49" y2="34.478" gradientUnits="userSpaceOnUse">
<stop stop-color="#DA54D8"/>
<stop offset="1" stop-color="#FF4800"/>
</linearGradient>
<linearGradient id="paint1_linear_445_1134" x1="389.973" y1="41.0468" x2="417.49" y2="34.478" gradientUnits="userSpaceOnUse">
<stop stop-color="#DA54D8"/>
<stop offset="1" stop-color="#0092F4"/>
</linearGradient>
<linearGradient id="paint2_linear_445_1134" x1="20.426" y1="108.837" x2="35.258" y2="13.681" gradientUnits="userSpaceOnUse">
<stop stop-color="#DA54D8"/>
<stop offset="1" stop-color="#FF4800"/>
</linearGradient>
<linearGradient id="paint3_linear_445_1134" x1="623" y1="144" x2="66" y2="76" gradientUnits="userSpaceOnUse">
<stop stop-color="#DA54D8"/>
<stop offset="1" stop-color="#0092F4"/>
</linearGradient>
<linearGradient id="paint4_linear_445_1134" x1="34.5195" y1="179.837" x2="52.0579" y2="85.6344" gradientUnits="userSpaceOnUse">
<stop stop-color="#DA54D8"/>
<stop offset="1" stop-color="#FF4800"/>
</linearGradient>
<linearGradient id="paint5_linear_445_1134" x1="486.102" y1="215" x2="74.093" y2="178.046" gradientUnits="userSpaceOnUse">
<stop stop-color="#DA54D8"/>
<stop offset="1" stop-color="#0092F4"/>
</linearGradient>
<linearGradient id="paint6_linear_445_1134" x1="48.6129" y1="250.837" x2="69.9972" y2="158.311" gradientUnits="userSpaceOnUse">
<stop stop-color="#DA54D8"/>
<stop offset="1" stop-color="#FF4800"/>
</linearGradient>
<linearGradient id="paint7_linear_445_1134" x1="454.51" y1="286" x2="76.3532" y2="254.908" gradientUnits="userSpaceOnUse">
<stop stop-color="#DA54D8"/>
<stop offset="1" stop-color="#0092F4"/>
</linearGradient>
<linearGradient id="paint8_linear_445_1134" x1="56.6663" y1="321.837" x2="81.0449" y2="230.905" gradientUnits="userSpaceOnUse">
<stop stop-color="#DA54D8"/>
<stop offset="1" stop-color="#FF4800"/>
</linearGradient>
<linearGradient id="paint9_linear_445_1134" x1="412.388" y1="357" x2="79.559" y2="332.952" gradientUnits="userSpaceOnUse">
<stop stop-color="#DA54D8"/>
<stop offset="1" stop-color="#0092F4"/>
</linearGradient>
<linearGradient id="paint10_linear_445_1134" x1="66.733" y1="392.837" x2="96.0986" y2="305.21" gradientUnits="userSpaceOnUse">
<stop stop-color="#DA54D8"/>
<stop offset="1" stop-color="#FF4800"/>
</linearGradient>
<linearGradient id="paint11_linear_445_1134" x1="328.143" y1="428" x2="86.5321" y2="415.359" gradientUnits="userSpaceOnUse">
<stop stop-color="#DA54D8"/>
<stop offset="1" stop-color="#0092F4"/>
</linearGradient>
<linearGradient id="paint12_linear_445_1134" x1="80.8265" y1="463.837" x2="120.526" y2="386.837" gradientUnits="userSpaceOnUse">
<stop stop-color="#DA54D8"/>
<stop offset="1" stop-color="#FF4800"/>
</linearGradient>
<linearGradient id="paint13_linear_445_1134" x1="243.898" y1="499" x2="94.0772" y2="494.147" gradientUnits="userSpaceOnUse">
<stop stop-color="#DA54D8"/>
<stop offset="1" stop-color="#0092F4"/>
</linearGradient>
</defs>
</svg>
