<?xml version="1.0" encoding="utf-8"?>
<svg width="375" height="697" viewBox="0 0 375 697" fill="none" xmlns="http://www.w3.org/2000/svg">
<rect width="375" height="697" fill="#252526"/>
<path d="M26.1 162.36C21.86 162.36 20.8 159.08 20.8 156.72V147.84H22.24V156.56C22.24 158.84 23.22 161.08 26.1 161.08C28.98 161.08 29.96 158.84 29.96 156.56V147.84H31.4V156.72C31.4 159.08 30.34 162.36 26.1 162.36ZM38.6592 162.36C36.9392 162.36 35.2192 161.66 34.1992 160.26L35.4392 159.34C36.0592 160.34 37.1992 161.12 38.6792 161.12C40.1392 161.12 41.8192 160.2 41.8192 158.38C41.8192 156.4 40.1592 155.9 38.3592 155.34C36.4792 154.76 34.5592 153.94 34.5592 151.38C34.5592 148.64 36.9992 147.48 39.0792 147.48C40.9792 147.48 42.3992 148.28 43.0792 149.2L41.9392 150.12C41.3392 149.26 40.3592 148.7 39.0192 148.7C37.6192 148.7 35.9992 149.54 35.9992 151.36C35.9992 153.16 37.4992 153.62 39.0792 154.14C41.0792 154.8 43.2792 155.44 43.2792 158.28C43.2792 161.12 40.8992 162.36 38.6592 162.36Z" fill="white"/>
<rect x="19" y="173" width="268" height="16" rx="2.6" fill="url(#paint0_linear_445_1177)"/>
<rect x="19" y="196" width="305" height="16" rx="2.6" fill="url(#paint1_linear_445_1177)"/>
<path d="M296.12 173.76H298.28L295.22 183.96H297.24V179.9H299.28V183.96H300.26V185.88H299.28V188H297.24V185.88H293.18V183.96L296.12 173.76ZM307.201 177.68C307.201 179.5 307.161 179.94 305.941 180.64C306.981 181.24 307.201 181.84 307.201 183.06V184.34C307.201 184.96 307.161 185.92 306.881 186.46C306.461 187.26 305.641 188.12 304.141 188.12C302.401 188.12 301.121 186.9 301.121 185.18V183.92H303.161V184.98C303.161 185.62 303.541 186.08 304.161 186.08C304.801 186.08 305.161 185.6 305.161 184.98V182.82C305.161 182.16 305.081 181.56 303.781 181.56H303.541V179.76H303.741C304.761 179.76 305.161 179.5 305.161 178.56V176.76C305.161 175.94 304.641 175.68 304.161 175.68C303.441 175.68 303.161 176.26 303.161 176.7V177.84H301.121V176.66C301.121 174.96 302.541 173.64 304.201 173.64C304.761 173.64 305.481 173.82 305.921 174.18C306.861 174.92 307.201 175.58 307.201 177.68ZM311.463 175.24V176.62C311.463 177.44 310.823 178.1 309.763 178.1C308.703 178.1 308.063 177.44 308.063 176.62V175.22C308.063 174.32 308.703 173.64 309.763 173.64C310.823 173.64 311.463 174.3 311.463 175.24ZM313.183 173.76H314.503L309.623 188H308.303L313.183 173.76ZM310.263 176.38V175.4C310.263 174.96 309.923 174.84 309.763 174.84C309.503 174.84 309.263 175.06 309.263 175.38V176.34C309.263 176.8 309.643 176.9 309.763 176.9C310.023 176.9 310.263 176.68 310.263 176.38ZM314.743 185.26V186.64C314.743 187.46 314.103 188.12 313.043 188.12C311.983 188.12 311.343 187.46 311.343 186.64V185.24C311.343 184.34 311.983 183.66 313.043 183.66C314.103 183.66 314.743 184.32 314.743 185.26ZM313.543 186.4V185.44C313.543 185.18 313.383 184.86 313.043 184.86C312.783 184.86 312.543 185.08 312.543 185.4V186.34C312.543 186.8 312.863 186.92 313.043 186.92C313.303 186.92 313.543 186.7 313.543 186.4Z" fill="white"/>
<path d="M333.12 197.76H335.28L332.22 207.96H334.24V203.9H336.28V207.96H337.26V209.88H336.28V212H334.24V209.88H330.18V207.96L333.12 197.76ZM343.061 198.28C344.201 199.26 344.201 200.22 344.201 202.28C344.201 203.78 344.081 204.14 343.821 204.84L341.141 212H338.861L341.181 206.02L341.141 205.98C341.001 206.08 340.721 206.16 340.301 206.16C339.581 206.16 338.901 205.78 338.541 205.2C338.161 204.6 338.141 203.64 338.141 203.46C338.141 202.98 338.121 202.5 338.121 201.78C338.121 200.86 338.121 200.08 338.341 199.5C338.641 198.68 339.521 197.64 341.161 197.64C341.781 197.64 342.561 197.84 343.061 198.28ZM342.161 203.38V200.7C342.161 200.26 341.861 199.68 341.161 199.68C340.461 199.68 340.161 200.28 340.161 200.7V203.28C340.161 204.08 340.721 204.36 341.161 204.36C341.721 204.36 342.161 203.92 342.161 203.38ZM348.463 199.24V200.62C348.463 201.44 347.823 202.1 346.763 202.1C345.703 202.1 345.063 201.44 345.063 200.62V199.22C345.063 198.32 345.703 197.64 346.763 197.64C347.823 197.64 348.463 198.3 348.463 199.24ZM350.183 197.76H351.503L346.623 212H345.303L350.183 197.76ZM347.263 200.38V199.4C347.263 198.96 346.923 198.84 346.763 198.84C346.503 198.84 346.263 199.06 346.263 199.38V200.34C346.263 200.8 346.643 200.9 346.763 200.9C347.023 200.9 347.263 200.68 347.263 200.38ZM351.743 209.26V210.64C351.743 211.46 351.103 212.12 350.043 212.12C348.983 212.12 348.343 211.46 348.343 210.64V209.24C348.343 208.34 348.983 207.66 350.043 207.66C351.103 207.66 351.743 208.32 351.743 209.26ZM350.543 210.4V209.44C350.543 209.18 350.383 208.86 350.043 208.86C349.783 208.86 349.543 209.08 349.543 209.4V210.34C349.543 210.8 349.863 210.92 350.043 210.92C350.303 210.92 350.543 210.7 350.543 210.4Z" fill="white"/>
<path d="M27.5 245.36C23.22 245.36 20.12 242.22 20.12 237.92C20.12 233.62 23.28 230.48 27.5 230.48C29.58 230.48 31.56 231.34 32.54 232.72L31.34 233.6C30.74 232.68 29.32 231.74 27.52 231.74C23.86 231.74 21.64 234.62 21.64 237.92C21.64 241.22 23.88 244.1 27.52 244.1C29.14 244.1 30.7 243.46 31.68 242L32.8 242.72C31.86 244.14 30.04 245.36 27.5 245.36ZM36.5945 245H35.2345V229.88H36.5945V237.18H36.6345C37.1345 236.1 38.4545 235.4 39.7745 235.4C42.1545 235.4 43.3345 236.94 43.3345 239.26V245H41.9745V239.82C41.9745 237.86 41.3945 236.54 39.4345 236.54C37.9945 236.54 36.5945 237.7 36.5945 240.2V245ZM47.5547 233C47.0747 233 46.5947 232.6 46.5947 232.04C46.5947 231.48 47.0747 231.08 47.5547 231.08C48.0347 231.08 48.5147 231.48 48.5147 232.04C48.5147 232.6 48.0347 233 47.5547 233ZM48.2347 245H46.8747V235.62H48.2347V245ZM53.2147 245H51.8547V237.7C51.8547 237.2 51.8347 236.26 51.7747 235.62H53.0747C53.1147 236.12 53.1547 236.84 53.1547 237.24H53.1947C53.7147 236.16 55.0747 235.4 56.3947 235.4C58.7747 235.4 59.9547 236.94 59.9547 239.26V245H58.5947V239.82C58.5947 237.86 58.0147 236.54 56.0547 236.54C54.6147 236.54 53.2147 237.7 53.2147 240.2V245ZM66.0158 245.24C64.5958 245.24 62.7758 244.48 62.7758 242.4C62.7758 239.54 65.8958 239.26 69.2958 239.26H69.3758V238.96C69.3758 237.34 68.4958 236.54 66.8758 236.54C65.7758 236.54 64.7558 236.98 64.0958 237.64L63.3358 236.74C64.0958 235.98 65.4158 235.4 67.0158 235.4C69.0358 235.4 70.6558 236.52 70.6558 238.8V242.9C70.6558 243.62 70.7158 244.48 70.8158 245H69.5958C69.5158 244.54 69.4558 243.98 69.4558 243.48H69.4158C68.5558 244.72 67.5158 245.24 66.0158 245.24ZM66.3758 244.12C68.2958 244.12 69.3758 242.68 69.3758 241.02V240.32H68.9758C66.7558 240.32 64.1758 240.56 64.1758 242.34C64.1758 243.68 65.3158 244.12 66.3758 244.12Z" fill="white"/>
<rect x="19" y="256" width="224" height="16" rx="2.6" fill="url(#paint2_linear_445_1177)"/>
<rect x="19" y="279" width="224" height="16" rx="2.6" fill="url(#paint3_linear_445_1177)"/>
<path d="M257.76 260.68C257.76 262.5 257.72 262.94 256.5 263.64C257.54 264.24 257.76 264.84 257.76 266.06V267.34C257.76 267.96 257.72 268.92 257.44 269.46C257.02 270.26 256.2 271.12 254.7 271.12C252.96 271.12 251.68 269.9 251.68 268.18V266.92H253.72V267.98C253.72 268.62 254.1 269.08 254.72 269.08C255.36 269.08 255.72 268.6 255.72 267.98V265.82C255.72 265.16 255.64 264.56 254.34 264.56H254.1V262.76H254.3C255.32 262.76 255.72 262.5 255.72 261.56V259.76C255.72 258.94 255.2 258.68 254.72 258.68C254 258.68 253.72 259.26 253.72 259.7V260.84H251.68V259.66C251.68 257.96 253.1 256.64 254.76 256.64C255.32 256.64 256.04 256.82 256.48 257.18C257.42 257.92 257.76 258.58 257.76 260.68ZM262.181 256.76H264.461L262.141 262.74L262.181 262.78C262.321 262.68 262.581 262.6 263.041 262.6C263.901 262.6 264.721 263.16 265.001 264.02C265.141 264.42 265.201 265.36 265.201 266.82C265.201 267.74 265.201 268.44 265.061 268.98C264.721 270.26 263.621 271.12 262.161 271.12C260.941 271.12 259.801 270.42 259.361 269.28C259.201 268.86 259.121 268.46 259.121 266.84C259.121 265.94 259.141 265.34 259.201 265.02C259.281 264.58 259.361 264.28 259.581 263.7L262.181 256.76ZM263.161 268.1V265.48C263.161 264.7 262.621 264.4 262.161 264.4C261.601 264.4 261.161 264.84 261.161 265.38V268.02C261.161 268.94 261.941 269.08 262.161 269.08C262.721 269.08 263.161 268.64 263.161 268.1ZM269.463 258.24V259.62C269.463 260.44 268.823 261.1 267.763 261.1C266.703 261.1 266.063 260.44 266.063 259.62V258.22C266.063 257.32 266.703 256.64 267.763 256.64C268.823 256.64 269.463 257.3 269.463 258.24ZM271.183 256.76H272.503L267.623 271H266.303L271.183 256.76ZM268.263 259.38V258.4C268.263 257.96 267.923 257.84 267.763 257.84C267.503 257.84 267.263 258.06 267.263 258.38V259.34C267.263 259.8 267.643 259.9 267.763 259.9C268.023 259.9 268.263 259.68 268.263 259.38ZM272.743 268.26V269.64C272.743 270.46 272.103 271.12 271.043 271.12C269.983 271.12 269.343 270.46 269.343 269.64V268.24C269.343 267.34 269.983 266.66 271.043 266.66C272.103 266.66 272.743 267.32 272.743 268.26ZM271.543 269.4V268.44C271.543 268.18 271.383 267.86 271.043 267.86C270.783 267.86 270.543 268.08 270.543 268.4V269.34C270.543 269.8 270.863 269.92 271.043 269.92C271.303 269.92 271.543 269.7 271.543 269.4Z" fill="white"/>
<path d="M257.76 284.68C257.76 286.5 257.72 286.94 256.5 287.64C257.54 288.24 257.76 288.84 257.76 290.06V291.34C257.76 291.96 257.72 292.92 257.44 293.46C257.02 294.26 256.2 295.12 254.7 295.12C252.96 295.12 251.68 293.9 251.68 292.18V290.92H253.72V291.98C253.72 292.62 254.1 293.08 254.72 293.08C255.36 293.08 255.72 292.6 255.72 291.98V289.82C255.72 289.16 255.64 288.56 254.34 288.56H254.1V286.76H254.3C255.32 286.76 255.72 286.5 255.72 285.56V283.76C255.72 282.94 255.2 282.68 254.72 282.68C254 282.68 253.72 283.26 253.72 283.7V284.84H251.68V283.66C251.68 281.96 253.1 280.64 254.76 280.64C255.32 280.64 256.04 280.82 256.48 281.18C257.42 281.92 257.76 282.58 257.76 284.68ZM262.181 280.76H264.461L262.141 286.74L262.181 286.78C262.321 286.68 262.581 286.6 263.041 286.6C263.901 286.6 264.721 287.16 265.001 288.02C265.141 288.42 265.201 289.36 265.201 290.82C265.201 291.74 265.201 292.44 265.061 292.98C264.721 294.26 263.621 295.12 262.161 295.12C260.941 295.12 259.801 294.42 259.361 293.28C259.201 292.86 259.121 292.46 259.121 290.84C259.121 289.94 259.141 289.34 259.201 289.02C259.281 288.58 259.361 288.28 259.581 287.7L262.181 280.76ZM263.161 292.1V289.48C263.161 288.7 262.621 288.4 262.161 288.4C261.601 288.4 261.161 288.84 261.161 289.38V292.02C261.161 292.94 261.941 293.08 262.161 293.08C262.721 293.08 263.161 292.64 263.161 292.1ZM269.463 282.24V283.62C269.463 284.44 268.823 285.1 267.763 285.1C266.703 285.1 266.063 284.44 266.063 283.62V282.22C266.063 281.32 266.703 280.64 267.763 280.64C268.823 280.64 269.463 281.3 269.463 282.24ZM271.183 280.76H272.503L267.623 295H266.303L271.183 280.76ZM268.263 283.38V282.4C268.263 281.96 267.923 281.84 267.763 281.84C267.503 281.84 267.263 282.06 267.263 282.38V283.34C267.263 283.8 267.643 283.9 267.763 283.9C268.023 283.9 268.263 283.68 268.263 283.38ZM272.743 292.26V293.64C272.743 294.46 272.103 295.12 271.043 295.12C269.983 295.12 269.343 294.46 269.343 293.64V292.24C269.343 291.34 269.983 290.66 271.043 290.66C272.103 290.66 272.743 291.32 272.743 292.26ZM271.543 293.4V292.44C271.543 292.18 271.383 291.86 271.043 291.86C270.783 291.86 270.543 292.08 270.543 292.4V293.34C270.543 293.8 270.863 293.92 271.043 293.92C271.303 293.92 271.543 293.7 271.543 293.4Z" fill="white"/>
<path d="M26.1 328.36C21.86 328.36 20.8 325.08 20.8 322.72V313.84H22.24V322.56C22.24 324.84 23.22 327.08 26.1 327.08C28.98 327.08 29.96 324.84 29.96 322.56V313.84H31.4V322.72C31.4 325.08 30.34 328.36 26.1 328.36ZM36.5192 328H35.0792V313.84H36.5192V320.2H36.5392L43.2792 313.84H45.3392L38.1992 320.26L45.7392 328H43.6192L36.5392 320.46H36.5192V328Z" fill="white"/>
<rect x="19" y="339" width="181" height="16" rx="2.6" fill="url(#paint4_linear_445_1177)"/>
<rect x="19" y="362" width="206" height="16" rx="2.6" fill="url(#paint5_linear_445_1177)"/>
<path d="M211.76 343.26C211.76 345.14 211.6 345.16 210.54 347.22L208.08 351.96H211.76V354H205.68V352.08L209.38 345.1C209.64 344.62 209.72 344.22 209.72 343.32C209.72 342.48 209.68 341.68 208.72 341.68C208.1 341.68 207.72 342.04 207.72 342.7V343.86H205.68V343.02C205.68 342.36 205.72 342.14 205.84 341.74C206.16 340.76 207.2 339.64 208.74 339.64C210.66 339.64 211.76 341.02 211.76 343.26ZM218.061 340.28C219.201 341.26 219.201 342.22 219.201 344.28C219.201 345.78 219.081 346.14 218.821 346.84L216.141 354H213.861L216.181 348.02L216.141 347.98C216.001 348.08 215.721 348.16 215.301 348.16C214.581 348.16 213.901 347.78 213.541 347.2C213.161 346.6 213.141 345.64 213.141 345.46C213.141 344.98 213.121 344.5 213.121 343.78C213.121 342.86 213.121 342.08 213.341 341.5C213.641 340.68 214.521 339.64 216.161 339.64C216.781 339.64 217.561 339.84 218.061 340.28ZM217.161 345.38V342.7C217.161 342.26 216.861 341.68 216.161 341.68C215.461 341.68 215.161 342.28 215.161 342.7V345.28C215.161 346.08 215.721 346.36 216.161 346.36C216.721 346.36 217.161 345.92 217.161 345.38ZM223.463 341.24V342.62C223.463 343.44 222.823 344.1 221.763 344.1C220.703 344.1 220.063 343.44 220.063 342.62V341.22C220.063 340.32 220.703 339.64 221.763 339.64C222.823 339.64 223.463 340.3 223.463 341.24ZM225.183 339.76H226.503L221.623 354H220.303L225.183 339.76ZM222.263 342.38V341.4C222.263 340.96 221.923 340.84 221.763 340.84C221.503 340.84 221.263 341.06 221.263 341.38V342.34C221.263 342.8 221.643 342.9 221.763 342.9C222.023 342.9 222.263 342.68 222.263 342.38ZM226.743 351.26V352.64C226.743 353.46 226.103 354.12 225.043 354.12C223.983 354.12 223.343 353.46 223.343 352.64V351.24C223.343 350.34 223.983 349.66 225.043 349.66C226.103 349.66 226.743 350.32 226.743 351.26ZM225.543 352.4V351.44C225.543 351.18 225.383 350.86 225.043 350.86C224.783 350.86 224.543 351.08 224.543 351.4V352.34C224.543 352.8 224.863 352.92 225.043 352.92C225.303 352.92 225.543 352.7 225.543 352.4Z" fill="white"/>
<path d="M236.76 367.68C236.76 369.5 236.72 369.94 235.5 370.64C236.54 371.24 236.76 371.84 236.76 373.06V374.34C236.76 374.96 236.72 375.92 236.44 376.46C236.02 377.26 235.2 378.12 233.7 378.12C231.96 378.12 230.68 376.9 230.68 375.18V373.92H232.72V374.98C232.72 375.62 233.1 376.08 233.72 376.08C234.36 376.08 234.72 375.6 234.72 374.98V372.82C234.72 372.16 234.64 371.56 233.34 371.56H233.1V369.76H233.3C234.32 369.76 234.72 369.5 234.72 368.56V366.76C234.72 365.94 234.2 365.68 233.72 365.68C233 365.68 232.72 366.26 232.72 366.7V367.84H230.68V366.66C230.68 364.96 232.1 363.64 233.76 363.64C234.32 363.64 235.04 363.82 235.48 364.18C236.42 364.92 236.76 365.58 236.76 367.68ZM244.201 367.68C244.201 369.5 244.161 369.94 242.941 370.64C243.981 371.24 244.201 371.84 244.201 373.06V374.34C244.201 374.96 244.161 375.92 243.881 376.46C243.461 377.26 242.641 378.12 241.141 378.12C239.401 378.12 238.121 376.9 238.121 375.18V373.92H240.161V374.98C240.161 375.62 240.541 376.08 241.161 376.08C241.801 376.08 242.161 375.6 242.161 374.98V372.82C242.161 372.16 242.081 371.56 240.781 371.56H240.541V369.76H240.741C241.761 369.76 242.161 369.5 242.161 368.56V366.76C242.161 365.94 241.641 365.68 241.161 365.68C240.441 365.68 240.161 366.26 240.161 366.7V367.84H238.121V366.66C238.121 364.96 239.541 363.64 241.201 363.64C241.761 363.64 242.481 363.82 242.921 364.18C243.861 364.92 244.201 365.58 244.201 367.68ZM248.463 365.24V366.62C248.463 367.44 247.823 368.1 246.763 368.1C245.703 368.1 245.063 367.44 245.063 366.62V365.22C245.063 364.32 245.703 363.64 246.763 363.64C247.823 363.64 248.463 364.3 248.463 365.24ZM250.183 363.76H251.503L246.623 378H245.303L250.183 363.76ZM247.263 366.38V365.4C247.263 364.96 246.923 364.84 246.763 364.84C246.503 364.84 246.263 365.06 246.263 365.38V366.34C246.263 366.8 246.643 366.9 246.763 366.9C247.023 366.9 247.263 366.68 247.263 366.38ZM251.743 375.26V376.64C251.743 377.46 251.103 378.12 250.043 378.12C248.983 378.12 248.343 377.46 248.343 376.64V375.24C248.343 374.34 248.983 373.66 250.043 373.66C251.103 373.66 251.743 374.32 251.743 375.26ZM250.543 376.4V375.44C250.543 375.18 250.383 374.86 250.043 374.86C249.783 374.86 249.543 375.08 249.543 375.4V376.34C249.543 376.8 249.863 376.92 250.043 376.92C250.303 376.92 250.543 376.7 250.543 376.4Z" fill="white"/>
<path d="M27.5 411.36C23.22 411.36 20.12 408.22 20.12 403.92C20.12 399.62 23.28 396.48 27.5 396.48C29.58 396.48 31.56 397.34 32.54 398.72L31.34 399.6C30.74 398.68 29.32 397.74 27.52 397.74C23.86 397.74 21.64 400.62 21.64 403.92C21.64 407.22 23.88 410.1 27.52 410.1C29.14 410.1 30.7 409.46 31.68 408L32.8 408.72C31.86 410.14 30.04 411.36 27.5 411.36ZM37.383 411.24C35.963 411.24 34.143 410.48 34.143 408.4C34.143 405.54 37.263 405.26 40.663 405.26H40.743V404.96C40.743 403.34 39.863 402.54 38.243 402.54C37.143 402.54 36.123 402.98 35.463 403.64L34.703 402.74C35.463 401.98 36.783 401.4 38.383 401.4C40.403 401.4 42.023 402.52 42.023 404.8V408.9C42.023 409.62 42.083 410.48 42.183 411H40.963C40.883 410.54 40.823 409.98 40.823 409.48H40.783C39.923 410.72 38.883 411.24 37.383 411.24ZM37.743 410.12C39.663 410.12 40.743 408.68 40.743 407.02V406.32H40.343C38.123 406.32 35.543 406.56 35.543 408.34C35.543 409.68 36.683 410.12 37.743 410.12ZM46.8866 411H45.5266V403.7C45.5266 403.2 45.5066 402.26 45.4466 401.62H46.7466C46.7866 402.12 46.8266 402.84 46.8266 403.24H46.8666C47.3866 402.16 48.7466 401.4 50.0666 401.4C52.4466 401.4 53.6266 402.94 53.6266 405.26V411H52.2666V405.82C52.2666 403.86 51.6866 402.54 49.7266 402.54C48.2866 402.54 46.8866 403.7 46.8866 406.2V411ZM59.6877 411.24C58.2677 411.24 56.4477 410.48 56.4477 408.4C56.4477 405.54 59.5677 405.26 62.9677 405.26H63.0477V404.96C63.0477 403.34 62.1677 402.54 60.5477 402.54C59.4477 402.54 58.4277 402.98 57.7677 403.64L57.0077 402.74C57.7677 401.98 59.0877 401.4 60.6877 401.4C62.7077 401.4 64.3277 402.52 64.3277 404.8V408.9C64.3277 409.62 64.3877 410.48 64.4877 411H63.2677C63.1877 410.54 63.1277 409.98 63.1277 409.48H63.0877C62.2277 410.72 61.1877 411.24 59.6877 411.24ZM60.0477 410.12C61.9677 410.12 63.0477 408.68 63.0477 407.02V406.32H62.6477C60.4277 406.32 57.8477 406.56 57.8477 408.34C57.8477 409.68 58.9877 410.12 60.0477 410.12ZM71.9913 411.24C69.0713 411.24 67.1513 409.08 67.1513 406.32C67.1513 403.56 69.0713 401.4 71.9913 401.4C73.3313 401.4 74.7313 402.04 75.5313 403.26H75.5713V395.88H76.9313V411H75.5713V409.42H75.5313C74.7313 410.6 73.3313 411.24 71.9913 411.24ZM72.1313 410.08C74.2313 410.08 75.7313 408.46 75.7313 406.32C75.7313 404.18 74.2313 402.54 72.1313 402.54C69.8713 402.54 68.5913 404.24 68.5913 406.32C68.5913 408.4 69.8713 410.08 72.1313 410.08ZM83.1056 411.24C81.6856 411.24 79.8656 410.48 79.8656 408.4C79.8656 405.54 82.9856 405.26 86.3856 405.26H86.4656V404.96C86.4656 403.34 85.5856 402.54 83.9656 402.54C82.8656 402.54 81.8456 402.98 81.1856 403.64L80.4256 402.74C81.1856 401.98 82.5056 401.4 84.1056 401.4C86.1256 401.4 87.7456 402.52 87.7456 404.8V408.9C87.7456 409.62 87.8056 410.48 87.9056 411H86.6856C86.6056 410.54 86.5456 409.98 86.5456 409.48H86.5056C85.6456 410.72 84.6056 411.24 83.1056 411.24ZM83.4656 410.12C85.3856 410.12 86.4656 408.68 86.4656 407.02V406.32H86.0656C83.8456 406.32 81.2656 406.56 81.2656 408.34C81.2656 409.68 82.4056 410.12 83.4656 410.12Z" fill="white"/>
<rect x="20" y="422" width="156" height="16" rx="2.6" fill="url(#paint6_linear_445_1177)"/>
<rect x="20" y="445" width="181" height="16" rx="2.6" fill="url(#paint7_linear_445_1177)"/>
<path d="M187.76 426.26C187.76 428.14 187.6 428.16 186.54 430.22L184.08 434.96H187.76V437H181.68V435.08L185.38 428.1C185.64 427.62 185.72 427.22 185.72 426.32C185.72 425.48 185.68 424.68 184.72 424.68C184.1 424.68 183.72 425.04 183.72 425.7V426.86H181.68V426.02C181.68 425.36 181.72 425.14 181.84 424.74C182.16 423.76 183.2 422.64 184.74 422.64C186.66 422.64 187.76 424.02 187.76 426.26ZM189.361 422.76H195.201V424.68H191.161V428.52C191.541 428.16 192.141 427.86 192.861 427.86C194.301 427.86 195.201 428.82 195.201 430.34V434.12C195.201 435.84 193.881 437.12 192.161 437.12C190.421 437.12 189.121 435.84 189.121 434.04V433.46H191.161V434C191.161 434.78 191.701 435.08 192.201 435.08C192.841 435.08 193.161 434.64 193.161 434.06V430.64C193.161 430.16 192.761 429.66 192.201 429.66C191.721 429.66 191.401 429.9 191.161 430.44H189.361V422.76ZM199.463 424.24V425.62C199.463 426.44 198.823 427.1 197.763 427.1C196.703 427.1 196.063 426.44 196.063 425.62V424.22C196.063 423.32 196.703 422.64 197.763 422.64C198.823 422.64 199.463 423.3 199.463 424.24ZM201.183 422.76H202.503L197.623 437H196.303L201.183 422.76ZM198.263 425.38V424.4C198.263 423.96 197.923 423.84 197.763 423.84C197.503 423.84 197.263 424.06 197.263 424.38V425.34C197.263 425.8 197.643 425.9 197.763 425.9C198.023 425.9 198.263 425.68 198.263 425.38ZM202.743 434.26V435.64C202.743 436.46 202.103 437.12 201.043 437.12C199.983 437.12 199.343 436.46 199.343 435.64V434.24C199.343 433.34 199.983 432.66 201.043 432.66C202.103 432.66 202.743 433.32 202.743 434.26ZM201.543 435.4V434.44C201.543 434.18 201.383 433.86 201.043 433.86C200.783 433.86 200.543 434.08 200.543 434.4V435.34C200.543 435.8 200.863 435.92 201.043 435.92C201.303 435.92 201.543 435.7 201.543 435.4Z" fill="white"/>
<path d="M213.76 450.26C213.76 452.14 213.6 452.16 212.54 454.22L210.08 458.96H213.76V461H207.68V459.08L211.38 452.1C211.64 451.62 211.72 451.22 211.72 450.32C211.72 449.48 211.68 448.68 210.72 448.68C210.1 448.68 209.72 449.04 209.72 449.7V450.86H207.68V450.02C207.68 449.36 207.72 449.14 207.84 448.74C208.16 447.76 209.2 446.64 210.74 446.64C212.66 446.64 213.76 448.02 213.76 450.26ZM220.061 447.28C221.201 448.26 221.201 449.22 221.201 451.28C221.201 452.78 221.081 453.14 220.821 453.84L218.141 461H215.861L218.181 455.02L218.141 454.98C218.001 455.08 217.721 455.16 217.301 455.16C216.581 455.16 215.901 454.78 215.541 454.2C215.161 453.6 215.141 452.64 215.141 452.46C215.141 451.98 215.121 451.5 215.121 450.78C215.121 449.86 215.121 449.08 215.341 448.5C215.641 447.68 216.521 446.64 218.161 446.64C218.781 446.64 219.561 446.84 220.061 447.28ZM219.161 452.38V449.7C219.161 449.26 218.861 448.68 218.161 448.68C217.461 448.68 217.161 449.28 217.161 449.7V452.28C217.161 453.08 217.721 453.36 218.161 453.36C218.721 453.36 219.161 452.92 219.161 452.38ZM225.463 448.24V449.62C225.463 450.44 224.823 451.1 223.763 451.1C222.703 451.1 222.063 450.44 222.063 449.62V448.22C222.063 447.32 222.703 446.64 223.763 446.64C224.823 446.64 225.463 447.3 225.463 448.24ZM227.183 446.76H228.503L223.623 461H222.303L227.183 446.76ZM224.263 449.38V448.4C224.263 447.96 223.923 447.84 223.763 447.84C223.503 447.84 223.263 448.06 223.263 448.38V449.34C223.263 449.8 223.643 449.9 223.763 449.9C224.023 449.9 224.263 449.68 224.263 449.38ZM228.743 458.26V459.64C228.743 460.46 228.103 461.12 227.043 461.12C225.983 461.12 225.343 460.46 225.343 459.64V458.24C225.343 457.34 225.983 456.66 227.043 456.66C228.103 456.66 228.743 457.32 228.743 458.26ZM227.543 459.4V458.44C227.543 458.18 227.383 457.86 227.043 457.86C226.783 457.86 226.543 458.08 226.543 458.4V459.34C226.543 459.8 226.863 459.92 227.043 459.92C227.303 459.92 227.543 459.7 227.543 459.4Z" fill="white"/>
<path d="M25.32 479.84H26.72L32.8 494H31.2L29.64 490.28H22.32L20.78 494H19.2L25.32 479.84ZM25.98 481.42L22.86 488.96H29.1L25.98 481.42ZM38.2839 494.24C35.9039 494.24 34.7239 492.7 34.7239 490.38V484.62H36.0839V489.82C36.0839 491.78 36.6639 493.1 38.6239 493.1C40.0639 493.1 41.4639 491.94 41.4639 489.44V484.62H42.8239V491.94C42.8239 492.44 42.8439 493.36 42.9039 494H41.6039C41.5639 493.5 41.5239 492.8 41.5239 492.4H41.4839C40.9639 493.48 39.6039 494.24 38.2839 494.24ZM49.085 494.24C47.665 494.24 46.245 493.68 45.385 492.42L46.465 491.62C46.945 492.44 47.965 493.08 49.065 493.08C50.225 493.08 51.265 492.66 51.265 491.44C51.265 490.46 50.285 490.06 48.505 489.64C47.405 489.38 45.825 488.9 45.825 487.12C45.825 485.22 47.465 484.4 49.165 484.4C50.465 484.4 51.845 485.02 52.445 486.08L51.405 486.86C51.005 486.08 50.145 485.54 49.105 485.54C48.125 485.54 47.125 485.96 47.125 487C47.125 487.88 47.825 488.28 49.365 488.6C51.565 489.06 52.605 489.88 52.605 491.34C52.605 493.48 50.805 494.24 49.085 494.24ZM57.9317 494.12C56.9317 494.12 55.5317 493.68 55.5317 491.62V485.76H53.5917V484.62H55.5317V482H56.8917V484.62H59.5317V485.76H56.8917V491.24C56.8917 492.64 57.4717 492.96 58.2917 492.96C58.6717 492.96 59.1117 492.84 59.4717 492.66L59.5317 493.84C59.0517 494.02 58.5517 494.12 57.9317 494.12ZM63.0194 494H61.6594V486.7C61.6594 486.2 61.6394 485.26 61.5794 484.62H62.8794C62.9194 485.12 62.9594 485.84 62.9594 486.24H62.9994C63.5194 485.16 64.6794 484.4 65.9994 484.4C66.3394 484.4 66.6194 484.42 66.8994 484.5L66.7194 485.78C66.5594 485.72 66.1194 485.66 65.7594 485.66C64.3194 485.66 63.0194 486.7 63.0194 489.2V494ZM71.1525 494.24C69.7325 494.24 67.9125 493.48 67.9125 491.4C67.9125 488.54 71.0325 488.26 74.4325 488.26H74.5125V487.96C74.5125 486.34 73.6325 485.54 72.0125 485.54C70.9125 485.54 69.8925 485.98 69.2325 486.64L68.4725 485.74C69.2325 484.98 70.5525 484.4 72.1525 484.4C74.1725 484.4 75.7925 485.52 75.7925 487.8V491.9C75.7925 492.62 75.8525 493.48 75.9525 494H74.7325C74.6525 493.54 74.5925 492.98 74.5925 492.48H74.5525C73.6925 493.72 72.6525 494.24 71.1525 494.24ZM71.5125 493.12C73.4325 493.12 74.5125 491.68 74.5125 490.02V489.32H74.1125C71.8925 489.32 69.3125 489.56 69.3125 491.34C69.3125 492.68 70.4525 493.12 71.5125 493.12ZM80.6961 494H79.3361V478.88H80.6961V494ZM85.0352 482C84.5552 482 84.0752 481.6 84.0752 481.04C84.0752 480.48 84.5552 480.08 85.0352 480.08C85.5152 480.08 85.9952 480.48 85.9952 481.04C85.9952 481.6 85.5152 482 85.0352 482ZM85.7152 494H84.3552V484.62H85.7152V494ZM91.8752 494.24C90.4552 494.24 88.6352 493.48 88.6352 491.4C88.6352 488.54 91.7552 488.26 95.1552 488.26H95.2352V487.96C95.2352 486.34 94.3552 485.54 92.7352 485.54C91.6352 485.54 90.6152 485.98 89.9552 486.64L89.1952 485.74C89.9552 484.98 91.2752 484.4 92.8752 484.4C94.8952 484.4 96.5152 485.52 96.5152 487.8V491.9C96.5152 492.62 96.5752 493.48 96.6752 494H95.4552C95.3752 493.54 95.3152 492.98 95.3152 492.48H95.2752C94.4152 493.72 93.3752 494.24 91.8752 494.24ZM92.2352 493.12C94.1552 493.12 95.2352 491.68 95.2352 490.02V489.32H94.8352C92.6152 489.32 90.0352 489.56 90.0352 491.34C90.0352 492.68 91.1752 493.12 92.2352 493.12Z" fill="white"/>
<rect x="21" y="505" width="125" height="16" rx="2.6" fill="url(#paint8_linear_445_1177)"/>
<rect x="21" y="528" width="131" height="16" rx="2.6" fill="url(#paint9_linear_445_1177)"/>
<path d="M157.76 509.26C157.76 511.14 157.6 511.16 156.54 513.22L154.08 517.96H157.76V520H151.68V518.08L155.38 511.1C155.64 510.62 155.72 510.22 155.72 509.32C155.72 508.48 155.68 507.68 154.72 507.68C154.1 507.68 153.72 508.04 153.72 508.7V509.86H151.68V509.02C151.68 508.36 151.72 508.14 151.84 507.74C152.16 506.76 153.2 505.64 154.74 505.64C156.66 505.64 157.76 507.02 157.76 509.26ZM165.201 508.64V517.12C165.201 518.76 163.961 520.12 162.161 520.12C160.421 520.12 159.121 518.82 159.121 517.12V508.64C159.121 506.98 160.381 505.64 162.161 505.64C163.941 505.64 165.201 506.98 165.201 508.64ZM161.161 508.68V517.1C161.161 517.6 161.561 518.08 162.161 518.08C162.761 518.08 163.161 517.6 163.161 517.1V508.66C163.161 508.16 162.781 507.68 162.161 507.68C161.601 507.68 161.161 508.12 161.161 508.68ZM169.463 507.24V508.62C169.463 509.44 168.823 510.1 167.763 510.1C166.703 510.1 166.063 509.44 166.063 508.62V507.22C166.063 506.32 166.703 505.64 167.763 505.64C168.823 505.64 169.463 506.3 169.463 507.24ZM171.183 505.76H172.503L167.623 520H166.303L171.183 505.76ZM168.263 508.38V507.4C168.263 506.96 167.923 506.84 167.763 506.84C167.503 506.84 167.263 507.06 167.263 507.38V508.34C167.263 508.8 167.643 508.9 167.763 508.9C168.023 508.9 168.263 508.68 168.263 508.38ZM172.743 517.26V518.64C172.743 519.46 172.103 520.12 171.043 520.12C169.983 520.12 169.343 519.46 169.343 518.64V517.24C169.343 516.34 169.983 515.66 171.043 515.66C172.103 515.66 172.743 516.32 172.743 517.26ZM171.543 518.4V517.44C171.543 517.18 171.383 516.86 171.043 516.86C170.783 516.86 170.543 517.08 170.543 517.4V518.34C170.543 518.8 170.863 518.92 171.043 518.92C171.303 518.92 171.543 518.7 171.543 518.4Z" fill="white"/>
<path d="M164.76 533.26C164.76 535.14 164.6 535.16 163.54 537.22L161.08 541.96H164.76V544H158.68V542.08L162.38 535.1C162.64 534.62 162.72 534.22 162.72 533.32C162.72 532.48 162.68 531.68 161.72 531.68C161.1 531.68 160.72 532.04 160.72 532.7V533.86H158.68V533.02C158.68 532.36 158.72 532.14 158.84 531.74C159.16 530.76 160.2 529.64 161.74 529.64C163.66 529.64 164.76 531.02 164.76 533.26ZM168.541 529.76H170.581V544H168.541V531.92L166.501 533.42V531.26L168.541 529.76ZM176.463 531.24V532.62C176.463 533.44 175.823 534.1 174.763 534.1C173.703 534.1 173.063 533.44 173.063 532.62V531.22C173.063 530.32 173.703 529.64 174.763 529.64C175.823 529.64 176.463 530.3 176.463 531.24ZM178.183 529.76H179.503L174.623 544H173.303L178.183 529.76ZM175.263 532.38V531.4C175.263 530.96 174.923 530.84 174.763 530.84C174.503 530.84 174.263 531.06 174.263 531.38V532.34C174.263 532.8 174.643 532.9 174.763 532.9C175.023 532.9 175.263 532.68 175.263 532.38ZM179.743 541.26V542.64C179.743 543.46 179.103 544.12 178.043 544.12C176.983 544.12 176.343 543.46 176.343 542.64V541.24C176.343 540.34 176.983 539.66 178.043 539.66C179.103 539.66 179.743 540.32 179.743 541.26ZM178.543 542.4V541.44C178.543 541.18 178.383 540.86 178.043 540.86C177.783 540.86 177.543 541.08 177.543 541.4V542.34C177.543 542.8 177.863 542.92 178.043 542.92C178.303 542.92 178.543 542.7 178.543 542.4Z" fill="white"/>
<path d="M26.1 577.36C21.86 577.36 20.8 574.08 20.8 571.72V562.84H22.24V571.56C22.24 573.84 23.22 576.08 26.1 576.08C28.98 576.08 29.96 573.84 29.96 571.56V562.84H31.4V571.72C31.4 574.08 30.34 577.36 26.1 577.36ZM39.2653 562.84H40.6653L46.7453 577H45.1453L43.5853 573.28H36.2653L34.7253 577H33.1453L39.2653 562.84ZM39.9253 564.42L36.8053 571.96H43.0453L39.9253 564.42ZM57.8492 577H48.8292V562.84H57.6092V564.12H50.2692V569H57.1292V570.26H50.2692V575.72H57.8492V577Z" fill="white"/>
<rect x="20" y="589" width="81" height="16" rx="2.6" fill="url(#paint10_linear_445_1177)"/>
<rect x="20" y="612" width="81" height="16" rx="2.6" fill="url(#paint11_linear_445_1177)"/>
<path d="M108.1 589.76H110.14V604H108.1V591.92L106.06 593.42V591.26L108.1 589.76ZM119.201 593.68C119.201 595.5 119.161 595.94 117.941 596.64C118.981 597.24 119.201 597.84 119.201 599.06V600.34C119.201 600.96 119.161 601.92 118.881 602.46C118.461 603.26 117.641 604.12 116.141 604.12C114.401 604.12 113.121 602.9 113.121 601.18V599.92H115.161V600.98C115.161 601.62 115.541 602.08 116.161 602.08C116.801 602.08 117.161 601.6 117.161 600.98V598.82C117.161 598.16 117.081 597.56 115.781 597.56H115.541V595.76H115.741C116.761 595.76 117.161 595.5 117.161 594.56V592.76C117.161 591.94 116.641 591.68 116.161 591.68C115.441 591.68 115.161 592.26 115.161 592.7V593.84H113.121V592.66C113.121 590.96 114.541 589.64 116.201 589.64C116.761 589.64 117.481 589.82 117.921 590.18C118.861 590.92 119.201 591.58 119.201 593.68ZM123.463 591.24V592.62C123.463 593.44 122.823 594.1 121.763 594.1C120.703 594.1 120.063 593.44 120.063 592.62V591.22C120.063 590.32 120.703 589.64 121.763 589.64C122.823 589.64 123.463 590.3 123.463 591.24ZM125.183 589.76H126.503L121.623 604H120.303L125.183 589.76ZM122.263 592.38V591.4C122.263 590.96 121.923 590.84 121.763 590.84C121.503 590.84 121.263 591.06 121.263 591.38V592.34C121.263 592.8 121.643 592.9 121.763 592.9C122.023 592.9 122.263 592.68 122.263 592.38ZM126.743 601.26V602.64C126.743 603.46 126.103 604.12 125.043 604.12C123.983 604.12 123.343 603.46 123.343 602.64V601.24C123.343 600.34 123.983 599.66 125.043 599.66C126.103 599.66 126.743 600.32 126.743 601.26ZM125.543 602.4V601.44C125.543 601.18 125.383 600.86 125.043 600.86C124.783 600.86 124.543 601.08 124.543 601.4V602.34C124.543 602.8 124.863 602.92 125.043 602.92C125.303 602.92 125.543 602.7 125.543 602.4Z" fill="white"/>
<path d="M108.1 613.76H110.14V628H108.1V615.92L106.06 617.42V615.26L108.1 613.76ZM119.201 617.68C119.201 619.5 119.161 619.94 117.941 620.64C118.981 621.24 119.201 621.84 119.201 623.06V624.34C119.201 624.96 119.161 625.92 118.881 626.46C118.461 627.26 117.641 628.12 116.141 628.12C114.401 628.12 113.121 626.9 113.121 625.18V623.92H115.161V624.98C115.161 625.62 115.541 626.08 116.161 626.08C116.801 626.08 117.161 625.6 117.161 624.98V622.82C117.161 622.16 117.081 621.56 115.781 621.56H115.541V619.76H115.741C116.761 619.76 117.161 619.5 117.161 618.56V616.76C117.161 615.94 116.641 615.68 116.161 615.68C115.441 615.68 115.161 616.26 115.161 616.7V617.84H113.121V616.66C113.121 614.96 114.541 613.64 116.201 613.64C116.761 613.64 117.481 613.82 117.921 614.18C118.861 614.92 119.201 615.58 119.201 617.68ZM123.463 615.24V616.62C123.463 617.44 122.823 618.1 121.763 618.1C120.703 618.1 120.063 617.44 120.063 616.62V615.22C120.063 614.32 120.703 613.64 121.763 613.64C122.823 613.64 123.463 614.3 123.463 615.24ZM125.183 613.76H126.503L121.623 628H120.303L125.183 613.76ZM122.263 616.38V615.4C122.263 614.96 121.923 614.84 121.763 614.84C121.503 614.84 121.263 615.06 121.263 615.38V616.34C121.263 616.8 121.643 616.9 121.763 616.9C122.023 616.9 122.263 616.68 122.263 616.38ZM126.743 625.26V626.64C126.743 627.46 126.103 628.12 125.043 628.12C123.983 628.12 123.343 627.46 123.343 626.64V625.24C123.343 624.34 123.983 623.66 125.043 623.66C126.103 623.66 126.743 624.32 126.743 625.26ZM125.543 626.4V625.44C125.543 625.18 125.383 624.86 125.043 624.86C124.783 624.86 124.543 625.08 124.543 625.4V626.34C124.543 626.8 124.863 626.92 125.043 626.92C125.303 626.92 125.543 626.7 125.543 626.4Z" fill="white"/>
<path d="M38.5422 671.288C35.1182 671.288 32.6382 668.776 32.6382 665.336C32.6382 661.896 35.1662 659.384 38.5422 659.384C40.2062 659.384 41.7902 660.072 42.5742 661.176L41.6142 661.88C41.1342 661.144 39.9982 660.392 38.5582 660.392C35.6302 660.392 33.8542 662.696 33.8542 665.336C33.8542 667.976 35.6462 670.28 38.5582 670.28C39.8542 670.28 41.1022 669.768 41.8862 668.6L42.7822 669.176C42.0302 670.312 40.5742 671.288 38.5422 671.288ZM47.9503 671.192C45.6303 671.192 43.9663 669.512 43.9663 667.256C43.9663 665 45.6303 663.32 47.9503 663.32C50.2863 663.32 51.9503 665 51.9503 667.256C51.9503 669.512 50.2863 671.192 47.9503 671.192ZM47.9503 670.264C49.6943 670.264 50.7983 668.936 50.7983 667.256C50.7983 665.576 49.6943 664.232 47.9503 664.232C46.2223 664.232 45.1183 665.576 45.1183 667.256C45.1183 668.936 46.2223 670.264 47.9503 670.264ZM57.0756 671.192C55.1716 671.192 54.2276 669.96 54.2276 668.104V663.496H55.3156V667.656C55.3156 669.224 55.7796 670.28 57.3476 670.28C58.4996 670.28 59.6196 669.352 59.6196 667.352V663.496H60.7076V669.352C60.7076 669.752 60.7236 670.488 60.7716 671H59.7316C59.6996 670.6 59.6676 670.04 59.6676 669.72H59.6356C59.2196 670.584 58.1316 671.192 57.0756 671.192ZM64.6764 671H63.5884V665.16C63.5884 664.76 63.5724 664.008 63.5244 663.496H64.5644C64.5964 663.896 64.6284 664.472 64.6284 664.792H64.6604C65.0764 663.928 66.1644 663.32 67.2204 663.32C69.1244 663.32 70.0684 664.552 70.0684 666.408V671H68.9804V666.856C68.9804 665.288 68.5164 664.232 66.9484 664.232C65.7964 664.232 64.6764 665.16 64.6764 667.16V671ZM74.9813 671.096C74.1813 671.096 73.0613 670.744 73.0613 669.096V664.408H71.5093V663.496H73.0613V661.4H74.1493V663.496H76.2613V664.408H74.1493V668.792C74.1493 669.912 74.6133 670.168 75.2693 670.168C75.5733 670.168 75.9253 670.072 76.2133 669.928L76.2613 670.872C75.8773 671.016 75.4773 671.096 74.9813 671.096ZM79.0514 671H77.9634V665.16C77.9634 664.76 77.9474 664.008 77.8994 663.496H78.9394C78.9714 663.896 79.0034 664.472 79.0034 664.792H79.0354C79.4514 663.928 80.3794 663.32 81.4354 663.32C81.7074 663.32 81.9314 663.336 82.1554 663.4L82.0114 664.424C81.8834 664.376 81.5314 664.328 81.2434 664.328C80.0914 664.328 79.0514 665.16 79.0514 667.16V671ZM84.2891 661.4C83.9051 661.4 83.5211 661.08 83.5211 660.632C83.5211 660.184 83.9051 659.864 84.2891 659.864C84.6731 659.864 85.0571 660.184 85.0571 660.632C85.0571 661.08 84.6731 661.4 84.2891 661.4ZM84.8331 671H83.7451V663.496H84.8331V671ZM91.0571 671.192C88.8331 671.192 87.1851 669.512 87.1851 667.256C87.1851 665 88.8331 663.32 90.9611 663.32C93.3131 663.32 94.5451 664.984 94.5451 667.032C94.5451 667.176 94.5451 667.352 94.5291 667.544H88.3211C88.3531 669.048 89.5211 670.264 91.0571 670.264C92.1771 670.264 93.0411 669.64 93.4571 668.968L94.2731 669.608C93.3931 670.728 92.2891 671.192 91.0571 671.192ZM88.3371 666.68H93.4411C93.3771 665.272 92.5131 664.232 90.9611 664.232C89.5051 664.232 88.4331 665.4 88.3371 666.68ZM99.0133 671.192C97.8773 671.192 96.7413 670.744 96.0533 669.736L96.9173 669.096C97.3013 669.752 98.1173 670.264 98.9973 670.264C99.9253 670.264 100.757 669.928 100.757 668.952C100.757 668.168 99.9733 667.848 98.5493 667.512C97.6693 667.304 96.4053 666.92 96.4053 665.496C96.4053 663.976 97.7173 663.32 99.0773 663.32C100.117 663.32 101.221 663.816 101.701 664.664L100.869 665.288C100.549 664.664 99.8613 664.232 99.0293 664.232C98.2453 664.232 97.4453 664.568 97.4453 665.4C97.4453 666.104 98.0053 666.424 99.2373 666.68C100.997 667.048 101.829 667.704 101.829 668.872C101.829 670.584 100.389 671.192 99.0133 671.192ZM110.523 671H109.339L106.971 663.496H108.139L109.947 669.592H109.979L111.995 663.496H113.051L115.099 669.592H115.131L116.923 663.496H118.075L115.707 671H114.523L112.523 664.92H112.491L110.523 671ZM120.492 661.4C120.108 661.4 119.724 661.08 119.724 660.632C119.724 660.184 120.108 659.864 120.492 659.864C120.876 659.864 121.26 660.184 121.26 660.632C121.26 661.08 120.876 661.4 120.492 661.4ZM121.036 671H119.948V663.496H121.036V671ZM126.028 671.096C125.228 671.096 124.108 670.744 124.108 669.096V664.408H122.556V663.496H124.108V661.4H125.196V663.496H127.308V664.408H125.196V668.792C125.196 669.912 125.66 670.168 126.316 670.168C126.62 670.168 126.972 670.072 127.26 669.928L127.308 670.872C126.924 671.016 126.524 671.096 126.028 671.096ZM130.13 671H129.042V658.904H130.13V664.744H130.162C130.562 663.88 131.618 663.32 132.674 663.32C134.578 663.32 135.522 664.552 135.522 666.408V671H134.434V666.856C134.434 665.288 133.97 664.232 132.402 664.232C131.25 664.232 130.13 665.16 130.13 667.16V671ZM144.434 671.096C143.634 671.096 142.514 670.744 142.514 669.096V664.408H140.962V663.496H142.514V661.4H143.602V663.496H145.714V664.408H143.602V668.792C143.602 669.912 144.066 670.168 144.722 670.168C145.026 670.168 145.378 670.072 145.666 669.928L145.714 670.872C145.33 671.016 144.93 671.096 144.434 671.096ZM148.537 671H147.449V658.904H148.537V664.744H148.569C148.969 663.88 150.025 663.32 151.081 663.32C152.985 663.32 153.929 664.552 153.929 666.408V671H152.841V666.856C152.841 665.288 152.377 664.232 150.809 664.232C149.657 664.232 148.537 665.16 148.537 667.16V671ZM160.073 671.192C157.849 671.192 156.201 669.512 156.201 667.256C156.201 665 157.849 663.32 159.977 663.32C162.329 663.32 163.561 664.984 163.561 667.032C163.561 667.176 163.561 667.352 163.545 667.544H157.337C157.369 669.048 158.537 670.264 160.073 670.264C161.193 670.264 162.057 669.64 162.473 668.968L163.289 669.608C162.409 670.728 161.305 671.192 160.073 671.192ZM157.353 666.68H162.457C162.393 665.272 161.529 664.232 159.977 664.232C158.521 664.232 157.449 665.4 157.353 666.68ZM178.365 663.32C180.269 663.32 181.213 664.552 181.213 666.408V671H180.125V666.856C180.125 665.288 179.597 664.232 178.189 664.232C176.621 664.232 176.061 665.624 176.061 667.016V671H174.973V666.632C174.973 665.176 174.621 664.232 173.165 664.232C172.125 664.232 170.989 665.16 170.989 667.16V671H169.901V665.16C169.901 664.76 169.885 664.008 169.837 663.496H170.877C170.909 663.896 170.941 664.472 170.941 664.792H170.973C171.405 663.928 172.365 663.32 173.437 663.32C174.253 663.32 175.245 663.64 175.741 664.904C176.253 663.864 177.165 663.32 178.365 663.32ZM187.466 671.192C185.146 671.192 183.482 669.512 183.482 667.256C183.482 665 185.146 663.32 187.466 663.32C189.802 663.32 191.466 665 191.466 667.256C191.466 669.512 189.802 671.192 187.466 671.192ZM187.466 670.264C189.21 670.264 190.314 668.936 190.314 667.256C190.314 665.576 189.21 664.232 187.466 664.232C185.738 664.232 184.634 665.576 184.634 667.256C184.634 668.936 185.738 670.264 187.466 670.264ZM195.935 671.192C194.799 671.192 193.663 670.744 192.975 669.736L193.839 669.096C194.223 669.752 195.039 670.264 195.919 670.264C196.847 670.264 197.679 669.928 197.679 668.952C197.679 668.168 196.895 667.848 195.471 667.512C194.591 667.304 193.327 666.92 193.327 665.496C193.327 663.976 194.639 663.32 195.999 663.32C197.039 663.32 198.143 663.816 198.623 664.664L197.791 665.288C197.471 664.664 196.783 664.232 195.951 664.232C195.167 664.232 194.367 664.568 194.367 665.4C194.367 666.104 194.927 666.424 196.159 666.68C197.919 667.048 198.751 667.704 198.751 668.872C198.751 670.584 197.311 671.192 195.935 671.192ZM203.013 671.096C202.213 671.096 201.093 670.744 201.093 669.096V664.408H199.541V663.496H201.093V661.4H202.181V663.496H204.293V664.408H202.181V668.792C202.181 669.912 202.645 670.168 203.301 670.168C203.605 670.168 203.957 670.072 204.245 669.928L204.293 670.872C203.909 671.016 203.509 671.096 203.013 671.096ZM213.451 671.192C211.035 671.192 209.451 669.512 209.451 667.256C209.451 665 211.035 663.32 213.451 663.32C214.459 663.32 215.595 663.752 216.235 664.616L215.387 665.224C215.035 664.648 214.283 664.232 213.467 664.232C211.723 664.232 210.603 665.544 210.603 667.256C210.603 668.952 211.707 670.264 213.451 670.264C214.395 670.264 215.051 669.864 215.483 669.288L216.299 669.896C215.659 670.68 214.747 671.192 213.451 671.192ZM219.083 671H217.995V665.16C217.995 664.76 217.979 664.008 217.931 663.496H218.971C219.003 663.896 219.035 664.472 219.035 664.792H219.067C219.483 663.928 220.411 663.32 221.467 663.32C221.739 663.32 221.963 663.336 222.187 663.4L222.043 664.424C221.915 664.376 221.563 664.328 221.275 664.328C220.123 664.328 219.083 665.16 219.083 667.16V671ZM226.919 671.192C224.599 671.192 222.935 669.512 222.935 667.256C222.935 665 224.599 663.32 226.919 663.32C229.255 663.32 230.919 665 230.919 667.256C230.919 669.512 229.255 671.192 226.919 671.192ZM226.919 670.264C228.663 670.264 229.767 668.936 229.767 667.256C229.767 665.576 228.663 664.232 226.919 664.232C225.191 664.232 224.087 665.576 224.087 667.256C224.087 668.936 225.191 670.264 226.919 670.264ZM235.388 671.192C234.252 671.192 233.116 670.744 232.428 669.736L233.292 669.096C233.676 669.752 234.492 670.264 235.372 670.264C236.3 670.264 237.132 669.928 237.132 668.952C237.132 668.168 236.348 667.848 234.924 667.512C234.044 667.304 232.78 666.92 232.78 665.496C232.78 663.976 234.092 663.32 235.452 663.32C236.492 663.32 237.596 663.816 238.076 664.664L237.244 665.288C236.924 664.664 236.236 664.232 235.404 664.232C234.62 664.232 233.82 664.568 233.82 665.4C233.82 666.104 234.38 666.424 235.612 666.68C237.372 667.048 238.204 667.704 238.204 668.872C238.204 670.584 236.764 671.192 235.388 671.192ZM242.498 671.192C241.362 671.192 240.226 670.744 239.538 669.736L240.402 669.096C240.786 669.752 241.602 670.264 242.482 670.264C243.41 670.264 244.242 669.928 244.242 668.952C244.242 668.168 243.458 667.848 242.034 667.512C241.154 667.304 239.89 666.92 239.89 665.496C239.89 663.976 241.202 663.32 242.562 663.32C243.602 663.32 244.706 663.816 245.186 664.664L244.354 665.288C244.034 664.664 243.346 664.232 242.514 664.232C241.73 664.232 240.93 664.568 240.93 665.4C240.93 666.104 241.49 666.424 242.722 666.68C244.482 667.048 245.314 667.704 245.314 668.872C245.314 670.584 243.874 671.192 242.498 671.192ZM250.391 667.576H246.807V666.664H250.391V667.576ZM256.588 671.192C255.516 671.192 254.396 670.68 253.756 669.736H253.724V671H252.636V658.904H253.724V664.808H253.756C254.396 663.832 255.516 663.32 256.588 663.32C258.924 663.32 260.46 665.048 260.46 667.256C260.46 669.464 258.924 671.192 256.588 671.192ZM256.476 670.264C258.284 670.264 259.308 668.92 259.308 667.256C259.308 665.592 258.284 664.232 256.476 664.232C254.796 664.232 253.596 665.544 253.596 667.256C253.596 668.968 254.796 670.264 256.476 670.264ZM266.232 671.192C263.912 671.192 262.248 669.512 262.248 667.256C262.248 665 263.912 663.32 266.232 663.32C268.568 663.32 270.232 665 270.232 667.256C270.232 669.512 268.568 671.192 266.232 671.192ZM266.232 670.264C267.976 670.264 269.08 668.936 269.08 667.256C269.08 665.576 267.976 664.232 266.232 664.232C264.504 664.232 263.4 665.576 263.4 667.256C263.4 668.936 264.504 670.264 266.232 670.264ZM273.661 671H272.573V665.16C272.573 664.76 272.557 664.008 272.509 663.496H273.549C273.581 663.896 273.613 664.472 273.613 664.792H273.645C274.061 663.928 274.989 663.32 276.045 663.32C276.317 663.32 276.541 663.336 276.765 663.4L276.621 664.424C276.493 664.376 276.141 664.328 275.853 664.328C274.701 664.328 273.661 665.16 273.661 667.16V671ZM281.385 671.192C279.049 671.192 277.513 669.464 277.513 667.256C277.513 665.048 279.049 663.32 281.385 663.32C282.457 663.32 283.577 663.832 284.217 664.808H284.249V658.904H285.337V671H284.249V669.736H284.217C283.577 670.68 282.457 671.192 281.385 671.192ZM281.497 670.264C283.177 670.264 284.377 668.968 284.377 667.256C284.377 665.544 283.177 664.232 281.497 664.232C279.689 664.232 278.665 665.592 278.665 667.256C278.665 668.92 279.689 670.264 281.497 670.264ZM291.573 671.192C289.349 671.192 287.701 669.512 287.701 667.256C287.701 665 289.349 663.32 291.477 663.32C293.829 663.32 295.061 664.984 295.061 667.032C295.061 667.176 295.061 667.352 295.045 667.544H288.837C288.869 669.048 290.037 670.264 291.573 670.264C292.693 670.264 293.557 669.64 293.973 668.968L294.789 669.608C293.909 670.728 292.805 671.192 291.573 671.192ZM288.853 666.68H293.957C293.893 665.272 293.029 664.232 291.477 664.232C290.021 664.232 288.949 665.4 288.853 666.68ZM298.489 671H297.401V665.16C297.401 664.76 297.385 664.008 297.337 663.496H298.377C298.409 663.896 298.441 664.472 298.441 664.792H298.473C298.889 663.928 299.817 663.32 300.873 663.32C301.145 663.32 301.369 663.336 301.593 663.4L301.449 664.424C301.321 664.376 300.969 664.328 300.681 664.328C299.529 664.328 298.489 665.16 298.489 667.16V671ZM309.263 671.096C308.463 671.096 307.343 670.744 307.343 669.096V664.408H305.791V663.496H307.343V661.4H308.431V663.496H310.543V664.408H308.431V668.792C308.431 669.912 308.895 670.168 309.551 670.168C309.855 670.168 310.207 670.072 310.495 669.928L310.543 670.872C310.159 671.016 309.759 671.096 309.263 671.096ZM313.333 671H312.245V665.16C312.245 664.76 312.229 664.008 312.181 663.496H313.221C313.253 663.896 313.285 664.472 313.285 664.792H313.317C313.733 663.928 314.661 663.32 315.717 663.32C315.989 663.32 316.213 663.336 316.437 663.4L316.293 664.424C316.165 664.376 315.813 664.328 315.525 664.328C314.373 664.328 313.333 665.16 313.333 667.16V671ZM319.839 671.192C318.703 671.192 317.247 670.584 317.247 668.92C317.247 666.632 319.743 666.408 322.463 666.408H322.527V666.168C322.527 664.872 321.823 664.232 320.527 664.232C319.647 664.232 318.831 664.584 318.303 665.112L317.695 664.392C318.303 663.784 319.359 663.32 320.639 663.32C322.255 663.32 323.551 664.216 323.551 666.04V669.32C323.551 669.896 323.599 670.584 323.679 671H322.703C322.639 670.632 322.591 670.184 322.591 669.784H322.559C321.871 670.776 321.039 671.192 319.839 671.192ZM320.127 670.296C321.663 670.296 322.527 669.144 322.527 667.816V667.256H322.207C320.431 667.256 318.367 667.448 318.367 668.872C318.367 669.944 319.279 670.296 320.127 670.296ZM329.682 671.192C327.346 671.192 325.81 669.464 325.81 667.256C325.81 665.048 327.346 663.32 329.682 663.32C330.754 663.32 331.874 663.832 332.514 664.808H332.546V658.904H333.634V671H332.546V669.736H332.514C331.874 670.68 330.754 671.192 329.682 671.192ZM329.794 670.264C331.474 670.264 332.674 668.968 332.674 667.256C332.674 665.544 331.474 664.232 329.794 664.232C327.986 664.232 326.962 665.592 326.962 667.256C326.962 668.92 327.986 670.264 329.794 670.264ZM339.87 671.192C337.646 671.192 335.998 669.512 335.998 667.256C335.998 665 337.646 663.32 339.774 663.32C342.126 663.32 343.358 664.984 343.358 667.032C343.358 667.176 343.358 667.352 343.342 667.544H337.134C337.166 669.048 338.334 670.264 339.87 670.264C340.99 670.264 341.854 669.64 342.27 668.968L343.086 669.608C342.206 670.728 341.102 671.192 339.87 671.192ZM337.15 666.68H342.254C342.19 665.272 341.326 664.232 339.774 664.232C338.318 664.232 337.246 665.4 337.15 666.68Z" fill="white"/>
<path d="M51.672 24.608L44.472 36.496L43.64 36.064L50.856 24.176L51.672 24.608ZM44.424 30.08C42.84 30.08 41.608 28.848 41.608 27.28C41.608 25.712 42.84 24.48 44.424 24.48C46.008 24.48 47.24 25.712 47.24 27.28C47.24 28.848 46.008 30.08 44.424 30.08ZM44.424 29.12C45.432 29.12 46.28 28.336 46.28 27.28C46.28 26.224 45.432 25.44 44.424 25.44C43.416 25.44 42.568 26.224 42.568 27.28C42.568 28.336 43.416 29.12 44.424 29.12ZM50.904 36.192C49.32 36.192 48.088 34.96 48.088 33.392C48.088 31.824 49.32 30.592 50.904 30.592C52.488 30.592 53.72 31.824 53.72 33.392C53.72 34.96 52.488 36.192 50.904 36.192ZM50.904 35.232C51.912 35.232 52.76 34.448 52.76 33.392C52.76 32.336 51.912 31.552 50.904 31.552C49.896 31.552 49.048 32.336 49.048 33.392C49.048 34.448 49.896 35.232 50.904 35.232ZM63.2081 36.192C60.8881 36.192 59.2241 34.512 59.2241 32.256C59.2241 30 60.8881 28.32 63.2081 28.32C65.5441 28.32 67.2081 30 67.2081 32.256C67.2081 34.512 65.5441 36.192 63.2081 36.192ZM63.2081 35.264C64.9521 35.264 66.0561 33.936 66.0561 32.256C66.0561 30.576 64.9521 29.232 63.2081 29.232C61.4801 29.232 60.3761 30.576 60.3761 32.256C60.3761 33.936 61.4801 35.264 63.2081 35.264ZM70.9574 36H69.8694V29.408H68.3014V28.496H69.8694V26.464C69.8694 24.768 70.7014 23.712 72.4134 23.712C72.6854 23.712 73.0374 23.744 73.3094 23.824L73.1174 24.784C72.8934 24.72 72.6534 24.672 72.3654 24.672C71.1974 24.672 70.9574 25.504 70.9574 26.592V28.496H72.7174V29.408H70.9574V36ZM79.7468 36H78.6588V30.16C78.6588 29.76 78.6428 29.008 78.5948 28.496H79.6348C79.6668 28.896 79.6988 29.472 79.6988 29.792H79.7308C80.1468 28.928 81.0748 28.32 82.1308 28.32C82.4028 28.32 82.6268 28.336 82.8508 28.4L82.7068 29.424C82.5788 29.376 82.2268 29.328 81.9388 29.328C80.7868 29.328 79.7468 30.16 79.7468 32.16V36ZM87.4711 36.192C85.2471 36.192 83.5991 34.512 83.5991 32.256C83.5991 30 85.2471 28.32 87.3751 28.32C89.7271 28.32 90.9591 29.984 90.9591 32.032C90.9591 32.176 90.9591 32.352 90.9431 32.544H84.7351C84.7671 34.048 85.9351 35.264 87.4711 35.264C88.5911 35.264 89.4551 34.64 89.8711 33.968L90.6871 34.608C89.8071 35.728 88.7031 36.192 87.4711 36.192ZM84.7511 31.68H89.8551C89.7911 30.272 88.9271 29.232 87.3751 29.232C85.9191 29.232 84.8471 30.4 84.7511 31.68ZM95.4274 36.192C94.2914 36.192 93.1554 35.744 92.4674 34.736L93.3314 34.096C93.7154 34.752 94.5314 35.264 95.4114 35.264C96.3394 35.264 97.1714 34.928 97.1714 33.952C97.1714 33.168 96.3874 32.848 94.9634 32.512C94.0834 32.304 92.8194 31.92 92.8194 30.496C92.8194 28.976 94.1314 28.32 95.4914 28.32C96.5314 28.32 97.6354 28.816 98.1154 29.664L97.2834 30.288C96.9634 29.664 96.2754 29.232 95.4434 29.232C94.6594 29.232 93.8594 29.568 93.8594 30.4C93.8594 31.104 94.4194 31.424 95.6514 31.68C97.4114 32.048 98.2434 32.704 98.2434 33.872C98.2434 35.584 96.8034 36.192 95.4274 36.192ZM101.497 39.84H100.409V28.496H101.497V29.808H101.545C102.169 28.832 103.289 28.32 104.361 28.32C106.697 28.32 108.233 30.048 108.233 32.256C108.233 34.464 106.697 36.192 104.361 36.192C103.289 36.192 102.169 35.664 101.545 34.736H101.497V39.84ZM104.249 35.264C106.057 35.264 107.081 33.92 107.081 32.256C107.081 30.592 106.057 29.232 104.249 29.232C102.569 29.232 101.369 30.544 101.369 32.256C101.369 33.968 102.569 35.264 104.249 35.264ZM114.005 36.192C111.685 36.192 110.021 34.512 110.021 32.256C110.021 30 111.685 28.32 114.005 28.32C116.341 28.32 118.005 30 118.005 32.256C118.005 34.512 116.341 36.192 114.005 36.192ZM114.005 35.264C115.749 35.264 116.853 33.936 116.853 32.256C116.853 30.576 115.749 29.232 114.005 29.232C112.277 29.232 111.173 30.576 111.173 32.256C111.173 33.936 112.277 35.264 114.005 35.264ZM121.434 36H120.346V30.16C120.346 29.76 120.33 29.008 120.282 28.496H121.322C121.354 28.896 121.386 29.472 121.386 29.792H121.418C121.834 28.928 122.922 28.32 123.978 28.32C125.882 28.32 126.826 29.552 126.826 31.408V36H125.738V31.856C125.738 30.288 125.274 29.232 123.706 29.232C122.554 29.232 121.434 30.16 121.434 32.16V36ZM132.971 36.192C130.635 36.192 129.099 34.464 129.099 32.256C129.099 30.048 130.635 28.32 132.971 28.32C134.043 28.32 135.163 28.832 135.803 29.808H135.835V23.904H136.923V36H135.835V34.736H135.803C135.163 35.68 134.043 36.192 132.971 36.192ZM133.083 35.264C134.763 35.264 135.963 33.968 135.963 32.256C135.963 30.544 134.763 29.232 133.083 29.232C131.275 29.232 130.251 30.592 130.251 32.256C130.251 33.92 131.275 35.264 133.083 35.264ZM143.159 36.192C140.935 36.192 139.287 34.512 139.287 32.256C139.287 30 140.935 28.32 143.063 28.32C145.415 28.32 146.647 29.984 146.647 32.032C146.647 32.176 146.647 32.352 146.631 32.544H140.423C140.455 34.048 141.623 35.264 143.159 35.264C144.279 35.264 145.143 34.64 145.559 33.968L146.375 34.608C145.495 35.728 144.391 36.192 143.159 36.192ZM140.439 31.68H145.543C145.479 30.272 144.615 29.232 143.063 29.232C141.607 29.232 140.535 30.4 140.439 31.68ZM150.075 36H148.987V30.16C148.987 29.76 148.971 29.008 148.923 28.496H149.963C149.995 28.896 150.027 29.472 150.027 29.792H150.059C150.475 28.928 151.563 28.32 152.619 28.32C154.523 28.32 155.467 29.552 155.467 31.408V36H154.379V31.856C154.379 30.288 153.915 29.232 152.347 29.232C151.195 29.232 150.075 30.16 150.075 32.16V36ZM160.38 36.096C159.58 36.096 158.46 35.744 158.46 34.096V29.408H156.908V28.496H158.46V26.4H159.548V28.496H161.66V29.408H159.548V33.792C159.548 34.912 160.012 35.168 160.668 35.168C160.972 35.168 161.324 35.072 161.612 34.928L161.66 35.872C161.276 36.016 160.876 36.096 160.38 36.096ZM165.49 36.192C164.354 36.192 163.218 35.744 162.53 34.736L163.394 34.096C163.778 34.752 164.594 35.264 165.474 35.264C166.402 35.264 167.234 34.928 167.234 33.952C167.234 33.168 166.45 32.848 165.026 32.512C164.146 32.304 162.882 31.92 162.882 30.496C162.882 28.976 164.194 28.32 165.554 28.32C166.594 28.32 167.698 28.816 168.178 29.664L167.346 30.288C167.026 29.664 166.338 29.232 165.506 29.232C164.722 29.232 163.922 29.568 163.922 30.4C163.922 31.104 164.482 31.424 165.714 31.68C167.474 32.048 168.306 32.704 168.306 33.872C168.306 35.584 166.866 36.192 165.49 36.192ZM176.999 36H175.815L173.447 28.496H174.615L176.423 34.592H176.455L178.471 28.496H179.527L181.575 34.592H181.607L183.399 28.496H184.551L182.183 36H180.999L178.999 29.92H178.967L176.999 36ZM187.529 36H186.441V23.904H187.529V29.744H187.561C187.961 28.88 189.017 28.32 190.073 28.32C191.977 28.32 192.921 29.552 192.921 31.408V36H191.833V31.856C191.833 30.288 191.369 29.232 189.801 29.232C188.649 29.232 187.529 30.16 187.529 32.16V36ZM199.177 36.192C196.857 36.192 195.193 34.512 195.193 32.256C195.193 30 196.857 28.32 199.177 28.32C201.513 28.32 203.177 30 203.177 32.256C203.177 34.512 201.513 36.192 199.177 36.192ZM199.177 35.264C200.921 35.264 202.025 33.936 202.025 32.256C202.025 30.576 200.921 29.232 199.177 29.232C197.449 29.232 196.345 30.576 196.345 32.256C196.345 33.936 197.449 35.264 199.177 35.264ZM211.15 36H209.23V29.76V28.256H211.07V29.536H211.102C211.518 28.656 212.334 28.032 213.342 28.032C213.486 28.032 213.678 28.048 213.806 28.08V29.84C213.55 29.776 213.39 29.76 213.214 29.76C211.486 29.76 211.15 31.264 211.15 31.824V36ZM218.457 36.224C216.089 36.224 214.329 34.704 214.329 32.208C214.329 29.728 216.073 28.096 218.393 28.096C220.537 28.096 222.105 29.488 222.105 32.256C222.105 32.432 222.105 32.592 222.089 32.768H216.249C216.329 33.856 217.321 34.656 218.441 34.656C219.401 34.656 220.041 34.272 220.473 33.664L221.753 34.688C221.001 35.712 219.913 36.224 218.457 36.224ZM216.249 31.392H220.185C220.185 30.4 219.625 29.536 218.377 29.536C217.241 29.536 216.329 30.32 216.249 31.392ZM227.677 36.224C225.405 36.224 223.517 34.72 223.517 32.16C223.517 29.664 225.373 28.096 227.629 28.096C228.749 28.096 229.917 28.544 230.525 29.296L229.213 30.448C228.909 30.016 228.253 29.696 227.629 29.696C226.221 29.696 225.517 30.96 225.517 32.16C225.517 33.36 226.237 34.624 227.693 34.624C228.285 34.624 228.941 34.384 229.309 33.936L230.509 35.152C229.869 35.84 228.813 36.224 227.677 36.224ZM235.457 36.224C233.089 36.224 231.329 34.704 231.329 32.208C231.329 29.728 233.073 28.096 235.393 28.096C237.537 28.096 239.105 29.488 239.105 32.256C239.105 32.432 239.105 32.592 239.089 32.768H233.249C233.329 33.856 234.321 34.656 235.441 34.656C236.401 34.656 237.041 34.272 237.473 33.664L238.753 34.688C238.001 35.712 236.913 36.224 235.457 36.224ZM233.249 31.392H237.185C237.185 30.4 236.625 29.536 235.377 29.536C234.241 29.536 233.329 30.32 233.249 31.392ZM241.941 26.864C241.237 26.864 240.725 26.32 240.725 25.712C240.725 25.104 241.237 24.56 241.941 24.56C242.645 24.56 243.189 25.056 243.189 25.712C243.189 26.368 242.645 26.864 241.941 26.864ZM242.917 36H240.997V28.256H242.917V36ZM249.246 36H247.198L244.094 28.256H246.19L248.206 33.92H248.238L250.27 28.256H252.302L249.246 36ZM257.129 36.224C254.761 36.224 253.001 34.704 253.001 32.208C253.001 29.728 254.745 28.096 257.065 28.096C259.209 28.096 260.777 29.488 260.777 32.256C260.777 32.432 260.777 32.592 260.761 32.768H254.921C255.001 33.856 255.993 34.656 257.113 34.656C258.073 34.656 258.713 34.272 259.145 33.664L260.425 34.688C259.673 35.712 258.585 36.224 257.129 36.224ZM254.921 31.392H258.857C258.857 30.4 258.297 29.536 257.049 29.536C255.913 29.536 255.001 30.32 254.921 31.392ZM268.012 39.84H266.924V28.496H268.012V29.808H268.06C268.684 28.832 269.804 28.32 270.876 28.32C273.212 28.32 274.748 30.048 274.748 32.256C274.748 34.464 273.212 36.192 270.876 36.192C269.804 36.192 268.684 35.664 268.06 34.736H268.012V39.84ZM270.764 35.264C272.572 35.264 273.596 33.92 273.596 32.256C273.596 30.592 272.572 29.232 270.764 29.232C269.084 29.232 267.884 30.544 267.884 32.256C267.884 33.968 269.084 35.264 270.764 35.264ZM279.113 36.192C277.977 36.192 276.521 35.584 276.521 33.92C276.521 31.632 279.017 31.408 281.737 31.408H281.801V31.168C281.801 29.872 281.097 29.232 279.801 29.232C278.921 29.232 278.105 29.584 277.577 30.112L276.969 29.392C277.577 28.784 278.633 28.32 279.913 28.32C281.529 28.32 282.825 29.216 282.825 31.04V34.32C282.825 34.896 282.873 35.584 282.953 36H281.977C281.913 35.632 281.865 35.184 281.865 34.784H281.833C281.145 35.776 280.313 36.192 279.113 36.192ZM279.401 35.296C280.937 35.296 281.801 34.144 281.801 32.816V32.256H281.481C279.705 32.256 277.641 32.448 277.641 33.872C277.641 34.944 278.553 35.296 279.401 35.296ZM285.66 39.84C285.34 39.84 285.004 39.808 284.684 39.744L284.796 38.752C285.036 38.832 285.308 38.88 285.596 38.88C286.332 38.88 286.716 38.4 287.036 37.552L287.644 35.984L284.444 28.496H285.66L288.204 34.832H288.236L290.556 28.496H291.74L288.012 37.936C287.564 39.088 286.956 39.84 285.66 39.84ZM301.904 28.32C303.808 28.32 304.752 29.552 304.752 31.408V36H303.664V31.856C303.664 30.288 303.136 29.232 301.728 29.232C300.16 29.232 299.6 30.624 299.6 32.016V36H298.512V31.632C298.512 30.176 298.16 29.232 296.704 29.232C295.664 29.232 294.528 30.16 294.528 32.16V36H293.44V30.16C293.44 29.76 293.424 29.008 293.376 28.496H294.416C294.448 28.896 294.48 29.472 294.48 29.792H294.512C294.944 28.928 295.904 28.32 296.976 28.32C297.792 28.32 298.784 28.64 299.28 29.904C299.792 28.864 300.704 28.32 301.904 28.32ZM310.893 36.192C308.669 36.192 307.021 34.512 307.021 32.256C307.021 30 308.669 28.32 310.797 28.32C313.149 28.32 314.381 29.984 314.381 32.032C314.381 32.176 314.381 32.352 314.365 32.544H308.157C308.189 34.048 309.357 35.264 310.893 35.264C312.013 35.264 312.877 34.64 313.293 33.968L314.109 34.608C313.229 35.728 312.125 36.192 310.893 36.192ZM308.173 31.68H313.277C313.213 30.272 312.349 29.232 310.797 29.232C309.341 29.232 308.269 30.4 308.173 31.68ZM317.809 36H316.721V30.16C316.721 29.76 316.705 29.008 316.657 28.496H317.697C317.729 28.896 317.761 29.472 317.761 29.792H317.793C318.209 28.928 319.297 28.32 320.353 28.32C322.257 28.32 323.201 29.552 323.201 31.408V36H322.113V31.856C322.113 30.288 321.649 29.232 320.081 29.232C318.929 29.232 317.809 30.16 317.809 32.16V36ZM328.114 36.096C327.314 36.096 326.194 35.744 326.194 34.096V29.408H324.642V28.496H326.194V26.4H327.282V28.496H329.394V29.408H327.282V33.792C327.282 34.912 327.746 35.168 328.402 35.168C328.706 35.168 329.058 35.072 329.346 34.928L329.394 35.872C329.01 36.016 328.61 36.096 328.114 36.096ZM333.224 36.192C332.088 36.192 330.952 35.744 330.264 34.736L331.128 34.096C331.512 34.752 332.328 35.264 333.208 35.264C334.136 35.264 334.968 34.928 334.968 33.952C334.968 33.168 334.184 32.848 332.76 32.512C331.88 32.304 330.616 31.92 330.616 30.496C330.616 28.976 331.928 28.32 333.288 28.32C334.328 28.32 335.432 28.816 335.912 29.664L335.08 30.288C334.76 29.664 334.072 29.232 333.24 29.232C332.456 29.232 331.656 29.568 331.656 30.4C331.656 31.104 332.216 31.424 333.448 31.68C335.208 32.048 336.04 32.704 336.04 33.872C336.04 35.584 334.6 36.192 333.224 36.192ZM43.848 56H42.76V49.408H41.192V48.496H42.76V46.464C42.76 44.768 43.592 43.712 45.304 43.712C45.576 43.712 45.928 43.744 46.2 43.824L46.008 44.784C45.784 44.72 45.544 44.672 45.256 44.672C44.088 44.672 43.848 45.504 43.848 46.592V48.496H45.608V49.408H43.848V56ZM48.2468 56H47.1588V50.16C47.1588 49.76 47.1428 49.008 47.0948 48.496H48.1348C48.1668 48.896 48.1988 49.472 48.1988 49.792H48.2308C48.6468 48.928 49.5748 48.32 50.6308 48.32C50.9028 48.32 51.1268 48.336 51.3508 48.4L51.2068 49.424C51.0788 49.376 50.7268 49.328 50.4388 49.328C49.2868 49.328 48.2468 50.16 48.2468 52.16V56ZM56.0831 56.192C53.7631 56.192 52.0991 54.512 52.0991 52.256C52.0991 50 53.7631 48.32 56.0831 48.32C58.4191 48.32 60.0831 50 60.0831 52.256C60.0831 54.512 58.4191 56.192 56.0831 56.192ZM56.0831 55.264C57.8271 55.264 58.9311 53.936 58.9311 52.256C58.9311 50.576 57.8271 49.232 56.0831 49.232C54.3551 49.232 53.2511 50.576 53.2511 52.256C53.2511 53.936 54.3551 55.264 56.0831 55.264ZM70.8884 48.32C72.7924 48.32 73.7364 49.552 73.7364 51.408V56H72.6484V51.856C72.6484 50.288 72.1204 49.232 70.7124 49.232C69.1444 49.232 68.5844 50.624 68.5844 52.016V56H67.4964V51.632C67.4964 50.176 67.1444 49.232 65.6884 49.232C64.6484 49.232 63.5124 50.16 63.5124 52.16V56H62.4244V50.16C62.4244 49.76 62.4084 49.008 62.3604 48.496H63.4004C63.4324 48.896 63.4644 49.472 63.4644 49.792H63.4964C63.9284 48.928 64.8884 48.32 65.9604 48.32C66.7764 48.32 67.7684 48.64 68.2644 49.904C68.7764 48.864 69.6884 48.32 70.8884 48.32ZM82.6454 56.096C81.8454 56.096 80.7254 55.744 80.7254 54.096V49.408H79.1734V48.496H80.7254V46.4H81.8134V48.496H83.9254V49.408H81.8134V53.792C81.8134 54.912 82.2774 55.168 82.9334 55.168C83.2374 55.168 83.5894 55.072 83.8774 54.928L83.9254 55.872C83.5414 56.016 83.1414 56.096 82.6454 56.096ZM86.7475 56H85.6595V43.904H86.7475V49.744H86.7795C87.1795 48.88 88.2355 48.32 89.2915 48.32C91.1955 48.32 92.1395 49.552 92.1395 51.408V56H91.0515V51.856C91.0515 50.288 90.5875 49.232 89.0195 49.232C87.8675 49.232 86.7475 50.16 86.7475 52.16V56ZM95.5156 46.4C95.1316 46.4 94.7476 46.08 94.7476 45.632C94.7476 45.184 95.1316 44.864 95.5156 44.864C95.8996 44.864 96.2836 45.184 96.2836 45.632C96.2836 46.08 95.8996 46.4 95.5156 46.4ZM96.0596 56H94.9716V48.496H96.0596V56ZM101.084 56.192C99.9476 56.192 98.8116 55.744 98.1236 54.736L98.9876 54.096C99.3716 54.752 100.188 55.264 101.068 55.264C101.996 55.264 102.828 54.928 102.828 53.952C102.828 53.168 102.044 52.848 100.62 52.512C99.7396 52.304 98.4756 51.92 98.4756 50.496C98.4756 48.976 99.7876 48.32 101.148 48.32C102.188 48.32 103.292 48.816 103.772 49.664L102.94 50.288C102.62 49.664 101.932 49.232 101.1 49.232C100.316 49.232 99.5156 49.568 99.5156 50.4C99.5156 51.104 100.076 51.424 101.308 51.68C103.068 52.048 103.9 52.704 103.9 53.872C103.9 55.584 102.46 56.192 101.084 56.192ZM113.521 56.192C111.105 56.192 109.521 54.512 109.521 52.256C109.521 50 111.105 48.32 113.521 48.32C114.529 48.32 115.665 48.752 116.305 49.616L115.457 50.224C115.105 49.648 114.353 49.232 113.537 49.232C111.793 49.232 110.673 50.544 110.673 52.256C110.673 53.952 111.777 55.264 113.521 55.264C114.465 55.264 115.121 54.864 115.553 54.288L116.369 54.896C115.729 55.68 114.817 56.192 113.521 56.192ZM121.505 56.192C119.185 56.192 117.521 54.512 117.521 52.256C117.521 50 119.185 48.32 121.505 48.32C123.841 48.32 125.505 50 125.505 52.256C125.505 54.512 123.841 56.192 121.505 56.192ZM121.505 55.264C123.249 55.264 124.353 53.936 124.353 52.256C124.353 50.576 123.249 49.232 121.505 49.232C119.777 49.232 118.673 50.576 118.673 52.256C118.673 53.936 119.777 55.264 121.505 55.264ZM130.63 56.192C128.726 56.192 127.782 54.96 127.782 53.104V48.496H128.87V52.656C128.87 54.224 129.334 55.28 130.902 55.28C132.054 55.28 133.174 54.352 133.174 52.352V48.496H134.262V54.352C134.262 54.752 134.278 55.488 134.326 56H133.286C133.254 55.6 133.222 55.04 133.222 54.72H133.19C132.774 55.584 131.686 56.192 130.63 56.192ZM138.231 56H137.143V50.16C137.143 49.76 137.127 49.008 137.079 48.496H138.119C138.151 48.896 138.183 49.472 138.183 49.792H138.215C138.631 48.928 139.719 48.32 140.775 48.32C142.679 48.32 143.623 49.552 143.623 51.408V56H142.535V51.856C142.535 50.288 142.071 49.232 140.503 49.232C139.351 49.232 138.231 50.16 138.231 52.16V56ZM148.536 56.096C147.736 56.096 146.616 55.744 146.616 54.096V49.408H145.064V48.496H146.616V46.4H147.704V48.496H149.816V49.408H147.704V53.792C147.704 54.912 148.168 55.168 148.824 55.168C149.128 55.168 149.48 55.072 149.768 54.928L149.816 55.872C149.432 56.016 149.032 56.096 148.536 56.096ZM152.606 56H151.518V50.16C151.518 49.76 151.502 49.008 151.454 48.496H152.494C152.526 48.896 152.558 49.472 152.558 49.792H152.59C153.006 48.928 153.934 48.32 154.99 48.32C155.262 48.32 155.486 48.336 155.71 48.4L155.566 49.424C155.438 49.376 155.086 49.328 154.798 49.328C153.646 49.328 152.606 50.16 152.606 52.16V56ZM157.316 59.84C156.996 59.84 156.66 59.808 156.34 59.744L156.452 58.752C156.692 58.832 156.964 58.88 157.252 58.88C157.988 58.88 158.372 58.4 158.692 57.552L159.3 55.984L156.1 48.496H157.316L159.86 54.832H159.892L162.212 48.496H163.396L159.668 57.936C159.22 59.088 158.612 59.84 157.316 59.84Z" fill="white"/>
<rect x="13" y="21" width="20" height="20" rx="2.6" fill="url(#paint12_linear_445_1177)"/>
<path d="M54.672 87.608L47.472 99.496L46.64 99.064L53.856 87.176L54.672 87.608ZM47.424 93.08C45.84 93.08 44.608 91.848 44.608 90.28C44.608 88.712 45.84 87.48 47.424 87.48C49.008 87.48 50.24 88.712 50.24 90.28C50.24 91.848 49.008 93.08 47.424 93.08ZM47.424 92.12C48.432 92.12 49.28 91.336 49.28 90.28C49.28 89.224 48.432 88.44 47.424 88.44C46.416 88.44 45.568 89.224 45.568 90.28C45.568 91.336 46.416 92.12 47.424 92.12ZM53.904 99.192C52.32 99.192 51.088 97.96 51.088 96.392C51.088 94.824 52.32 93.592 53.904 93.592C55.488 93.592 56.72 94.824 56.72 96.392C56.72 97.96 55.488 99.192 53.904 99.192ZM53.904 98.232C54.912 98.232 55.76 97.448 55.76 96.392C55.76 95.336 54.912 94.552 53.904 94.552C52.896 94.552 52.048 95.336 52.048 96.392C52.048 97.448 52.896 98.232 53.904 98.232ZM66.2081 99.192C63.8881 99.192 62.2241 97.512 62.2241 95.256C62.2241 93 63.8881 91.32 66.2081 91.32C68.5441 91.32 70.2081 93 70.2081 95.256C70.2081 97.512 68.5441 99.192 66.2081 99.192ZM66.2081 98.264C67.9521 98.264 69.0561 96.936 69.0561 95.256C69.0561 93.576 67.9521 92.232 66.2081 92.232C64.4801 92.232 63.3761 93.576 63.3761 95.256C63.3761 96.936 64.4801 98.264 66.2081 98.264ZM73.9574 99H72.8694V92.408H71.3014V91.496H72.8694V89.464C72.8694 87.768 73.7014 86.712 75.4134 86.712C75.6854 86.712 76.0374 86.744 76.3094 86.824L76.1174 87.784C75.8934 87.72 75.6534 87.672 75.3654 87.672C74.1974 87.672 73.9574 88.504 73.9574 89.592V91.496H75.7174V92.408H73.9574V99ZM82.7468 99H81.6588V93.16C81.6588 92.76 81.6428 92.008 81.5948 91.496H82.6348C82.6668 91.896 82.6988 92.472 82.6988 92.792H82.7308C83.1468 91.928 84.0748 91.32 85.1308 91.32C85.4028 91.32 85.6268 91.336 85.8508 91.4L85.7068 92.424C85.5788 92.376 85.2268 92.328 84.9388 92.328C83.7868 92.328 82.7468 93.16 82.7468 95.16V99ZM90.4711 99.192C88.2471 99.192 86.5991 97.512 86.5991 95.256C86.5991 93 88.2471 91.32 90.3751 91.32C92.7271 91.32 93.9591 92.984 93.9591 95.032C93.9591 95.176 93.9591 95.352 93.9431 95.544H87.7351C87.7671 97.048 88.9351 98.264 90.4711 98.264C91.5911 98.264 92.4551 97.64 92.8711 96.968L93.6871 97.608C92.8071 98.728 91.7031 99.192 90.4711 99.192ZM87.7511 94.68H92.8551C92.7911 93.272 91.9271 92.232 90.3751 92.232C88.9191 92.232 87.8471 93.4 87.7511 94.68ZM98.4274 99.192C97.2914 99.192 96.1554 98.744 95.4674 97.736L96.3314 97.096C96.7154 97.752 97.5314 98.264 98.4114 98.264C99.3394 98.264 100.171 97.928 100.171 96.952C100.171 96.168 99.3874 95.848 97.9634 95.512C97.0834 95.304 95.8194 94.92 95.8194 93.496C95.8194 91.976 97.1314 91.32 98.4914 91.32C99.5314 91.32 100.635 91.816 101.115 92.664L100.283 93.288C99.9634 92.664 99.2754 92.232 98.4434 92.232C97.6594 92.232 96.8594 92.568 96.8594 93.4C96.8594 94.104 97.4194 94.424 98.6514 94.68C100.411 95.048 101.243 95.704 101.243 96.872C101.243 98.584 99.8034 99.192 98.4274 99.192ZM104.497 102.84H103.409V91.496H104.497V92.808H104.545C105.169 91.832 106.289 91.32 107.361 91.32C109.697 91.32 111.233 93.048 111.233 95.256C111.233 97.464 109.697 99.192 107.361 99.192C106.289 99.192 105.169 98.664 104.545 97.736H104.497V102.84ZM107.249 98.264C109.057 98.264 110.081 96.92 110.081 95.256C110.081 93.592 109.057 92.232 107.249 92.232C105.569 92.232 104.369 93.544 104.369 95.256C104.369 96.968 105.569 98.264 107.249 98.264ZM117.005 99.192C114.685 99.192 113.021 97.512 113.021 95.256C113.021 93 114.685 91.32 117.005 91.32C119.341 91.32 121.005 93 121.005 95.256C121.005 97.512 119.341 99.192 117.005 99.192ZM117.005 98.264C118.749 98.264 119.853 96.936 119.853 95.256C119.853 93.576 118.749 92.232 117.005 92.232C115.277 92.232 114.173 93.576 114.173 95.256C114.173 96.936 115.277 98.264 117.005 98.264ZM124.434 99H123.346V93.16C123.346 92.76 123.33 92.008 123.282 91.496H124.322C124.354 91.896 124.386 92.472 124.386 92.792H124.418C124.834 91.928 125.922 91.32 126.978 91.32C128.882 91.32 129.826 92.552 129.826 94.408V99H128.738V94.856C128.738 93.288 128.274 92.232 126.706 92.232C125.554 92.232 124.434 93.16 124.434 95.16V99ZM135.971 99.192C133.635 99.192 132.099 97.464 132.099 95.256C132.099 93.048 133.635 91.32 135.971 91.32C137.043 91.32 138.163 91.832 138.803 92.808H138.835V86.904H139.923V99H138.835V97.736H138.803C138.163 98.68 137.043 99.192 135.971 99.192ZM136.083 98.264C137.763 98.264 138.963 96.968 138.963 95.256C138.963 93.544 137.763 92.232 136.083 92.232C134.275 92.232 133.251 93.592 133.251 95.256C133.251 96.92 134.275 98.264 136.083 98.264ZM146.159 99.192C143.935 99.192 142.287 97.512 142.287 95.256C142.287 93 143.935 91.32 146.063 91.32C148.415 91.32 149.647 92.984 149.647 95.032C149.647 95.176 149.647 95.352 149.631 95.544H143.423C143.455 97.048 144.623 98.264 146.159 98.264C147.279 98.264 148.143 97.64 148.559 96.968L149.375 97.608C148.495 98.728 147.391 99.192 146.159 99.192ZM143.439 94.68H148.543C148.479 93.272 147.615 92.232 146.063 92.232C144.607 92.232 143.535 93.4 143.439 94.68ZM153.075 99H151.987V93.16C151.987 92.76 151.971 92.008 151.923 91.496H152.963C152.995 91.896 153.027 92.472 153.027 92.792H153.059C153.475 91.928 154.563 91.32 155.619 91.32C157.523 91.32 158.467 92.552 158.467 94.408V99H157.379V94.856C157.379 93.288 156.915 92.232 155.347 92.232C154.195 92.232 153.075 93.16 153.075 95.16V99ZM163.38 99.096C162.58 99.096 161.46 98.744 161.46 97.096V92.408H159.908V91.496H161.46V89.4H162.548V91.496H164.66V92.408H162.548V96.792C162.548 97.912 163.012 98.168 163.668 98.168C163.972 98.168 164.324 98.072 164.612 97.928L164.66 98.872C164.276 99.016 163.876 99.096 163.38 99.096ZM168.49 99.192C167.354 99.192 166.218 98.744 165.53 97.736L166.394 97.096C166.778 97.752 167.594 98.264 168.474 98.264C169.402 98.264 170.234 97.928 170.234 96.952C170.234 96.168 169.45 95.848 168.026 95.512C167.146 95.304 165.882 94.92 165.882 93.496C165.882 91.976 167.194 91.32 168.554 91.32C169.594 91.32 170.698 91.816 171.178 92.664L170.346 93.288C170.026 92.664 169.338 92.232 168.506 92.232C167.722 92.232 166.922 92.568 166.922 93.4C166.922 94.104 167.482 94.424 168.714 94.68C170.474 95.048 171.306 95.704 171.306 96.872C171.306 98.584 169.866 99.192 168.49 99.192ZM179.999 99H178.815L176.447 91.496H177.615L179.423 97.592H179.455L181.471 91.496H182.527L184.575 97.592H184.607L186.399 91.496H187.551L185.183 99H183.999L181.999 92.92H181.967L179.999 99ZM190.529 99H189.441V86.904H190.529V92.744H190.561C190.961 91.88 192.017 91.32 193.073 91.32C194.977 91.32 195.921 92.552 195.921 94.408V99H194.833V94.856C194.833 93.288 194.369 92.232 192.801 92.232C191.649 92.232 190.529 93.16 190.529 95.16V99ZM202.177 99.192C199.857 99.192 198.193 97.512 198.193 95.256C198.193 93 199.857 91.32 202.177 91.32C204.513 91.32 206.177 93 206.177 95.256C206.177 97.512 204.513 99.192 202.177 99.192ZM202.177 98.264C203.921 98.264 205.025 96.936 205.025 95.256C205.025 93.576 203.921 92.232 202.177 92.232C200.449 92.232 199.345 93.576 199.345 95.256C199.345 96.936 200.449 98.264 202.177 98.264ZM214.47 99.224C213.286 99.224 212.054 98.776 211.318 97.96L212.582 96.776C212.998 97.32 213.718 97.736 214.55 97.736C215.11 97.736 215.782 97.512 215.782 96.824C215.782 96.184 215.19 95.992 214.022 95.72C212.886 95.448 211.75 94.984 211.75 93.544C211.75 91.832 213.286 91.096 214.806 91.096C215.91 91.096 217.062 91.48 217.686 92.264L216.438 93.368C216.102 92.92 215.462 92.536 214.758 92.536C214.15 92.536 213.526 92.76 213.526 93.368C213.526 93.96 214.118 94.12 215.19 94.376C216.326 94.648 217.67 95.16 217.67 96.664C217.67 98.536 216.15 99.224 214.47 99.224ZM223.02 99.224C220.652 99.224 218.892 97.704 218.892 95.208C218.892 92.728 220.636 91.096 222.956 91.096C225.1 91.096 226.668 92.488 226.668 95.256C226.668 95.432 226.668 95.592 226.652 95.768H220.812C220.892 96.856 221.884 97.656 223.004 97.656C223.964 97.656 224.604 97.272 225.036 96.664L226.316 97.688C225.564 98.712 224.476 99.224 223.02 99.224ZM220.812 94.392H224.748C224.748 93.4 224.188 92.536 222.94 92.536C221.804 92.536 220.892 93.32 220.812 94.392ZM230.447 99H228.527V92.936V91.256H230.351V92.488H230.383C230.719 91.72 231.631 91.032 232.767 91.032C234.767 91.032 235.599 92.568 235.599 94.136V99H233.679V94.68C233.679 93.768 233.471 92.632 232.239 92.632C231.023 92.632 230.447 93.688 230.447 94.712V99ZM241.152 99.224C238.816 99.224 237.376 97.368 237.376 95.128C237.376 92.856 238.912 91.096 241.104 91.096C242.512 91.096 243.28 91.8 243.68 92.296H243.728V86.904H245.648V99H243.824V97.848H243.792C243.264 98.728 242.224 99.224 241.152 99.224ZM241.536 97.624C242.944 97.624 243.792 96.36 243.792 95.16C243.792 93.96 242.944 92.664 241.536 92.664C240.048 92.664 239.328 93.928 239.328 95.128C239.328 96.328 240.048 97.624 241.536 97.624ZM253.356 102.84H252.268V91.496H253.356V92.808H253.404C254.028 91.832 255.148 91.32 256.22 91.32C258.556 91.32 260.092 93.048 260.092 95.256C260.092 97.464 258.556 99.192 256.22 99.192C255.148 99.192 254.028 98.664 253.404 97.736H253.356V102.84ZM256.108 98.264C257.916 98.264 258.94 96.92 258.94 95.256C258.94 93.592 257.916 92.232 256.108 92.232C254.428 92.232 253.228 93.544 253.228 95.256C253.228 96.968 254.428 98.264 256.108 98.264ZM264.456 99.192C263.32 99.192 261.864 98.584 261.864 96.92C261.864 94.632 264.36 94.408 267.08 94.408H267.144V94.168C267.144 92.872 266.44 92.232 265.144 92.232C264.264 92.232 263.448 92.584 262.92 93.112L262.312 92.392C262.92 91.784 263.976 91.32 265.256 91.32C266.872 91.32 268.168 92.216 268.168 94.04V97.32C268.168 97.896 268.216 98.584 268.296 99H267.32C267.256 98.632 267.208 98.184 267.208 97.784H267.176C266.488 98.776 265.656 99.192 264.456 99.192ZM264.744 98.296C266.28 98.296 267.144 97.144 267.144 95.816V95.256H266.824C265.048 95.256 262.984 95.448 262.984 96.872C262.984 97.944 263.896 98.296 264.744 98.296ZM271.003 102.84C270.683 102.84 270.347 102.808 270.027 102.744L270.139 101.752C270.379 101.832 270.651 101.88 270.939 101.88C271.675 101.88 272.059 101.4 272.379 100.552L272.987 98.984L269.787 91.496H271.003L273.547 97.832H273.579L275.899 91.496H277.083L273.355 100.936C272.907 102.088 272.299 102.84 271.003 102.84ZM287.248 91.32C289.152 91.32 290.096 92.552 290.096 94.408V99H289.008V94.856C289.008 93.288 288.48 92.232 287.072 92.232C285.504 92.232 284.944 93.624 284.944 95.016V99H283.856V94.632C283.856 93.176 283.504 92.232 282.048 92.232C281.008 92.232 279.872 93.16 279.872 95.16V99H278.784V93.16C278.784 92.76 278.768 92.008 278.72 91.496H279.76C279.792 91.896 279.824 92.472 279.824 92.792H279.856C280.288 91.928 281.248 91.32 282.32 91.32C283.136 91.32 284.128 91.64 284.624 92.904C285.136 91.864 286.048 91.32 287.248 91.32ZM296.237 99.192C294.013 99.192 292.365 97.512 292.365 95.256C292.365 93 294.013 91.32 296.141 91.32C298.493 91.32 299.725 92.984 299.725 95.032C299.725 95.176 299.725 95.352 299.709 95.544H293.501C293.533 97.048 294.701 98.264 296.237 98.264C297.357 98.264 298.221 97.64 298.637 96.968L299.453 97.608C298.573 98.728 297.469 99.192 296.237 99.192ZM293.517 94.68H298.621C298.557 93.272 297.693 92.232 296.141 92.232C294.685 92.232 293.613 93.4 293.517 94.68ZM303.153 99H302.065V93.16C302.065 92.76 302.049 92.008 302.001 91.496H303.041C303.073 91.896 303.105 92.472 303.105 92.792H303.137C303.553 91.928 304.641 91.32 305.697 91.32C307.601 91.32 308.545 92.552 308.545 94.408V99H307.457V94.856C307.457 93.288 306.993 92.232 305.425 92.232C304.273 92.232 303.153 93.16 303.153 95.16V99ZM313.458 99.096C312.658 99.096 311.538 98.744 311.538 97.096V92.408H309.986V91.496H311.538V89.4H312.626V91.496H314.738V92.408H312.626V96.792C312.626 97.912 313.09 98.168 313.746 98.168C314.05 98.168 314.402 98.072 314.69 97.928L314.738 98.872C314.354 99.016 313.954 99.096 313.458 99.096ZM318.568 99.192C317.432 99.192 316.296 98.744 315.608 97.736L316.472 97.096C316.856 97.752 317.672 98.264 318.552 98.264C319.48 98.264 320.312 97.928 320.312 96.952C320.312 96.168 319.528 95.848 318.104 95.512C317.224 95.304 315.96 94.92 315.96 93.496C315.96 91.976 317.272 91.32 318.632 91.32C319.672 91.32 320.776 91.816 321.256 92.664L320.424 93.288C320.104 92.664 319.416 92.232 318.584 92.232C317.8 92.232 317 92.568 317 93.4C317 94.104 317.56 94.424 318.792 94.68C320.552 95.048 321.384 95.704 321.384 96.872C321.384 98.584 319.944 99.192 318.568 99.192ZM47.536 119.096C46.736 119.096 45.616 118.744 45.616 117.096V112.408H44.064V111.496H45.616V109.4H46.704V111.496H48.816V112.408H46.704V116.792C46.704 117.912 47.168 118.168 47.824 118.168C48.128 118.168 48.48 118.072 48.768 117.928L48.816 118.872C48.432 119.016 48.032 119.096 47.536 119.096ZM53.9581 119.192C51.6381 119.192 49.9741 117.512 49.9741 115.256C49.9741 113 51.6381 111.32 53.9581 111.32C56.2941 111.32 57.9581 113 57.9581 115.256C57.9581 117.512 56.2941 119.192 53.9581 119.192ZM53.9581 118.264C55.7021 118.264 56.8061 116.936 56.8061 115.256C56.8061 113.576 55.7021 112.232 53.9581 112.232C52.2301 112.232 51.1261 113.576 51.1261 115.256C51.1261 116.936 52.2301 118.264 53.9581 118.264ZM66.3954 119.096C65.5954 119.096 64.4754 118.744 64.4754 117.096V112.408H62.9234V111.496H64.4754V109.4H65.5634V111.496H67.6754V112.408H65.5634V116.792C65.5634 117.912 66.0274 118.168 66.6834 118.168C66.9874 118.168 67.3394 118.072 67.6274 117.928L67.6754 118.872C67.2914 119.016 66.8914 119.096 66.3954 119.096ZM70.4975 119H69.4095V106.904H70.4975V112.744H70.5295C70.9295 111.88 71.9855 111.32 73.0415 111.32C74.9455 111.32 75.8895 112.552 75.8895 114.408V119H74.8015V114.856C74.8015 113.288 74.3375 112.232 72.7695 112.232C71.6175 112.232 70.4975 113.16 70.4975 115.16V119ZM79.2656 109.4C78.8816 109.4 78.4976 109.08 78.4976 108.632C78.4976 108.184 78.8816 107.864 79.2656 107.864C79.6496 107.864 80.0336 108.184 80.0336 108.632C80.0336 109.08 79.6496 109.4 79.2656 109.4ZM79.8096 119H78.7216V111.496H79.8096V119ZM84.8336 119.192C83.6976 119.192 82.5616 118.744 81.8736 117.736L82.7376 117.096C83.1216 117.752 83.9376 118.264 84.8176 118.264C85.7456 118.264 86.5776 117.928 86.5776 116.952C86.5776 116.168 85.7936 115.848 84.3696 115.512C83.4896 115.304 82.2256 114.92 82.2256 113.496C82.2256 111.976 83.5376 111.32 84.8976 111.32C85.9376 111.32 87.0416 111.816 87.5216 112.664L86.6896 113.288C86.3696 112.664 85.6816 112.232 84.8496 112.232C84.0656 112.232 83.2656 112.568 83.2656 113.4C83.2656 114.104 83.8256 114.424 85.0576 114.68C86.8176 115.048 87.6496 115.704 87.6496 116.872C87.6496 118.584 86.2096 119.192 84.8336 119.192ZM97.271 119.192C94.855 119.192 93.271 117.512 93.271 115.256C93.271 113 94.855 111.32 97.271 111.32C98.279 111.32 99.415 111.752 100.055 112.616L99.207 113.224C98.855 112.648 98.103 112.232 97.287 112.232C95.543 112.232 94.423 113.544 94.423 115.256C94.423 116.952 95.527 118.264 97.271 118.264C98.215 118.264 98.871 117.864 99.303 117.288L100.119 117.896C99.479 118.68 98.567 119.192 97.271 119.192ZM105.255 119.192C102.935 119.192 101.271 117.512 101.271 115.256C101.271 113 102.935 111.32 105.255 111.32C107.591 111.32 109.255 113 109.255 115.256C109.255 117.512 107.591 119.192 105.255 119.192ZM105.255 118.264C106.999 118.264 108.103 116.936 108.103 115.256C108.103 113.576 106.999 112.232 105.255 112.232C103.527 112.232 102.423 113.576 102.423 115.256C102.423 116.936 103.527 118.264 105.255 118.264ZM114.38 119.192C112.476 119.192 111.532 117.96 111.532 116.104V111.496H112.62V115.656C112.62 117.224 113.084 118.28 114.652 118.28C115.804 118.28 116.924 117.352 116.924 115.352V111.496H118.012V117.352C118.012 117.752 118.028 118.488 118.076 119H117.036C117.004 118.6 116.972 118.04 116.972 117.72H116.94C116.524 118.584 115.436 119.192 114.38 119.192ZM121.981 119H120.893V113.16C120.893 112.76 120.877 112.008 120.829 111.496H121.869C121.901 111.896 121.933 112.472 121.933 112.792H121.965C122.381 111.928 123.469 111.32 124.525 111.32C126.429 111.32 127.373 112.552 127.373 114.408V119H126.285V114.856C126.285 113.288 125.821 112.232 124.253 112.232C123.101 112.232 121.981 113.16 121.981 115.16V119ZM132.286 119.096C131.486 119.096 130.366 118.744 130.366 117.096V112.408H128.814V111.496H130.366V109.4H131.454V111.496H133.566V112.408H131.454V116.792C131.454 117.912 131.918 118.168 132.574 118.168C132.878 118.168 133.23 118.072 133.518 117.928L133.566 118.872C133.182 119.016 132.782 119.096 132.286 119.096ZM136.356 119H135.268V113.16C135.268 112.76 135.252 112.008 135.204 111.496H136.244C136.276 111.896 136.308 112.472 136.308 112.792H136.34C136.756 111.928 137.684 111.32 138.74 111.32C139.012 111.32 139.236 111.336 139.46 111.4L139.316 112.424C139.188 112.376 138.836 112.328 138.548 112.328C137.396 112.328 136.356 113.16 136.356 115.16V119ZM141.066 122.84C140.746 122.84 140.41 122.808 140.09 122.744L140.202 121.752C140.442 121.832 140.714 121.88 141.002 121.88C141.738 121.88 142.122 121.4 142.442 120.552L143.05 118.984L139.85 111.496H141.066L143.61 117.832H143.642L145.962 111.496H147.146L143.418 120.936C142.97 122.088 142.362 122.84 141.066 122.84Z" fill="white"/>
<rect x="13" y="84" width="20" height="20" rx="2.6" fill="url(#paint13_linear_445_1177)"/>
<defs>
<linearGradient id="paint0_linear_445_1177" x1="-34.9577" y1="185.837" x2="-12.0168" y2="94.1064" gradientUnits="userSpaceOnUse">
<stop stop-color="#DA54D8"/>
<stop offset="1" stop-color="#FF4800"/>
</linearGradient>
<linearGradient id="paint1_linear_445_1177" x1="340.184" y1="221" x2="-9.66752" y2="194.415" gradientUnits="userSpaceOnUse">
<stop stop-color="#DA54D8"/>
<stop offset="1" stop-color="#0092F4"/>
</linearGradient>
<linearGradient id="paint2_linear_445_1177" x1="-26.099" y1="268.837" x2="0.668373" y2="179.378" gradientUnits="userSpaceOnUse">
<stop stop-color="#DA54D8"/>
<stop offset="1" stop-color="#FF4800"/>
</linearGradient>
<linearGradient id="paint3_linear_445_1177" x1="254.886" y1="304" x2="-2.73548" y2="289.622" gradientUnits="userSpaceOnUse">
<stop stop-color="#DA54D8"/>
<stop offset="1" stop-color="#0092F4"/>
</linearGradient>
<linearGradient id="paint4_linear_445_1177" x1="-17.4416" y1="351.837" x2="14.2984" y2="266.122" gradientUnits="userSpaceOnUse">
<stop stop-color="#DA54D8"/>
<stop offset="1" stop-color="#FF4800"/>
</linearGradient>
<linearGradient id="paint5_linear_445_1177" x1="235.931" y1="387" x2="-1.10241" y2="374.834" gradientUnits="userSpaceOnUse">
<stop stop-color="#DA54D8"/>
<stop offset="1" stop-color="#0092F4"/>
</linearGradient>
<linearGradient id="paint6_linear_445_1177" x1="-11.4082" y1="434.837" x2="23.9426" y2="352.557" gradientUnits="userSpaceOnUse">
<stop stop-color="#DA54D8"/>
<stop offset="1" stop-color="#FF4800"/>
</linearGradient>
<linearGradient id="paint7_linear_445_1177" x1="210.604" y1="470" x2="2.21238" y2="460.602" gradientUnits="userSpaceOnUse">
<stop stop-color="#DA54D8"/>
<stop offset="1" stop-color="#0092F4"/>
</linearGradient>
<linearGradient id="paint8_linear_445_1177" x1="-4.16685" y1="517.837" x2="36.4247" y2="442.134" gradientUnits="userSpaceOnUse">
<stop stop-color="#DA54D8"/>
<stop offset="1" stop-color="#FF4800"/>
</linearGradient>
<linearGradient id="paint9_linear_445_1177" x1="158.951" y1="553" x2="7.98019" y2="548.073" gradientUnits="userSpaceOnUse">
<stop stop-color="#DA54D8"/>
<stop offset="1" stop-color="#0092F4"/>
</linearGradient>
<linearGradient id="paint10_linear_445_1177" x1="3.69188" y1="601.837" x2="51.5648" y2="543.982" gradientUnits="userSpaceOnUse">
<stop stop-color="#DA54D8"/>
<stop offset="1" stop-color="#FF4800"/>
</linearGradient>
<linearGradient id="paint11_linear_445_1177" x1="105.298" y1="637" x2="11.8882" y2="635.115" gradientUnits="userSpaceOnUse">
<stop stop-color="#DA54D8"/>
<stop offset="1" stop-color="#0092F4"/>
</linearGradient>
<linearGradient id="paint12_linear_445_1177" x1="8.9733" y1="37.0468" x2="36.4899" y2="30.478" gradientUnits="userSpaceOnUse">
<stop stop-color="#DA54D8"/>
<stop offset="1" stop-color="#FF4800"/>
</linearGradient>
<linearGradient id="paint13_linear_445_1177" x1="8.9733" y1="100.047" x2="36.4899" y2="93.478" gradientUnits="userSpaceOnUse">
<stop stop-color="#DA54D8"/>
<stop offset="1" stop-color="#0092F4"/>
</linearGradient>
</defs>
</svg>
