<?xml version="1.0" encoding="UTF-8"?><svg id="a" xmlns="http://www.w3.org/2000/svg" xmlns:xlink="http://www.w3.org/1999/xlink" viewBox="0 0 50 50"><defs><style>.c,.d{stroke:#252526;stroke-miterlimit:10;}.c,.d,.e{fill:none;stroke-width:1.5px;}.c,.e{stroke-linecap:round;}.e{stroke:url(#b);stroke-linejoin:round;}</style><linearGradient id="b" x1="8.1186" y1="2.1965" x2="34.4498" y2="47.8035" gradientTransform="matrix(1, 0, 0, 1, 0, 0)" gradientUnits="userSpaceOnUse"><stop offset="0" stop-color="#ff4800"/><stop offset=".5005" stop-color="#d854d6"/><stop offset=".9951" stop-color="#0090f2"/></linearGradient></defs><g><line class="c" x1="28.7158" y1="27.5833" x2="44.2158" y2="27.5833"/><path class="c" d="M38.296,29.9582c0,1.2536-1.0162,2.2698-2.2698,2.2698s-2.2698-1.0162-2.2698-2.2698"/><g><path class="d" d="M41.9195,18.8831c.1494,.5082,.2296,1.0461,.2296,1.6026v7.0976"/><path class="d" d="M30.7824,27.5833v-6.8963c0-2.7754,1.9042-5.2987,4.6373-5.7815,1.5447-.2728,3.0024,.0802,4.1616,.8477"/><circle class="c" cx="41.1158" cy="17.25" r="2.0667"/></g></g><path class="e" d="M32.6509,35.85v5.793c0,.2248-.1822,.407-.407,.407H10.3246c-.2248,0-.407-.1822-.407-.407V11.457c0-.2248,.1822-.407,.407-.407h21.9193c.2248,0,.407,.1822,.407,.407M14.0509,24.4833h13.4333m-13.4333-5.1667h13.4333m-13.4333,10.3333h7.2333m15.5-18.0101V7.3992c0-3.12-2.9823-5.6492-6.6611-5.6492H12.4453c-3.6788,0-6.6611,2.5292-6.6611,5.6492V42.6008c0,3.12,2.9823,5.6492,6.6611,5.6492H30.1231c3.6788,0,6.6611-2.5292,6.6611-5.6492v-6.7508M18.1842,5.8833h7.2333"/></svg>