<?xml version="1.0" encoding="UTF-8"?><svg id="shape" xmlns="http://www.w3.org/2000/svg" xmlns:xlink="http://www.w3.org/1999/xlink" viewBox="0 0 50 50"><defs><style>.cls-1{fill:#252526;}.cls-2{fill:url(#Orange-Purple-Blue);}</style><linearGradient id="Orange-Purple-Blue" x1="14.2761" y1="-.8178" x2="35.6652" y2="36.2291" gradientUnits="userSpaceOnUse"><stop offset="0" stop-color="#ff4800"/><stop offset=".5" stop-color="#da54d8"/><stop offset="1" stop-color="#0092f4"/></linearGradient></defs><path class="cls-2" d="m23.5599,43.1019c-.1133,0-.2275-.0254-.335-.0801-.1982-.0986-4.9648-2.5498-15.8828-13.2002C1.2836,23.9115-1.0543,16.972.9281,10.7806,2.3529,6.3295,5.9291,3.0433,10.0394,2.4086c7.8057-1.2041,11.5391,2.6943,13.6582,6.3066,2.1191-3.6123,5.8574-7.5098,13.6582-6.3066,3.5957.5557,6.7676,3.085,8.4834,6.7666,2.1562,4.627,1.6162,10.209-1.4814,15.3164-.2148.3525-.6777.4678-1.0303.2529-.3545-.2148-.4678-.6768-.2529-1.0303,2.834-4.6729,3.3467-9.7402,1.4053-13.9053-1.5039-3.2266-4.2529-5.4395-7.3525-5.918-6.0469-.9355-9.8623,1.0771-12.7588,6.7217-.0352.0703-.0801.1348-.1367.1914-.0674.0684-.1465.1221-.2324.1602-.0977.043-.2002.0635-.3008.0635h-.002c-.0996,0-.2002-.0195-.2969-.0615-.0918-.04-.1758-.0977-.2461-.1719-.0518-.0547-.0947-.1162-.127-.1816-2.8955-5.6436-6.7041-7.6553-12.7588-6.7217-3.5527.5488-6.6582,3.4326-7.9121,7.3477-1.8018,5.6289.3975,12.0107,6.0332,17.5088,10.6982,10.4355,15.4629,12.9111,15.5098,12.9346.3691.1875.5176.6377.3311,1.0078-.1318.2607-.3955.4121-.6699.4121Z"/><path class="cls-1" d="m28.6537,47.8177c-.54,0-1.0771-.1689-1.5361-.5029-.8115-.5898-1.2109-1.5703-1.041-2.5596l1.0156-5.9219c.0625-.3633-.0576-.7324-.3213-.9893l-4.3027-4.1943c-.7188-.7002-.9727-1.7275-.6621-2.6816.3096-.9551,1.1191-1.6377,2.1123-1.7822l5.9473-.8643c.3633-.0527.6777-.2822.8418-.6123l2.6582-5.3877c.4443-.8994,1.3438-1.459,2.3477-1.459,1.0029,0,1.9023.5596,2.3467,1.459l2.6592,5.3887c.1631.3291.4775.5586.8418.6113l5.9453.8643c.9941.1445,1.8037.8271,2.1143,1.7812.3096.9541.0557,1.9824-.6631,2.6826l-4.3027,4.1943c-.2637.2568-.3838.626-.3213.9902l1.0156,5.9209c.1699.9893-.2295,1.9697-1.041,2.5596-.8115.5908-1.8682.668-2.7559.2002l-5.3193-2.7959c-.3262-.1719-.7148-.1738-1.0391,0h-.001l-5.3193,2.7959c-.3857.2031-.8037.3027-1.2197.3027Zm7.0596-4.7275c.418,0,.8359.1006,1.2178.3008l5.3184,2.7959c.3857.2012.8252.1689,1.1768-.085.3516-.2559.5176-.6641.4443-1.0928l-1.0156-5.9219c-.1455-.8516.1367-1.7178.7529-2.3174l4.3027-4.1943c.3115-.3037.417-.7314.2832-1.1445-.1348-.4141-.4717-.6982-.9023-.7607l-5.9463-.8643c-.8525-.124-1.5889-.6592-1.9707-1.4307l-2.6602-5.3896c-.3857-.7803-1.6182-.7783-2.0029,0l-2.6592,5.3887c-.3828.7725-1.1191,1.3076-1.9707,1.4316l-5.9473.8643c-.4297.0625-.7676.3467-.9014.7607-.1348.4131-.0293.8408.2822,1.1445l4.3027,4.1943c.6182.6016.8994,1.4678.7529,2.3174l-1.0156,5.9219c-.0732.4287.0928.8369.4443,1.0928.3516.2539.791.2881,1.1768.085l5.3184-2.7959c.3818-.2002.7998-.3008,1.2188-.3008Zm-.8691.9648h.0098-.0098Z"/></svg>