<?xml version="1.0" encoding="UTF-8"?><svg id="a" xmlns="http://www.w3.org/2000/svg" xmlns:xlink="http://www.w3.org/1999/xlink" viewBox="0 0 50 50"><defs><style>.c{stroke-miterlimit:10;}.c,.d,.e{fill:none;stroke-width:1.5px;}.c,.e{stroke:#252526;}.d{stroke:url(#b);}.d,.e{stroke-linecap:round;stroke-linejoin:round;}</style><linearGradient id="b" x1="9.0645" y1="8.4944" x2="23.955" y2="34.2855" gradientTransform="matrix(1, 0, 0, 1, 0, 0)" gradientUnits="userSpaceOnUse"><stop offset="0" stop-color="#ff4800"/><stop offset=".5005" stop-color="#da54d8"/><stop offset=".9951" stop-color="#0092f4"/></linearGradient></defs><g><g><path class="e" d="M24.6644,33.2408h22.573c.5088,0,.9213,.4125,.9213,.9213v11.5826c0,.5088-.4125,.9213-.9213,.9213H28.0207"/><circle class="c" cx="35.8522" cy="39.9535" r="3.3563"/></g><line class="e" x1="21.3081" y1="37.7159" x2="26.902" y2="37.7159"/><line class="e" x1="23.5456" y1="42.191" x2="29.1395" y2="42.191"/></g><path class="d" d="M22.0764,3.9922l16.2909,13.6117c.6259,.523,.2561,1.5424-.5595,1.5424H2.7157c-.8156,0-1.1855-1.0194-.5595-1.5424L18.447,3.9922c1.0506-.8778,2.5788-.8778,3.6294,0ZM7.6887,22.6403v12.8116m8.1528-12.8116v12.8116m8.1528-12.8116v5.7048m8.1528-5.7048v5.7048M1.8653,37.7813h14.5348"/></svg>