<?xml version="1.0" encoding="UTF-8"?><svg id="a" xmlns="http://www.w3.org/2000/svg" xmlns:xlink="http://www.w3.org/1999/xlink" viewBox="0 0 50 50"><defs><style>.c{fill:#fff;}.d{stroke:url(#b);}.d,.e{fill:none;stroke-linecap:round;stroke-linejoin:round;stroke-width:1.5px;}.e{stroke:#fff;}</style><linearGradient id="b" x1="8.1025" y1="10.6356" x2="20.3928" y2="31.923" gradientTransform="matrix(1, 0, 0, 1, 0, 0)" gradientUnits="userSpaceOnUse"><stop offset="0" stop-color="#da54d8"/><stop offset=".5049" stop-color="#0092f4"/><stop offset=".9972" stop-color="#20dc86"/></linearGradient></defs><path class="d" d="M19.6662,6.7238l14.424,12.0518c.5542,.463,.2268,1.3656-.4954,1.3656H2.5242c-.7222,0-1.0496-.9026-.4954-1.3656L16.4527,6.7238c.9302-.7772,2.2833-.7772,3.2135,0ZM6.9273,23.2348v11.3434m7.2185-11.3434v3.0936m7.2185-3.0936v3.0936m7.2185-3.0936v3.0936M1.7713,36.6406h7.2185"/><rect class="e" x="12.1575" y="29.4221" width="36.0925" height="14.437" rx="2.9202" ry="2.9202"/><g><path class="c" d="M20.7896,40.6432h-1.8382c-1.5316,0-2.7772-1.2455-2.7772-2.7772v-1.6737c0-1.5316,1.2455-2.7772,2.7772-2.7772h1.8382c.3368,0,.6101,.2732,.6101,.6101s-.2732,.6101-.6101,.6101h-1.8382c-.8588,0-1.557,.6983-1.557,1.557v1.6737c0,.8588,.6983,1.557,1.557,1.557h1.8382c.3368,0,.6101,.2732,.6101,.6101s-.2732,.6101-.6101,.6101Z"/><path class="c" d="M18.787,37.5841h-3.0044c-.3368,0-.6101-.2732-.6101-.6101s.2732-.6101,.6101-.6101h3.0044c.3368,0,.6101,.2732,.6101,.6101s-.2732,.6101-.6101,.6101Z"/></g><g><path class="c" d="M43.3553,40.4743h-.7944c-.9938,0-1.8016-.7221-1.8016-1.6102v-.3337c0-.3368,.2732-.6101,.6101-.6101s.6101,.2732,.6101,.6101v.3337c0,.1843,.2391,.39,.5815,.39h.7944c.3424,0,.5815-.2057,.5815-.39v-.5466c0-.1938-.1358-.3956-.3019-.4496l-1.7294-.5624c-.6856-.2208-1.1463-.85-1.1463-1.5649v-.5466c0-.8881,.8079-1.6102,1.8016-1.6102h.7944c.9938,0,1.8016,.7221,1.8016,1.6102v.3337c0,.3368-.2732,.6101-.6101,.6101s-.6101-.2732-.6101-.6101v-.3337c0-.1843-.2391-.39-.5815-.39h-.7944c-.3424,0-.5815,.2057-.5815,.39v.5466c0,.1812,.1239,.3472,.3019,.4044l1.7294,.5624c.6641,.2145,1.1463,.8921,1.1463,1.6102v.5466c0,.8881-.8079,1.6102-1.8016,1.6102h0Z"/><path class="c" d="M42.9581,34.804c-.3368,0-.6101-.2732-.6101-.6101v-1.3345c0-.3368,.2732-.6101,.6101-.6101s.6101,.2732,.6101,.6101v1.3345c0,.3368-.2732,.6101-.6101,.6101Z"/><path class="c" d="M42.9581,41.8089c-.3368,0-.6101-.2732-.6101-.6101v-1.3345c0-.3368,.2732-.6101,.6101-.6101s.6101,.2732,.6101,.6101v1.3345c0,.3368-.2732,.6101-.6101,.6101Z"/></g><g><path class="c" d="M24.4045,40.968c-.2105,0-.4147-.1088-.5274-.3034-.1677-.2876-.0739-.6569,.2113-.8293,.4321-.2622,1.5546-1.1439,1.5546-2.0661,0-.2415-.0747-.3892-.2312-.6744-.2145-.394-.5092-.9326-.5092-1.9153,0-1.113,.9763-2.0892,2.09-2.0892h.7396c1.1526,0,2.09,.9373,2.09,2.0892,0,.3368-.2732,.6101-.6101,.6101s-.6101-.2732-.6101-.6101c0-.479-.39-.8691-.8698-.8691h-.7396c-.4822,0-.8698,.4751-.8698,.8691,0,.6704,.1747,.9906,.3599,1.3298,.1787,.3265,.3805,.6959,.3805,1.2599,0,.5171-.1692,.9898-.4131,1.4013,.2415,.0167,.4766,.0715,.6927,.1803,.7054,.3829,1.0995,.5609,1.6785,.077,.2566-.216,.6434-.1827,.8588,.077,.2161,.2582,.1819,.6434-.077,.8588-1.2424,1.039-2.3752,.4219-2.9844,.0898-.4194-.2105-1.3854,.1382-1.9161,.4361-.0945,.0532-.197,.0787-.2979,.0787l-.0002-.0002Z"/><path class="c" d="M28.4717,38.0089h-3.6986c-.3368,0-.6101-.2732-.6101-.6101s.2732-.6101,.6101-.6101h3.6986c.3368,0,.6101,.2732,.6101,.6101s-.2732,.6101-.6101,.6101Z"/></g><g><path class="c" d="M37.0509,38.8709h-3.5207c-.3368,0-.6101-.2732-.6101-.6101s.2732-.6101,.6101-.6101h3.5207c.3368,0,.6101,.2732,.6101,.6101s-.2732,.6101-.6101,.6101Z"/><path class="c" d="M35.2907,37.4632c-.1882,0-.3662-.0866-.4814-.2359l-2.4642-3.1688c-.2073-.2653-.1589-.649,.1072-.8556,.2661-.2073,.649-.1589,.8556,.1072l1.9828,2.5492,1.9828-2.5492c.2057-.2661,.5894-.3146,.8556-.1072,.2661,.2065,.3146,.5902,.1072,.8556l-2.4642,3.1688c-.1152,.1493-.2932,.2359-.4814,.2359Z"/><path class="c" d="M35.2907,40.984c-.3368,0-.6101-.2732-.6101-.6101v-3.5207c0-.3368,.2732-.6101,.6101-.6101s.6101,.2732,.6101,.6101v3.5207c0,.3368-.2732,.6101-.6101,.6101Z"/></g></svg>