<?xml version="1.0" encoding="UTF-8"?><svg id="shape" xmlns="http://www.w3.org/2000/svg" xmlns:xlink="http://www.w3.org/1999/xlink" viewBox="0 0 50 50"><defs><style>.cls-1{fill:#252526;}.cls-2{fill:url(#Orange-Purple-Blue);}</style><linearGradient id="Orange-Purple-Blue" x1="12.1468" y1="5.8538" x2="35.3853" y2="46.104" gradientUnits="userSpaceOnUse"><stop offset="0" stop-color="#ff4800"/><stop offset=".5" stop-color="#da54d8"/><stop offset="1" stop-color="#0092f4"/></linearGradient></defs><path class="cls-2" d="m24.2427,48.9467c-12.8154,0-23.2422-10.4268-23.2422-23.2432S11.4273,2.4603,24.2427,2.4603c1.5957,0,3.1895.1631,4.7383.4834.4053.084.666.4805.582.8867-.085.4062-.4814.6641-.8867.582-1.4482-.2998-2.9404-.4521-4.4336-.4521C12.2544,3.9603,2.5005,13.7142,2.5005,25.7035s9.7539,21.7432,21.7422,21.7432,21.7432-9.7539,21.7432-21.7432c0-1.5137-.1562-3.0244-.4639-4.4893-.085-.4053.1748-.8027.5801-.8887.4062-.0859.8037.1748.8887.5801.3281,1.5664.4951,3.1807.4951,4.7979,0,12.8164-10.4268,23.2432-23.2432,23.2432Zm.1182-8.4551c-8.1533,0-14.7871-6.6338-14.7871-14.7881s6.6338-14.7881,14.7871-14.7881c.4141,0,.75.3359.75.75s-.3359.75-.75.75c-7.3262,0-13.2871,5.9609-13.2871,13.2881s5.9609,13.2881,13.2871,13.2881,13.2881-5.9609,13.2881-13.2881c0-.4141.3359-.75.75-.75s.75.3359.75.75c0,8.1543-6.6338,14.7881-14.7881,14.7881Zm0-8.1934c-3.6367,0-6.5947-2.958-6.5947-6.5947s2.958-6.5947,6.5947-6.5947c.4141,0,.75.3359.75.75s-.3359.75-.75.75c-2.8096,0-5.0947,2.2852-5.0947,5.0947s2.2852,5.0947,5.0947,5.0947,5.0957-2.2852,5.0957-5.0947c0-.4141.3359-.75.75-.75s.75.3359.75.75c0,3.6367-2.959,6.5947-6.5957,6.5947Z"/><g><path class="cls-1" d="m24.2427,26.6664c-.1973,0-.3945-.0771-.542-.2314-.2861-.2998-.2754-.7744.0234-1.0605l7.5312-7.2061c.2988-.2861.7734-.2773,1.0605.0234.2861.2998.2754.7744-.0234,1.0605l-7.5312,7.2061c-.1455.1387-.332.208-.5186.208Z"/><path class="cls-1" d="m40.3013,20.3968c-.0996,0-.2012-.0049-.3027-.0166l-6.7988-.7568c-1.2295-.1367-2.208-1.0869-2.3809-2.3115l-1.0039-7.0957c-.1191-.8389.168-1.6963.7656-2.2939l6.0732-6.0732c.7295-.7314,1.79-.9844,2.7715-.6533.9795.3271,1.6787,1.165,1.8232,2.1875l.5908,4.1836c.0781.5449.5146.9688,1.0625,1.0303l3.6875.4102c1.0439.1162,1.9082.8037,2.2559,1.7949.3467.9912.1016,2.0674-.6406,2.8096l-5.9922,5.9922c-.5127.5127-1.1963.793-1.9111.793Zm-.1367-1.5068c.3672.0381.7266-.0859.9873-.3467l5.9922-5.9922c.3359-.3359.4424-.8047.2852-1.2529s-.5332-.748-1.0059-.8008l-3.6875-.4102c-1.2275-.1357-2.207-1.0859-2.3809-2.3105l-.5908-4.1836c-.0664-.4619-.3701-.8271-.8135-.9756-.4424-.1445-.9053-.0381-1.2363.292l-6.0732,6.0732c-.2666.2666-.3945.6494-.3418,1.0234l1.0039,7.0957c.0771.5459.5146.9697,1.0625,1.0312l6.7988.7568Z"/></g></svg>