<?xml version="1.0" encoding="UTF-8"?><svg id="a" xmlns="http://www.w3.org/2000/svg" xmlns:xlink="http://www.w3.org/1999/xlink" viewBox="0 0 50 50"><defs><style>.f{fill:url(#d);}.g{fill:url(#c);}.h{fill:url(#b);}.i{stroke-dasharray:0 0 1.6854 4.2135;}.i,.j,.k,.l{fill:none;stroke-linecap:round;stroke-linejoin:round;stroke-width:1.5px;}.i,.k,.l{stroke:#252526;}.j{stroke:url(#e);}.k{stroke-dasharray:0 0 1.6741 4.1851;}</style><linearGradient id="b" x1="37.9621" y1="36.3197" x2="42.1961" y2="43.6532" gradientTransform="matrix(1, 0, 0, 1, 0, 0)" gradientUnits="userSpaceOnUse"><stop offset=".0145" stop-color="#896be2"/><stop offset="1" stop-color="#0092f4"/></linearGradient><linearGradient id="c" x1="22.5778" y1="6.3759" x2="27.4227" y2="14.7674" gradientTransform="matrix(1, 0, 0, 1, 0, 0)" gradientUnits="userSpaceOnUse"><stop offset="0" stop-color="#ff4800"/><stop offset="1" stop-color="#e55199"/></linearGradient><linearGradient id="d" x1="7.7336" y1="36.5496" x2="12.0665" y2="44.0544" gradientTransform="matrix(1, 0, 0, 1, 0, 0)" gradientUnits="userSpaceOnUse"><stop offset=".2464" stop-color="#da54d8"/><stop offset="1" stop-color="#896be2"/></linearGradient><linearGradient id="e" x1="8.4918" y1="9.2087" x2="34.1171" y2="53.593" gradientTransform="matrix(1, 0, 0, 1, 0, 0)" gradientUnits="userSpaceOnUse"><stop offset="0" stop-color="#ff4800"/><stop offset=".5" stop-color="#da54d8"/><stop offset="1" stop-color="#0092f4"/></linearGradient></defs><g><path class="l" d="M7.3864,27.8903c-.0537-.3278-.0984-.6581-.1337-.9906"/><path class="i" d="M7.3053,22.6933c.0125-.0953,.0256-.1908,.0397-.2863,.4756-3.2382,1.7931-6.1447,3.6979-8.5303"/><path class="l" d="M12.4504,12.3128c.2372-.2343,.4807-.4617,.7303-.6821"/></g><g><path class="l" d="M28.2093,42.5584c-.3267,.0597-.6561,.1104-.9879,.1517"/><path class="l" d="M22.7404,42.7008c-.111-.0143-.2222-.0295-.3334-.0459-.2197-.0322-.438-.0684-.6545-.1084"/></g><g><path class="l" d="M36.9093,11.7087c.2483,.2229,.49,.4525,.725,.6885"/><path class="k" d="M40.2168,15.6789c1.6521,2.6937,2.5996,5.8361,2.6292,9.1396"/><path class="l" d="M42.7414,26.9162c-.0244,.2252-.0532,.4508-.0864,.6768-.0154,.1051-.0317,.2098-.049,.3142"/></g><path class="h" d="M36.0764,39.1616c-.3072,0-.5564,.2503-.5564,.5575s.2491,.5564,.5564,.5564h.5921v.4659c0,1.678,1.3652,3.0432,3.0421,3.0432h2.1093c.3072,0,.5564-.2503,.5564-.5575s-.2491-.5564-.5564-.5564h-2.1093c-1.0636,0-1.9283-.8658-1.9283-1.9294v-.4659h1.7406c.3072,0,.5564-.2491,.5564-.5564s-.2491-.5575-.5564-.5575h-1.7406v-.3396c0-1.0636,.8647-1.9283,1.9283-1.9283h2.1093c.3072,0,.5564-.2503,.5564-.5575s-.2491-.5564-.5564-.5564h-2.1093c-1.6769,0-3.0421,1.3652-3.0421,3.0421v.3396h-.5921Z"/><path class="g" d="M26.8769,9.4049c.3351,0,.6077-.2726,.6077-.6077v-.3944c0-.9534-.8465-1.7275-1.9065-1.7788v-.9796c0-.3184-.2592-.5775-.5776-.5775-.3195,0-.5787,.2592-.5787,.5775v.9796c-1.0601,.0514-1.9064,.8255-1.9064,1.7788v.6468c0,.7943,.5128,1.4937,1.2758,1.7406l2.0445,.6648c.2435,.0793,.4346,.3598,.4346,.639v.6458c0,.2782-.3217,.5753-.801,.5753h-.9384c-.4793,0-.801-.2971-.801-.5753v-.3944c0-.334-.2726-.6066-.6067-.6066-.3351,0-.6077,.2726-.6077,.6066v.3944c0,.9533,.8464,1.7274,1.9064,1.7788v.9806c0,.3184,.2592,.5775,.5787,.5775,.3184,0,.5776-.2592,.5776-.5775v-.9805c1.0601-.0513,1.9065-.8255,1.9065-1.7788v-.6458c0-.801-.5374-1.5551-1.2758-1.7942h-.0011l-2.0433-.6648c-.2559-.0816-.4346-.3217-.4346-.5854v-.6468c0-.277,.3217-.5742,.801-.5742h.9384c.4793,0,.801,.2972,.801,.5742v.3944c0,.3351,.2726,.6077,.6067,.6077Z"/><path class="f" d="M7.6514,39.6549c-.3016,0-.5474,.2458-.5474,.5474s.2458,.5463,.5474,.5463h1.1194l-.0335,.1709c-.1933,.9664-1.2524,1.8367-1.7853,2.1606-.2558,.1542-.3407,.4871-.1899,.7429,.1441,.2514,.4871,.3463,.7385,.2033,.6022-.3374,1.7573-.7753,2.3037-.496,.7072,.3854,1.8858,1.0267,3.2197-.0838,.1117-.0938,.181-.2246,.1944-.3709,.0134-.1452-.0313-.2871-.1251-.4s-.2257-.1821-.3709-.1944c-.143-.0156-.2871,.0324-.4,.1251h0c-.7228,.6044-1.2524,.3653-2.0579-.0715-.21-.105-.4547-.1676-.7251-.1855l-.2324-.0156,.1184-.2c.2391-.4033,.3821-.8256,.4268-1.2568l.0123-.1285h1.9707c.3016,0,.5474-.2447,.5474-.5463s-.2458-.5474-.5474-.5474h-2.1752l-.0391-.0804c-.0525-.1084-.1073-.2123-.1609-.3095-.21-.3854-.4245-.7809-.4245-1.5741,0-.5206,.4927-1.1261,1.1272-1.1261h.8357c.6212,0,1.1272,.505,1.1272,1.1261,0,.3016,.2458,.5474,.5474,.5474s.5474-.2458,.5474-.5474c0-1.2244-.9965-2.2199-2.2221-2.2199h-.8357c-1.1842,0-2.2221,1.0379-2.2221,2.2199,0,.8602,.2044,1.392,.3821,1.7585l.0994,.2056h-.7709Z"/><path class="j" d="M48.1588,39.7822c0,4.6263-3.7503,8.3766-8.3766,8.3766s-8.3766-3.7503-8.3766-8.3766,3.7503-8.3766,8.3766-8.3766,8.3766,3.7503,8.3766,8.3766ZM25,1.8412c-4.6263,0-8.3766,3.7503-8.3766,8.3766s3.7503,8.3766,8.3766,8.3766,8.3766-3.7503,8.3766-8.3766S29.6263,1.8412,25,1.8412ZM10.2178,31.4056c-4.6263,0-8.3766,3.7503-8.3766,8.3766s3.7503,8.3766,8.3766,8.3766,8.3766-3.7503,8.3766-8.3766-3.7503-8.3766-8.3766-8.3766Z"/></svg>