<?xml version="1.0" encoding="UTF-8"?><svg id="a" xmlns="http://www.w3.org/2000/svg" xmlns:xlink="http://www.w3.org/1999/xlink" viewBox="0 0 50 50"><defs><style>.c{stroke:url(#b);}.c,.d{fill:none;stroke-linecap:round;stroke-linejoin:round;stroke-width:1.5px;}.e{fill:#252526;stroke-miterlimit:10;stroke-width:.25px;}.e,.d{stroke:#252526;}</style><linearGradient id="b" x1="18.401" y1="14.8136" x2="38.9407" y2="50.3895" gradientTransform="matrix(1, 0, 0, 1, 0, 0)" gradientUnits="userSpaceOnUse"><stop offset="0" stop-color="#ff4800"/><stop offset=".5" stop-color="#da54d8"/><stop offset="1" stop-color="#0092f4"/></linearGradient></defs><path class="c" d="M13.6451,26.4934h-3.0542c-.8172,0-1.4797,.6625-1.4797,1.4797v16.2286c0,1.6729,1.0275,3.2256,2.6182,3.7435,2.7299,.8888,5.2502-1.1216,5.2502-3.7206m0-17.7312v18.1358m-3.9342,3.5296h27.2015c2.1738,.0012,3.9364-1.7607,3.9364-3.9342V13.7286c0-1.7143-1.3897-3.104-3.104-3.104h-13.9227"/><g><path class="e" d="M33.8949,34.2187c-.2586-.005-.4898-.1624-.5893-.4012l-2.4324-6.269-2.4324,6.269c-.133,.3171-.4931,.4723-.815,.3511-.3218-.1277-.4792-.4921-.3515-.8139l.0004-.001,2.9841-7.6357c.0103-.0852,.0404-.1667,.0878-.2382,.2283-.2874,.6463-.3353,.9337-.107,.0396,.0315,.0755,.0674,.107,.107,.0436,.0658,.0774,.1376,.1003,.2131l2.9841,7.6608c.1283,.3216-.0284,.6863-.35,.8146l-.001,.0004c-.0701,.0345-.1475,.0517-.2257,.0502Z"/><path class="e" d="M32.6035,31.6359h-3.448c-.3462,0-.6269-.2807-.6269-.6269s.2807-.6269,.6269-.6269h3.448c.3462,0,.6269,.2807,.6269,.6269-.0067,.3434-.2835,.6202-.6269,.6269Z"/><path class="e" d="M23.5134,34.2187c-.2052-.0059-.3957-.1081-.5141-.2758-.0507-.0615-.0852-.1348-.1003-.2131l-2.9966-7.6608c-.0516-.3494,.1897-.6744,.5391-.7261,.254-.0375,.5059,.0805,.6395,.2998l2.4324,6.269,2.4324-6.269c.133-.3171,.4931-.4723,.815-.3511,.3218,.1277,.4792,.4921,.3515,.8139l-.0004,.001-2.9841,7.6357c-.016,.0837-.0457,.1642-.0878,.2382-.1311,.1541-.3243,.2415-.5266,.2382Z"/><path class="e" d="M37.9573,34.2187c-.3462,0-.6269-.2807-.6269-.6269v-7.7485c0-.3462,.2807-.6269,.6269-.6269s.6269,.2807,.6269,.6269v7.7485c0,.3462-.2807,.6269-.6269,.6269Z"/><path class="e" d="M40.6404,26.4702h-5.3663c-.3462,0-.6269-.2807-.6269-.6269s.2807-.6269,.6269-.6269h5.3663c.3462,0,.6269,.2807,.6269,.6269s-.2807,.6269-.6269,.6269Z"/></g><path class="d" d="M14.5384,22.2958c-.6507,0-1.2368-.3851-1.4935-.9824l-.4896-1.1251c-.1356-.315-.362-.5757-.6539-.7535l-1.3468-.8157c-.2536-.1515-.5454-.2328-.8437-.2344l-.1683,.008-1.1626,.1124c-.0526,.0048-.1045,.0072-.1563,.0072-.5901,0-1.1355-.3198-1.4234-.8349l-.6371-1.1435c-.3022-.5367-.2767-1.1889,.067-1.7005l.6993-1.0661c.1834-.2707,.2775-.5801,.2759-.9003v-1.5701c0-.3656-.1252-.7252-.3525-1.0119l-.6858-.8656c-.4378-.5554-.4681-1.3225-.0766-1.9094l.732-1.1231c.3126-.4629,.8261-.736,1.3779-.736,.0758,0,.1531,.0052,.2297,.0159l1.0175,.1559c.0789,.012,.1595,.0179,.2392,.0179,.319,0,.6276-.0941,.8915-.2719l1.3404-.8983c.3054-.1902,.5367-.4681,.6642-.7906l.3644-.9589c.2257-.6359,.8389-1.0733,1.5214-1.0797h1.3843c.6515,.0159,1.2256,.4099,1.4712,1.0031l.492,1.0817c.1387,.2982,.3644,.5466,.6515,.7145l1.4449,.8863c.2552,.1595,.5462,.2428,.8437,.2428,.0502,0,.1013-.0024,.1523-.0072l1.1363-.1065c.0518-.0048,.1053-.0076,.1587-.0076,.5901,0,1.1339,.321,1.4202,.8373l.6634,1.116c.3118,.5538,.2823,1.2132-.0718,1.7292l-.6682,.9796c-.1898,.2731-.2887,.5909-.2887,.921v1.5677c-.0008,.3568,.118,.7101,.3333,.9948l.7057,.9597c.4178,.5434,.4442,1.3018,.0614,1.8799l-.7512,1.1419c-.2966,.476-.8165,.7647-1.3867,.7647-.0901,0-.1802-.0072-.2703-.0223l-1.031-.1547c-.0789-.0112-.1595-.0175-.2392-.0175-.3054,0-.6044,.0853-.8644,.2472l-1.3237,.8173c-.2942,.1962-.5271,.5016-.6435,.8508l-.3285,.9441c-.2344,.6531-.854,1.0901-1.5446,1.0908h-1.4377Zm.554-13.8995c-2.0283,0-3.6725,1.6442-3.6725,3.6725s1.6442,3.6725,3.6725,3.6725,3.6725-1.6442,3.6725-3.6725-1.6442-3.6725-3.6725-3.6725Z"/></svg>