<?xml version="1.0" encoding="UTF-8"?><svg id="shape" xmlns="http://www.w3.org/2000/svg" xmlns:xlink="http://www.w3.org/1999/xlink" viewBox="0 0 50 50"><defs><style>.cls-1{fill:#313131;}.cls-2{fill:url(#Orange-Purple-Blue);}</style><linearGradient id="Orange-Purple-Blue" x1="14.1011" y1="8.5903" x2="33.0631" y2="41.4334" gradientUnits="userSpaceOnUse"><stop offset="0" stop-color="#ff4800"/><stop offset=".5" stop-color="#da54d8"/><stop offset="1" stop-color="#0092f4"/></linearGradient></defs><g><path class="cls-1" d="m35.8413,41.2875h-.0107c-.6924-.0039-1.3398-.2764-1.8262-.7666l-4.3867-4.3994c-.1377-.1367-.2744-.2725-.4102-.4102-2.3916,1.1836-5.1533,1.2676-7.4922.2061-3.0557-1.3838-5.0977-4.5645-5.082-7.9131.0137-2.6973,1.2617-5.1875,3.4248-6.832,1.5205-1.1553,3.3223-1.7646,5.2129-1.7646h.043c1.4795.0068,2.9434.4014,4.2334,1.1396.5312.3047,1.042.6768,1.5176,1.1074,2.5049,2.2734,3.457,5.8125,2.4268,9.0166-.1553.4844-.3555.96-.5947,1.4111.1602.168.3184.3232.4775.4785l2.4033,2.4082c.8174.8184,1.6182,1.6211,1.9043,1.9102,1.002,1.0137.9941,2.6543-.0176,3.6582-.4893.4844-1.1367.75-1.8232.75Zm-6.4854-7.2549c.2041,0,.4053.083.5508.2412.2471.2666.5068.5244.7666.7822l4.3945,4.4072c.2061.208.4795.3223.7705.3242h.0039c.2881,0,.5605-.1123.7666-.3154.4248-.4219.4277-1.1113.0059-1.5381h-.001c-.2852-.2891-1.083-1.0898-1.8975-1.9053l-2.3926-2.3965c-.2422-.2383-.4854-.4775-.7129-.7275-.5576-.6162-.2666-1.123-.126-1.3672l.0596-.1064c.2109-.3896.3848-.7988.5195-1.2178.8506-2.6465.0625-5.5693-2.0068-7.4473-.3945-.3574-.8174-.666-1.2539-.916-1.0664-.6104-2.2764-.9365-3.4971-.9424h-.0352c-1.5605,0-3.0479.5039-4.3047,1.459-1.7891,1.3604-2.8223,3.417-2.833,5.6455-.0127,2.7666,1.6748,5.3945,4.2012,6.5391,2.0723.9404,4.5576.7861,6.6475-.4189.1172-.0674.2461-.0996.374-.0996Z"/><path class="cls-1" d="m29.3598,35.5375c-.2549,0-.5029-.1289-.6436-.3633-.2139-.3545-.0996-.8154.2559-1.0293.4785-.2881.9229-.6338,1.3203-1.0283.4287-.4248.7979-.8984,1.0996-1.4072.2119-.3555.6689-.4727,1.0283-.2627.3564.2119.4736.6719.2627,1.0283-.3672.6182-.8154,1.1924-1.334,1.7061-.4834.4795-1.0225.8994-1.6035,1.249-.1211.0732-.2539.1074-.3857.1074Z"/></g><path class="cls-2" d="m25.0082,41.0931c-8.9971,0-17.6543-3.8057-23.751-10.4404-1.3525-1.4736-1.3525-3.6943.001-5.166,6.0957-6.6357,14.752-10.4414,23.75-10.4414s17.6553,3.8057,23.752,10.4414c1.3057,1.4229,1.3164,3.7285.0225,5.1396-2.2734,2.4805-4.9033,4.5811-7.8154,6.2432-.3604.2051-.8184.0791-1.0234-.2793-.2051-.3604-.0801-.8184.2793-1.0234,2.7773-1.585,5.2852-3.5889,7.4541-5.9541.7676-.8369.7578-2.2617-.0225-3.1113-5.8125-6.3271-14.0674-9.9561-22.6465-9.9561s-16.833,3.6289-22.6455,9.957c-.8223.8936-.8223,2.2412,0,3.1348,5.8125,6.3271,14.0674,9.9561,22.6455,9.9561,1.4004,0,2.8135-.0957,4.1982-.2842.4287-.0615.79.2324.8447.6416.0557.4111-.2314.7891-.6416.8447-1.4521.1973-2.9336.2979-4.4014.2979Zm-15.75-24.625c-.2871,0-.5605-.166-.6855-.4453l-1.2275-2.7568c-.168-.3779.002-.8213.3809-.9902.375-.167.8203.002.9902.3809l1.2275,2.7568c.168.3779-.002.8213-.3809.9902-.0986.0439-.2021.0645-.3047.0645Zm30.7783-.3203c-.1025,0-.2061-.0205-.3047-.0645-.3789-.1689-.5488-.6123-.3809-.9902l1.2275-2.7559c.1689-.3789.6172-.5479.9902-.3809.3789.1689.5488.6123.3809.9902l-1.2275,2.7559c-.125.2793-.3984.4453-.6855.4453Zm-22.9316-2.0273c-.3467,0-.6582-.2412-.7324-.5938l-.627-2.9512c-.0859-.4053.1729-.8037.5771-.8896.4014-.0918.8037.1719.8896.5771l.627,2.9512c.0859.4053-.1729.8037-.5771.8896-.0527.0117-.1055.0166-.1572.0166Zm15.085-.1064c-.0518,0-.1045-.0049-.1572-.0166-.4043-.0859-.6631-.4844-.5771-.8896l.627-2.9512c.085-.4053.4814-.667.8896-.5771.4043.0859.6631.4844.5771.8896l-.627,2.9512c-.0742.3525-.3857.5938-.7324.5938Zm-7.542-.7842c-.4141,0-.75-.3359-.75-.75v-3.0176c0-.4141.3359-.75.75-.75s.75.3359.75.75v3.0176c0,.4141-.3359.75-.75.75Z"/></svg>