<?xml version="1.0" encoding="UTF-8"?><svg id="a" xmlns="http://www.w3.org/2000/svg" xmlns:xlink="http://www.w3.org/1999/xlink" viewBox="0 0 50 50"><defs><style>.e{fill:url(#c);}.f{stroke-miterlimit:10;}.f,.g,.h{fill:none;stroke-width:1.5px;}.f,.h{stroke:#fff;}.g{stroke:url(#b);}.g,.h{stroke-linecap:round;stroke-linejoin:round;}</style><linearGradient id="b" x1="6.5949" y1="5.33" x2="23.5819" y2="34.7524" gradientTransform="matrix(1, 0, 0, 1, 0, 0)" gradientUnits="userSpaceOnUse"><stop offset="0" stop-color="#dfd902"/><stop offset=".5005" stop-color="#ff4800"/><stop offset=".9979" stop-color="#da54d8"/></linearGradient><linearGradient id="c" x1="12.3137" y1="18.6225" x2="18.8379" y2="29.9228" gradientTransform="matrix(1, 0, 0, 1, 0, 0)" gradientUnits="userSpaceOnUse"><stop offset="0" stop-color="#ed9c01"/><stop offset=".0097" stop-color="#ed9900"/><stop offset=".2298" stop-color="#f66d00"/><stop offset=".4007" stop-color="#fc5200"/><stop offset=".5005" stop-color="#ff4800"/><stop offset="1" stop-color="#da54d8"/></linearGradient></defs><g><g><path class="h" d="M24.2731,31.92h23.0366c.5193,0,.9403,.421,.9403,.9403v11.8206c0,.5193-.421,.9403-.9403,.9403H27.6984"/><circle class="f" cx="35.6907" cy="38.7706" r="3.4253"/></g><line class="h" x1="20.8478" y1="36.4871" x2="26.5566" y2="36.4871"/><line class="h" x1="23.1313" y1="41.0541" x2="28.8401" y2="41.0541"/></g><g><path class="g" d="M24.5852,4.3789v3.4253m6.8505,6.8505H1.75M9.7423,4.3789v3.4253M31.4357,28.3558V11.9961c0-2.3152-1.8768-4.192-4.192-4.192H5.942c-2.3152,0-4.192,1.8768-4.192,4.192v21.3017c0,2.3152,1.8768,4.192,4.192,4.192h11.3986"/><path id="d" class="e" d="M15.0458,21.4921v1.5546c0,.3512,.2847,.636,.636,.636h1.5546c.3512,0,.636-.2847,.636-.636v-1.5546c0-.3512-.2847-.636-.636-.636h-1.5546c-.3512,0-.636,.2847-.636,.636Zm7.0663,0v1.5546c0,.3512,.2847,.636,.636,.636h1.5546c.3512,0,.636-.2847,.636-.636v-1.5546c0-.3512-.2847-.636-.636-.636h-1.5546c-.3512,0-.636,.2847-.636,.636Zm-14.1325,0v1.5546c0,.3512,.2847,.636,.636,.636h1.5546c.3512,0,.636-.2847,.636-.636v-1.5546c0-.3512-.2847-.636-.636-.636h-1.5546c-.3512,0-.636,.2847-.636,.636Zm7.0663,7.0663v1.5546c0,.3512,.2847,.636,.636,.636h1.5546c.3512,0,.636-.2847,.636-.636v-1.5546c0-.3512-.2847-.636-.636-.636h-1.5546c-.3512,0-.636,.2847-.636,.636Zm-7.0663,0v1.5546c0,.3512,.2847,.636,.636,.636h1.5546c.3512,0,.636-.2847,.636-.636v-1.5546c0-.3512-.2847-.636-.636-.636h-1.5546c-.3512,0-.636,.2847-.636,.636Z"/></g></svg>