<?xml version="1.0" encoding="UTF-8"?><svg id="a" xmlns="http://www.w3.org/2000/svg" xmlns:xlink="http://www.w3.org/1999/xlink" viewBox="0 0 50 50"><defs><style>.c{fill:none;stroke:url(#b);stroke-linecap:round;stroke-linejoin:round;stroke-width:1.5px;}.d{fill:#252526;stroke:#252526;stroke-miterlimit:10;stroke-width:.25px;}</style><linearGradient id="b" x1="14.6377" y1="6.5466" x2="35.8" y2="43.2007" gradientTransform="matrix(1, 0, 0, 1, 0, 0)" gradientUnits="userSpaceOnUse"><stop offset="0" stop-color="#ff4800"/><stop offset=".5" stop-color="#da54d8"/><stop offset="1" stop-color="#0092f4"/></linearGradient></defs><path class="d" d="M21.1988,10.7167c-.3151,0-.5707,.2567-.5707,.5718s.2556,.5707,.5707,.5707h.6074v.4779c0,1.7213,1.4004,3.1216,3.1205,3.1216h2.1636c.3151,0,.5707-.2567,.5707-.5718s-.2556-.5707-.5707-.5707h-2.1636c-1.091,0-1.978-.8881-1.978-1.9791v-.4779h1.7854c.3151,0,.5707-.2556,.5707-.5707s-.2556-.5718-.5707-.5718h-1.7854v-.3484c0-1.091,.887-1.978,1.978-1.978h2.1636c.3151,0,.5707-.2567,.5707-.5718s-.2556-.5707-.5707-.5707h-2.1636c-1.7201,0-3.1205,1.4004-3.1205,3.1205v.3484h-.6074Z"/><g><path class="d" d="M23.0748,40.2068c-.3438,0-.6234,.2796-.6234,.6223v.4045c0,1.0119,.9271,1.8347,2.0673,1.8347h.9626c1.1402,0,2.0673-.8228,2.0673-1.8347v-.6624c0-.8217-.5512-1.5952-1.3087-1.8404h-.0011l-2.096-.6819c-.2624-.0837-.4458-.33-.4458-.6005v-.6635c0-.2842,.33-.589,.8217-.589h.9626c.4916,0,.8217,.3048,.8217,.589v.4045c0,.3438,.2796,.6234,.6223,.6234,.3438,0,.6234-.2796,.6234-.6234v-.4045c0-1.0119-.9271-1.8347-2.0673-1.8347h-.9626c-1.1402,0-2.0673,.8228-2.0673,1.8347v.6635c0,.8148,.526,1.5322,1.3087,1.7854l2.0971,.6819c.2498,.0814,.4458,.369,.4458,.6555v.6624c0,.2853-.33,.5902-.8217,.5902h-.9626c-.4916,0-.8217-.3048-.8217-.5902v-.4045c0-.3426-.2796-.6223-.6223-.6223Z"/><path class="d" d="M25.0005,33.3629c-.3277,0-.5936,.2659-.5936,.5925v1.6181c0,.3266,.2659,.5925,.5936,.5925,.3266,0,.5925-.2659,.5925-.5925v-1.6181c0-.3266-.2659-.5925-.5925-.5925Z"/><path class="d" d="M25.0005,41.8535c-.3277,0-.5936,.2659-.5936,.5925v1.6181c0,.3266,.2659,.5925,.5936,.5925,.3266,0,.5925-.2659,.5925-.5925v-1.6181c0-.3266-.2659-.5925-.5925-.5925Z"/></g><path class="d" d="M8.2367,25.3862c-.322,0-.5833,.2613-.5833,.5822,0,.322,.2613,.5833,.5833,.5833h1.523v1.9447c0,.3209,.2613,.5822,.5822,.5822,.322,0,.5833-.2613,.5833-.5822v-1.9447h1.523c.3209,0,.5822-.2613,.5822-.5833,0-.3209-.2613-.5822-.5822-.5822h-1.523v-.9019l2.8248-3.6327c.0951-.1226,.1375-.275,.118-.4286-.0195-.1547-.0974-.2922-.2212-.3885s-.2762-.1398-.4297-.118c-.1547,.0195-.2922,.0974-.3873,.22l-2.4879,3.1996-2.4868-3.1984c-.0951-.1238-.2326-.2017-.3873-.2212-.1536-.0229-.3071,.0218-.4297,.118-.1238,.0963-.2017,.2338-.2212,.3885-.0195,.1536,.0229,.306,.118,.4286l2.8248,3.6327v.9019h-1.523Z"/><path class="d" d="M37.0251,24.364c-.3094,0-.5615,.2521-.5615,.5615s.2521,.5604,.5615,.5604h1.1483l-.0344,.1753c-.1983,.9913-1.2846,1.884-1.8313,2.2163-.2624,.1581-.3495,.4996-.1948,.7621,.1478,.2578,.4996,.3553,.7575,.2086,.6177-.3461,1.8026-.7953,2.363-.5088,.7254,.3954,1.9344,1.0532,3.3027-.0859,.1146-.0963,.1856-.2303,.1994-.3805,.0138-.149-.0321-.2945-.1283-.4103s-.2315-.1868-.3805-.1994c-.1467-.016-.2945,.0332-.4103,.1283h0c-.7414,.62-1.2846,.3747-2.1109-.0733-.2154-.1077-.4664-.1719-.7437-.1902l-.2384-.016,.1215-.2051c.2452-.4137,.3919-.8469,.4378-1.2892l.0126-.1318h2.0215c.3094,0,.5615-.251,.5615-.5604s-.2521-.5615-.5615-.5615h-2.2312l-.0401-.0825c-.0539-.1112-.11-.2177-.165-.3174-.2154-.3954-.4355-.801-.4355-1.6147,0-.534,.5054-1.1551,1.1563-1.1551h.8572c.6372,0,1.1563,.518,1.1563,1.1551,0,.3094,.2521,.5615,.5615,.5615s.5615-.2521,.5615-.5615c0-1.256-1.0222-2.2771-2.2793-2.2771h-.8572c-1.2147,0-2.2793,1.0646-2.2793,2.2771,0,.8824,.2097,1.4279,.3919,1.8038l.102,.2109h-.7907Z"/><path class="c" d="M33.5924,11.3533c0,4.7454-3.8469,8.5924-8.5924,8.5924s-8.5924-3.8469-8.5924-8.5924S20.2546,2.7609,25,2.7609s8.5924,3.8469,8.5924,8.5924Zm-8.5924,18.7011c-4.7454,0-8.5924,3.8469-8.5924,8.5924s3.8469,8.5924,8.5924,8.5924,8.5924-3.8469,8.5924-8.5924-3.8469-8.5924-8.5924-8.5924ZM10.3424,15.9022c-4.7454,0-8.5924,3.8469-8.5924,8.5924s3.8469,8.5924,8.5924,8.5924,8.5924-3.8469,8.5924-8.5924-3.8469-8.5924-8.5924-8.5924Zm29.3152,0c-4.7454,0-8.5924,3.8469-8.5924,8.5924s3.8469,8.5924,8.5924,8.5924,8.5924-3.8469,8.5924-8.5924-3.8469-8.5924-8.5924-8.5924Z"/></svg>