<?xml version="1.0" encoding="UTF-8"?><svg id="shape" xmlns="http://www.w3.org/2000/svg" xmlns:xlink="http://www.w3.org/1999/xlink" viewBox="0 0 50 50"><defs><style>.cls-1{fill:#fff;}.cls-2{fill:url(#Degradado_sin_nombre_50);}</style><linearGradient id="Degradado_sin_nombre_50" x1="11.2942" y1="5.5836" x2="31.1798" y2="40.0264" gradientUnits="userSpaceOnUse"><stop offset="0" stop-color="#da54d8"/><stop offset=".5049" stop-color="#0092f4"/><stop offset=".9972" stop-color="#20dc86"/></linearGradient></defs><path class="cls-1" d="m31.7066,47.1818c-.4678,0-.9326-.1465-1.3301-.4355-.7041-.5107-1.0508-1.3613-.9033-2.2188l.8262-4.8164c.043-.249-.04-.5039-.2207-.6807l-3.5-3.4111c-.623-.6064-.8428-1.4971-.5742-2.3252.2686-.8271.9707-1.4189,1.832-1.5439l4.835-.7031c.251-.0361.4678-.1934.5791-.4199l2.1631-4.3828c.3848-.7793,1.1641-1.2646,2.0332-1.2646h.001c.8701,0,1.6494.4844,2.0352,1.2646l2.1631,4.3818c.1113.2275.3281.3848.5781.4209l4.8359.7031c.8604.125,1.5625.7158,1.8311,1.543.2695.8281.0498,1.7188-.5732,2.3262l-3.5,3.4111c-.1807.1768-.2637.4307-.2207.6807l.8262,4.8164c.1475.8574-.1992,1.707-.9023,2.2188-.7041.5107-1.6201.5771-2.3896.1729l-4.3252-2.2744c-.2256-.1172-.4922-.1172-.7158,0l-4.3262,2.2744c-.334.1758-.6963.2627-1.0576.2627Zm5.7422-4.126c.3623,0,.7246.0869,1.0547.2607l4.3252,2.2744c.2686.1406.5703.1182.8105-.0586.2422-.1758.3564-.4561.3057-.751l-.8262-4.8164c-.127-.7354.1172-1.4863.6523-2.0088l3.5-3.4111c.2139-.209.2861-.5029.1934-.7881-.0918-.2842-.3242-.4795-.6191-.5225l-4.8369-.7031c-.7402-.1084-1.3779-.5723-1.708-1.2422l-2.1631-4.3809c-.1318-.2686-.3896-.4287-.6895-.4287h0c-.2988,0-.5566.1602-.6885.4287l-2.1631,4.3818c-.3301.6689-.9678,1.1328-1.708,1.2412l-4.8359.7031c-.2969.043-.5283.2383-.6211.5234-.0928.2842-.0195.5781.1943.7871l3.5,3.4111c.5342.5205.7783,1.2715.6523,2.0078l-.8262,4.8174c-.0508.2949.0635.5752.3057.751.2422.1768.5439.1982.8086.0586l4.3271-2.2744h0c.3301-.1738.6924-.2607,1.0557-.2607Z"/><path class="cls-2" d="m21.5992,44.0236C10.2388,44.0236.9956,34.7804.9956,23.4201S10.2388,2.8165,21.5992,2.8165c10.6777,0,19.7002,8.3291,20.5391,18.9629l.0254.3682c.0273.4131-.2861.7705-.6992.7969-.4072.0225-.7705-.2861-.7969-.6992l-.0244-.3457c-.7783-9.8604-9.1436-17.583-19.0439-17.583C11.065,4.3165,2.4956,12.8859,2.4956,23.4201c0,5.1836,2.0752,9.8916,5.4395,13.3369,1.5205-6.2578,7.1494-10.7236,13.6641-10.7236,1.8418,0,3.6338.3516,5.3271,1.0439.3828.1572.5664.5947.4102.9785-.1582.3838-.5977.5674-.9785.4102-1.5117-.6191-3.1123-.9326-4.7588-.9326-6.0479,0-11.2412,4.3076-12.3496,10.2432-.0107.0576-.0283.1133-.0508.1641,3.3398,2.8564,7.6719,4.583,12.4004,4.583.9014,0,1.8066-.0635,2.6904-.1875.4053-.0605.7891.2275.8467.6377.0586.4102-.2275.7891-.6377.8467-.9521.1348-1.9277.2031-2.8994.2031Zm0-21.0801c-3.7969,0-6.8867-3.0898-6.8867-6.8867s3.0898-6.8867,6.8867-6.8867,6.8867,3.0898,6.8867,6.8867-3.0898,6.8867-6.8867,6.8867Zm0-12.2734c-2.9707,0-5.3867,2.416-5.3867,5.3867s2.416,5.3867,5.3867,5.3867,5.3867-2.416,5.3867-5.3867-2.416-5.3867-5.3867-5.3867Z"/></svg>