<?xml version="1.0" encoding="UTF-8"?><svg id="a" xmlns="http://www.w3.org/2000/svg" xmlns:xlink="http://www.w3.org/1999/xlink" viewBox="0 0 50 50"><defs><style>.c{stroke:url(#b);}.c,.d{fill:none;stroke-linecap:round;stroke-linejoin:round;stroke-width:1.5px;}.d{stroke:#fff;}</style><linearGradient id="b" x1="10.9866" y1="-2.0084" x2="29.5371" y2="30.122" gradientTransform="matrix(1, 0, 0, 1, 0, 0)" gradientUnits="userSpaceOnUse"><stop offset="0" stop-color="#da54d8"/><stop offset=".4975" stop-color="#0092f4"/><stop offset="1" stop-color="#20dc86"/></linearGradient></defs><g><rect class="d" x="21.0551" y="30.2177" width="26.9115" height="17.941" rx="2.0253" ry="2.0253"/><line class="d" x1="21.0551" y1="35.6" x2="47.9666" y2="35.6"/><line class="d" x1="24.6433" y1="42.7764" x2="33.6138" y2="42.7764"/></g><path class="c" d="M27.1329,1.8413H14.5298v7.9032c0,2.7005,1.6779,5.2168,4.2665,5.9866,4.3446,1.2921,8.3367-1.745,8.3367-5.6649V1.8413Zm-11.0278,0H6.6162C2.3996,1.8413,2.0334,10.0661,2.0334,10.0661c0,4.3796,2.8994,5.9668,6.1948,5.9668s6.3016-3.018,6.3016-6.3134m12.6014,.0018c0,3.2954,3.0163,6.3116,6.3116,6.3116s5.9668-2.6714,5.9668-5.9668c0,0-.3662-8.2248-4.5828-8.2248h-7.6939m-1.5754,23.2689l.0468-1.2504c0-.8489-.6277-1.5371-1.4021-1.5371h-5.1197c-.7743,0-1.4021,.6882-1.4021,1.5371l-.0468,1.2504m18.9516,.0766v-4.3145m-29.9325,0v9.4041c0,1.6978,1.3764,3.0742,3.0742,3.0742h6.2546"/></svg>