<?xml version="1.0" encoding="UTF-8"?><svg id="a" xmlns="http://www.w3.org/2000/svg" xmlns:xlink="http://www.w3.org/1999/xlink" viewBox="0 0 50 50"><defs><style>.c{stroke-miterlimit:10;}.c,.d,.e{fill:none;stroke-width:1.5px;}.c,.e{stroke:#fff;}.d{stroke:url(#b);}.d,.e{stroke-linecap:round;stroke-linejoin:round;}</style><linearGradient id="b" x1="8.5528" y1="8.1509" x2="27.8956" y2="41.6535" gradientTransform="matrix(1, 0, 0, 1, 0, 0)" gradientUnits="userSpaceOnUse"><stop offset="0" stop-color="#da54d8"/><stop offset=".5049" stop-color="#0092f4"/><stop offset=".9972" stop-color="#20dc86"/></linearGradient></defs><path class="d" d="M24.8932,42.5209H5.423m29.0702-16.0698V10.377c0-1.6004-1.2974-2.8978-2.8978-2.8978H11.9938c-1.6004,0-2.8978,1.2974-2.8978,2.8978v28.8487m-3.113-16.9315H3.1315c-.763,0-1.3815,.6185-1.3815,1.3815v15.1509c0,1.5618,.9593,3.0114,2.4444,3.4949,2.5487,.8298,4.9016-1.0471,4.9016-3.4735m5.2911-16.5537h14.8151m-14.8151-6.3493h14.8151"/><g><g><path class="e" d="M26.0274,29.7017h21.3511c.4813,0,.8715,.3902,.8715,.8715v10.9557c0,.4813-.3902,.8715-.8715,.8715H29.2021"/><circle class="c" cx="36.6096" cy="36.051" r="3.1747"/></g><line class="e" x1="22.8528" y1="33.9346" x2="28.1439" y2="33.9346"/><line class="e" x1="24.9692" y1="38.1675" x2="30.2603" y2="38.1675"/></g></svg>