<?xml version="1.0" encoding="UTF-8"?><svg id="a" xmlns="http://www.w3.org/2000/svg" xmlns:xlink="http://www.w3.org/1999/xlink" viewBox="0 0 50 50"><defs><style>.c{stroke-miterlimit:10;}.c,.d,.e{fill:none;stroke-width:1.5px;}.c,.e{stroke:#252526;}.d{stroke:url(#b);}.d,.e{stroke-linecap:round;stroke-linejoin:round;}</style><linearGradient id="b" x1="7.5849" y1="3.1152" x2="33.0309" y2="47.189" gradientTransform="matrix(1, 0, 0, 1, 0, 0)" gradientUnits="userSpaceOnUse"><stop offset="0" stop-color="#ff4800"/><stop offset=".5005" stop-color="#d854d6"/><stop offset=".9951" stop-color="#0090f2"/></linearGradient></defs><path class="d" d="M7.2857,40.5h26.5714m0-2.2143v4.2737c0,3.1428-2.5477,5.6905-5.6905,5.6905H12.9763c-3.1428,0-5.6905-2.5477-5.6905-5.6905V7.4405c0-3.1428,2.5477-5.6905,5.6905-5.6905h15.1714c1.1603,0,2.2397,.3428,3.1407,.9316"/><g><path class="e" d="M14.1109,11.7251c0-1.8403,1.6363-3.3322,3.6549-3.3322h1.6985"/><line class="e" x1="13.9286" y1="23.8929" x2="13.9286" y2="17.25"/><path class="e" d="M19.4643,32.75h-1.6985c-2.0185,0-3.6549-1.4919-3.6549-3.3322"/><circle class="c" cx="14.4821" cy="14.4821" r="2.7679"/><circle class="c" cx="14.4821" cy="26.6607" r="2.7679"/><line class="e" x1="13.9286" y1="20.5714" x2="19.4643" y2="20.5714"/><rect class="e" x="19.4643" y="6.1786" width="23.25" height="4.4286" rx="2.2143" ry="2.2143"/><rect class="e" x="19.4643" y="18.3571" width="23.25" height="4.4286" rx="2.2143" ry="2.2143"/><rect class="e" x="19.4643" y="30.5357" width="23.25" height="4.4286" rx="2.2143" ry="2.2143"/></g></svg>