<?xml version="1.0" encoding="UTF-8"?><svg id="a" xmlns="http://www.w3.org/2000/svg" xmlns:xlink="http://www.w3.org/1999/xlink" viewBox="0 0 50 50"><defs><style>.c{stroke-miterlimit:10;}.c,.d,.e{fill:none;stroke-width:1.5px;}.c,.e{stroke:#fff;}.d{stroke:url(#b);}.d,.e{stroke-linecap:round;stroke-linejoin:round;}</style><linearGradient id="b" x1="8.6815" y1="6.2362" x2="27.9947" y2="39.6876" gradientTransform="matrix(1, 0, 0, 1, 0, 0)" gradientUnits="userSpaceOnUse"><stop offset="0" stop-color="#da54d8"/><stop offset=".5049" stop-color="#0092f4"/><stop offset=".9972" stop-color="#20dc86"/></linearGradient></defs><g><path class="e" d="M43.0724,37.0671l4.75,4.8695c.5702,.5771,.5702,1.5128,0,2.0899h0c-.5702,.5771-1.4946,.5771-2.0648,0l-4.6246-4.798"/><circle class="c" cx="35.7833" cy="32.4729" r="8.6175"/></g><path class="d" d="M23.8569,41.2105H5.4888m29.5912-20.5892V8.4905c0-1.6291-1.3207-2.9498-2.9498-2.9498H12.1774c-1.6291,0-2.9498,1.3207-2.9498,2.9498v29.3658m-3.1688-17.235H3.1562c-.7766,0-1.4062,.6296-1.4062,1.4062v15.4225c0,1.5898,.9765,3.0654,2.4882,3.5576,2.5943,.8447,4.9894-1.0659,4.9894-3.5358m5.3859-16.8504h15.0806m-15.0806-6.4631h15.0806"/></svg>