<?xml version="1.0" encoding="utf-8"?><svg width="150" height="60" viewBox="0 0 150 60" fill="none" xmlns="http://www.w3.org/2000/svg">
<mask id="mask0_8350_143103" style="mask-type:alpha" maskUnits="userSpaceOnUse" x="0" y="5" width="150" height="50">
<rect y="5" width="150" height="50" fill="#D9D9D9"/>
</mask>
<g mask="url(#mask0_8350_143103)">
</g>
<path d="M91.0808 21.1196C86.2908 21.1426 82.3888 25.0796 82.4108 29.9816C82.4328 34.8836 86.3738 38.7836 91.1638 38.7616C95.9538 38.7396 99.8568 34.8016 99.8338 29.9016C99.8108 25.0016 95.8708 21.0986 91.0788 21.1216L91.0808 21.1196ZM91.1468 35.1666C89.7888 35.1746 88.4838 34.6416 87.5188 33.6866C86.5538 32.7316 86.0188 31.4306 86.0038 30.0726C85.9888 28.7146 86.5288 27.4096 87.4838 26.4446C88.4388 25.4796 89.7398 24.9446 91.0978 24.9296C92.4558 24.9146 93.7608 25.4546 94.7258 26.4096C95.6908 27.3646 96.2258 28.6656 96.2408 30.0236C96.2548 32.7486 93.8708 35.1526 91.1468 35.1666ZM110.487 25.2746C107.982 25.2866 106.031 27.3646 106.043 29.8696L106.083 38.2546L102.271 38.2726L102.194 21.6096L106.006 21.5916L106.019 24.2046C106.019 24.2046 107.639 21.5846 110.907 21.5696L111.997 21.5636L112.015 25.2656L110.487 25.2746ZM72.4608 21.7516L75.3468 33.1736L78.3428 21.7236L82.1548 21.7066L77.4388 38.4016L73.7368 38.4186L70.7428 26.7806L67.8568 38.4456L64.1538 38.4626L59.1758 21.8226L62.8778 21.8056L66.1978 33.2256L68.8678 21.7776L72.4608 21.7516ZM123.136 29.1376C125.741 27.6016 127.581 24.7606 127.566 21.4936L123.754 21.5116C123.768 24.3436 121.49 26.6416 118.768 26.6516L118.223 26.6536L118.163 13.4766L114.351 13.4946L114.468 38.2146L118.278 38.1976L118.242 30.3576L118.677 30.3556C119.113 30.3536 119.55 30.5696 119.661 30.8956L125.031 38.1656L129.496 38.1456L123.136 29.1376Z" fill="#4B4B4B"/>
<path d="M50.3539 21.3116C46.2169 21.3316 43.0709 24.0686 41.8939 28.4296C39.9189 25.3896 38.3779 21.9126 37.4939 18.9766L33.1389 18.9966L33.1929 30.5396C33.1977 31.637 32.7665 32.6915 31.9941 33.4712C31.2218 34.2509 30.1714 34.692 29.0739 34.6976C27.9764 34.7023 26.9219 34.2712 26.1423 33.4988C25.3626 32.7264 24.9215 31.676 24.9159 30.5786L24.8609 19.0356L20.5039 19.0556L20.5579 30.5986C20.5809 35.3886 24.4079 39.1846 29.0919 39.1616C33.7759 39.1386 37.5699 35.3096 37.5479 30.5186L37.5379 28.5586C38.4159 30.2956 39.5139 32.1416 40.7209 33.7706L38.0579 46.5236L42.5219 46.5036L44.4419 37.2376C46.1889 38.3196 48.1419 38.9626 50.4379 38.9516C55.2299 38.9286 59.1329 34.9916 59.1079 29.9816C59.0897 27.6733 58.159 25.466 56.5191 23.8414C54.8792 22.2169 52.6632 21.3071 50.3549 21.3106L50.3539 21.3116ZM50.4159 34.4886C48.6739 34.4966 46.9289 33.7426 45.5079 32.5506L45.9349 30.8076V30.7076C46.2549 28.8536 47.2169 25.6916 50.4849 25.6776C51.6372 25.6757 52.7436 26.1289 53.5633 26.9387C54.3831 27.7485 54.8498 28.8493 54.8619 30.0016C54.7639 32.5066 52.7049 34.4766 50.4169 34.4876L50.4159 34.4886Z" fill="#6FDA44"/>
</svg>
